  0
SECTION
  2
HEADER
  9
$ACADVER
  1
AC1027
  9
$ACADMAINTVER
 70
105
  9
$DWGCODEPAGE
  3
ANSI_1252
  9
$LASTSAVEDBY
  1
ezdxf
  9
$REQUIREDVERSIONS
160
0
  9
$INSBASE
 10
0.0
 20
0.0
 30
0.0
  9
$EXTMIN
 10
1e+20
 20
1e+20
 30
1e+20
  9
$EXTMAX
 10
-1e+20
 20
-1e+20
 30
-1e+20
  9
$LIMMIN
 10
0.0
 20
0.0
  9
$LIMMAX
 10
420.0
 20
297.0
  9
$ORTHOMODE
 70
0
  9
$REGENMODE
 70
1
  9
$FILLMODE
 70
1
  9
$QTEXTMODE
 70
0
  9
$MIRRTEXT
 70
1
  9
$LTSCALE
 40
1.0
  9
$ATTMODE
 70
1
  9
$TEXTSIZE
 40
2.5
  9
$TRACEWID
 40
1.0
  9
$TEXTSTYLE
  7
OpenSans
  9
$CLAYER
  8
0
  9
$CELTYPE
  6
ByLayer
  9
$CECOLOR
 62
256
  9
$CELTSCALE
 40
1.0
  9
$DISPSILH
 70
0
  9
$DIMSCALE
 40
1.0
  9
$DIMASZ
 40
0.175
  9
$DIMEXO
 40
0.125
  9
$DIMDLI
 40
3.75
  9
$DIMRND
 40
0.0
  9
$DIMDLE
 40
0.0
  9
$DIMEXE
 40
0.375
  9
$DIMTP
 40
0.0
  9
$DIMTM
 40
0.0
  9
$DIMTXT
 40
0.25
  9
$DIMCEN
 40
2.5
  9
$DIMTSZ
 40
0.0
  9
$DIMTOL
 70
0
  9
$DIMLIM
 70
0
  9
$DIMTIH
 70
0
  9
$DIMTOH
 70
0
  9
$DIMSE1
 70
0
  9
$DIMSE2
 70
0
  9
$DIMTAD
 70
1
  9
$DIMZIN
 70
12
  9
$DIMBLK
  1
ARCHTICK
  9
$DIMASO
 70
1
  9
$DIMSHO
 70
1
  9
$DIMPOST
  1

  9
$DIMAPOST
  1

  9
$DIMALT
 70
0
  9
$DIMALTD
 70
3
  9
$DIMALTF
 40
0.03937007874
  9
$DIMLFAC
 40
100.0
  9
$DIMTOFL
 70
1
  9
$DIMTVP
 40
0.0
  9
$DIMTIX
 70
0
  9
$DIMSOXD
 70
0
  9
$DIMSAH
 70
0
  9
$DIMBLK1
  1

  9
$DIMBLK2
  1

  9
$DIMSTYLE
  2
EZDXF
  9
$DIMCLRD
 70
0
  9
$DIMCLRE
 70
0
  9
$DIMCLRT
 70
0
  9
$DIMTFAC
 40
0.5
  9
$DIMGAP
 40
0.1
  9
$DIMJUST
 70
0
  9
$DIMSD1
 70
0
  9
$DIMSD2
 70
0
  9
$DIMTOLJ
 70
0
  9
$DIMTZIN
 70
8
  9
$DIMALTZ
 70
0
  9
$DIMALTTZ
 70
0
  9
$DIMUPT
 70
1
  9
$DIMDEC
 70
2
  9
$DIMTDEC
 70
2
  9
$DIMALTU
 70
2
  9
$DIMALTTD
 70
3
  9
$DIMTXSTY
  7
OpenSansCondensed-Light
  9
$DIMAUNIT
 70
0
  9
$DIMADEC
 70
2
  9
$DIMALTRND
 40
0.0
  9
$DIMAZIN
 70
3
  9
$DIMDSEP
 70
46
  9
$DIMATFIT
 70
3
  9
$DIMFRAC
 70
0
  9
$DIMLDRBLK
  1

  9
$DIMLUNIT
 70
2
  9
$DIMLWD
 70
-2
  9
$DIMLWE
 70
-2
  9
$DIMTMOVE
 70
2
  9
$DIMFXL
 40
1.0
  9
$DIMFXLON
 70
0
  9
$DIMJOGANG
 40
0.785398163397
  9
$DIMTFILL
 70
0
  9
$DIMTFILLCLR
 70
0
  9
$DIMARCSYM
 70
0
  9
$DIMLTYPE
  6

  9
$DIMLTEX1
  6

  9
$DIMLTEX2
  6

  9
$DIMTXTDIRECTION
 70
0
  9
$LUNITS
 70
2
  9
$LUPREC
 70
4
  9
$SKETCHINC
 40
1.0
  9
$FILLETRAD
 40
10.0
  9
$AUNITS
 70
0
  9
$AUPREC
 70
2
  9
$MENU
  1
.
  9
$ELEVATION
 40
0.0
  9
$PELEVATION
 40
0.0
  9
$THICKNESS
 40
0.0
  9
$LIMCHECK
 70
0
  9
$CHAMFERA
 40
0.0
  9
$CHAMFERB
 40
0.0
  9
$CHAMFERC
 40
0.0
  9
$CHAMFERD
 40
0.0
  9
$SKPOLY
 70
0
  9
$TDCREATE
 40
2461167.818275463
  9
$TDUCREATE
 40
2458532.153996898
  9
$TDUPDATE
 40
2461167.818275463
  9
$TDUUPDATE
 40
2458532.1544311
  9
$TDINDWG
 40
0.0
  9
$TDUSRTIMER
 40
0.0
  9
$USRTIMER
 70
1
  9
$ANGBASE
 50
0.0
  9
$ANGDIR
 70
0
  9
$PDMODE
 70
0
  9
$PDSIZE
 40
0.0
  9
$PLINEWID
 40
0.0
  9
$SPLFRAME
 70
0
  9
$SPLINETYPE
 70
6
  9
$SPLINESEGS
 70
8
  9
$HANDSEED
  5
268
  9
$SURFTAB1
 70
6
  9
$SURFTAB2
 70
6
  9
$SURFTYPE
 70
6
  9
$SURFU
 70
6
  9
$SURFV
 70
6
  9
$UCSBASE
  2

  9
$UCSNAME
  2

  9
$UCSORG
 10
0.0
 20
0.0
 30
0.0
  9
$UCSXDIR
 10
1.0
 20
0.0
 30
0.0
  9
$UCSYDIR
 10
0.0
 20
1.0
 30
0.0
  9
$UCSORTHOREF
  2

  9
$UCSORTHOVIEW
 70
0
  9
$UCSORGTOP
 10
0.0
 20
0.0
 30
0.0
  9
$UCSORGBOTTOM
 10
0.0
 20
0.0
 30
0.0
  9
$UCSORGLEFT
 10
0.0
 20
0.0
 30
0.0
  9
$UCSORGRIGHT
 10
0.0
 20
0.0
 30
0.0
  9
$UCSORGFRONT
 10
0.0
 20
0.0
 30
0.0
  9
$UCSORGBACK
 10
0.0
 20
0.0
 30
0.0
  9
$PUCSBASE
  2

  9
$PUCSNAME
  2

  9
$PUCSORG
 10
0.0
 20
0.0
 30
0.0
  9
$PUCSXDIR
 10
1.0
 20
0.0
 30
0.0
  9
$PUCSYDIR
 10
0.0
 20
1.0
 30
0.0
  9
$PUCSORTHOREF
  2

  9
$PUCSORTHOVIEW
 70
0
  9
$PUCSORGTOP
 10
0.0
 20
0.0
 30
0.0
  9
$PUCSORGBOTTOM
 10
0.0
 20
0.0
 30
0.0
  9
$PUCSORGLEFT
 10
0.0
 20
0.0
 30
0.0
  9
$PUCSORGRIGHT
 10
0.0
 20
0.0
 30
0.0
  9
$PUCSORGFRONT
 10
0.0
 20
0.0
 30
0.0
  9
$PUCSORGBACK
 10
0.0
 20
0.0
 30
0.0
  9
$USERI1
 70
0
  9
$USERI2
 70
0
  9
$USERI3
 70
0
  9
$USERI4
 70
0
  9
$USERI5
 70
0
  9
$USERR1
 40
0.0
  9
$USERR2
 40
0.0
  9
$USERR3
 40
0.0
  9
$USERR4
 40
0.0
  9
$USERR5
 40
0.0
  9
$WORLDVIEW
 70
1
  9
$SHADEDGE
 70
3
  9
$SHADEDIF
 70
70
  9
$TILEMODE
 70
1
  9
$MAXACTVP
 70
64
  9
$PINSBASE
 10
0.0
 20
0.0
 30
0.0
  9
$PLIMCHECK
 70
0
  9
$PEXTMIN
 10
1e+20
 20
1e+20
 30
1e+20
  9
$PEXTMAX
 10
-1e+20
 20
-1e+20
 30
-1e+20
  9
$PLIMMIN
 10
0.0
 20
0.0
  9
$PLIMMAX
 10
420.0
 20
297.0
  9
$UNITMODE
 70
0
  9
$VISRETAIN
 70
1
  9
$PLINEGEN
 70
0
  9
$PSLTSCALE
 70
1
  9
$TREEDEPTH
 70
3020
  9
$CMLSTYLE
  2
Standard
  9
$CMLJUST
 70
0
  9
$CMLSCALE
 40
20.0
  9
$PROXYGRAPHICS
 70
1
  9
$MEASUREMENT
 70
1
  9
$CELWEIGHT
370
-1
  9
$ENDCAPS
280
0
  9
$JOINSTYLE
280
0
  9
$LWDISPLAY
290
0
  9
$INSUNITS
 70
4
  9
$HYPERLINKBASE
  1

  9
$STYLESHEET
  1

  9
$XEDIT
290
1
  9
$CEPSNTYPE
380
0
  9
$PSTYLEMODE
290
1
  9
$FINGERPRINTGUID
  2
{33525BFD-B22D-4052-AF0A-83E5F208E371}
  9
$VERSIONGUID
  2
{D120448C-2193-4283-9E1D-0CF8D667D0DA}
  9
$EXTNAMES
290
1
  9
$PSVPSCALE
 40
0.0
  9
$OLESTARTUP
290
0
  9
$SORTENTS
280
127
  9
$INDEXCTL
280
0
  9
$HIDETEXT
280
1
  9
$XCLIPFRAME
280
1
  9
$HALOGAP
280
0
  9
$OBSCOLOR
 70
257
  9
$OBSLTYPE
280
0
  9
$INTERSECTIONDISPLAY
280
0
  9
$INTERSECTIONCOLOR
 70
257
  9
$DIMASSOC
280
2
  9
$PROJECTNAME
  1

  9
$CAMERADISPLAY
290
0
  9
$LENSLENGTH
 40
50.0
  9
$CAMERAHEIGHT
 40
0.0
  9
$STEPSPERSEC
 40
24.0
  9
$STEPSIZE
 40
100.0
  9
$3DDWFPREC
 40
2.0
  9
$PSOLWIDTH
 40
0.005
  9
$PSOLHEIGHT
 40
0.08
  9
$LOFTANG1
 40
1.570796326795
  9
$LOFTANG2
 40
1.570796326795
  9
$LOFTMAG1
 40
0.0
  9
$LOFTMAG2
 40
0.0
  9
$LOFTPARAM
 70
7
  9
$LOFTNORMALS
280
1
  9
$LATITUDE
 40
37.795
  9
$LONGITUDE
 40
-122.394
  9
$NORTHDIRECTION
 40
0.0
  9
$TIMEZONE
 70
-8000
  9
$LIGHTGLYPHDISPLAY
280
1
  9
$TILEMODELIGHTSYNCH
280
1
  9
$CMATERIAL
347
20
  9
$SOLIDHIST
280
0
  9
$SHOWHIST
280
1
  9
$DWFFRAME
280
2
  9
$DGNFRAME
280
2
  9
$REALWORLDSCALE
290
1
  9
$INTERFERECOLOR
 62
256
  9
$CSHADOW
280
0
  9
$SHADOWPLANELOCATION
 40
0.0
  0
ENDSEC
  0
SECTION
  2
CLASSES
  0
CLASS
  1
ACDBDICTIONARYWDFLT
  2
AcDbDictionaryWithDefault
  3
ObjectDBX Classes
 90
0
 91
0
280
0
281
0
  0
CLASS
  1
SUN
  2
AcDbSun
  3
SCENEOE
 90
1153
 91
0
280
0
281
0
  0
CLASS
  1
VISUALSTYLE
  2
AcDbVisualStyle
  3
ObjectDBX Classes
 90
4095
 91
0
280
0
281
0
  0
CLASS
  1
MATERIAL
  2
AcDbMaterial
  3
ObjectDBX Classes
 90
1153
 91
0
280
0
281
0
  0
CLASS
  1
SCALE
  2
AcDbScale
  3
ObjectDBX Classes
 90
1153
 91
0
280
0
281
0
  0
CLASS
  1
TABLESTYLE
  2
AcDbTableStyle
  3
ObjectDBX Classes
 90
4095
 91
0
280
0
281
0
  0
CLASS
  1
MLEADERSTYLE
  2
AcDbMLeaderStyle
  3
ACDB_MLEADERSTYLE_CLASS
 90
4095
 91
0
280
0
281
0
  0
CLASS
  1
DICTIONARYVAR
  2
AcDbDictionaryVar
  3
ObjectDBX Classes
 90
0
 91
0
280
0
281
0
  0
CLASS
  1
CELLSTYLEMAP
  2
AcDbCellStyleMap
  3
ObjectDBX Classes
 90
1152
 91
0
280
0
281
0
  0
CLASS
  1
MENTALRAYRENDERSETTINGS
  2
AcDbMentalRayRenderSettings
  3
SCENEOE
 90
1024
 91
0
280
0
281
0
  0
CLASS
  1
ACDBDETAILVIEWSTYLE
  2
AcDbDetailViewStyle
  3
ObjectDBX Classes
 90
1025
 91
0
280
0
281
0
  0
CLASS
  1
ACDBSECTIONVIEWSTYLE
  2
AcDbSectionViewStyle
  3
ObjectDBX Classes
 90
1025
 91
0
280
0
281
0
  0
CLASS
  1
RASTERVARIABLES
  2
AcDbRasterVariables
  3
ISM
 90
0
 91
0
280
0
281
0
  0
CLASS
  1
LAYOUT
  2
AcDbLayout
  3
ObjectDBX Classes
 90
0
 91
0
280
0
281
0
  0
CLASS
  1
ACDBPLACEHOLDER
  2
AcDbPlaceHolder
  3
ObjectDBX Classes
 90
0
 91
0
280
0
281
0
  0
ENDSEC
  0
SECTION
  2
TABLES
  0
TABLE
  2
VPORT
  5
8
330
0
100
AcDbSymbolTable
 70
1
  0
VPORT
  5
23
330
8
100
AcDbSymbolTableRecord
100
AcDbViewportTableRecord
  2
*Active
 70
0
 10
0.0
 20
0.0
 11
1.0
 21
1.0
 12
0.0
 22
0.0
 13
0.0
 23
0.0
 14
0.5
 24
0.5
 15
0.5
 25
0.5
 16
0.0
 26
0.0
 36
1.0
 17
0.0
 27
0.0
 37
0.0
 40
1000.0
 41
1.34
 42
50.0
 43
0.0
 44
0.0
 50
0.0
 51
0.0
 71
0
 72
1000
 73
1
 74
3
 75
0
 76
0
 77
0
 78
0
281
0
 65
0
146
0.0
  0
ENDTAB
  0
TABLE
  2
LTYPE
  5
2
330
0
100
AcDbSymbolTable
 70
21
  0
LTYPE
  5
24
330
2
100
AcDbSymbolTableRecord
100
AcDbLinetypeTableRecord
  2
ByBlock
 70
0
  3

 72
65
 73
0
 40
0.0
  0
LTYPE
  5
25
330
2
100
AcDbSymbolTableRecord
100
AcDbLinetypeTableRecord
  2
ByLayer
 70
0
  3

 72
65
 73
0
 40
0.0
  0
LTYPE
  5
26
330
2
100
AcDbSymbolTableRecord
100
AcDbLinetypeTableRecord
  2
Continuous
 70
0
  3

 72
65
 73
0
 40
0.0
  0
LTYPE
  5
2F
330
2
100
AcDbSymbolTableRecord
100
AcDbLinetypeTableRecord
  2
CENTER
 70
0
  3
Center ____ _ ____ _ ____ _ ____ _ ____ _ ____
 72
65
 73
4
 40
5.08
 49
3.175
 74
0
 49
-0.635
 74
0
 49
0.635
 74
0
 49
-0.635
 74
0
  0
LTYPE
  5
30
330
2
100
AcDbSymbolTableRecord
100
AcDbLinetypeTableRecord
  2
CENTERX2
 70
0
  3
Center (2x) ________  __  ________  __  ________
 72
65
 73
4
 40
8.89
 49
6.35
 74
0
 49
-0.635
 74
0
 49
1.27
 74
0
 49
-0.635
 74
0
  0
LTYPE
  5
31
330
2
100
AcDbSymbolTableRecord
100
AcDbLinetypeTableRecord
  2
CENTER2
 70
0
  3
Center (.5x) ____ _ ____ _ ____ _ ____ _ ____
 72
65
 73
4
 40
2.54
 49
1.587
 74
0
 49
-0.318
 74
0
 49
0.318
 74
0
 49
-0.318
 74
0
  0
LTYPE
  5
32
330
2
100
AcDbSymbolTableRecord
100
AcDbLinetypeTableRecord
  2
DASHED
 70
0
  3
Dashed __ __ __ __ __ __ __ __ __ __ __ __ __ _
 72
65
 73
2
 40
1.524
 49
1.27
 74
0
 49
-0.254
 74
0
  0
LTYPE
  5
33
330
2
100
AcDbSymbolTableRecord
100
AcDbLinetypeTableRecord
  2
DASHEDX2
 70
0
  3
Dashed (2x) ____  ____  ____  ____  ____  ____
 72
65
 73
2
 40
3.048
 49
2.54
 74
0
 49
-0.508
 74
0
  0
LTYPE
  5
34
330
2
100
AcDbSymbolTableRecord
100
AcDbLinetypeTableRecord
  2
DASHED2
 70
0
  3
Dashed (.5x) _ _ _ _ _ _ _ _ _ _ _ _ _ _
 72
65
 73
2
 40
0.762
 49
0.635
 74
0
 49
-0.127
 74
0
  0
LTYPE
  5
35
330
2
100
AcDbSymbolTableRecord
100
AcDbLinetypeTableRecord
  2
PHANTOM
 70
0
  3
Phantom ______  __  __  ______  __  __  ______
 72
65
 73
6
 40
6.35
 49
3.175
 74
0
 49
-0.635
 74
0
 49
0.635
 74
0
 49
-0.635
 74
0
 49
0.635
 74
0
 49
-0.635
 74
0
  0
LTYPE
  5
36
330
2
100
AcDbSymbolTableRecord
100
AcDbLinetypeTableRecord
  2
PHANTOMX2
 70
0
  3
Phantom (2x)____________    ____    ____    ____________
 72
65
 73
6
 40
10.795
 49
6.35
 74
0
 49
-0.635
 74
0
 49
1.27
 74
0
 49
-0.635
 74
0
 49
1.27
 74
0
 49
-0.635
 74
0
  0
LTYPE
  5
37
330
2
100
AcDbSymbolTableRecord
100
AcDbLinetypeTableRecord
  2
PHANTOM2
 70
0
  3
Phantom (.5x) ___ _ _ ___ _ _ ___ _ _ ___ _ _ ___
 72
65
 73
6
 40
3.175
 49
1.587
 74
0
 49
-0.318
 74
0
 49
0.318
 74
0
 49
-0.318
 74
0
 49
0.318
 74
0
 49
-0.318
 74
0
  0
LTYPE
  5
38
330
2
100
AcDbSymbolTableRecord
100
AcDbLinetypeTableRecord
  2
DASHDOT
 70
0
  3
Dash dot __ . __ . __ . __ . __ . __ . __ . __
 72
65
 73
4
 40
3.556
 49
2.54
 74
0
 49
-0.508
 74
0
 49
0.0
 74
0
 49
-0.508
 74
0
  0
LTYPE
  5
39
330
2
100
AcDbSymbolTableRecord
100
AcDbLinetypeTableRecord
  2
DASHDOTX2
 70
0
  3
Dash dot (2x) ____  .  ____  .  ____  .  ____
 72
65
 73
4
 40
6.096
 49
5.08
 74
0
 49
-0.508
 74
0
 49
0.0
 74
0
 49
-0.508
 74
0
  0
LTYPE
  5
3A
330
2
100
AcDbSymbolTableRecord
100
AcDbLinetypeTableRecord
  2
DASHDOT2
 70
0
  3
Dash dot (.5x) _ . _ . _ . _ . _ . _ . _ . _
 72
65
 73
4
 40
1.778
 49
1.27
 74
0
 49
-0.254
 74
0
 49
0.0
 74
0
 49
-0.254
 74
0
  0
LTYPE
  5
3B
330
2
100
AcDbSymbolTableRecord
100
AcDbLinetypeTableRecord
  2
DOT
 70
0
  3
Dot .  .  .  .  .  .  .  .  .  .  .  .  .  .  .  .
 72
65
 73
2
 40
0.508
 49
0.0
 74
0
 49
-0.508
 74
0
  0
LTYPE
  5
3C
330
2
100
AcDbSymbolTableRecord
100
AcDbLinetypeTableRecord
  2
DOTX2
 70
0
  3
Dot (2x) .    .    .    .    .    .    .    . 
 72
65
 73
2
 40
1.016
 49
0.0
 74
0
 49
-1.016
 74
0
  0
LTYPE
  5
3D
330
2
100
AcDbSymbolTableRecord
100
AcDbLinetypeTableRecord
  2
DOT2
 70
0
  3
Dot (.5) . . . . . . . . . . . . . . . . . . . 
 72
65
 73
2
 40
0.254
 49
0.0
 74
0
 49
-0.254
 74
0
  0
LTYPE
  5
3E
330
2
100
AcDbSymbolTableRecord
100
AcDbLinetypeTableRecord
  2
DIVIDE
 70
0
  3
Divide __ . . __ . . __ . . __ . . __ . . __
 72
65
 73
6
 40
4.064
 49
2.54
 74
0
 49
-0.508
 74
0
 49
0.0
 74
0
 49
-0.508
 74
0
 49
0.0
 74
0
 49
-0.508
 74
0
  0
LTYPE
  5
3F
330
2
100
AcDbSymbolTableRecord
100
AcDbLinetypeTableRecord
  2
DIVIDEX2
 70
0
  3
Divide (2x) ____  . .  ____  . .  ____  . .  ____
 72
65
 73
6
 40
6.604
 49
5.08
 74
0
 49
-0.508
 74
0
 49
0.0
 74
0
 49
-0.508
 74
0
 49
0.0
 74
0
 49
-0.508
 74
0
  0
LTYPE
  5
40
330
2
100
AcDbSymbolTableRecord
100
AcDbLinetypeTableRecord
  2
DIVIDE2
 70
0
  3
Divide(.5x) _ . _ . _ . _ . _ . _ . _ . _
 72
65
 73
6
 40
2.032
 49
1.27
 74
0
 49
-0.254
 74
0
 49
0.0
 74
0
 49
-0.254
 74
0
 49
0.0
 74
0
 49
-0.254
 74
0
  0
ENDTAB
  0
TABLE
  2
LAYER
  5
1
330
0
100
AcDbSymbolTable
 70
30
  0
LAYER
  5
27
330
1
100
AcDbSymbolTableRecord
100
AcDbLayerTableRecord
  2
0
 70
0
 62
7
  6
Continuous
370
-3
390
13
347
21
  0
LAYER
  5
28
330
1
100
AcDbSymbolTableRecord
100
AcDbLayerTableRecord
  2
Defpoints
 70
0
 62
7
  6
Continuous
290
0
370
-3
390
13
347
21
  0
LAYER
  5
8A
330
1
100
AcDbSymbolTableRecord
100
AcDbLayerTableRecord
  2
PANEL_00
 70
0
 62
7
  6
Continuous
370
-3
390
13
347
21
  0
LAYER
  5
8B
330
1
100
AcDbSymbolTableRecord
100
AcDbLayerTableRecord
  2
PANEL_00_LBL
 70
0
 62
3
  6
Continuous
370
-3
390
13
347
21
  0
LAYER
  5
A3
330
1
100
AcDbSymbolTableRecord
100
AcDbLayerTableRecord
  2
PANEL_01
 70
0
 62
7
  6
Continuous
370
-3
390
13
347
21
  0
LAYER
  5
A4
330
1
100
AcDbSymbolTableRecord
100
AcDbLayerTableRecord
  2
PANEL_01_LBL
 70
0
 62
3
  6
Continuous
370
-3
390
13
347
21
  0
LAYER
  5
119
330
1
100
AcDbSymbolTableRecord
100
AcDbLayerTableRecord
  2
PANEL_02
 70
0
 62
7
  6
Continuous
370
-3
390
13
347
21
  0
LAYER
  5
11A
330
1
100
AcDbSymbolTableRecord
100
AcDbLayerTableRecord
  2
PANEL_02_LBL
 70
0
 62
3
  6
Continuous
370
-3
390
13
347
21
  0
LAYER
  5
136
330
1
100
AcDbSymbolTableRecord
100
AcDbLayerTableRecord
  2
PANEL_03
 70
0
 62
7
  6
Continuous
370
-3
390
13
347
21
  0
LAYER
  5
137
330
1
100
AcDbSymbolTableRecord
100
AcDbLayerTableRecord
  2
PANEL_03_LBL
 70
0
 62
3
  6
Continuous
370
-3
390
13
347
21
  0
LAYER
  5
153
330
1
100
AcDbSymbolTableRecord
100
AcDbLayerTableRecord
  2
PANEL_04
 70
0
 62
7
  6
Continuous
370
-3
390
13
347
21
  0
LAYER
  5
154
330
1
100
AcDbSymbolTableRecord
100
AcDbLayerTableRecord
  2
PANEL_04_LBL
 70
0
 62
3
  6
Continuous
370
-3
390
13
347
21
  0
LAYER
  5
162
330
1
100
AcDbSymbolTableRecord
100
AcDbLayerTableRecord
  2
PANEL_05
 70
0
 62
7
  6
Continuous
370
-3
390
13
347
21
  0
LAYER
  5
163
330
1
100
AcDbSymbolTableRecord
100
AcDbLayerTableRecord
  2
PANEL_05_LBL
 70
0
 62
3
  6
Continuous
370
-3
390
13
347
21
  0
LAYER
  5
17B
330
1
100
AcDbSymbolTableRecord
100
AcDbLayerTableRecord
  2
PANEL_06
 70
0
 62
7
  6
Continuous
370
-3
390
13
347
21
  0
LAYER
  5
17C
330
1
100
AcDbSymbolTableRecord
100
AcDbLayerTableRecord
  2
PANEL_06_LBL
 70
0
 62
3
  6
Continuous
370
-3
390
13
347
21
  0
LAYER
  5
191
330
1
100
AcDbSymbolTableRecord
100
AcDbLayerTableRecord
  2
PANEL_07
 70
0
 62
7
  6
Continuous
370
-3
390
13
347
21
  0
LAYER
  5
192
330
1
100
AcDbSymbolTableRecord
100
AcDbLayerTableRecord
  2
PANEL_07_LBL
 70
0
 62
3
  6
Continuous
370
-3
390
13
347
21
  0
LAYER
  5
1A4
330
1
100
AcDbSymbolTableRecord
100
AcDbLayerTableRecord
  2
PANEL_08
 70
0
 62
7
  6
Continuous
370
-3
390
13
347
21
  0
LAYER
  5
1A5
330
1
100
AcDbSymbolTableRecord
100
AcDbLayerTableRecord
  2
PANEL_08_LBL
 70
0
 62
3
  6
Continuous
370
-3
390
13
347
21
  0
LAYER
  5
1B9
330
1
100
AcDbSymbolTableRecord
100
AcDbLayerTableRecord
  2
PANEL_09
 70
0
 62
7
  6
Continuous
370
-3
390
13
347
21
  0
LAYER
  5
1BA
330
1
100
AcDbSymbolTableRecord
100
AcDbLayerTableRecord
  2
PANEL_09_LBL
 70
0
 62
3
  6
Continuous
370
-3
390
13
347
21
  0
LAYER
  5
1D3
330
1
100
AcDbSymbolTableRecord
100
AcDbLayerTableRecord
  2
PANEL_10
 70
0
 62
7
  6
Continuous
370
-3
390
13
347
21
  0
LAYER
  5
1D4
330
1
100
AcDbSymbolTableRecord
100
AcDbLayerTableRecord
  2
PANEL_10_LBL
 70
0
 62
3
  6
Continuous
370
-3
390
13
347
21
  0
LAYER
  5
1FD
330
1
100
AcDbSymbolTableRecord
100
AcDbLayerTableRecord
  2
PANEL_11
 70
0
 62
7
  6
Continuous
370
-3
390
13
347
21
  0
LAYER
  5
1FE
330
1
100
AcDbSymbolTableRecord
100
AcDbLayerTableRecord
  2
PANEL_11_LBL
 70
0
 62
3
  6
Continuous
370
-3
390
13
347
21
  0
LAYER
  5
225
330
1
100
AcDbSymbolTableRecord
100
AcDbLayerTableRecord
  2
PANEL_12
 70
0
 62
7
  6
Continuous
370
-3
390
13
347
21
  0
LAYER
  5
226
330
1
100
AcDbSymbolTableRecord
100
AcDbLayerTableRecord
  2
PANEL_12_LBL
 70
0
 62
3
  6
Continuous
370
-3
390
13
347
21
  0
LAYER
  5
240
330
1
100
AcDbSymbolTableRecord
100
AcDbLayerTableRecord
  2
PANEL_13
 70
0
 62
7
  6
Continuous
370
-3
390
13
347
21
  0
LAYER
  5
241
330
1
100
AcDbSymbolTableRecord
100
AcDbLayerTableRecord
  2
PANEL_13_LBL
 70
0
 62
3
  6
Continuous
370
-3
390
13
347
21
  0
ENDTAB
  0
TABLE
  2
STYLE
  5
5
330
0
100
AcDbSymbolTable
 70
26
  0
STYLE
  5
29
330
5
100
AcDbSymbolTableRecord
100
AcDbTextStyleTableRecord
  2
Standard
 70
0
 40
0.0
 41
1.0
 50
0.0
 71
0
 42
2.5
  3
txt
  4

  0
STYLE
  5
41
330
5
100
AcDbSymbolTableRecord
100
AcDbTextStyleTableRecord
  2
OpenSans-Light
 70
0
 40
0.0
 41
1.0
 50
0.0
 71
0
 42
2.5
  3
OpenSans-Light.ttf
  4

  0
STYLE
  5
42
330
5
100
AcDbSymbolTableRecord
100
AcDbTextStyleTableRecord
  2
OpenSans-Light-Italic
 70
0
 40
0.0
 41
1.0
 50
0.0
 71
0
 42
2.5
  3
OpenSans-LightItalic.ttf
  4

  0
STYLE
  5
43
330
5
100
AcDbSymbolTableRecord
100
AcDbTextStyleTableRecord
  2
OpenSans
 70
0
 40
0.0
 41
1.0
 50
0.0
 71
0
 42
2.5
  3
OpenSans-Regular.ttf
  4

  0
STYLE
  5
44
330
5
100
AcDbSymbolTableRecord
100
AcDbTextStyleTableRecord
  2
OpenSans-Italic
 70
0
 40
0.0
 41
1.0
 50
0.0
 71
0
 42
2.5
  3
OpenSans-Italic.ttf
  4

  0
STYLE
  5
45
330
5
100
AcDbSymbolTableRecord
100
AcDbTextStyleTableRecord
  2
OpenSans-SemiBold
 70
0
 40
0.0
 41
1.0
 50
0.0
 71
0
 42
2.5
  3
OpenSans-SemiBold.ttf
  4

  0
STYLE
  5
46
330
5
100
AcDbSymbolTableRecord
100
AcDbTextStyleTableRecord
  2
OpenSans-SemiBoldItalic
 70
0
 40
0.0
 41
1.0
 50
0.0
 71
0
 42
2.5
  3
OpenSans-SemiBoldItalic.ttf
  4

  0
STYLE
  5
47
330
5
100
AcDbSymbolTableRecord
100
AcDbTextStyleTableRecord
  2
OpenSans-Bold
 70
0
 40
0.0
 41
1.0
 50
0.0
 71
0
 42
2.5
  3
OpenSans-Bold.ttf
  4

  0
STYLE
  5
48
330
5
100
AcDbSymbolTableRecord
100
AcDbTextStyleTableRecord
  2
OpenSans-BoldItalic
 70
0
 40
0.0
 41
1.0
 50
0.0
 71
0
 42
2.5
  3
OpenSans-BoldItalic.ttf
  4

  0
STYLE
  5
49
330
5
100
AcDbSymbolTableRecord
100
AcDbTextStyleTableRecord
  2
OpenSans-ExtraBold
 70
0
 40
0.0
 41
1.0
 50
0.0
 71
0
 42
2.5
  3
OpenSans-ExtraBold.ttf
  4

  0
STYLE
  5
4A
330
5
100
AcDbSymbolTableRecord
100
AcDbTextStyleTableRecord
  2
OpenSans-ExtraBoldItalic
 70
0
 40
0.0
 41
1.0
 50
0.0
 71
0
 42
2.5
  3
OpenSans-ExtraBoldItalic.ttf
  4

  0
STYLE
  5
4B
330
5
100
AcDbSymbolTableRecord
100
AcDbTextStyleTableRecord
  2
OpenSansCondensed-Bold
 70
0
 40
0.0
 41
1.0
 50
0.0
 71
0
 42
2.5
  3
OpenSansCondensed-Bold.ttf
  4

  0
STYLE
  5
4C
330
5
100
AcDbSymbolTableRecord
100
AcDbTextStyleTableRecord
  2
OpenSansCondensed-Light
 70
0
 40
0.0
 41
1.0
 50
0.0
 71
0
 42
2.5
  3
OpenSansCondensed-Light.ttf
  4

  0
STYLE
  5
4D
330
5
100
AcDbSymbolTableRecord
100
AcDbTextStyleTableRecord
  2
OpenSansCondensed-Italic
 70
0
 40
0.0
 41
1.0
 50
0.0
 71
0
 42
2.5
  3
OpenSansCondensed-LightItalic.ttf
  4

  0
STYLE
  5
4E
330
5
100
AcDbSymbolTableRecord
100
AcDbTextStyleTableRecord
  2
LiberationSans
 70
0
 40
0.0
 41
1.0
 50
0.0
 71
0
 42
2.5
  3
LiberationSans-Regular.ttf
  4

  0
STYLE
  5
4F
330
5
100
AcDbSymbolTableRecord
100
AcDbTextStyleTableRecord
  2
LiberationSans-Bold
 70
0
 40
0.0
 41
1.0
 50
0.0
 71
0
 42
2.5
  3
LiberationSans-Bold.ttf
  4

  0
STYLE
  5
50
330
5
100
AcDbSymbolTableRecord
100
AcDbTextStyleTableRecord
  2
LiberationSans-BoldItalic
 70
0
 40
0.0
 41
1.0
 50
0.0
 71
0
 42
2.5
  3
LiberationSans-BoldItalic.ttf
  4

  0
STYLE
  5
51
330
5
100
AcDbSymbolTableRecord
100
AcDbTextStyleTableRecord
  2
LiberationSans-Italic
 70
0
 40
0.0
 41
1.0
 50
0.0
 71
0
 42
2.5
  3
LiberationSans-Italic.ttf
  4

  0
STYLE
  5
52
330
5
100
AcDbSymbolTableRecord
100
AcDbTextStyleTableRecord
  2
LiberationSerif
 70
0
 40
0.0
 41
1.0
 50
0.0
 71
0
 42
2.5
  3
LiberationSerif-Regular.ttf
  4

  0
STYLE
  5
53
330
5
100
AcDbSymbolTableRecord
100
AcDbTextStyleTableRecord
  2
LiberationSerif-Bold
 70
0
 40
0.0
 41
1.0
 50
0.0
 71
0
 42
2.5
  3
LiberationSerif-Bold.ttf
  4

  0
STYLE
  5
54
330
5
100
AcDbSymbolTableRecord
100
AcDbTextStyleTableRecord
  2
LiberationSerif-BoldItalic
 70
0
 40
0.0
 41
1.0
 50
0.0
 71
0
 42
2.5
  3
LiberationSerif-BoldItalic.ttf
  4

  0
STYLE
  5
55
330
5
100
AcDbSymbolTableRecord
100
AcDbTextStyleTableRecord
  2
LiberationSerif-Italic
 70
0
 40
0.0
 41
1.0
 50
0.0
 71
0
 42
2.5
  3
LiberationSerif-Italic.ttf
  4

  0
STYLE
  5
56
330
5
100
AcDbSymbolTableRecord
100
AcDbTextStyleTableRecord
  2
LiberationMono
 70
0
 40
0.0
 41
1.0
 50
0.0
 71
0
 42
2.5
  3
LiberationMono-Regular.ttf
  4

  0
STYLE
  5
57
330
5
100
AcDbSymbolTableRecord
100
AcDbTextStyleTableRecord
  2
LiberationMono-Bold
 70
0
 40
0.0
 41
1.0
 50
0.0
 71
0
 42
2.5
  3
LiberationMono-Bold.ttf
  4

  0
STYLE
  5
58
330
5
100
AcDbSymbolTableRecord
100
AcDbTextStyleTableRecord
  2
LiberationMono-BoldItalic
 70
0
 40
0.0
 41
1.0
 50
0.0
 71
0
 42
2.5
  3
LiberationMono-BoldItalic.ttf
  4

  0
STYLE
  5
59
330
5
100
AcDbSymbolTableRecord
100
AcDbTextStyleTableRecord
  2
LiberationMono-Italic
 70
0
 40
0.0
 41
1.0
 50
0.0
 71
0
 42
2.5
  3
LiberationMono-Italic.ttf
  4

  0
ENDTAB
  0
TABLE
  2
VIEW
  5
7
330
0
100
AcDbSymbolTable
 70
0
  0
ENDTAB
  0
TABLE
  2
UCS
  5
6
330
0
100
AcDbSymbolTable
 70
0
  0
ENDTAB
  0
TABLE
  2
APPID
  5
3
330
0
100
AcDbSymbolTable
 70
3
  0
APPID
  5
2A
330
3
100
AcDbSymbolTableRecord
100
AcDbRegAppTableRecord
  2
ACAD
 70
0
  0
APPID
  5
265
330
3
100
AcDbSymbolTableRecord
100
AcDbRegAppTableRecord
  2
HATCHBACKGROUNDCOLOR
 70
0
  0
APPID
  5
266
330
3
100
AcDbSymbolTableRecord
100
AcDbRegAppTableRecord
  2
EZDXF
 70
0
  0
ENDTAB
  0
TABLE
  2
DIMSTYLE
  5
4
330
0
100
AcDbSymbolTable
 70
12
100
AcDbDimStyleTable
  0
DIMSTYLE
105
2B
330
4
100
AcDbSymbolTableRecord
100
AcDbDimStyleTableRecord
  2
Standard
 70
0
 40
1.0
 41
2.5
 42
0.625
 43
3.75
 44
1.25
 45
0.0
 46
0.0
 47
0.0
 48
0.0
 49
2.5
140
2.5
141
2.5
142
0.0
143
0.03937007874
144
1.0
145
0.0
146
1.0
147
0.625
148
0.0
 69
0
 70
0
 71
0
 72
0
 73
0
 74
0
 75
0
 76
0
 77
1
 78
8
 79
3
170
0
171
3
172
1
173
0
174
0
175
0
176
0
177
0
178
0
179
2
271
2
272
2
273
2
274
3
275
0
276
0
277
2
278
44
279
0
280
0
281
0
282
0
283
0
284
8
285
0
286
0
288
0
289
3
290
0
371
-2
372
-2
  0
DIMSTYLE
105
73
330
4
100
AcDbSymbolTableRecord
100
AcDbDimStyleTableRecord
  2
EZDXF
 70
0
 40
1.0
 41
0.175
 42
0.125
 43
3.75
 44
0.375
 45
0.0
 46
0.0
 47
0.0
 48
0.0
 49
2.5
140
0.25
141
2.5
142
0.0
143
0.03937007874
144
100.0
145
0.0
146
0.5
147
0.1
148
0.0
 69
0
 70
0
 71
0
 72
0
 73
0
 74
0
 75
0
 76
0
 77
1
 78
12
 79
3
170
0
171
3
172
1
173
0
174
0
175
0
176
0
177
0
178
0
179
2
271
2
272
2
273
2
274
3
275
0
276
0
277
2
278
46
279
2
280
0
281
0
282
0
283
0
284
8
285
0
286
0
288
1
289
3
290
0
340
4C
342
74
371
-2
372
-2
  0
DIMSTYLE
105
7C
330
4
100
AcDbSymbolTableRecord
100
AcDbDimStyleTableRecord
  2
EZ_M_100_H25_CM
 70
0
 40
1.0
 41
0.25
 42
0.125
 43
3.75
 44
0.375
 45
0.0
 46
0.0
 47
0.0
 48
0.0
 49
2.5
140
0.25
141
2.5
142
0.125
143
0.03937007874
144
100.0
145
0.0
146
0.5
147
0.1
148
0.0
 69
0
 70
0
 71
0
 72
0
 73
0
 74
0
 75
0
 76
0
 77
1
 78
12
 79
3
170
0
171
3
172
1
173
0
174
0
175
0
176
0
177
0
178
0
179
2
271
2
272
2
273
2
274
3
275
0
276
0
277
2
278
46
279
2
280
0
281
0
282
0
283
0
284
8
285
0
286
0
288
1
289
3
290
0
340
4C
371
-2
372
-2
  0
DIMSTYLE
105
7D
330
4
100
AcDbSymbolTableRecord
100
AcDbDimStyleTableRecord
  2
EZ_M_50_H25_CM
 70
0
 40
1.0
 41
0.125
 42
0.0625
 43
3.75
 44
0.1875
 45
0.0
 46
0.0
 47
0.0
 48
0.0
 49
2.5
140
0.125
141
2.5
142
0.0625
143
0.03937007874
144
100.0
145
0.0
146
0.5
147
0.05
148
0.0
 69
0
 70
0
 71
0
 72
0
 73
0
 74
0
 75
0
 76
0
 77
1
 78
12
 79
3
170
0
171
3
172
1
173
0
174
0
175
0
176
0
177
0
178
0
179
2
271
2
272
2
273
2
274
3
275
0
276
0
277
2
278
46
279
2
280
0
281
0
282
0
283
0
284
8
285
0
286
0
288
1
289
3
290
0
340
4C
371
-2
372
-2
  0
DIMSTYLE
105
7E
330
4
100
AcDbSymbolTableRecord
100
AcDbDimStyleTableRecord
  2
EZ_M_25_H25_CM
 70
0
 40
1.0
 41
0.0625
 42
0.03125
 43
3.75
 44
0.09375
 45
0.0
 46
0.0
 47
0.0
 48
0.0
 49
2.5
140
0.0625
141
2.5
142
0.03125
143
0.03937007874
144
100.0
145
0.0
146
0.5
147
0.025
148
0.0
 69
0
 70
0
 71
0
 72
0
 73
0
 74
0
 75
0
 76
0
 77
1
 78
12
 79
3
170
0
171
3
172
1
173
0
174
0
175
0
176
0
177
0
178
0
179
2
271
2
272
2
273
2
274
3
275
0
276
0
277
2
278
46
279
2
280
0
281
0
282
0
283
0
284
8
285
0
286
0
288
1
289
3
290
0
340
4C
371
-2
372
-2
  0
DIMSTYLE
105
7F
330
4
100
AcDbSymbolTableRecord
100
AcDbDimStyleTableRecord
  2
EZ_M_20_H25_CM
 70
0
 40
1.0
 41
0.05
 42
0.025
 43
3.75
 44
0.07500000000000001
 45
0.0
 46
0.0
 47
0.0
 48
0.0
 49
2.5
140
0.05
141
2.5
142
0.025
143
0.03937007874
144
100.0
145
0.0
146
0.5
147
0.020000000000000004
148
0.0
 69
0
 70
0
 71
0
 72
0
 73
0
 74
0
 75
0
 76
0
 77
1
 78
12
 79
3
170
0
171
3
172
1
173
0
174
0
175
0
176
0
177
0
178
0
179
2
271
2
272
2
273
2
274
3
275
0
276
0
277
2
278
46
279
2
280
0
281
0
282
0
283
0
284
8
285
0
286
0
288
1
289
3
290
0
340
4C
371
-2
372
-2
  0
DIMSTYLE
105
80
330
4
100
AcDbSymbolTableRecord
100
AcDbDimStyleTableRecord
  2
EZ_M_10_H25_CM
 70
0
 40
1.0
 41
0.025
 42
0.0125
 43
3.75
 44
0.037500000000000006
 45
0.0
 46
0.0
 47
0.0
 48
0.0
 49
2.5
140
0.025
141
2.5
142
0.0125
143
0.03937007874
144
100.0
145
0.0
146
0.5
147
0.010000000000000002
148
0.0
 69
0
 70
0
 71
0
 72
0
 73
0
 74
0
 75
0
 76
0
 77
1
 78
12
 79
3
170
0
171
3
172
1
173
0
174
0
175
0
176
0
177
0
178
0
179
2
271
2
272
2
273
2
274
3
275
0
276
0
277
2
278
46
279
2
280
0
281
0
282
0
283
0
284
8
285
0
286
0
288
1
289
3
290
0
340
4C
371
-2
372
-2
  0
DIMSTYLE
105
81
330
4
100
AcDbSymbolTableRecord
100
AcDbDimStyleTableRecord
  2
EZ_M_5_H25_CM
 70
0
 40
1.0
 41
0.0125
 42
0.00625
 43
3.75
 44
0.018750000000000003
 45
0.0
 46
0.0
 47
0.0
 48
0.0
 49
2.5
140
0.0125
141
2.5
142
0.00625
143
0.03937007874
144
100.0
145
0.0
146
0.5
147
0.005000000000000001
148
0.0
 69
0
 70
0
 71
0
 72
0
 73
0
 74
0
 75
0
 76
0
 77
1
 78
12
 79
3
170
0
171
3
172
1
173
0
174
0
175
0
176
0
177
0
178
0
179
2
271
2
272
2
273
2
274
3
275
0
276
0
277
2
278
46
279
2
280
0
281
0
282
0
283
0
284
8
285
0
286
0
288
1
289
3
290
0
340
4C
371
-2
372
-2
  0
DIMSTYLE
105
82
330
4
100
AcDbSymbolTableRecord
100
AcDbDimStyleTableRecord
  2
EZ_M_1_H25_CM
 70
0
 40
1.0
 41
0.0025
 42
0.00125
 43
3.75
 44
0.00375
 45
0.0
 46
0.0
 47
0.0
 48
0.0
 49
2.5
140
0.0025
141
2.5
142
0.00125
143
0.03937007874
144
100.0
145
0.0
146
0.5
147
0.001
148
0.0
 69
0
 70
0
 71
0
 72
0
 73
0
 74
0
 75
0
 76
0
 77
1
 78
12
 79
3
170
0
171
3
172
1
173
0
174
0
175
0
176
0
177
0
178
0
179
2
271
2
272
2
273
2
274
3
275
0
276
0
277
2
278
46
279
2
280
0
281
0
282
0
283
0
284
8
285
0
286
0
288
1
289
3
290
0
340
4C
371
-2
372
-2
  0
DIMSTYLE
105
83
330
4
100
AcDbSymbolTableRecord
100
AcDbDimStyleTableRecord
  2
EZ_RADIUS
 70
0
 40
1.0
 41
0.25
 42
0.125
 43
3.75
 44
0.375
 45
0.0
 46
0.0
 47
0.0
 48
0.0
 49
2.5
140
0.25
141
0.0
142
0.0
143
0.03937007874
144
100.0
145
0.0
146
0.5
147
0.1
148
0.0
 69
0
 70
0
 71
0
 72
0
 73
0
 74
0
 75
0
 76
0
 77
1
 78
12
 79
3
170
0
171
3
172
0
173
0
174
0
175
0
176
0
177
0
178
0
179
2
271
2
272
2
273
2
274
3
275
0
276
0
277
2
278
46
279
1
280
0
281
0
282
0
283
0
284
8
285
0
286
0
288
1
289
3
290
0
340
4C
342
84
371
-2
372
-2
  0
DIMSTYLE
105
88
330
4
100
AcDbSymbolTableRecord
100
AcDbDimStyleTableRecord
  2
EZ_RADIUS_INSIDE
 70
0
 40
1.0
 41
0.25
 42
0.125
 43
3.75
 44
0.375
 45
0.0
 46
0.0
 47
0.0
 48
0.0
 49
2.5
140
0.25
141
0.0
142
0.0
143
0.03937007874
144
100.0
145
0.0
146
0.5
147
0.1
148
0.0
 69
0
 70
0
 71
0
 72
0
 73
0
 74
0
 75
0
 76
0
 77
0
 78
12
 79
3
170
0
171
3
172
0
173
0
174
1
175
0
176
0
177
0
178
0
179
2
271
2
272
2
273
2
274
3
275
0
276
0
277
2
278
46
279
0
280
0
281
0
282
0
283
0
284
8
285
0
286
0
288
1
289
0
290
0
340
4C
342
84
371
-2
372
-2
  0
DIMSTYLE
105
89
330
4
100
AcDbSymbolTableRecord
100
AcDbDimStyleTableRecord
  2
EZ_CURVED
 70
0
 40
1.0
 41
0.25
 42
0.125
 43
3.75
 44
0.375
 45
0.0
 46
0.0
 47
0.0
 48
0.0
 49
2.5
140
0.25
141
2.5
142
0.0
143
0.03937007874
144
100.0
145
0.0
146
0.5
147
0.1
148
0.0
 69
0
 70
0
 71
0
 72
0
 73
0
 74
0
 75
0
 76
0
 77
1
 78
12
 79
2
 90
2
170
0
171
3
172
1
173
0
174
0
175
0
176
0
177
0
178
0
179
2
271
2
272
2
273
2
274
3
275
0
276
0
277
2
278
46
279
2
280
0
281
0
282
0
283
0
284
8
285
0
286
0
288
1
289
3
290
0
340
4C
371
-2
372
-2
  0
ENDTAB
  0
TABLE
  2
BLOCK_RECORD
  5
9
330
0
100
AcDbSymbolTable
 70
5
  0
BLOCK_RECORD
  5
17
330
9
100
AcDbSymbolTableRecord
100
AcDbBlockTableRecord
  2
*Model_Space
340
1A
 70
0
280
1
281
0
  0
BLOCK_RECORD
  5
1B
330
9
100
AcDbSymbolTableRecord
100
AcDbBlockTableRecord
  2
*Paper_Space
340
1E
 70
0
280
1
281
0
  0
BLOCK_RECORD
  5
74
330
9
100
AcDbSymbolTableRecord
100
AcDbBlockTableRecord
  2
_ARCHTICK
340
0
 70
0
280
1
281
0
  0
BLOCK_RECORD
  5
78
330
9
100
AcDbSymbolTableRecord
100
AcDbBlockTableRecord
  2
_CLOSEDFILLED
340
0
 70
0
280
1
281
0
  0
BLOCK_RECORD
  5
84
330
9
100
AcDbSymbolTableRecord
100
AcDbBlockTableRecord
  2
_CLOSEDBLANK
340
0
 70
0
280
1
281
0
  0
ENDTAB
  0
ENDSEC
  0
SECTION
  2
BLOCKS
  0
BLOCK
  5
18
330
17
100
AcDbEntity
  8
0
100
AcDbBlockBegin
  2
*Model_Space
 70
0
 10
0.0
 20
0.0
 30
0.0
  3
*Model_Space
  1

  0
ENDBLK
  5
19
330
17
100
AcDbEntity
  8
0
100
AcDbBlockEnd
  0
BLOCK
  5
1C
330
1B
100
AcDbEntity
  8
0
100
AcDbBlockBegin
  2
*Paper_Space
 70
0
 10
0.0
 20
0.0
 30
0.0
  3
*Paper_Space
  1

  0
ENDBLK
  5
1D
330
1B
100
AcDbEntity
  8
0
100
AcDbBlockEnd
  0
BLOCK
  5
75
330
74
100
AcDbEntity
  8
0
100
AcDbBlockBegin
  2
_ARCHTICK
 70
0
 10
0.0
 20
0.0
 30
0.0
  3
_ARCHTICK
  1

  0
LWPOLYLINE
  5
77
330
74
100
AcDbEntity
  8
0
  6
BYBLOCK
 62
0
100
AcDbPolyline
 90
2
 70
0
 43
0.15
 10
-0.5
 20
-0.5
 10
0.5
 20
0.5
  0
ENDBLK
  5
76
330
74
100
AcDbEntity
  8
0
100
AcDbBlockEnd
  0
BLOCK
  5
79
330
78
100
AcDbEntity
  8
0
100
AcDbBlockBegin
  2
_CLOSEDFILLED
 70
0
 10
0.0
 20
0.0
 30
0.0
  3
_CLOSEDFILLED
  1

  0
SOLID
  5
7B
330
78
100
AcDbEntity
  8
0
  6
BYBLOCK
 62
0
100
AcDbTrace
 10
-1.0
 20
0.16439898372402537
 30
0.0
 11
0.0
 21
0.0
 31
0.0
 12
-1.0
 22
-0.16439898372402537
 32
0.0
 13
-1.0
 23
-0.16439898372402537
 33
0.0
  0
ENDBLK
  5
7A
330
78
100
AcDbEntity
  8
0
100
AcDbBlockEnd
  0
BLOCK
  5
85
330
84
100
AcDbEntity
  8
0
100
AcDbBlockBegin
  2
_CLOSEDBLANK
 70
0
 10
0.0
 20
0.0
 30
0.0
  3
_CLOSEDBLANK
  1

  0
LWPOLYLINE
  5
87
330
84
100
AcDbEntity
  8
0
  6
BYBLOCK
 62
0
100
AcDbPolyline
 90
3
 70
1
 10
-1.0
 20
0.16439898372402537
 10
0.0
 20
0.0
 10
-1.0
 20
-0.16439898372402537
  0
ENDBLK
  5
86
330
84
100
AcDbEntity
  8
0
100
AcDbBlockEnd
  0
ENDSEC
  0
SECTION
  2
ENTITIES
  0
LINE
  5
8C
330
17
100
AcDbEntity
  8
PANEL_00
100
AcDbLine
 10
113.0
 20
93.0
 30
0.0
 11
113.0
 21
139.0
 31
0.0
  0
LINE
  5
8D
330
17
100
AcDbEntity
  8
PANEL_00
100
AcDbLine
 10
29.0
 20
8.0
 30
0.0
 11
29.0
 21
134.0
 31
0.0
  0
LINE
  5
8E
330
17
100
AcDbEntity
  8
PANEL_00
100
AcDbLine
 10
96.0
 20
110.0
 30
0.0
 11
36.67881944444444
 21
77.14236111111111
 31
0.0
  0
LINE
  5
8F
330
17
100
AcDbEntity
  8
PANEL_00
100
AcDbLine
 10
140.0
 20
111.0
 30
0.0
 11
143.5
 21
30.5
 31
0.0
  0
LINE
  5
90
330
17
100
AcDbEntity
  8
PANEL_00
100
AcDbLine
 10
143.5
 20
30.5
 30
0.0
 11
5.486689814814814
 21
34.73688271604941
 31
0.0
  0
LINE
  5
91
330
17
100
AcDbEntity
  8
PANEL_00
100
AcDbLine
 10
5.486689814814814
 20
34.73688271604941
 30
0.0
 11
50.0
 21
63.0
 31
0.0
  0
LINE
  5
92
330
17
100
AcDbEntity
  8
PANEL_00
100
AcDbLine
 10
50.0
 20
63.0
 30
0.0
 11
23.0
 21
57.0
 31
0.0
  0
LINE
  5
93
330
17
100
AcDbEntity
  8
PANEL_00
100
AcDbLine
 10
14.0
 20
32.0
 30
0.0
 11
14.0
 21
110.0
 31
0.0
  0
LINE
  5
94
330
17
100
AcDbEntity
  8
PANEL_00
100
AcDbLine
 10
70.5
 20
1.5
 30
0.0
 11
71.5
 21
50.0
 31
0.0
  0
LINE
  5
95
330
17
100
AcDbEntity
  8
PANEL_00
100
AcDbLine
 10
2.5
 20
112.0
 30
0.0
 11
153.5
 21
112.0
 31
0.0
  0
LINE
  5
96
330
17
100
AcDbEntity
  8
PANEL_00
100
AcDbLine
 10
0.0
 20
73.5
 30
0.0
 11
74.89583333333333
 21
70.40277777777779
 31
0.0
  0
LINE
  5
97
330
17
100
AcDbEntity
  8
PANEL_00
100
AcDbLine
 10
74.89583333333333
 20
70.40277777777779
 30
0.0
 11
70.5
 21
140.5
 31
0.0
  0
LINE
  5
98
330
17
100
AcDbEntity
  8
PANEL_00
100
AcDbLine
 10
39.0
 20
65.0
 30
0.0
 11
3.740740740740741
 21
44.71296296296295
 31
0.0
  0
LINE
  5
99
330
17
100
AcDbEntity
  8
PANEL_00
100
AcDbLine
 10
3.740740740740741
 20
44.71296296296295
 30
0.0
 11
78.0
 21
42.5
 31
0.0
  0
LINE
  5
9A
330
17
100
AcDbEntity
  8
PANEL_00
100
AcDbLine
 10
78.0
 20
42.5
 30
0.0
 11
4.133680555555555
 21
42.43055555555554
 31
0.0
  0
LINE
  5
9B
330
17
100
AcDbEntity
  8
PANEL_00
100
AcDbLine
 10
128.0
 20
131.0
 30
0.0
 11
36.67881944444444
 21
77.14236111111111
 31
0.0
  0
LINE
  5
9C
330
17
100
AcDbEntity
  8
PANEL_00
100
AcDbLine
 10
41.0
 20
5.0
 30
0.0
 11
36.67881944444444
 21
77.14236111111111
 31
0.0
  0
LINE
  5
9D
330
17
100
AcDbEntity
  8
PANEL_00
100
AcDbLine
 10
124.0
 20
1.0
 30
0.0
 11
124.0
 21
140.0
 31
0.0
  0
LINE
  5
9E
330
17
100
AcDbEntity
  8
PANEL_00
100
AcDbLine
 10
124.0
 20
15.0
 30
0.0
 11
29.5
 21
15.0
 31
0.0
  0
LINE
  5
9F
330
17
100
AcDbEntity
  8
PANEL_00
100
AcDbLine
 10
134.0
 20
101.0
 30
0.0
 11
88.0
 21
29.0
 31
0.0
  0
LINE
  5
A0
330
17
100
AcDbEntity
  8
PANEL_00
100
AcDbLine
 10
88.0
 20
29.0
 30
0.0
 11
119.0
 21
82.0
 31
0.0
  0
LINE
  5
A1
330
17
100
AcDbEntity
  8
PANEL_00
100
AcDbLine
 10
122.0
 20
127.0
 30
0.0
 11
29.0
 21
127.0
 31
0.0
  0
TEXT
  5
A2
330
17
100
AcDbEntity
  8
PANEL_00_LBL
100
AcDbText
 10
77.5
 20
129.0
 30
0.0
 40
12.0
  1
PART panel_00
100
AcDbText
  0
LINE
  5
A5
330
17
100
AcDbEntity
  8
PANEL_01
100
AcDbLine
 10
448.0
 20
281.0
 30
0.0
 11
421.0
 21
281.0
 31
0.0
  0
LINE
  5
A6
330
17
100
AcDbEntity
  8
PANEL_01
100
AcDbLine
 10
402.0
 20
242.0
 30
0.0
 11
396.3402777777778
 21
288.84375
 31
0.0
  0
LINE
  5
A7
330
17
100
AcDbEntity
  8
PANEL_01
100
AcDbLine
 10
435.0
 20
2.0
 30
0.0
 11
430.0
 21
89.15
 31
0.0
  0
LINE
  5
A8
330
17
100
AcDbEntity
  8
PANEL_01
100
AcDbLine
 10
430.0
 20
89.15
 30
0.0
 11
430.3414965986394
 21
47.59387755102037
 31
0.0
  0
LINE
  5
A9
330
17
100
AcDbEntity
  8
PANEL_01
100
AcDbLine
 10
286.0
 20
203.0
 30
0.0
 11
282.63888888888886
 21
185.6712962962963
 31
0.0
  0
LINE
  5
AA
330
17
100
AcDbEntity
  8
PANEL_01
100
AcDbLine
 10
282.63888888888886
 20
185.6712962962963
 30
0.0
 11
287.0
 21
264.0
 31
0.0
  0
LINE
  5
AB
330
17
100
AcDbEntity
  8
PANEL_01
100
AcDbLine
 10
178.0
 20
44.0
 30
0.0
 11
244.5
 21
44.5
 31
0.0
  0
LINE
  5
AC
330
17
100
AcDbEntity
  8
PANEL_01
100
AcDbLine
 10
244.5
 20
44.5
 30
0.0
 11
246.33333333333331
 21
81.33333333333334
 31
0.0
  0
LINE
  5
AD
330
17
100
AcDbEntity
  8
PANEL_01
100
AcDbLine
 10
331.9166666666667
 20
145.60416666666669
 30
0.0
 11
314.9711111111111
 21
143.94888888888892
 31
0.0
  0
LINE
  5
AE
330
17
100
AcDbEntity
  8
PANEL_01
100
AcDbLine
 10
314.9711111111111
 20
143.94888888888892
 30
0.0
 11
322.0
 21
2.0
 31
0.0
  0
LINE
  5
AF
330
17
100
AcDbEntity
  8
PANEL_01
100
AcDbLine
 10
322.0
 20
2.0
 30
0.0
 11
323.0
 21
158.0
 31
0.0
  0
LINE
  5
B0
330
17
100
AcDbEntity
  8
PANEL_01
100
AcDbLine
 10
280.6666666666667
 20
289.0
 30
0.0
 11
279.7166666666667
 21
187.66944444444445
 31
0.0
  0
LINE
  5
B1
330
17
100
AcDbEntity
  8
PANEL_01
100
AcDbLine
 10
280.6666666666667
 20
289.0
 30
0.0
 11
286.90666666666664
 21
220.26666666666668
 31
0.0
  0
LINE
  5
B2
330
17
100
AcDbEntity
  8
PANEL_01
100
AcDbLine
 10
280.6666666666667
 20
289.0
 30
0.0
 11
277.30555555555554
 21
189.2638888888889
 31
0.0
  0
LINE
  5
B3
330
17
100
AcDbEntity
  8
PANEL_01
100
AcDbLine
 10
277.30555555555554
 20
189.2638888888889
 30
0.0
 11
294.5916666666667
 21
194.13333333333333
 31
0.0
  0
LINE
  5
B4
330
17
100
AcDbEntity
  8
PANEL_01
100
AcDbLine
 10
189.0
 20
260.0
 30
0.0
 11
185.05833333333334
 21
31.025000000000034
 31
0.0
  0
LINE
  5
B5
330
17
100
AcDbEntity
  8
PANEL_01
100
AcDbLine
 10
217.33333333333334
 20
5.333333333333314
 30
0.0
 11
290.11428571428576
 21
5.824489795918396
 31
0.0
  0
LINE
  5
B6
330
17
100
AcDbEntity
  8
PANEL_01
100
AcDbLine
 10
217.33333333333334
 20
5.333333333333314
 30
0.0
 11
226.34400793650792
 21
142.28579365079366
 31
0.0
  0
LINE
  5
B7
330
17
100
AcDbEntity
  8
PANEL_01
100
AcDbLine
 10
217.33333333333334
 20
5.333333333333314
 30
0.0
 11
220.5
 21
158.0
 31
0.0
  0
LINE
  5
B8
330
17
100
AcDbEntity
  8
PANEL_01
100
AcDbLine
 10
220.5
 20
158.0
 30
0.0
 11
226.34400793650792
 21
142.28579365079366
 31
0.0
  0
LINE
  5
B9
330
17
100
AcDbEntity
  8
PANEL_01
100
AcDbLine
 10
401.0
 20
184.0
 30
0.0
 11
396.3402777777778
 21
288.84375
 31
0.0
  0
LINE
  5
BA
330
17
100
AcDbEntity
  8
PANEL_01
100
AcDbLine
 10
466.0
 20
215.0
 30
0.0
 11
392.6428571428571
 21
218.74761904761908
 31
0.0
  0
LINE
  5
BB
330
17
100
AcDbEntity
  8
PANEL_01
100
AcDbLine
 10
274.0
 20
91.0
 30
0.0
 11
274.6666666666667
 21
24.666666666666686
 31
0.0
  0
LINE
  5
BC
330
17
100
AcDbEntity
  8
PANEL_01
100
AcDbLine
 10
200.0
 20
141.0
 30
0.0
 11
226.34400793650792
 21
142.28579365079366
 31
0.0
  0
LINE
  5
BD
330
17
100
AcDbEntity
  8
PANEL_01
100
AcDbLine
 10
246.33333333333331
 20
81.33333333333334
 30
0.0
 11
240.74203703703705
 21
8.364444444444473
 31
0.0
  0
LINE
  5
BE
330
17
100
AcDbEntity
  8
PANEL_01
100
AcDbLine
 10
246.33333333333331
 20
81.33333333333334
 30
0.0
 11
252.90046296296293
 21
4.861111111111143
 31
0.0
  0
LINE
  5
BF
330
17
100
AcDbEntity
  8
PANEL_01
100
AcDbLine
 10
470.0
 20
84.0
 30
0.0
 11
394.0502645502645
 21
79.90244708994706
 31
0.0
  0
LINE
  5
C0
330
17
100
AcDbEntity
  8
PANEL_01
100
AcDbLine
 10
294.5916666666667
 20
194.13333333333333
 30
0.0
 11
239.0
 21
255.0
 31
0.0
  0
LINE
  5
C1
330
17
100
AcDbEntity
  8
PANEL_01
100
AcDbLine
 10
294.5916666666667
 20
194.13333333333333
 30
0.0
 11
240.0
 21
192.0
 31
0.0
  0
LINE
  5
C2
330
17
100
AcDbEntity
  8
PANEL_01
100
AcDbLine
 10
294.5916666666667
 20
194.13333333333333
 30
0.0
 11
209.99074074074073
 21
194.712962962963
 31
0.0
  0
LINE
  5
C3
330
17
100
AcDbEntity
  8
PANEL_01
100
AcDbLine
 10
209.99074074074073
 20
194.712962962963
 30
0.0
 11
176.5
 21
192.0
 31
0.0
  0
LINE
  5
C4
330
17
100
AcDbEntity
  8
PANEL_01
100
AcDbLine
 10
294.5916666666667
 20
194.13333333333333
 30
0.0
 11
232.29166666666666
 21
261.625
 31
0.0
  0
LINE
  5
C5
330
17
100
AcDbEntity
  8
PANEL_01
100
AcDbLine
 10
232.29166666666666
 20
261.625
 30
0.0
 11
208.0
 21
177.0
 31
0.0
  0
LINE
  5
C6
330
17
100
AcDbEntity
  8
PANEL_01
100
AcDbLine
 10
466.0
 20
37.0
 30
0.0
 11
402.6203703703703
 21
92.11805555555557
 31
0.0
  0
LINE
  5
C7
330
17
100
AcDbEntity
  8
PANEL_01
100
AcDbLine
 10
402.6203703703703
 20
92.11805555555557
 30
0.0
 11
401.28507936507935
 21
3.749333333333311
 31
0.0
  0
LINE
  5
C8
330
17
100
AcDbEntity
  8
PANEL_01
100
AcDbLine
 10
356.0
 20
3.0
 30
0.0
 11
349.6285714285714
 21
148.8517006802721
 31
0.0
  0
LINE
  5
C9
330
17
100
AcDbEntity
  8
PANEL_01
100
AcDbLine
 10
349.6285714285714
 20
148.8517006802721
 30
0.0
 11
366.0
 21
147.6
 31
0.0
  0
LINE
  5
CA
330
17
100
AcDbEntity
  8
PANEL_01
100
AcDbLine
 10
210.69861111111112
 20
141.05
 30
0.0
 11
226.34400793650792
 21
142.28579365079366
 31
0.0
  0
LINE
  5
CB
330
17
100
AcDbEntity
  8
PANEL_01
100
AcDbLine
 10
416.0
 20
134.0
 30
0.0
 11
416.66666666666663
 21
147.33333333333334
 31
0.0
  0
LINE
  5
CC
330
17
100
AcDbEntity
  8
PANEL_01
100
AcDbLine
 10
416.66666666666663
 20
147.33333333333334
 30
0.0
 11
435.0
 21
146.0
 31
0.0
  0
LINE
  5
CD
330
17
100
AcDbEntity
  8
PANEL_01
100
AcDbLine
 10
185.05833333333334
 20
31.025000000000034
 30
0.0
 11
182.0
 21
55.33333333333334
 31
0.0
  0
LINE
  5
CE
330
17
100
AcDbEntity
  8
PANEL_01
100
AcDbLine
 10
182.0
 20
55.33333333333334
 30
0.0
 11
250.0
 21
54.0
 31
0.0
  0
LINE
  5
CF
330
17
100
AcDbEntity
  8
PANEL_01
100
AcDbLine
 10
185.05833333333334
 20
31.025000000000034
 30
0.0
 11
493.0
 21
31.0
 31
0.0
  0
LINE
  5
D0
330
17
100
AcDbEntity
  8
PANEL_01
100
AcDbLine
 10
176.5
 20
246.0
 30
0.0
 11
255.0
 21
246.0
 31
0.0
  0
LINE
  5
D1
330
17
100
AcDbEntity
  8
PANEL_01
100
AcDbLine
 10
412.0
 20
83.0
 30
0.0
 11
394.0502645502645
 21
79.90244708994706
 31
0.0
  0
LINE
  5
D2
330
17
100
AcDbEntity
  8
PANEL_01
100
AcDbLine
 10
175.0
 20
140.0
 30
0.0
 11
226.34400793650792
 21
142.28579365079366
 31
0.0
  0
LINE
  5
D3
330
17
100
AcDbEntity
  8
PANEL_01
100
AcDbLine
 10
214.0
 20
77.0
 30
0.0
 11
283.63911564625846
 21
76.9809523809524
 31
0.0
  0
LINE
  5
D4
330
17
100
AcDbEntity
  8
PANEL_01
100
AcDbLine
 10
394.0502645502645
 20
79.90244708994706
 30
0.0
 11
502.0
 21
83.0
 31
0.0
  0
LINE
  5
D5
330
17
100
AcDbEntity
  8
PANEL_01
100
AcDbLine
 10
394.0502645502645
 20
79.90244708994706
 30
0.0
 11
503.0
 21
76.0
 31
0.0
  0
LINE
  5
D6
330
17
100
AcDbEntity
  8
PANEL_01
100
AcDbLine
 10
394.0502645502645
 20
79.90244708994706
 30
0.0
 11
427.0
 21
74.0
 31
0.0
  0
LINE
  5
D7
330
17
100
AcDbEntity
  8
PANEL_01
100
AcDbLine
 10
286.90666666666664
 20
220.26666666666668
 30
0.0
 11
212.5
 21
217.0
 31
0.0
  0
LINE
  5
D8
330
17
100
AcDbEntity
  8
PANEL_01
100
AcDbLine
 10
212.5
 20
217.0
 30
0.0
 11
175.22916666666666
 21
219.04166666666666
 31
0.0
  0
LINE
  5
D9
330
17
100
AcDbEntity
  8
PANEL_01
100
AcDbLine
 10
175.22916666666666
 20
219.04166666666666
 30
0.0
 11
286.90666666666664
 21
220.26666666666668
 31
0.0
  0
LINE
  5
DA
330
17
100
AcDbEntity
  8
PANEL_01
100
AcDbLine
 10
502.0
 20
168.0
 30
0.0
 11
473.6666666666667
 21
167.33333333333331
 31
0.0
  0
LINE
  5
DB
330
17
100
AcDbEntity
  8
PANEL_01
100
AcDbLine
 10
473.6666666666667
 20
167.33333333333331
 30
0.0
 11
444.0
 21
267.0
 31
0.0
  0
LINE
  5
DC
330
17
100
AcDbEntity
  8
PANEL_01
100
AcDbLine
 10
444.0
 20
267.0
 30
0.0
 11
470.0
 21
182.0
 31
0.0
  0
LINE
  5
DD
330
17
100
AcDbEntity
  8
PANEL_01
100
AcDbLine
 10
473.0
 20
289.0
 30
0.0
 11
475.2199999999999
 21
8.079999999999984
 31
0.0
  0
LINE
  5
DE
330
17
100
AcDbEntity
  8
PANEL_01
100
AcDbLine
 10
458.0
 20
55.0
 30
0.0
 11
459.0
 21
154.0
 31
0.0
  0
LINE
  5
DF
330
17
100
AcDbEntity
  8
PANEL_01
100
AcDbLine
 10
459.0
 20
154.0
 30
0.0
 11
458.5
 21
2.5
 31
0.0
  0
LINE
  5
E0
330
17
100
AcDbEntity
  8
PANEL_01
100
AcDbLine
 10
458.5
 20
2.5
 30
0.0
 11
389.5588600718065
 21
4.8382351899092555
 31
0.0
  0
LINE
  5
E1
330
17
100
AcDbEntity
  8
PANEL_01
100
AcDbLine
 10
389.5588600718065
 20
4.8382351899092555
 30
0.0
 11
382.61632679306285
 21
144.85904982363311
 31
0.0
  0
LINE
  5
E2
330
17
100
AcDbEntity
  8
PANEL_01
100
AcDbLine
 10
382.61632679306285
 20
144.85904982363311
 30
0.0
 11
400.1738095238095
 21
143.78571428571425
 31
0.0
  0
LINE
  5
E3
330
17
100
AcDbEntity
  8
PANEL_01
100
AcDbLine
 10
389.5588600718065
 20
4.8382351899092555
 30
0.0
 11
475.2199999999999
 21
8.079999999999984
 31
0.0
  0
LINE
  5
E4
330
17
100
AcDbEntity
  8
PANEL_01
100
AcDbLine
 10
389.5588600718065
 20
4.8382351899092555
 30
0.0
 11
392.0
 21
158.0
 31
0.0
  0
LINE
  5
E5
330
17
100
AcDbEntity
  8
PANEL_01
100
AcDbLine
 10
389.5588600718065
 20
4.8382351899092555
 30
0.0
 11
401.28507936507935
 21
3.749333333333311
 31
0.0
  0
LINE
  5
E6
330
17
100
AcDbEntity
  8
PANEL_01
100
AcDbLine
 10
424.4
 20
248.71666666666667
 30
0.0
 11
423.0
 21
289.0
 31
0.0
  0
LINE
  5
E7
330
17
100
AcDbEntity
  8
PANEL_01
100
AcDbLine
 10
424.4
 20
248.71666666666667
 30
0.0
 11
499.5555555555556
 21
243.83333333333334
 31
0.0
  0
LINE
  5
E8
330
17
100
AcDbEntity
  8
PANEL_01
100
AcDbLine
 10
424.4
 20
248.71666666666667
 30
0.0
 11
467.0
 21
245.0
 31
0.0
  0
LINE
  5
E9
330
17
100
AcDbEntity
  8
PANEL_01
100
AcDbLine
 10
424.4
 20
248.71666666666667
 30
0.0
 11
429.4166666666667
 21
218.70833333333331
 31
0.0
  0
LINE
  5
EA
330
17
100
AcDbEntity
  8
PANEL_01
100
AcDbLine
 10
203.66666666666666
 20
12.0
 30
0.0
 11
205.02083333333334
 21
280.1458333333333
 31
0.0
  0
LINE
  5
EB
330
17
100
AcDbEntity
  8
PANEL_01
100
AcDbLine
 10
205.02083333333334
 20
280.1458333333333
 30
0.0
 11
474.0
 21
277.0
 31
0.0
  0
LINE
  5
EC
330
17
100
AcDbEntity
  8
PANEL_01
100
AcDbLine
 10
203.66666666666666
 20
12.0
 30
0.0
 11
290.11428571428576
 21
5.824489795918396
 31
0.0
  0
LINE
  5
ED
330
17
100
AcDbEntity
  8
PANEL_01
100
AcDbLine
 10
203.66666666666666
 20
12.0
 30
0.0
 11
475.2199999999999
 21
8.079999999999984
 31
0.0
  0
LINE
  5
EE
330
17
100
AcDbEntity
  8
PANEL_01
100
AcDbLine
 10
493.0
 20
31.0
 30
0.0
 11
497.6111111111111
 21
51.70833333333334
 31
0.0
  0
LINE
  5
EF
330
17
100
AcDbEntity
  8
PANEL_01
100
AcDbLine
 10
497.6111111111111
 20
51.70833333333334
 30
0.0
 11
430.3414965986394
 21
47.59387755102037
 31
0.0
  0
LINE
  5
F0
330
17
100
AcDbEntity
  8
PANEL_01
100
AcDbLine
 10
493.0
 20
31.0
 30
0.0
 11
494.7037037037037
 21
261.73533950617286
 31
0.0
  0
LINE
  5
F1
330
17
100
AcDbEntity
  8
PANEL_01
100
AcDbLine
 10
494.7037037037037
 20
261.73533950617286
 30
0.0
 11
499.5555555555556
 21
243.83333333333334
 31
0.0
  0
LINE
  5
F2
330
17
100
AcDbEntity
  8
PANEL_01
100
AcDbLine
 10
176.5
 20
167.5
 30
0.0
 11
202.5
 21
165.5
 31
0.0
  0
LINE
  5
F3
330
17
100
AcDbEntity
  8
PANEL_01
100
AcDbLine
 10
401.28507936507935
 20
3.749333333333311
 30
0.0
 11
475.2199999999999
 21
8.079999999999984
 31
0.0
  0
LINE
  5
F4
330
17
100
AcDbEntity
  8
PANEL_01
100
AcDbLine
 10
252.0
 20
118.0
 30
0.0
 11
245.8888888888889
 21
147.13888888888889
 31
0.0
  0
LINE
  5
F5
330
17
100
AcDbEntity
  8
PANEL_01
100
AcDbLine
 10
245.8888888888889
 20
147.13888888888889
 30
0.0
 11
263.0025
 21
146.882
 31
0.0
  0
LINE
  5
F6
330
17
100
AcDbEntity
  8
PANEL_01
100
AcDbLine
 10
289.0
 20
158.0
 30
0.0
 11
290.11428571428576
 21
5.824489795918396
 31
0.0
  0
LINE
  5
F7
330
17
100
AcDbEntity
  8
PANEL_01
100
AcDbLine
 10
468.0
 20
134.0
 30
0.0
 11
450.27777777777777
 21
139.61111111111111
 31
0.0
  0
LINE
  5
F8
330
17
100
AcDbEntity
  8
PANEL_01
100
AcDbLine
 10
450.27777777777777
 20
139.61111111111111
 30
0.0
 11
503.0
 21
141.5
 31
0.0
  0
LINE
  5
F9
330
17
100
AcDbEntity
  8
PANEL_01
100
AcDbLine
 10
424.0
 20
151.0
 30
0.0
 11
425.0
 21
2.0
 31
0.0
  0
LINE
  5
FA
330
17
100
AcDbEntity
  8
PANEL_01
100
AcDbLine
 10
425.0
 20
2.0
 30
0.0
 11
429.0
 21
158.0
 31
0.0
  0
LINE
  5
FB
330
17
100
AcDbEntity
  8
PANEL_01
100
AcDbLine
 10
429.0
 20
158.0
 30
0.0
 11
433.0
 21
134.0
 31
0.0
  0
LINE
  5
FC
330
17
100
AcDbEntity
  8
PANEL_01
100
AcDbLine
 10
502.0
 20
193.0
 30
0.0
 11
384.6547619047619
 21
193.0
 31
0.0
  0
LINE
  5
FD
330
17
100
AcDbEntity
  8
PANEL_01
100
AcDbLine
 10
435.0
 20
290.0
 30
0.0
 11
429.4166666666667
 21
218.70833333333331
 31
0.0
  0
LINE
  5
FE
330
17
100
AcDbEntity
  8
PANEL_01
100
AcDbLine
 10
392.6428571428571
 20
218.74761904761908
 30
0.0
 11
444.78000000000003
 21
252.63
 31
0.0
  0
LINE
  5
FF
330
17
100
AcDbEntity
  8
PANEL_01
100
AcDbLine
 10
444.78000000000003
 20
252.63
 30
0.0
 11
384.6547619047619
 21
193.0
 31
0.0
  0
LINE
  5
100
330
17
100
AcDbEntity
  8
PANEL_01
100
AcDbLine
 10
392.6428571428571
 20
218.74761904761908
 30
0.0
 11
396.3402777777778
 21
288.84375
 31
0.0
  0
LINE
  5
101
330
17
100
AcDbEntity
  8
PANEL_01
100
AcDbLine
 10
392.6428571428571
 20
218.74761904761908
 30
0.0
 11
502.27777777777777
 21
220.8888888888889
 31
0.0
  0
LINE
  5
102
330
17
100
AcDbEntity
  8
PANEL_01
100
AcDbLine
 10
392.6428571428571
 20
218.74761904761908
 30
0.0
 11
429.4166666666667
 21
218.70833333333331
 31
0.0
  0
LINE
  5
103
330
17
100
AcDbEntity
  8
PANEL_01
100
AcDbLine
 10
253.66666666666669
 20
256.0
 30
0.0
 11
249.24666666666667
 21
217.5
 31
0.0
  0
LINE
  5
104
330
17
100
AcDbEntity
  8
PANEL_01
100
AcDbLine
 10
258.0
 20
67.0
 30
0.0
 11
258.0
 21
91.0
 31
0.0
  0
LINE
  5
105
330
17
100
AcDbEntity
  8
PANEL_01
100
AcDbLine
 10
246.0
 20
289.0
 30
0.0
 11
249.24666666666667
 21
217.5
 31
0.0
  0
LINE
  5
106
330
17
100
AcDbEntity
  8
PANEL_01
100
AcDbLine
 10
365.0
 20
135.0
 30
0.0
 11
348.0
 21
135.0
 31
0.0
  0
LINE
  5
107
330
17
100
AcDbEntity
  8
PANEL_01
100
AcDbLine
 10
384.6547619047619
 20
193.0
 30
0.0
 11
396.3402777777778
 21
288.84375
 31
0.0
  0
LINE
  5
108
330
17
100
AcDbEntity
  8
PANEL_01
100
AcDbLine
 10
283.63911564625846
 20
76.9809523809524
 30
0.0
 11
175.72222222222223
 21
80.88888888888889
 31
0.0
  0
LINE
  5
109
330
17
100
AcDbEntity
  8
PANEL_01
100
AcDbLine
 10
283.63911564625846
 20
76.9809523809524
 30
0.0
 11
280.0
 21
97.79166666666666
 31
0.0
  0
LINE
  5
10A
330
17
100
AcDbEntity
  8
PANEL_01
100
AcDbLine
 10
280.0
 20
97.79166666666666
 30
0.0
 11
276.0
 21
41.0
 31
0.0
  0
LINE
  5
10B
330
17
100
AcDbEntity
  8
PANEL_01
100
AcDbLine
 10
175.0
 20
261.0
 30
0.0
 11
498.69444444444446
 21
262.05902777777777
 31
0.0
  0
LINE
  5
10C
330
17
100
AcDbEntity
  8
PANEL_01
100
AcDbLine
 10
498.69444444444446
 20
262.05902777777777
 30
0.0
 11
499.5555555555556
 21
243.83333333333334
 31
0.0
  0
LINE
  5
10D
330
17
100
AcDbEntity
  8
PANEL_01
100
AcDbLine
 10
252.90046296296293
 20
4.861111111111143
 30
0.0
 11
253.0
 21
154.0
 31
0.0
  0
LINE
  5
10E
330
17
100
AcDbEntity
  8
PANEL_01
100
AcDbLine
 10
252.90046296296293
 20
4.861111111111143
 30
0.0
 11
290.11428571428576
 21
5.824489795918396
 31
0.0
  0
LINE
  5
10F
330
17
100
AcDbEntity
  8
PANEL_01
100
AcDbLine
 10
249.24666666666667
 20
217.5
 30
0.0
 11
255.55555555555554
 21
286.1666666666667
 31
0.0
  0
LINE
  5
110
330
17
100
AcDbEntity
  8
PANEL_01
100
AcDbLine
 10
255.55555555555554
 20
286.1666666666667
 30
0.0
 11
233.0
 21
281.0
 31
0.0
  0
LINE
  5
111
330
17
100
AcDbEntity
  8
PANEL_01
100
AcDbLine
 10
433.0
 20
76.0
 30
0.0
 11
430.3414965986394
 21
47.59387755102037
 31
0.0
  0
LINE
  5
112
330
17
100
AcDbEntity
  8
PANEL_01
100
AcDbLine
 10
281.6736111111111
 20
148.5347222222222
 30
0.0
 11
281.07428571428574
 21
135.92000000000002
 31
0.0
  0
LINE
  5
113
330
17
100
AcDbEntity
  8
PANEL_01
100
AcDbLine
 10
281.07428571428574
 20
135.92000000000002
 30
0.0
 11
296.9
 21
143.79999999999998
 31
0.0
  0
LINE
  5
114
330
17
100
AcDbEntity
  8
PANEL_01
100
AcDbLine
 10
296.9
 20
143.79999999999998
 30
0.0
 11
281.6736111111111
 21
148.5347222222222
 31
0.0
  0
LINE
  5
115
330
17
100
AcDbEntity
  8
PANEL_01
100
AcDbLine
 10
281.6736111111111
 20
148.5347222222222
 30
0.0
 11
290.11428571428576
 21
5.824489795918396
 31
0.0
  0
LINE
  5
116
330
17
100
AcDbEntity
  8
PANEL_01
100
AcDbLine
 10
240.74203703703705
 20
8.364444444444473
 30
0.0
 11
290.11428571428576
 21
5.824489795918396
 31
0.0
  0
LINE
  5
117
330
17
100
AcDbEntity
  8
PANEL_01
100
AcDbLine
 10
240.74203703703705
 20
8.364444444444473
 30
0.0
 11
243.0
 21
63.0
 31
0.0
  0
TEXT
  5
118
330
17
100
AcDbEntity
  8
PANEL_01_LBL
100
AcDbText
 10
339.5
 20
272.6
 30
0.0
 40
12.0
  1
PART panel_01
100
AcDbText
  0
LINE
  5
11B
330
17
100
AcDbEntity
  8
PANEL_02
100
AcDbLine
 10
629.8204166666667
 20
73.90544270833334
 30
0.0
 11
612.5
 21
77.25
 31
0.0
  0
LINE
  5
11C
330
17
100
AcDbEntity
  8
PANEL_02
100
AcDbLine
 10
637.0
 20
45.0
 30
0.0
 11
654.0
 21
45.0
 31
0.0
  0
LINE
  5
11D
330
17
100
AcDbEntity
  8
PANEL_02
100
AcDbLine
 10
703.9248117103984
 20
57.41611242711369
 30
0.0
 11
689.37521494709
 21
57.6562003968254
 31
0.0
  0
LINE
  5
11E
330
17
100
AcDbEntity
  8
PANEL_02
100
AcDbLine
 10
689.37521494709
 20
57.6562003968254
 30
0.0
 11
696.0
 21
3.5
 31
0.0
  0
LINE
  5
11F
330
17
100
AcDbEntity
  8
PANEL_02
100
AcDbLine
 10
696.0
 20
3.5
 30
0.0
 11
703.9248117103984
 21
57.41611242711369
 31
0.0
  0
LINE
  5
120
330
17
100
AcDbEntity
  8
PANEL_02
100
AcDbLine
 10
703.9248117103984
 20
57.41611242711369
 30
0.0
 11
644.2884761904762
 21
62.712190476190486
 31
0.0
  0
LINE
  5
121
330
17
100
AcDbEntity
  8
PANEL_02
100
AcDbLine
 10
563.0
 20
79.0
 30
0.0
 11
581.5
 21
75.0
 31
0.0
  0
LINE
  5
122
330
17
100
AcDbEntity
  8
PANEL_02
100
AcDbLine
 10
581.5
 20
75.0
 30
0.0
 11
526.0
 21
72.0
 31
0.0
  0
LINE
  5
123
330
17
100
AcDbEntity
  8
PANEL_02
100
AcDbLine
 10
573.0
 20
92.0
 30
0.0
 11
716.0
 21
92.66666666666667
 31
0.0
  0
LINE
  5
124
330
17
100
AcDbEntity
  8
PANEL_02
100
AcDbLine
 10
716.0
 20
92.66666666666667
 30
0.0
 11
524.0
 21
94.0
 31
0.0
  0
LINE
  5
125
330
17
100
AcDbEntity
  8
PANEL_02
100
AcDbLine
 10
531.0
 20
31.0
 30
0.0
 11
716.0
 21
31.0
 31
0.0
  0
LINE
  5
126
330
17
100
AcDbEntity
  8
PANEL_02
100
AcDbLine
 10
596.7142857142857
 20
65.85714285714285
 30
0.0
 11
596.0
 21
3.0
 31
0.0
  0
LINE
  5
127
330
17
100
AcDbEntity
  8
PANEL_02
100
AcDbLine
 10
596.7142857142857
 20
65.85714285714285
 30
0.0
 11
629.0156666666667
 21
69.03483333333334
 31
0.0
  0
LINE
  5
128
330
17
100
AcDbEntity
  8
PANEL_02
100
AcDbLine
 10
596.7142857142857
 20
65.85714285714285
 30
0.0
 11
657.0
 21
61.0
 31
0.0
  0
LINE
  5
129
330
17
100
AcDbEntity
  8
PANEL_02
100
AcDbLine
 10
681.0
 20
75.5
 30
0.0
 11
662.5
 21
75.5
 31
0.0
  0
LINE
  5
12A
330
17
100
AcDbEntity
  8
PANEL_02
100
AcDbLine
 10
538.0
 20
93.0
 30
0.0
 11
538.0
 21
32.0
 31
0.0
  0
LINE
  5
12B
330
17
100
AcDbEntity
  8
PANEL_02
100
AcDbLine
 10
563.0
 20
66.0
 30
0.0
 11
579.0
 21
64.0
 31
0.0
  0
LINE
  5
12C
330
17
100
AcDbEntity
  8
PANEL_02
100
AcDbLine
 10
554.0
 20
116.0
 30
0.0
 11
553.4583333333334
 21
12.625
 31
0.0
  0
LINE
  5
12D
330
17
100
AcDbEntity
  8
PANEL_02
100
AcDbLine
 10
553.4583333333334
 20
12.625
 30
0.0
 11
716.0
 21
16.0
 31
0.0
  0
LINE
  5
12E
330
17
100
AcDbEntity
  8
PANEL_02
100
AcDbLine
 10
716.0
 20
109.0
 30
0.0
 11
553.0
 21
109.0
 31
0.0
  0
LINE
  5
12F
330
17
100
AcDbEntity
  8
PANEL_02
100
AcDbLine
 10
528.5
 20
52.5
 30
0.0
 11
605.0
 21
53.5
 31
0.0
  0
LINE
  5
130
330
17
100
AcDbEntity
  8
PANEL_02
100
AcDbLine
 10
671.0
 20
122.0
 30
0.0
 11
673.3888888888889
 21
63.27777777777778
 31
0.0
  0
LINE
  5
131
330
17
100
AcDbEntity
  8
PANEL_02
100
AcDbLine
 10
673.3888888888889
 20
63.27777777777778
 30
0.0
 11
644.2884761904762
 21
62.712190476190486
 31
0.0
  0
LINE
  5
132
330
17
100
AcDbEntity
  8
PANEL_02
100
AcDbLine
 10
637.9722222222222
 20
54.888888888888886
 30
0.0
 11
654.6666666666666
 21
52.33333333333333
 31
0.0
  0
LINE
  5
133
330
17
100
AcDbEntity
  8
PANEL_02
100
AcDbLine
 10
654.6666666666666
 20
52.33333333333333
 30
0.0
 11
644.2884761904762
 21
62.712190476190486
 31
0.0
  0
LINE
  5
134
330
17
100
AcDbEntity
  8
PANEL_02
100
AcDbLine
 10
644.2884761904762
 20
62.712190476190486
 30
0.0
 11
646.0
 21
2.0
 31
0.0
  0
TEXT
  5
135
330
17
100
AcDbEntity
  8
PANEL_02_LBL
100
AcDbText
 10
620.5
 20
111.0
 30
0.0
 40
12.0
  1
PART panel_02
100
AcDbText
  0
LINE
  5
138
330
17
100
AcDbEntity
  8
PANEL_03
100
AcDbLine
 10
821.0
 20
126.0
 30
0.0
 11
824.0
 21
83.0
 31
0.0
  0
LINE
  5
139
330
17
100
AcDbEntity
  8
PANEL_03
100
AcDbLine
 10
886.5
 20
98.0
 30
0.0
 11
738.0
 21
98.0
 31
0.0
  0
LINE
  5
13A
330
17
100
AcDbEntity
  8
PANEL_03
100
AcDbLine
 10
830.4111111111112
 20
54.75555555555556
 30
0.0
 11
884.0
 21
55.0
 31
0.0
  0
LINE
  5
13B
330
17
100
AcDbEntity
  8
PANEL_03
100
AcDbLine
 10
884.0
 20
55.0
 30
0.0
 11
830.4513888888889
 21
56.98090277777777
 31
0.0
  0
LINE
  5
13C
330
17
100
AcDbEntity
  8
PANEL_03
100
AcDbLine
 10
830.4513888888889
 20
56.98090277777777
 30
0.0
 11
834.0
 21
3.0
 31
0.0
  0
LINE
  5
13D
330
17
100
AcDbEntity
  8
PANEL_03
100
AcDbLine
 10
857.0
 20
15.0
 30
0.0
 11
764.4583333333334
 21
11.625
 31
0.0
  0
LINE
  5
13E
330
17
100
AcDbEntity
  8
PANEL_03
100
AcDbLine
 10
764.4583333333334
 20
11.625
 30
0.0
 11
764.375
 21
117.4375
 31
0.0
  0
LINE
  5
13F
330
17
100
AcDbEntity
  8
PANEL_03
100
AcDbLine
 10
764.375
 20
117.4375
 30
0.0
 11
858.5
 21
114.0
 31
0.0
  0
LINE
  5
140
330
17
100
AcDbEntity
  8
PANEL_03
100
AcDbLine
 10
879.7576388888889
 20
33.84
 30
0.0
 11
746.625
 21
30.375
 31
0.0
  0
LINE
  5
141
330
17
100
AcDbEntity
  8
PANEL_03
100
AcDbLine
 10
746.625
 20
30.375
 30
0.0
 11
750.0
 21
96.0
 31
0.0
  0
LINE
  5
142
330
17
100
AcDbEntity
  8
PANEL_03
100
AcDbLine
 10
879.7576388888889
 20
33.84
 30
0.0
 11
874.0
 21
97.0
 31
0.0
  0
LINE
  5
143
330
17
100
AcDbEntity
  8
PANEL_03
100
AcDbLine
 10
874.0
 20
97.0
 30
0.0
 11
877.8315972222222
 21
31.29166666666667
 31
0.0
  0
LINE
  5
144
330
17
100
AcDbEntity
  8
PANEL_03
100
AcDbLine
 10
879.7576388888889
 20
33.84
 30
0.0
 11
831.5475694444444
 21
43.77977430555555
 31
0.0
  0
LINE
  5
145
330
17
100
AcDbEntity
  8
PANEL_03
100
AcDbLine
 10
852.0655555555555
 20
82.2219111111111
 30
0.0
 11
771.8840277777778
 21
84.80694444444444
 31
0.0
  0
LINE
  5
146
330
17
100
AcDbEntity
  8
PANEL_03
100
AcDbLine
 10
771.8840277777778
 20
84.80694444444444
 30
0.0
 11
779.0
 21
124.0
 31
0.0
  0
LINE
  5
147
330
17
100
AcDbEntity
  8
PANEL_03
100
AcDbLine
 10
852.0655555555555
 20
82.2219111111111
 30
0.0
 11
847.0
 21
126.0
 31
0.0
  0
LINE
  5
148
330
17
100
AcDbEntity
  8
PANEL_03
100
AcDbLine
 10
852.0655555555555
 20
82.2219111111111
 30
0.0
 11
811.0
 21
79.0
 31
0.0
  0
LINE
  5
149
330
17
100
AcDbEntity
  8
PANEL_03
100
AcDbLine
 10
853.0
 20
38.0
 30
0.0
 11
831.5475694444444
 21
43.77977430555555
 31
0.0
  0
LINE
  5
14A
330
17
100
AcDbEntity
  8
PANEL_03
100
AcDbLine
 10
886.5
 20
87.0
 30
0.0
 11
741.0
 21
87.0
 31
0.0
  0
LINE
  5
14B
330
17
100
AcDbEntity
  8
PANEL_03
100
AcDbLine
 10
739.0
 20
77.0
 30
0.0
 11
886.0
 21
77.0
 31
0.0
  0
LINE
  5
14C
330
17
100
AcDbEntity
  8
PANEL_03
100
AcDbLine
 10
858.0
 20
125.0
 30
0.0
 11
858.0
 21
1.0
 31
0.0
  0
LINE
  5
14D
330
17
100
AcDbEntity
  8
PANEL_03
100
AcDbLine
 10
831.5475694444444
 20
43.77977430555555
 30
0.0
 11
855.0
 21
48.0
 31
0.0
  0
LINE
  5
14E
330
17
100
AcDbEntity
  8
PANEL_03
100
AcDbLine
 10
740.0
 20
56.0
 30
0.0
 11
793.0972222222222
 21
57.89583333333333
 31
0.0
  0
LINE
  5
14F
330
17
100
AcDbEntity
  8
PANEL_03
100
AcDbLine
 10
793.0972222222222
 20
57.89583333333333
 30
0.0
 11
790.0
 21
5.0
 31
0.0
  0
LINE
  5
150
330
17
100
AcDbEntity
  8
PANEL_03
100
AcDbLine
 10
740.0
 20
42.0
 30
0.0
 11
791.0
 21
40.0
 31
0.0
  0
LINE
  5
151
330
17
100
AcDbEntity
  8
PANEL_03
100
AcDbLine
 10
853.7075555555556
 20
86.24444444444444
 30
0.0
 11
770.9779320987655
 21
88.4287037037037
 31
0.0
  0
TEXT
  5
152
330
17
100
AcDbEntity
  8
PANEL_03_LBL
100
AcDbText
 10
812.5
 20
116.0
 30
0.0
 40
12.0
  1
PART panel_03
100
AcDbText
  0
LINE
  5
155
330
17
100
AcDbEntity
  8
PANEL_04
100
AcDbLine
 10
950.0
 20
94.0
 30
0.0
 11
1009.6666666666666
 21
36.0
 31
0.0
  0
LINE
  5
156
330
17
100
AcDbEntity
  8
PANEL_04
100
AcDbLine
 10
1012.0
 20
2.0
 30
0.0
 11
1011.6354166666666
 21
124.25520833333333
 31
0.0
  0
LINE
  5
157
330
17
100
AcDbEntity
  8
PANEL_04
100
AcDbLine
 10
1011.6354166666666
 20
124.25520833333333
 30
0.0
 11
938.375
 21
123.14583333333333
 31
0.0
  0
LINE
  5
158
330
17
100
AcDbEntity
  8
PANEL_04
100
AcDbLine
 10
938.375
 20
123.14583333333333
 30
0.0
 11
938.375
 21
11.625
 31
0.0
  0
LINE
  5
159
330
17
100
AcDbEntity
  8
PANEL_04
100
AcDbLine
 10
938.375
 20
11.625
 30
0.0
 11
1011.0
 21
15.0
 31
0.0
  0
LINE
  5
15A
330
17
100
AcDbEntity
  8
PANEL_04
100
AcDbLine
 10
915.0
 20
30.0
 30
0.0
 11
1030.25
 21
30.5
 31
0.0
  0
LINE
  5
15B
330
17
100
AcDbEntity
  8
PANEL_04
100
AcDbLine
 10
1030.25
 20
30.5
 30
0.0
 11
1027.0
 21
103.0
 31
0.0
  0
LINE
  5
15C
330
17
100
AcDbEntity
  8
PANEL_04
100
AcDbLine
 10
922.0
 20
31.5
 30
0.0
 11
922.0
 21
103.0
 31
0.0
  0
LINE
  5
15D
330
17
100
AcDbEntity
  8
PANEL_04
100
AcDbLine
 10
909.5
 20
104.0
 30
0.0
 11
1038.0
 21
104.0
 31
0.0
  0
LINE
  5
15E
330
17
100
AcDbEntity
  8
PANEL_04
100
AcDbLine
 10
1009.6666666666666
 20
36.0
 30
0.0
 11
969.0
 21
80.0
 31
0.0
  0
LINE
  5
15F
330
17
100
AcDbEntity
  8
PANEL_04
100
AcDbLine
 10
1009.6666666666666
 20
36.0
 30
0.0
 11
942.5
 21
105.5
 31
0.0
  0
LINE
  5
160
330
17
100
AcDbEntity
  8
PANEL_04
100
AcDbLine
 10
942.5
 20
105.5
 30
0.0
 11
976.0
 21
72.0
 31
0.0
  0
TEXT
  5
161
330
17
100
AcDbEntity
  8
PANEL_04_LBL
100
AcDbText
 10
973.5
 20
121.0
 30
0.0
 40
12.0
  1
PART panel_04
100
AcDbText
  0
LINE
  5
164
330
17
100
AcDbEntity
  8
PANEL_05
100
AcDbLine
 10
1252.0
 20
15.0
 30
0.0
 11
1087.5
 21
11.5
 31
0.0
  0
LINE
  5
165
330
17
100
AcDbEntity
  8
PANEL_05
100
AcDbLine
 10
1087.5
 20
11.5
 30
0.0
 11
1087.4583333333333
 21
139.91666666666666
 31
0.0
  0
LINE
  5
166
330
17
100
AcDbEntity
  8
PANEL_05
100
AcDbLine
 10
1087.4583333333333
 20
139.91666666666666
 30
0.0
 11
1252.0
 21
137.0
 31
0.0
  0
LINE
  5
167
330
17
100
AcDbEntity
  8
PANEL_05
100
AcDbLine
 10
1251.0
 20
5.0
 30
0.0
 11
1251.0
 21
149.0
 31
0.0
  0
LINE
  5
168
330
17
100
AcDbEntity
  8
PANEL_05
100
AcDbLine
 10
1266.0
 20
120.0
 30
0.0
 11
1269.6066666666666
 21
29.799999999999997
 31
0.0
  0
LINE
  5
169
330
17
100
AcDbEntity
  8
PANEL_05
100
AcDbLine
 10
1104.0
 20
123.0
 30
0.0
 11
1105.0
 21
75.0
 31
0.0
  0
LINE
  5
16A
330
17
100
AcDbEntity
  8
PANEL_05
100
AcDbLine
 10
1201.0
 20
75.0
 30
0.0
 11
1269.6066666666666
 21
29.799999999999997
 31
0.0
  0
LINE
  5
16B
330
17
100
AcDbEntity
  8
PANEL_05
100
AcDbLine
 10
1062.0
 20
121.0
 30
0.0
 11
1278.0
 21
121.0
 31
0.0
  0
LINE
  5
16C
330
17
100
AcDbEntity
  8
PANEL_05
100
AcDbLine
 10
1114.0
 20
108.0
 30
0.0
 11
1061.0
 21
104.0
 31
0.0
  0
LINE
  5
16D
330
17
100
AcDbEntity
  8
PANEL_05
100
AcDbLine
 10
1059.75
 20
81.75
 30
0.0
 11
1146.875
 21
83.8
 31
0.0
  0
LINE
  5
16E
330
17
100
AcDbEntity
  8
PANEL_05
100
AcDbLine
 10
1146.875
 20
83.8
 30
0.0
 11
1148.6666666666667
 21
5.333333333333343
 31
0.0
  0
LINE
  5
16F
330
17
100
AcDbEntity
  8
PANEL_05
100
AcDbLine
 10
1148.6666666666667
 20
5.333333333333343
 30
0.0
 11
1132.0
 21
148.66666666666666
 31
0.0
  0
LINE
  5
170
330
17
100
AcDbEntity
  8
PANEL_05
100
AcDbLine
 10
1102.0
 20
97.0
 30
0.0
 11
1102.0
 21
148.0
 31
0.0
  0
LINE
  5
171
330
17
100
AcDbEntity
  8
PANEL_05
100
AcDbLine
 10
1136.0
 20
97.0
 30
0.0
 11
1135.0
 21
70.0
 31
0.0
  0
LINE
  5
172
330
17
100
AcDbEntity
  8
PANEL_05
100
AcDbLine
 10
1066.0
 20
30.0
 30
0.0
 11
1269.6066666666666
 21
29.799999999999997
 31
0.0
  0
LINE
  5
173
330
17
100
AcDbEntity
  8
PANEL_05
100
AcDbLine
 10
1249.0
 20
39.0
 30
0.0
 11
1133.3333333333333
 21
121.66666666666667
 31
0.0
  0
LINE
  5
174
330
17
100
AcDbEntity
  8
PANEL_05
100
AcDbLine
 10
1157.0
 20
57.0
 30
0.0
 11
1061.5
 21
57.0
 31
0.0
  0
LINE
  5
175
330
17
100
AcDbEntity
  8
PANEL_05
100
AcDbLine
 10
1073.0
 20
119.0
 30
0.0
 11
1073.0
 21
31.0
 31
0.0
  0
LINE
  5
176
330
17
100
AcDbEntity
  8
PANEL_05
100
AcDbLine
 10
1113.0
 20
146.0
 30
0.0
 11
1113.0
 21
75.0
 31
0.0
  0
LINE
  5
177
330
17
100
AcDbEntity
  8
PANEL_05
100
AcDbLine
 10
1144.0
 20
49.0
 30
0.0
 11
1132.0
 21
148.66666666666666
 31
0.0
  0
LINE
  5
178
330
17
100
AcDbEntity
  8
PANEL_05
100
AcDbLine
 10
1226.0
 20
59.0
 30
0.0
 11
1133.3333333333333
 21
121.66666666666667
 31
0.0
  0
LINE
  5
179
330
17
100
AcDbEntity
  8
PANEL_05
100
AcDbLine
 10
1133.3333333333333
 20
121.66666666666667
 30
0.0
 11
1132.0
 21
148.66666666666666
 31
0.0
  0
TEXT
  5
17A
330
17
100
AcDbEntity
  8
PANEL_05_LBL
100
AcDbText
 10
1170.0
 20
138.0
 30
0.0
 40
12.0
  1
PART panel_05
100
AcDbText
  0
LINE
  5
17D
330
17
100
AcDbEntity
  8
PANEL_06
100
AcDbLine
 10
1360.0
 20
73.0
 30
0.0
 11
1302.0
 21
67.0
 31
0.0
  0
LINE
  5
17E
330
17
100
AcDbEntity
  8
PANEL_06
100
AcDbLine
 10
1383.0
 20
108.0
 30
0.0
 11
1383.0
 21
2.5
 31
0.0
  0
LINE
  5
17F
330
17
100
AcDbEntity
  8
PANEL_06
100
AcDbLine
 10
1404.7152777777778
 20
46.40277777777778
 30
0.0
 11
1303.1583333333333
 21
46.299166666666665
 31
0.0
  0
LINE
  5
180
330
17
100
AcDbEntity
  8
PANEL_06
100
AcDbLine
 10
1303.1583333333333
 20
46.299166666666665
 30
0.0
 11
1347.9761904761904
 21
53.319047619047616
 31
0.0
  0
LINE
  5
181
330
17
100
AcDbEntity
  8
PANEL_06
100
AcDbLine
 10
1331.9112222222222
 20
101.58933333333333
 30
0.0
 11
1382.0
 21
97.0
 31
0.0
  0
LINE
  5
182
330
17
100
AcDbEntity
  8
PANEL_06
100
AcDbLine
 10
1331.9112222222222
 20
101.58933333333333
 30
0.0
 11
1347.9761904761904
 21
53.319047619047616
 31
0.0
  0
LINE
  5
183
330
17
100
AcDbEntity
  8
PANEL_06
100
AcDbLine
 10
1331.9112222222222
 20
101.58933333333333
 30
0.0
 11
1329.5
 21
10.5
 31
0.0
  0
LINE
  5
184
330
17
100
AcDbEntity
  8
PANEL_06
100
AcDbLine
 10
1381.0
 20
13.0
 30
0.0
 11
1329.5
 21
10.5
 31
0.0
  0
LINE
  5
185
330
17
100
AcDbEntity
  8
PANEL_06
100
AcDbLine
 10
1329.5
 20
10.5
 30
0.0
 11
1373.0
 21
16.0
 31
0.0
  0
LINE
  5
186
330
17
100
AcDbEntity
  8
PANEL_06
100
AcDbLine
 10
1399.0
 20
80.0
 30
0.0
 11
1401.7916666666667
 21
28.916666666666657
 31
0.0
  0
LINE
  5
187
330
17
100
AcDbEntity
  8
PANEL_06
100
AcDbLine
 10
1401.7916666666667
 20
28.916666666666657
 30
0.0
 11
1310.625
 21
30.0
 31
0.0
  0
LINE
  5
188
330
17
100
AcDbEntity
  8
PANEL_06
100
AcDbLine
 10
1310.625
 20
30.0
 30
0.0
 11
1308.5
 21
80.39583333333333
 31
0.0
  0
LINE
  5
189
330
17
100
AcDbEntity
  8
PANEL_06
100
AcDbLine
 10
1308.5
 20
80.39583333333333
 30
0.0
 11
1412.0
 21
81.5
 31
0.0
  0
LINE
  5
18A
330
17
100
AcDbEntity
  8
PANEL_06
100
AcDbLine
 10
1347.0
 20
24.0
 30
0.0
 11
1347.3333333333333
 21
75.66666666666666
 31
0.0
  0
LINE
  5
18B
330
17
100
AcDbEntity
  8
PANEL_06
100
AcDbLine
 10
1348.0
 20
37.0
 30
0.0
 11
1342.3726851851852
 21
106.35185185185185
 31
0.0
  0
LINE
  5
18C
330
17
100
AcDbEntity
  8
PANEL_06
100
AcDbLine
 10
1342.3726851851852
 20
106.35185185185185
 30
0.0
 11
1347.3333333333333
 21
75.66666666666666
 31
0.0
  0
LINE
  5
18D
330
17
100
AcDbEntity
  8
PANEL_06
100
AcDbLine
 10
1373.0
 20
63.0
 30
0.0
 11
1373.0
 21
3.0
 31
0.0
  0
LINE
  5
18E
330
17
100
AcDbEntity
  8
PANEL_06
100
AcDbLine
 10
1347.9761904761904
 20
53.319047619047616
 30
0.0
 11
1380.75
 21
49.25
 31
0.0
  0
LINE
  5
18F
330
17
100
AcDbEntity
  8
PANEL_06
100
AcDbLine
 10
1380.75
 20
49.25
 30
0.0
 11
1347.3333333333333
 21
75.66666666666666
 31
0.0
  0
TEXT
  5
190
330
17
100
AcDbEntity
  8
PANEL_06_LBL
100
AcDbText
 10
1357.0
 20
97.0
 30
0.0
 40
12.0
  1
PART panel_06
100
AcDbText
  0
LINE
  5
193
330
17
100
AcDbEntity
  8
PANEL_07
100
AcDbLine
 10
1508.0
 20
11.0
 30
0.0
 11
1508.0
 21
63.0
 31
0.0
  0
LINE
  5
194
330
17
100
AcDbEntity
  8
PANEL_07
100
AcDbLine
 10
1558.0
 20
2.0
 30
0.0
 11
1558.6180555555557
 21
106.03125
 31
0.0
  0
LINE
  5
195
330
17
100
AcDbEntity
  8
PANEL_07
100
AcDbLine
 10
1558.6180555555557
 20
106.03125
 30
0.0
 11
1460.4583333333333
 21
105.375
 31
0.0
  0
LINE
  5
196
330
17
100
AcDbEntity
  8
PANEL_07
100
AcDbLine
 10
1460.4583333333333
 20
105.375
 30
0.0
 11
1461.0
 21
7.0
 31
0.0
  0
LINE
  5
197
330
17
100
AcDbEntity
  8
PANEL_07
100
AcDbLine
 10
1584.0
 20
86.0
 30
0.0
 11
1442.6666666666667
 21
85.33333333333333
 31
0.0
  0
LINE
  5
198
330
17
100
AcDbEntity
  8
PANEL_07
100
AcDbLine
 10
1442.6666666666667
 20
85.33333333333333
 30
0.0
 11
1442.3958333333333
 21
30.708333333333343
 31
0.0
  0
LINE
  5
199
330
17
100
AcDbEntity
  8
PANEL_07
100
AcDbLine
 10
1442.3958333333333
 20
30.708333333333343
 30
0.0
 11
1581.0
 21
30.0
 31
0.0
  0
LINE
  5
19A
330
17
100
AcDbEntity
  8
PANEL_07
100
AcDbLine
 10
1477.0
 20
60.0
 30
0.0
 11
1477.0
 21
112.0
 31
0.0
  0
LINE
  5
19B
330
17
100
AcDbEntity
  8
PANEL_07
100
AcDbLine
 10
1434.5
 20
47.0
 30
0.0
 11
1516.0
 21
47.0
 31
0.0
  0
LINE
  5
19C
330
17
100
AcDbEntity
  8
PANEL_07
100
AcDbLine
 10
1435.5
 20
69.0
 30
0.0
 11
1487.0
 21
69.0
 31
0.0
  0
LINE
  5
19D
330
17
100
AcDbEntity
  8
PANEL_07
100
AcDbLine
 10
1506.0
 20
1.0
 30
0.0
 11
1506.0
 21
57.0
 31
0.0
  0
LINE
  5
19E
330
17
100
AcDbEntity
  8
PANEL_07
100
AcDbLine
 10
1516.0
 20
90.0
 30
0.0
 11
1559.0
 21
39.0
 31
0.0
  0
LINE
  5
19F
330
17
100
AcDbEntity
  8
PANEL_07
100
AcDbLine
 10
1559.0
 20
39.0
 30
0.0
 11
1519.0
 21
82.0
 31
0.0
  0
LINE
  5
1A0
330
17
100
AcDbEntity
  8
PANEL_07
100
AcDbLine
 10
1573.0
 20
32.0
 30
0.0
 11
1574.0
 21
85.0
 31
0.0
  0
LINE
  5
1A1
330
17
100
AcDbEntity
  8
PANEL_07
100
AcDbLine
 10
1574.0
 20
85.0
 30
0.0
 11
1575.0
 21
51.0
 31
0.0
  0
LINE
  5
1A2
330
17
100
AcDbEntity
  8
PANEL_07
100
AcDbLine
 10
1460.0
 20
15.0
 30
0.0
 11
1559.0
 21
15.0
 31
0.0
  0
TEXT
  5
1A3
330
17
100
AcDbEntity
  8
PANEL_07_LBL
100
AcDbText
 10
1510.0
 20
103.0
 30
0.0
 40
12.0
  1
PART panel_07
100
AcDbText
  0
LINE
  5
1A6
330
17
100
AcDbEntity
  8
PANEL_08
100
AcDbLine
 10
1635.0
 20
32.0
 30
0.0
 11
1730.0
 21
31.5
 31
0.0
  0
LINE
  5
1A7
330
17
100
AcDbEntity
  8
PANEL_08
100
AcDbLine
 10
1730.0
 20
31.5
 30
0.0
 11
1617.888888888889
 21
31.0
 31
0.0
  0
LINE
  5
1A8
330
17
100
AcDbEntity
  8
PANEL_08
100
AcDbLine
 10
1617.888888888889
 20
31.0
 30
0.0
 11
1614.5
 21
77.09722222222223
 31
0.0
  0
LINE
  5
1A9
330
17
100
AcDbEntity
  8
PANEL_08
100
AcDbLine
 10
1614.5
 20
77.09722222222223
 30
0.0
 11
1736.5
 21
77.0
 31
0.0
  0
LINE
  5
1AA
330
17
100
AcDbEntity
  8
PANEL_08
100
AcDbLine
 10
1733.5
 20
60.0
 30
0.0
 11
1609.298611111111
 21
54.5
 31
0.0
  0
LINE
  5
1AB
330
17
100
AcDbEntity
  8
PANEL_08
100
AcDbLine
 10
1609.298611111111
 20
54.5
 30
0.0
 11
1659.0
 21
49.0
 31
0.0
  0
LINE
  5
1AC
330
17
100
AcDbEntity
  8
PANEL_08
100
AcDbLine
 10
1641.5740740740741
 20
55.00925925925927
 30
0.0
 11
1650.0
 21
4.0
 31
0.0
  0
LINE
  5
1AD
330
17
100
AcDbEntity
  8
PANEL_08
100
AcDbLine
 10
1650.0
 20
4.0
 30
0.0
 11
1651.0
 21
65.0
 31
0.0
  0
LINE
  5
1AE
330
17
100
AcDbEntity
  8
PANEL_08
100
AcDbLine
 10
1641.5740740740741
 20
55.00925925925927
 30
0.0
 11
1733.5
 21
47.5
 31
0.0
  0
LINE
  5
1AF
330
17
100
AcDbEntity
  8
PANEL_08
100
AcDbLine
 10
1733.5
 20
47.5
 30
0.0
 11
1690.6666666666667
 21
55.0
 31
0.0
  0
LINE
  5
1B0
330
17
100
AcDbEntity
  8
PANEL_08
100
AcDbLine
 10
1690.6666666666667
 20
55.0
 30
0.0
 11
1693.0
 21
2.0
 31
0.0
  0
LINE
  5
1B1
330
17
100
AcDbEntity
  8
PANEL_08
100
AcDbLine
 10
1641.5740740740741
 20
55.00925925925927
 30
0.0
 11
1705.0
 21
56.0
 31
0.0
  0
LINE
  5
1B2
330
17
100
AcDbEntity
  8
PANEL_08
100
AcDbLine
 10
1636.0
 20
100.0
 30
0.0
 11
1635.4583333333333
 21
11.625
 31
0.0
  0
LINE
  5
1B3
330
17
100
AcDbEntity
  8
PANEL_08
100
AcDbLine
 10
1635.4583333333333
 20
11.625
 30
0.0
 11
1708.5
 21
15.0
 31
0.0
  0
LINE
  5
1B4
330
17
100
AcDbEntity
  8
PANEL_08
100
AcDbLine
 10
1723.0
 20
32.0
 30
0.0
 11
1723.0
 21
77.0
 31
0.0
  0
LINE
  5
1B5
330
17
100
AcDbEntity
  8
PANEL_08
100
AcDbLine
 10
1671.0
 20
105.0
 30
0.0
 11
1671.0
 21
53.0
 31
0.0
  0
LINE
  5
1B6
330
17
100
AcDbEntity
  8
PANEL_08
100
AcDbLine
 10
1708.0
 20
106.0
 30
0.0
 11
1708.0
 21
3.5
 31
0.0
  0
LINE
  5
1B7
330
17
100
AcDbEntity
  8
PANEL_08
100
AcDbLine
 10
1635.0
 20
93.0
 30
0.0
 11
1709.0
 21
93.0
 31
0.0
  0
TEXT
  5
1B8
330
17
100
AcDbEntity
  8
PANEL_08_LBL
100
AcDbText
 10
1672.5
 20
95.0
 30
0.0
 40
12.0
  1
PART panel_08
100
AcDbText
  0
LINE
  5
1BB
330
17
100
AcDbEntity
  8
PANEL_09
100
AcDbLine
 10
1841.5
 20
141.0
 30
0.0
 11
1841.5
 21
68.0
 31
0.0
  0
LINE
  5
1BC
330
17
100
AcDbEntity
  8
PANEL_09
100
AcDbLine
 10
1899.0
 20
111.0
 30
0.0
 11
1902.6533333333334
 21
30.426666666666662
 31
0.0
  0
LINE
  5
1BD
330
17
100
AcDbEntity
  8
PANEL_09
100
AcDbLine
 10
1871.0
 20
2.0
 30
0.0
 11
1872.0
 21
80.5
 31
0.0
  0
LINE
  5
1BE
330
17
100
AcDbEntity
  8
PANEL_09
100
AcDbLine
 10
1872.0
 20
80.5
 30
0.0
 11
1873.0
 21
12.0
 31
0.0
  0
LINE
  5
1BF
330
17
100
AcDbEntity
  8
PANEL_09
100
AcDbLine
 10
1772.0
 20
32.0
 30
0.0
 11
1770.25
 21
112.0
 31
0.0
  0
LINE
  5
1C0
330
17
100
AcDbEntity
  8
PANEL_09
100
AcDbLine
 10
1841.5
 20
50.0
 30
0.0
 11
1841.0
 21
3.0
 31
0.0
  0
LINE
  5
1C1
330
17
100
AcDbEntity
  8
PANEL_09
100
AcDbLine
 10
1790.0
 20
86.0
 30
0.0
 11
1824.5
 21
30.0
 31
0.0
  0
LINE
  5
1C2
330
17
100
AcDbEntity
  8
PANEL_09
100
AcDbLine
 10
1824.5
 20
30.0
 30
0.0
 11
1770.25
 21
112.0
 31
0.0
  0
LINE
  5
1C3
330
17
100
AcDbEntity
  8
PANEL_09
100
AcDbLine
 10
1883.0
 20
2.0
 30
0.0
 11
1883.0
 21
141.0
 31
0.0
  0
LINE
  5
1C4
330
17
100
AcDbEntity
  8
PANEL_09
100
AcDbLine
 10
1786.0
 20
102.0
 30
0.0
 11
1804.0
 21
94.0
 31
0.0
  0
LINE
  5
1C5
330
17
100
AcDbEntity
  8
PANEL_09
100
AcDbLine
 10
1882.0
 20
15.0
 30
0.0
 11
1788.375
 21
11.625
 31
0.0
  0
LINE
  5
1C6
330
17
100
AcDbEntity
  8
PANEL_09
100
AcDbLine
 10
1788.375
 20
11.625
 30
0.0
 11
1788.0
 21
135.0
 31
0.0
  0
LINE
  5
1C7
330
17
100
AcDbEntity
  8
PANEL_09
100
AcDbLine
 10
1913.0
 20
76.0
 30
0.0
 11
1834.0
 21
75.0
 31
0.0
  0
LINE
  5
1C8
330
17
100
AcDbEntity
  8
PANEL_09
100
AcDbLine
 10
1834.0
 20
75.0
 30
0.0
 11
1884.3333333333333
 21
73.0
 31
0.0
  0
LINE
  5
1C9
330
17
100
AcDbEntity
  8
PANEL_09
100
AcDbLine
 10
1834.0
 20
43.0
 30
0.0
 11
1909.5
 21
43.0
 31
0.0
  0
LINE
  5
1CA
330
17
100
AcDbEntity
  8
PANEL_09
100
AcDbLine
 10
1816.0
 20
110.0
 30
0.0
 11
1884.3333333333333
 21
73.0
 31
0.0
  0
LINE
  5
1CB
330
17
100
AcDbEntity
  8
PANEL_09
100
AcDbLine
 10
1902.6533333333334
 20
30.426666666666662
 30
0.0
 11
1903.0
 21
81.0
 31
0.0
  0
LINE
  5
1CC
330
17
100
AcDbEntity
  8
PANEL_09
100
AcDbLine
 10
1902.6533333333334
 20
30.426666666666662
 30
0.0
 11
1765.0
 21
31.0
 31
0.0
  0
LINE
  5
1CD
330
17
100
AcDbEntity
  8
PANEL_09
100
AcDbLine
 10
1865.0
 20
67.0
 30
0.0
 11
1909.0
 21
57.0
 31
0.0
  0
LINE
  5
1CE
330
17
100
AcDbEntity
  8
PANEL_09
100
AcDbLine
 10
1883.5
 20
128.0
 30
0.0
 11
1787.5
 21
128.0
 31
0.0
  0
LINE
  5
1CF
330
17
100
AcDbEntity
  8
PANEL_09
100
AcDbLine
 10
1799.0
 20
124.0
 30
0.0
 11
1884.3333333333333
 21
73.0
 31
0.0
  0
LINE
  5
1D0
330
17
100
AcDbEntity
  8
PANEL_09
100
AcDbLine
 10
1758.0
 20
113.0
 30
0.0
 11
1910.5
 21
112.0
 31
0.0
  0
LINE
  5
1D1
330
17
100
AcDbEntity
  8
PANEL_09
100
AcDbLine
 10
1910.5
 20
112.0
 30
0.0
 11
1770.25
 21
112.0
 31
0.0
  0
TEXT
  5
1D2
330
17
100
AcDbEntity
  8
PANEL_09_LBL
100
AcDbText
 10
1836.0
 20
130.0
 30
0.0
 40
12.0
  1
PART panel_09
100
AcDbText
  0
LINE
  5
1D5
330
17
100
AcDbEntity
  8
PANEL_10
100
AcDbLine
 10
1967.0
 20
66.0
 30
0.0
 11
2016.0
 21
138.5
 31
0.0
  0
LINE
  5
1D6
330
17
100
AcDbEntity
  8
PANEL_10
100
AcDbLine
 10
2016.0
 20
138.5
 30
0.0
 11
2014.7222222222222
 21
108.27777777777777
 31
0.0
  0
LINE
  5
1D7
330
17
100
AcDbEntity
  8
PANEL_10
100
AcDbLine
 10
2014.7222222222222
 20
108.27777777777777
 30
0.0
 11
2011.5
 21
163.0
 31
0.0
  0
LINE
  5
1D8
330
17
100
AcDbEntity
  8
PANEL_10
100
AcDbLine
 10
1994.0
 20
112.0
 30
0.0
 11
2102.5
 21
105.5
 31
0.0
  0
LINE
  5
1D9
330
17
100
AcDbEntity
  8
PANEL_10
100
AcDbLine
 10
2102.5
 20
105.5
 30
0.0
 11
2032.4166666666667
 21
101.41666666666667
 31
0.0
  0
LINE
  5
1DA
330
17
100
AcDbEntity
  8
PANEL_10
100
AcDbLine
 10
2074.0
 20
163.0
 30
0.0
 11
2074.0
 21
1.0
 31
0.0
  0
LINE
  5
1DB
330
17
100
AcDbEntity
  8
PANEL_10
100
AcDbLine
 10
2073.5
 20
149.0
 30
0.0
 11
1963.0
 21
152.5
 31
0.0
  0
LINE
  5
1DC
330
17
100
AcDbEntity
  8
PANEL_10
100
AcDbLine
 10
1963.0
 20
152.5
 30
0.0
 11
1963.5
 21
11.5
 31
0.0
  0
LINE
  5
1DD
330
17
100
AcDbEntity
  8
PANEL_10
100
AcDbLine
 10
1963.5
 20
11.5
 30
0.0
 11
2075.0
 21
15.0
 31
0.0
  0
LINE
  5
1DE
330
17
100
AcDbEntity
  8
PANEL_10
100
AcDbLine
 10
2019.0
 20
150.0
 30
0.0
 11
1941.0
 21
30.333333333333343
 31
0.0
  0
LINE
  5
1DF
330
17
100
AcDbEntity
  8
PANEL_10
100
AcDbLine
 10
1941.0
 20
30.333333333333343
 30
0.0
 11
2093.4375
 21
31.625
 31
0.0
  0
LINE
  5
1E0
330
17
100
AcDbEntity
  8
PANEL_10
100
AcDbLine
 10
2093.4375
 20
31.625
 30
0.0
 11
2090.0
 21
133.0
 31
0.0
  0
LINE
  5
1E1
330
17
100
AcDbEntity
  8
PANEL_10
100
AcDbLine
 10
2101.5
 20
67.0
 30
0.0
 11
2022.1983333333333
 21
71.44333333333333
 31
0.0
  0
LINE
  5
1E2
330
17
100
AcDbEntity
  8
PANEL_10
100
AcDbLine
 10
2024.4583333333333
 20
3.947619047619071
 30
0.0
 11
2022.1983333333333
 21
71.44333333333333
 31
0.0
  0
LINE
  5
1E3
330
17
100
AcDbEntity
  8
PANEL_10
100
AcDbLine
 10
2034.0
 20
21.0
 30
0.0
 11
2028.1770833333333
 21
3.0489583333333314
 31
0.0
  0
LINE
  5
1E4
330
17
100
AcDbEntity
  8
PANEL_10
100
AcDbLine
 10
1994.0
 20
37.0
 30
0.0
 11
1996.6458333333333
 21
67.14583333333334
 31
0.0
  0
LINE
  5
1E5
330
17
100
AcDbEntity
  8
PANEL_10
100
AcDbLine
 10
2074.5
 20
87.5
 30
0.0
 11
2020.0
 21
5.038541666666674
 31
0.0
  0
LINE
  5
1E6
330
17
100
AcDbEntity
  8
PANEL_10
100
AcDbLine
 10
2020.0
 20
5.038541666666674
 30
0.0
 11
2018.0
 21
52.0
 31
0.0
  0
LINE
  5
1E7
330
17
100
AcDbEntity
  8
PANEL_10
100
AcDbLine
 10
1935.0
 20
62.5
 30
0.0
 11
1996.6458333333333
 21
67.14583333333334
 31
0.0
  0
LINE
  5
1E8
330
17
100
AcDbEntity
  8
PANEL_10
100
AcDbLine
 10
1985.0
 20
46.0
 30
0.0
 11
1936.5
 21
47.0
 31
0.0
  0
LINE
  5
1E9
330
17
100
AcDbEntity
  8
PANEL_10
100
AcDbLine
 10
1936.5
 20
47.0
 30
0.0
 11
1993.0
 21
49.5
 31
0.0
  0
LINE
  5
1EA
330
17
100
AcDbEntity
  8
PANEL_10
100
AcDbLine
 10
1993.0
 20
49.5
 30
0.0
 11
1969.0
 21
53.0
 31
0.0
  0
LINE
  5
1EB
330
17
100
AcDbEntity
  8
PANEL_10
100
AcDbLine
 10
2101.5
 20
134.0
 30
0.0
 11
1934.0
 21
134.0
 31
0.0
  0
LINE
  5
1EC
330
17
100
AcDbEntity
  8
PANEL_10
100
AcDbLine
 10
2032.4166666666667
 20
101.41666666666667
 30
0.0
 11
2072.0
 21
107.0
 31
0.0
  0
LINE
  5
1ED
330
17
100
AcDbEntity
  8
PANEL_10
100
AcDbLine
 10
2032.4166666666667
 20
101.41666666666667
 30
0.0
 11
2039.0
 21
162.5
 31
0.0
  0
LINE
  5
1EE
330
17
100
AcDbEntity
  8
PANEL_10
100
AcDbLine
 10
2039.0
 20
162.5
 30
0.0
 11
2038.0
 21
133.0
 31
0.0
  0
LINE
  5
1EF
330
17
100
AcDbEntity
  8
PANEL_10
100
AcDbLine
 10
2038.0
 20
133.0
 30
0.0
 11
2032.4166666666667
 21
101.41666666666667
 31
0.0
  0
LINE
  5
1F0
330
17
100
AcDbEntity
  8
PANEL_10
100
AcDbLine
 10
2022.1983333333333
 20
71.44333333333333
 30
0.0
 11
2026.0
 21
31.0
 31
0.0
  0
LINE
  5
1F1
330
17
100
AcDbEntity
  8
PANEL_10
100
AcDbLine
 10
2022.1983333333333
 20
71.44333333333333
 30
0.0
 11
2028.1770833333333
 21
3.0489583333333314
 31
0.0
  0
LINE
  5
1F2
330
17
100
AcDbEntity
  8
PANEL_10
100
AcDbLine
 10
2003.0
 20
121.0
 30
0.0
 11
2039.0
 21
122.0
 31
0.0
  0
LINE
  5
1F3
330
17
100
AcDbEntity
  8
PANEL_10
100
AcDbLine
 10
1948.0
 20
132.0
 30
0.0
 11
1948.0
 21
32.0
 31
0.0
  0
LINE
  5
1F4
330
17
100
AcDbEntity
  8
PANEL_10
100
AcDbLine
 10
2050.0
 20
45.0
 30
0.0
 11
2012.0
 21
45.0
 31
0.0
  0
LINE
  5
1F5
330
17
100
AcDbEntity
  8
PANEL_10
100
AcDbLine
 10
2059.0
 20
163.0
 30
0.0
 11
2059.0
 21
108.0
 31
0.0
  0
LINE
  5
1F6
330
17
100
AcDbEntity
  8
PANEL_10
100
AcDbLine
 10
1936.0
 20
116.0
 30
0.0
 11
2101.3333333333335
 21
118.0
 31
0.0
  0
LINE
  5
1F7
330
17
100
AcDbEntity
  8
PANEL_10
100
AcDbLine
 10
1996.6458333333333
 20
67.14583333333334
 30
0.0
 11
1992.0
 21
4.0
 31
0.0
  0
LINE
  5
1F8
330
17
100
AcDbEntity
  8
PANEL_10
100
AcDbLine
 10
2028.1770833333333
 20
3.0489583333333314
 30
0.0
 11
2032.0
 21
29.0
 31
0.0
  0
LINE
  5
1F9
330
17
100
AcDbEntity
  8
PANEL_10
100
AcDbLine
 10
2089.0
 20
104.0
 30
0.0
 11
2101.3333333333335
 21
118.0
 31
0.0
  0
LINE
  5
1FA
330
17
100
AcDbEntity
  8
PANEL_10
100
AcDbLine
 10
2034.0
 20
43.0
 30
0.0
 11
2101.0
 21
44.0
 31
0.0
  0
LINE
  5
1FB
330
17
100
AcDbEntity
  8
PANEL_10
100
AcDbLine
 10
2101.3333333333335
 20
118.0
 30
0.0
 11
1943.0
 21
118.0
 31
0.0
  0
TEXT
  5
1FC
330
17
100
AcDbEntity
  8
PANEL_10_LBL
100
AcDbText
 10
2019.5
 20
152.0
 30
0.0
 40
12.0
  1
PART panel_10
100
AcDbText
  0
LINE
  5
1FF
330
17
100
AcDbEntity
  8
PANEL_11
100
AcDbLine
 10
2185.0
 20
164.5
 30
0.0
 11
2185.0
 21
91.0
 31
0.0
  0
LINE
  5
200
330
17
100
AcDbEntity
  8
PANEL_11
100
AcDbLine
 10
2263.0
 20
167.5
 30
0.0
 11
2263.0
 21
1.5
 31
0.0
  0
LINE
  5
201
330
17
100
AcDbEntity
  8
PANEL_11
100
AcDbLine
 10
2227.0
 20
69.0
 30
0.0
 11
2227.0
 21
1.5
 31
0.0
  0
LINE
  5
202
330
17
100
AcDbEntity
  8
PANEL_11
100
AcDbLine
 10
2227.0
 20
1.5
 30
0.0
 11
2224.6666666666665
 21
97.0
 31
0.0
  0
LINE
  5
203
330
17
100
AcDbEntity
  8
PANEL_11
100
AcDbLine
 10
2224.6666666666665
 20
97.0
 30
0.0
 11
2292.5
 21
95.0
 31
0.0
  0
LINE
  5
204
330
17
100
AcDbEntity
  8
PANEL_11
100
AcDbLine
 10
2250.0
 20
149.0
 30
0.0
 11
2252.0
 21
125.0
 31
0.0
  0
LINE
  5
205
330
17
100
AcDbEntity
  8
PANEL_11
100
AcDbLine
 10
2252.0
 20
125.0
 30
0.0
 11
2228.375
 21
124.06944444444446
 31
0.0
  0
LINE
  5
206
330
17
100
AcDbEntity
  8
PANEL_11
100
AcDbLine
 10
2262.0
 20
15.0
 30
0.0
 11
2155.5
 21
11.75
 31
0.0
  0
LINE
  5
207
330
17
100
AcDbEntity
  8
PANEL_11
100
AcDbLine
 10
2155.5
 20
11.75
 30
0.0
 11
2154.75
 21
157.5
 31
0.0
  0
LINE
  5
208
330
17
100
AcDbEntity
  8
PANEL_11
100
AcDbLine
 10
2154.75
 20
157.5
 30
0.0
 11
2263.0
 21
155.33333333333334
 31
0.0
  0
LINE
  5
209
330
17
100
AcDbEntity
  8
PANEL_11
100
AcDbLine
 10
2263.0
 20
155.33333333333334
 30
0.0
 11
2218.0
 21
161.5
 31
0.0
  0
LINE
  5
20A
330
17
100
AcDbEntity
  8
PANEL_11
100
AcDbLine
 10
2218.0
 20
161.5
 30
0.0
 11
2222.0
 21
142.0
 31
0.0
  0
LINE
  5
20B
330
17
100
AcDbEntity
  8
PANEL_11
100
AcDbLine
 10
2251.75
 20
59.25
 30
0.0
 11
2249.0
 21
2.0
 31
0.0
  0
LINE
  5
20C
330
17
100
AcDbEntity
  8
PANEL_11
100
AcDbLine
 10
2129.5
 20
48.0
 30
0.0
 11
2289.0
 21
48.0
 31
0.0
  0
LINE
  5
20D
330
17
100
AcDbEntity
  8
PANEL_11
100
AcDbLine
 10
2228.375
 20
124.06944444444446
 30
0.0
 11
2253.0
 21
134.0
 31
0.0
  0
LINE
  5
20E
330
17
100
AcDbEntity
  8
PANEL_11
100
AcDbLine
 10
2228.375
 20
124.06944444444446
 30
0.0
 11
2293.0
 21
125.0
 31
0.0
  0
LINE
  5
20F
330
17
100
AcDbEntity
  8
PANEL_11
100
AcDbLine
 10
2228.375
 20
124.06944444444446
 30
0.0
 11
2269.0
 21
124.0
 31
0.0
  0
LINE
  5
210
330
17
100
AcDbEntity
  8
PANEL_11
100
AcDbLine
 10
2228.375
 20
124.06944444444446
 30
0.0
 11
2233.0
 21
167.33333333333334
 31
0.0
  0
LINE
  5
211
330
17
100
AcDbEntity
  8
PANEL_11
100
AcDbLine
 10
2233.0
 20
167.33333333333334
 30
0.0
 11
2233.5
 21
52.5
 31
0.0
  0
LINE
  5
212
330
17
100
AcDbEntity
  8
PANEL_11
100
AcDbLine
 10
2233.5
 20
52.5
 30
0.0
 11
2236.5
 21
70.5
 31
0.0
  0
LINE
  5
213
330
17
100
AcDbEntity
  8
PANEL_11
100
AcDbLine
 10
2236.5
 20
70.5
 30
0.0
 11
2244.0
 21
41.0
 31
0.0
  0
LINE
  5
214
330
17
100
AcDbEntity
  8
PANEL_11
100
AcDbLine
 10
2293.0
 20
139.0
 30
0.0
 11
2133.663888888889
 21
139.46388888888887
 31
0.0
  0
LINE
  5
215
330
17
100
AcDbEntity
  8
PANEL_11
100
AcDbLine
 10
2144.0
 20
113.0
 30
0.0
 11
2186.0
 21
117.0
 31
0.0
  0
LINE
  5
216
330
17
100
AcDbEntity
  8
PANEL_11
100
AcDbLine
 10
2186.0
 20
117.0
 30
0.0
 11
2126.659722222222
 21
109.80208333333333
 31
0.0
  0
LINE
  5
217
330
17
100
AcDbEntity
  8
PANEL_11
100
AcDbLine
 10
2169.0
 20
164.5
 30
0.0
 11
2169.0
 21
103.0
 31
0.0
  0
LINE
  5
218
330
17
100
AcDbEntity
  8
PANEL_11
100
AcDbLine
 10
2168.0
 20
132.0
 30
0.0
 11
2186.0
 21
130.0
 31
0.0
  0
LINE
  5
219
330
17
100
AcDbEntity
  8
PANEL_11
100
AcDbLine
 10
2179.0
 20
103.0
 30
0.0
 11
2193.6666666666665
 21
100.33333333333333
 31
0.0
  0
LINE
  5
21A
330
17
100
AcDbEntity
  8
PANEL_11
100
AcDbLine
 10
2193.6666666666665
 20
100.33333333333333
 30
0.0
 11
2126.034722222222
 21
102.57908950617283
 31
0.0
  0
LINE
  5
21B
330
17
100
AcDbEntity
  8
PANEL_11
100
AcDbLine
 10
2126.034722222222
 20
102.57908950617283
 30
0.0
 11
2157.0
 21
100.0
 31
0.0
  0
LINE
  5
21C
330
17
100
AcDbEntity
  8
PANEL_11
100
AcDbLine
 10
2157.0
 20
100.0
 30
0.0
 11
2207.0
 21
6.5
 31
0.0
  0
LINE
  5
21D
330
17
100
AcDbEntity
  8
PANEL_11
100
AcDbLine
 10
2207.0
 20
6.5
 30
0.0
 11
2206.5
 21
61.5
 31
0.0
  0
LINE
  5
21E
330
17
100
AcDbEntity
  8
PANEL_11
100
AcDbLine
 10
2206.5
 20
61.5
 30
0.0
 11
2290.0
 21
59.0
 31
0.0
  0
LINE
  5
21F
330
17
100
AcDbEntity
  8
PANEL_11
100
AcDbLine
 10
2290.0
 20
59.0
 30
0.0
 11
2186.0
 21
54.0
 31
0.0
  0
LINE
  5
220
330
17
100
AcDbEntity
  8
PANEL_11
100
AcDbLine
 10
2279.0
 20
138.0
 30
0.0
 11
2282.5
 21
31.5
 31
0.0
  0
LINE
  5
221
330
17
100
AcDbEntity
  8
PANEL_11
100
AcDbLine
 10
2282.5
 20
31.5
 30
0.0
 11
2136.5
 21
30.75
 31
0.0
  0
LINE
  5
222
330
17
100
AcDbEntity
  8
PANEL_11
100
AcDbLine
 10
2136.5
 20
30.75
 30
0.0
 11
2133.663888888889
 21
139.46388888888887
 31
0.0
  0
LINE
  5
223
330
17
100
AcDbEntity
  8
PANEL_11
100
AcDbLine
 10
2207.0
 20
17.0
 30
0.0
 11
2133.663888888889
 21
139.46388888888887
 31
0.0
  0
TEXT
  5
224
330
17
100
AcDbEntity
  8
PANEL_11_LBL
100
AcDbText
 10
2209.5
 20
157.0
 30
0.0
 40
12.0
  1
PART panel_11
100
AcDbText
  0
LINE
  5
227
330
17
100
AcDbEntity
  8
PANEL_12
100
AcDbLine
 10
2553.2
 20
31.0
 30
0.0
 11
2549.0
 21
119.0
 31
0.0
  0
LINE
  5
228
330
17
100
AcDbEntity
  8
PANEL_12
100
AcDbLine
 10
2553.2
 20
31.0
 30
0.0
 11
2321.0
 21
31.0
 31
0.0
  0
LINE
  5
229
330
17
100
AcDbEntity
  8
PANEL_12
100
AcDbLine
 10
2553.2
 20
31.0
 30
0.0
 11
2403.6666666666665
 21
119.33333333333333
 31
0.0
  0
LINE
  5
22A
330
17
100
AcDbEntity
  8
PANEL_12
100
AcDbLine
 10
2414.75
 20
80.5
 30
0.0
 11
2322.0
 21
81.0
 31
0.0
  0
LINE
  5
22B
330
17
100
AcDbEntity
  8
PANEL_12
100
AcDbLine
 10
2414.75
 20
80.5
 30
0.0
 11
2379.3333333333335
 21
74.94444444444444
 31
0.0
  0
LINE
  5
22C
330
17
100
AcDbEntity
  8
PANEL_12
100
AcDbLine
 10
2414.75
 20
80.5
 30
0.0
 11
2315.5
 21
80.5
 31
0.0
  0
LINE
  5
22D
330
17
100
AcDbEntity
  8
PANEL_12
100
AcDbLine
 10
2383.0
 20
147.0
 30
0.0
 11
2379.3333333333335
 21
74.94444444444444
 31
0.0
  0
LINE
  5
22E
330
17
100
AcDbEntity
  8
PANEL_12
100
AcDbLine
 10
2407.0
 20
148.0
 30
0.0
 11
2406.0
 21
70.0
 31
0.0
  0
LINE
  5
22F
330
17
100
AcDbEntity
  8
PANEL_12
100
AcDbLine
 10
2406.0
 20
70.0
 30
0.0
 11
2403.6666666666665
 21
119.33333333333333
 31
0.0
  0
LINE
  5
230
330
17
100
AcDbEntity
  8
PANEL_12
100
AcDbLine
 10
2367.0
 20
140.0
 30
0.0
 11
2412.0
 21
140.0
 31
0.0
  0
LINE
  5
231
330
17
100
AcDbEntity
  8
PANEL_12
100
AcDbLine
 10
2402.0
 20
132.0
 30
0.0
 11
2419.6666666666665
 21
1.3333333333333428
 31
0.0
  0
LINE
  5
232
330
17
100
AcDbEntity
  8
PANEL_12
100
AcDbLine
 10
2419.6666666666665
 20
1.3333333333333428
 30
0.0
 11
2417.5
 21
66.5
 31
0.0
  0
LINE
  5
233
330
17
100
AcDbEntity
  8
PANEL_12
100
AcDbLine
 10
2351.0
 20
102.0
 30
0.0
 11
2382.0
 21
103.0
 31
0.0
  0
LINE
  5
234
330
17
100
AcDbEntity
  8
PANEL_12
100
AcDbLine
 10
2382.0
 20
103.0
 30
0.0
 11
2315.0
 21
104.0
 31
0.0
  0
LINE
  5
235
330
17
100
AcDbEntity
  8
PANEL_12
100
AcDbLine
 10
2428.0
 20
104.0
 30
0.0
 11
2532.0
 21
40.0
 31
0.0
  0
LINE
  5
236
330
17
100
AcDbEntity
  8
PANEL_12
100
AcDbLine
 10
2328.0
 20
118.0
 30
0.0
 11
2328.0
 21
32.0
 31
0.0
  0
LINE
  5
237
330
17
100
AcDbEntity
  8
PANEL_12
100
AcDbLine
 10
2495.0
 20
62.0
 30
0.0
 11
2403.6666666666665
 21
119.33333333333333
 31
0.0
  0
LINE
  5
238
330
17
100
AcDbEntity
  8
PANEL_12
100
AcDbLine
 10
2342.5
 20
143.0
 30
0.0
 11
2343.125
 21
11.833333333333314
 31
0.0
  0
LINE
  5
239
330
17
100
AcDbEntity
  8
PANEL_12
100
AcDbLine
 10
2343.125
 20
11.833333333333314
 30
0.0
 11
2535.0
 21
16.0
 31
0.0
  0
LINE
  5
23A
330
17
100
AcDbEntity
  8
PANEL_12
100
AcDbLine
 10
2560.5
 20
120.0
 30
0.0
 11
2314.0
 21
120.0
 31
0.0
  0
LINE
  5
23B
330
17
100
AcDbEntity
  8
PANEL_12
100
AcDbLine
 10
2342.0
 20
136.0
 30
0.0
 11
2535.0
 21
136.0
 31
0.0
  0
LINE
  5
23C
330
17
100
AcDbEntity
  8
PANEL_12
100
AcDbLine
 10
2347.0
 20
58.0
 30
0.0
 11
2361.0
 21
58.0
 31
0.0
  0
LINE
  5
23D
330
17
100
AcDbEntity
  8
PANEL_12
100
AcDbLine
 10
2534.0
 20
149.0
 30
0.0
 11
2534.0
 21
2.0
 31
0.0
  0
LINE
  5
23E
330
17
100
AcDbEntity
  8
PANEL_12
100
AcDbLine
 10
2381.0
 20
134.0
 30
0.0
 11
2379.3333333333335
 21
74.94444444444444
 31
0.0
  0
TEXT
  5
23F
330
17
100
AcDbEntity
  8
PANEL_12_LBL
100
AcDbText
 10
2439.0
 20
138.0
 30
0.0
 40
12.0
  1
PART panel_12
100
AcDbText
  0
LINE
  5
242
330
17
100
AcDbEntity
  8
PANEL_13
100
AcDbLine
 10
2644.0
 20
164.5
 30
0.0
 11
2649.0555555555557
 21
98.8611111111111
 31
0.0
  0
LINE
  5
243
330
17
100
AcDbEntity
  8
PANEL_13
100
AcDbLine
 10
2672.6041666666665
 20
66.80555555555554
 30
0.0
 11
2761.0
 21
60.0
 31
0.0
  0
LINE
  5
244
330
17
100
AcDbEntity
  8
PANEL_13
100
AcDbLine
 10
2672.6041666666665
 20
66.80555555555554
 30
0.0
 11
2676.5
 21
1.5
 31
0.0
  0
LINE
  5
245
330
17
100
AcDbEntity
  8
PANEL_13
100
AcDbLine
 10
2672.6041666666665
 20
66.80555555555554
 30
0.0
 11
2686.0
 21
62.0
 31
0.0
  0
LINE
  5
246
330
17
100
AcDbEntity
  8
PANEL_13
100
AcDbLine
 10
2736.0
 20
154.0
 30
0.0
 11
2614.25
 21
157.5
 31
0.0
  0
LINE
  5
247
330
17
100
AcDbEntity
  8
PANEL_13
100
AcDbLine
 10
2614.25
 20
157.5
 30
0.0
 11
2614.5
 21
11.75
 31
0.0
  0
LINE
  5
248
330
17
100
AcDbEntity
  8
PANEL_13
100
AcDbLine
 10
2614.5
 20
11.75
 30
0.0
 11
2736.0
 21
15.0
 31
0.0
  0
LINE
  5
249
330
17
100
AcDbEntity
  8
PANEL_13
100
AcDbLine
 10
2753.653333333333
 20
30.77333333333334
 30
0.0
 11
2750.0
 21
138.0
 31
0.0
  0
LINE
  5
24A
330
17
100
AcDbEntity
  8
PANEL_13
100
AcDbLine
 10
2753.653333333333
 20
30.77333333333334
 30
0.0
 11
2595.5
 21
31.0
 31
0.0
  0
LINE
  5
24B
330
17
100
AcDbEntity
  8
PANEL_13
100
AcDbLine
 10
2595.5
 20
31.0
 30
0.0
 11
2599.0
 21
138.5
 31
0.0
  0
LINE
  5
24C
330
17
100
AcDbEntity
  8
PANEL_13
100
AcDbLine
 10
2753.653333333333
 20
30.77333333333334
 30
0.0
 11
2754.0
 21
99.0
 31
0.0
  0
LINE
  5
24D
330
17
100
AcDbEntity
  8
PANEL_13
100
AcDbLine
 10
2611.0
 20
117.0
 30
0.0
 11
2649.0555555555557
 21
98.8611111111111
 31
0.0
  0
LINE
  5
24E
330
17
100
AcDbEntity
  8
PANEL_13
100
AcDbLine
 10
2732.5
 20
81.0
 30
0.0
 11
2700.6666666666665
 21
138.16666666666666
 31
0.0
  0
LINE
  5
24F
330
17
100
AcDbEntity
  8
PANEL_13
100
AcDbLine
 10
2700.6666666666665
 20
138.16666666666666
 30
0.0
 11
2676.277777777778
 21
127.83333333333334
 31
0.0
  0
LINE
  5
250
330
17
100
AcDbEntity
  8
PANEL_13
100
AcDbLine
 10
2676.277777777778
 20
127.83333333333334
 30
0.0
 11
2760.5
 21
126.0
 31
0.0
  0
LINE
  5
251
330
17
100
AcDbEntity
  8
PANEL_13
100
AcDbLine
 10
2704.0
 20
158.0
 30
0.0
 11
2662.0
 21
158.0
 31
0.0
  0
LINE
  5
252
330
17
100
AcDbEntity
  8
PANEL_13
100
AcDbLine
 10
2722.0
 20
33.0
 30
0.0
 11
2721.0
 21
73.0
 31
0.0
  0
LINE
  5
253
330
17
100
AcDbEntity
  8
PANEL_13
100
AcDbLine
 10
2721.0
 20
73.0
 30
0.0
 11
2720.0
 21
1.0
 31
0.0
  0
LINE
  5
254
330
17
100
AcDbEntity
  8
PANEL_13
100
AcDbLine
 10
2649.0555555555557
 20
98.8611111111111
 30
0.0
 11
2585.5
 21
102.0
 31
0.0
  0
LINE
  5
255
330
17
100
AcDbEntity
  8
PANEL_13
100
AcDbLine
 10
2649.0555555555557
 20
98.8611111111111
 30
0.0
 11
2618.0
 21
117.0
 31
0.0
  0
LINE
  5
256
330
17
100
AcDbEntity
  8
PANEL_13
100
AcDbLine
 10
2616.0
 20
100.0
 30
0.0
 11
2676.777777777778
 21
25.555555555555543
 31
0.0
  0
LINE
  5
257
330
17
100
AcDbEntity
  8
PANEL_13
100
AcDbLine
 10
2676.777777777778
 20
25.555555555555543
 30
0.0
 11
2587.0
 21
139.66666666666666
 31
0.0
  0
LINE
  5
258
330
17
100
AcDbEntity
  8
PANEL_13
100
AcDbLine
 10
2587.0
 20
139.66666666666666
 30
0.0
 11
2762.0
 21
139.0
 31
0.0
  0
LINE
  5
259
330
17
100
AcDbEntity
  8
PANEL_13
100
AcDbLine
 10
2683.5
 20
119.5
 30
0.0
 11
2687.0
 21
167.25
 31
0.0
  0
LINE
  5
25A
330
17
100
AcDbEntity
  8
PANEL_13
100
AcDbLine
 10
2687.0
 20
167.25
 30
0.0
 11
2685.6666666666665
 21
92.16666666666666
 31
0.0
  0
LINE
  5
25B
330
17
100
AcDbEntity
  8
PANEL_13
100
AcDbLine
 10
2685.6666666666665
 20
92.16666666666666
 30
0.0
 11
2763.0
 21
96.0
 31
0.0
  0
LINE
  5
25C
330
17
100
AcDbEntity
  8
PANEL_13
100
AcDbLine
 10
2690.0
 20
50.0
 30
0.0
 11
2761.0
 21
50.0
 31
0.0
  0
LINE
  5
25D
330
17
100
AcDbEntity
  8
PANEL_13
100
AcDbLine
 10
2628.0
 20
165.5
 30
0.0
 11
2630.6666666666665
 21
110.66666666666666
 31
0.0
  0
LINE
  5
25E
330
17
100
AcDbEntity
  8
PANEL_13
100
AcDbLine
 10
2630.6666666666665
 20
110.66666666666666
 30
0.0
 11
2587.0
 21
114.0
 31
0.0
  0
LINE
  5
25F
330
17
100
AcDbEntity
  8
PANEL_13
100
AcDbLine
 10
2662.0
 20
167.0
 30
0.0
 11
2663.0
 21
141.0
 31
0.0
  0
LINE
  5
260
330
17
100
AcDbEntity
  8
PANEL_13
100
AcDbLine
 10
2735.0
 20
166.5
 30
0.0
 11
2735.0
 21
1.0
 31
0.0
  0
LINE
  5
261
330
17
100
AcDbEntity
  8
PANEL_13
100
AcDbLine
 10
2698.0
 20
28.0
 30
0.0
 11
2699.5
 21
63.0
 31
0.0
  0
LINE
  5
262
330
17
100
AcDbEntity
  8
PANEL_13
100
AcDbLine
 10
2699.5
 20
63.0
 30
0.0
 11
2701.0
 21
3.0
 31
0.0
  0
LINE
  5
263
330
17
100
AcDbEntity
  8
PANEL_13
100
AcDbLine
 10
2701.0
 20
3.0
 30
0.0
 11
2698.0
 21
28.0
 31
0.0
  0
TEXT
  5
264
330
17
100
AcDbEntity
  8
PANEL_13_LBL
100
AcDbText
 10
2674.5
 20
157.0
 30
0.0
 40
12.0
  1
PART panel_13
100
AcDbText
  0
ENDSEC
  0
SECTION
  2
OBJECTS
  0
DICTIONARY
  5
A
330
0
100
AcDbDictionary
281
1
  3
ACAD_COLOR
350
B
  3
ACAD_GROUP
350
C
  3
ACAD_LAYOUT
350
D
  3
ACAD_MATERIAL
350
E
  3
ACAD_MLEADERSTYLE
350
F
  3
ACAD_MLINESTYLE
350
10
  3
ACAD_PLOTSETTINGS
350
11
  3
ACAD_PLOTSTYLENAME
350
12
  3
ACAD_SCALELIST
350
14
  3
ACAD_TABLESTYLE
350
15
  3
ACAD_VISUALSTYLE
350
16
  3
EZDXF_META
350
2D
  0
DICTIONARY
  5
B
330
A
100
AcDbDictionary
281
1
  0
DICTIONARY
  5
C
330
A
100
AcDbDictionary
281
1
  0
DICTIONARY
  5
D
330
A
100
AcDbDictionary
281
1
  3
Model
350
1A
  3
Layout1
350
1E
  0
DICTIONARY
  5
E
330
A
100
AcDbDictionary
281
1
  3
ByBlock
350
1F
  3
ByLayer
350
20
  3
Global
350
21
  0
DICTIONARY
  5
F
330
A
100
AcDbDictionary
281
1
  3
Standard
350
2C
  0
DICTIONARY
  5
10
330
A
100
AcDbDictionary
281
1
  3
Standard
350
22
  0
DICTIONARY
  5
11
330
A
100
AcDbDictionary
281
1
  0
ACDBDICTIONARYWDFLT
  5
12
330
A
100
AcDbDictionary
281
1
  3
Normal
350
13
100
AcDbDictionaryWithDefault
340
13
  0
ACDBPLACEHOLDER
  5
13
330
12
  0
DICTIONARY
  5
14
330
A
100
AcDbDictionary
281
1
  0
DICTIONARY
  5
15
330
A
100
AcDbDictionary
281
1
  0
DICTIONARY
  5
16
330
A
100
AcDbDictionary
281
1
  3
2dWireframe
350
5A
  3
Basic
350
5B
  3
Brighten
350
5C
  3
ColorChange
350
5D
  3
Conceptual
350
5E
  3
Dim
350
5F
  3
EdgeColorOff
350
60
  3
Facepattern
350
61
  3
Flat
350
62
  3
FlatWithEdges
350
63
  3
Gouraud
350
64
  3
GouraudWithEdges
350
65
  3
Hidden
350
66
  3
JitterOff
350
67
  3
Linepattern
350
68
  3
Modeling
350
69
  3
OverhangOff
350
6A
  3
Realistic
350
6B
  3
Shaded
350
6C
  3
Shaded with edges
350
6D
  3
Shades of Gray
350
6E
  3
Sketchy
350
6F
  3
Thicken
350
70
  3
Wireframe
350
71
  3
X-Ray
350
72
  0
LAYOUT
  5
1A
330
D
100
AcDbPlotSettings
  1

  4
A3
  6

 40
7.5
 41
20.0
 42
7.5
 43
20.0
 44
420.0
 45
297.0
 46
0.0
 47
0.0
 48
0.0
 49
0.0
140
0.0
141
0.0
142
1.0
143
1.0
 70
1024
 72
1
 73
0
 74
5
  7

 75
16
 76
0
 77
2
 78
300
147
1.0
148
0.0
149
0.0
100
AcDbLayout
  1
Model
 70
1
 71
0
 10
0.0
 20
0.0
 11
420.0
 21
297.0
 12
0.0
 22
0.0
 32
0.0
 14
1e+20
 24
1e+20
 34
1e+20
 15
-1e+20
 25
-1e+20
 35
-1e+20
146
0.0
 13
0.0
 23
0.0
 33
0.0
 16
1.0
 26
0.0
 36
0.0
 17
0.0
 27
1.0
 37
0.0
 76
1
330
17
  0
LAYOUT
  5
1E
330
D
100
AcDbPlotSettings
  1

  4
A3
  6

 40
7.5
 41
20.0
 42
7.5
 43
20.0
 44
420.0
 45
297.0
 46
0.0
 47
0.0
 48
0.0
 49
0.0
140
0.0
141
0.0
142
1.0
143
1.0
 70
0
 72
1
 73
0
 74
5
  7

 75
16
 76
0
 77
2
 78
300
147
1.0
148
0.0
149
0.0
100
AcDbLayout
  1
Layout1
 70
1
 71
1
 10
0.0
 20
0.0
 11
420.0
 21
297.0
 12
0.0
 22
0.0
 32
0.0
 14
1e+20
 24
1e+20
 34
1e+20
 15
-1e+20
 25
-1e+20
 35
-1e+20
146
0.0
 13
0.0
 23
0.0
 33
0.0
 16
1.0
 26
0.0
 36
0.0
 17
0.0
 27
1.0
 37
0.0
 76
1
330
1B
  0
MATERIAL
  5
1F
102
{ACAD_REACTORS
330
E
102
}
330
E
100
AcDbMaterial
  1
ByBlock
  2

 70
0
 40
1.0
 71
1
 41
1.0
 91
-1023410177
 42
1.0
 72
1
  3

 73
1
 74
1
 75
1
 44
0.5
 73
0
 45
1.0
 46
1.0
 77
1
  4

 78
1
 79
1
170
1
 48
1.0
171
1
  6

172
1
173
1
174
1
140
1.0
141
1.0
175
1
  7

176
1
177
1
178
1
143
1.0
179
1
  8

270
1
271
1
272
1
145
1.0
146
1.0
273
1
  9

274
1
275
1
276
1
 42
1.0
 72
1
  3

 73
1
 74
1
 75
1
 94
63
  0
MATERIAL
  5
20
102
{ACAD_REACTORS
330
E
102
}
330
E
100
AcDbMaterial
  1
ByLayer
  2

 70
0
 40
1.0
 71
1
 41
1.0
 91
-1023410177
 42
1.0
 72
1
  3

 73
1
 74
1
 75
1
 44
0.5
 73
0
 45
1.0
 46
1.0
 77
1
  4

 78
1
 79
1
170
1
 48
1.0
171
1
  6

172
1
173
1
174
1
140
1.0
141
1.0
175
1
  7

176
1
177
1
178
1
143
1.0
179
1
  8

270
1
271
1
272
1
145
1.0
146
1.0
273
1
  9

274
1
275
1
276
1
 42
1.0
 72
1
  3

 73
1
 74
1
 75
1
 94
63
  0
MATERIAL
  5
21
102
{ACAD_REACTORS
330
E
102
}
330
E
100
AcDbMaterial
  1
Global
  2

 70
0
 40
1.0
 71
1
 41
1.0
 91
-1023410177
 42
1.0
 72
1
  3

 73
1
 74
1
 75
1
 44
0.5
 73
0
 45
1.0
 46
1.0
 77
1
  4

 78
1
 79
1
170
1
 48
1.0
171
1
  6

172
1
173
1
174
1
140
1.0
141
1.0
175
1
  7

176
1
177
1
178
1
143
1.0
179
1
  8

270
1
271
1
272
1
145
1.0
146
1.0
273
1
  9

274
1
275
1
276
1
 42
1.0
 72
1
  3

 73
1
 74
1
 75
1
 94
63
  0
MLINESTYLE
  5
22
102
{ACAD_REACTORS
330
10
102
}
330
10
100
AcDbMlineStyle
  2
Standard
 70
0
  3

 62
256
 51
90.0
 52
90.0
 71
2
 49
0.5
 62
256
  6
BYLAYER
 49
-0.5
 62
256
  6
BYLAYER
  0
MLEADERSTYLE
  5
2C
102
{ACAD_REACTORS
330
F
102
}
330
F
100
AcDbMLeaderStyle
179
2
170
2
171
1
172
0
 90
2
 40
0.0
 41
0.0
173
1
 91
-1056964608
 92
-2
290
1
 42
2.0
291
1
 43
8.0
  3
Standard
 44
4.0
300

342
29
174
1
175
1
176
0
178
1
 93
-1056964608
 45
4.0
292
0
297
0
 46
4.0
 94
-1056964608
 47
1.0
 49
1.0
140
1.0
294
1
141
0.0
177
0
142
1.0
295
0
296
0
143
3.75
271
0
272
9
273
9
  0
DICTIONARY
  5
2D
330
A
100
AcDbDictionary
280
1
281
1
  3
CREATED_BY_EZDXF
350
2E
  3
WRITTEN_BY_EZDXF
350
267
  0
DICTIONARYVAR
  5
2E
330
2D
100
DictionaryVariables
280
0
  1
1.4.3 @ 2026-05-06T23:38:19.140589+00:00
  0
VISUALSTYLE
  5
5A
102
{ACAD_REACTORS
330
16
102
}
330
16
100
AcDbVisualStyle
  2
2dWireframe
 70
4
177
3
291
0
 70
58
 90
2
176
1
 90
2
176
1
 90
0
176
1
 90
0
176
1
 40
0.6
176
1
 40
30.0
176
1
 62
7
420
16777215
176
1
 90
1
176
1
 90
4
176
1
 62
7
176
1
 62
257
176
1
 90
1
176
1
 90
1
176
1
 40
1.0
176
1
 90
8
176
1
 62
7
176
1
 40
1.0
176
1
 90
1
176
1
 90
6
176
1
 90
2
176
1
 62
7
176
1
 90
5
176
1
 90
0
176
1
 90
0
176
1
290
0
176
1
 90
1
176
1
 40
0.0
176
1
 90
0
176
1
290
1
176
1
290
1
176
1
290
0
176
1
290
0
176
1
290
0
176
1
290
0
176
1
290
0
176
1
290
0
176
1
290
0
176
1
 90
50
176
1
 40
0.0
176
1
 40
1.0
176
1
 90
0
176
1
 62
18
420
0
176
1
 90
50
176
1
 90
3
176
1
 62
5
420
255
176
1
290
0
176
1
 90
50
176
1
 90
50
176
1
 90
50
176
1
290
0
176
1
 90
50
176
1
 62
256
176
0
 40
1.0
176
0
 90
2
176
1
  1
strokes_ogs.tif
176
1
290
0
176
1
 40
1.0
176
1
 40
1.0
176
1
  0
VISUALSTYLE
  5
5B
102
{ACAD_REACTORS
330
16
102
}
330
16
100
AcDbVisualStyle
  2
Basic
 70
7
177
3
291
1
 70
58
 90
2
176
1
 90
2
176
1
 90
0
176
1
 90
1
176
1
 40
0.6
176
1
 40
30.0
176
1
 62
7
420
16777215
176
1
 90
1
176
1
 90
4
176
1
 62
7
176
1
 62
257
176
1
 90
1
176
1
 90
1
176
1
 40
1.0
176
1
 90
8
176
1
 62
7
176
1
 40
1.0
176
1
 90
1
176
1
 90
6
176
1
 90
2
176
1
 62
7
176
1
 90
5
176
1
 90
0
176
1
 90
0
176
1
290
0
176
1
 90
1
176
1
 40
0.0
176
1
 90
0
176
1
290
0
176
1
290
1
176
1
290
1
176
1
290
0
176
1
290
0
176
1
290
0
176
1
290
0
176
1
290
0
176
1
290
0
176
1
 90
50
176
1
 40
0.0
176
1
 40
1.0
176
1
 90
0
176
1
 62
18
420
0
176
1
 90
50
176
1
 90
3
176
1
 62
5
420
255
176
1
290
0
176
1
 90
50
176
1
 90
50
176
1
 90
50
176
1
290
0
176
1
 90
50
176
1
 62
256
176
0
 40
1.0
176
0
 90
2
176
1
  1
strokes_ogs.tif
176
1
290
0
176
1
 40
1.0
176
1
 40
1.0
176
1
  0
VISUALSTYLE
  5
5C
102
{ACAD_REACTORS
330
16
102
}
330
16
100
AcDbVisualStyle
  2
Brighten
 70
12
177
3
291
1
 70
58
 90
2
176
1
 90
2
176
1
 90
0
176
1
 90
2
176
1
 40
0.6
176
1
 40
30.0
176
1
 62
7
420
16777215
176
1
 90
1
176
1
 90
4
176
1
 62
7
176
1
 62
257
176
1
 90
1
176
1
 90
1
176
1
 40
1.0
176
1
 90
8
176
1
 62
7
176
1
 40
1.0
176
1
 90
1
176
1
 90
6
176
1
 90
2
176
1
 62
7
176
1
 90
5
176
1
 90
0
176
1
 90
0
176
1
290
0
176
1
 90
1
176
1
 40
0.0
176
1
 90
0
176
1
290
0
176
1
290
1
176
1
290
1
176
1
290
0
176
1
290
0
176
1
290
0
176
1
290
0
176
1
290
0
176
1
290
0
176
1
 90
50
176
1
 40
0.0
176
1
 40
1.0
176
1
 90
0
176
1
 62
18
420
0
176
1
 90
50
176
1
 90
3
176
1
 62
5
420
255
176
1
290
0
176
1
 90
50
176
1
 90
50
176
1
 90
50
176
1
290
0
176
1
 90
50
176
1
 62
256
176
0
 40
1.0
176
0
 90
2
176
1
  1
strokes_ogs.tif
176
1
290
0
176
1
 40
1.0
176
1
 40
1.0
176
1
  0
VISUALSTYLE
  5
5D
102
{ACAD_REACTORS
330
16
102
}
330
16
100
AcDbVisualStyle
  2
ColorChange
 70
16
177
3
291
1
 70
58
 90
2
176
1
 90
2
176
1
 90
0
176
1
 90
2
176
1
 40
0.6
176
1
 40
30.0
176
1
 62
7
420
16777215
176
1
 90
1
176
1
 90
4
176
1
 62
7
176
1
 62
257
176
1
 90
1
176
1
 90
1
176
1
 40
1.0
176
1
 90
8
176
1
 62
7
176
1
 40
1.0
176
1
 90
1
176
1
 90
6
176
1
 90
2
176
1
 62
7
176
1
 90
5
176
1
 90
0
176
1
 90
0
176
1
290
0
176
1
 90
1
176
1
 40
0.0
176
1
 90
0
176
1
290
0
176
1
290
1
176
1
290
1
176
1
290
0
176
1
290
0
176
1
290
0
176
1
290
0
176
1
290
0
176
1
290
0
176
1
 90
50
176
1
 40
0.0
176
1
 40
1.0
176
1
 90
0
176
1
 62
18
420
0
176
1
 90
50
176
1
 90
3
176
1
 62
5
420
255
176
1
290
0
176
1
 90
50
176
1
 90
50
176
1
 90
50
176
1
290
0
176
1
 90
50
176
1
 62
256
176
0
 40
1.0
176
0
 90
2
176
1
  1
strokes_ogs.tif
176
1
290
0
176
1
 40
1.0
176
1
 40
1.0
176
1
  0
VISUALSTYLE
  5
5E
102
{ACAD_REACTORS
330
16
102
}
330
16
100
AcDbVisualStyle
  2
Conceptual
 70
9
177
3
291
0
 70
58
 90
2
176
1
 90
2
176
1
 90
0
176
1
 90
3
176
1
 40
0.6
176
1
 40
30.0
176
1
 62
7
420
16777215
176
1
 90
1
176
1
 90
4
176
1
 62
7
176
1
 62
257
176
1
 90
1
176
1
 90
1
176
1
 40
1.0
176
1
 90
8
176
1
 62
7
176
1
 40
1.0
176
1
 90
1
176
1
 90
6
176
1
 90
2
176
1
 62
7
176
1
 90
5
176
1
 90
0
176
1
 90
0
176
1
290
0
176
1
 90
1
176
1
 40
0.0
176
1
 90
0
176
1
290
0
176
1
290
1
176
1
290
1
176
1
290
0
176
1
290
0
176
1
290
0
176
1
290
0
176
1
290
0
176
1
290
0
176
1
 90
50
176
1
 40
0.0
176
1
 40
1.0
176
1
 90
0
176
1
 62
18
420
0
176
1
 90
50
176
1
 90
3
176
1
 62
5
420
255
176
1
290
0
176
1
 90
50
176
1
 90
50
176
1
 90
50
176
1
290
0
176
1
 90
50
176
1
 62
256
176
0
 40
1.0
176
0
 90
2
176
1
  1
strokes_ogs.tif
176
1
290
0
176
1
 40
1.0
176
1
 40
1.0
176
1
  0
VISUALSTYLE
  5
5F
102
{ACAD_REACTORS
330
16
102
}
330
16
100
AcDbVisualStyle
  2
Dim
 70
11
177
3
291
1
 70
58
 90
2
176
1
 90
2
176
1
 90
0
176
1
 90
2
176
1
 40
0.6
176
1
 40
30.0
176
1
 62
7
420
16777215
176
1
 90
1
176
1
 90
4
176
1
 62
7
176
1
 62
257
176
1
 90
1
176
1
 90
1
176
1
 40
1.0
176
1
 90
8
176
1
 62
7
176
1
 40
1.0
176
1
 90
1
176
1
 90
6
176
1
 90
2
176
1
 62
7
176
1
 90
5
176
1
 90
0
176
1
 90
0
176
1
290
0
176
1
 90
1
176
1
 40
0.0
176
1
 90
0
176
1
290
0
176
1
290
1
176
1
290
1
176
1
290
0
176
1
290
0
176
1
290
0
176
1
290
0
176
1
290
0
176
1
290
0
176
1
 90
50
176
1
 40
0.0
176
1
 40
1.0
176
1
 90
0
176
1
 62
18
420
0
176
1
 90
50
176
1
 90
3
176
1
 62
5
420
255
176
1
290
0
176
1
 90
50
176
1
 90
50
176
1
 90
50
176
1
290
0
176
1
 90
50
176
1
 62
256
176
0
 40
1.0
176
0
 90
2
176
1
  1
strokes_ogs.tif
176
1
290
0
176
1
 40
1.0
176
1
 40
1.0
176
1
  0
VISUALSTYLE
  5
60
102
{ACAD_REACTORS
330
16
102
}
330
16
100
AcDbVisualStyle
  2
EdgeColorOff
 70
22
177
3
291
1
 70
58
 90
2
176
1
 90
2
176
1
 90
0
176
1
 90
2
176
1
 40
0.6
176
1
 40
30.0
176
1
 62
7
420
16777215
176
1
 90
1
176
1
 90
4
176
1
 62
7
176
1
 62
257
176
1
 90
1
176
1
 90
1
176
1
 40
1.0
176
1
 90
8
176
1
 62
7
176
1
 40
1.0
176
1
 90
1
176
1
 90
6
176
1
 90
2
176
1
 62
7
176
1
 90
5
176
1
 90
0
176
1
 90
0
176
1
290
0
176
1
 90
1
176
1
 40
0.0
176
1
 90
0
176
1
290
0
176
1
290
1
176
1
290
1
176
1
290
0
176
1
290
0
176
1
290
0
176
1
290
0
176
1
290
0
176
1
290
0
176
1
 90
50
176
1
 40
0.0
176
1
 40
1.0
176
1
 90
0
176
1
 62
18
420
0
176
1
 90
50
176
1
 90
3
176
1
 62
5
420
255
176
1
290
0
176
1
 90
50
176
1
 90
50
176
1
 90
50
176
1
290
0
176
1
 90
50
176
1
 62
256
176
0
 40
1.0
176
0
 90
2
176
1
  1
strokes_ogs.tif
176
1
290
0
176
1
 40
1.0
176
1
 40
1.0
176
1
  0
VISUALSTYLE
  5
61
102
{ACAD_REACTORS
330
16
102
}
330
16
100
AcDbVisualStyle
  2
Facepattern
 70
15
177
3
291
1
 70
58
 90
2
176
1
 90
2
176
1
 90
0
176
1
 90
2
176
1
 40
0.6
176
1
 40
30.0
176
1
 62
7
420
16777215
176
1
 90
1
176
1
 90
4
176
1
 62
7
176
1
 62
257
176
1
 90
1
176
1
 90
1
176
1
 40
1.0
176
1
 90
8
176
1
 62
7
176
1
 40
1.0
176
1
 90
1
176
1
 90
6
176
1
 90
2
176
1
 62
7
176
1
 90
5
176
1
 90
0
176
1
 90
0
176
1
290
0
176
1
 90
1
176
1
 40
0.0
176
1
 90
0
176
1
290
0
176
1
290
1
176
1
290
1
176
1
290
0
176
1
290
0
176
1
290
0
176
1
290
0
176
1
290
0
176
1
290
0
176
1
 90
50
176
1
 40
0.0
176
1
 40
1.0
176
1
 90
0
176
1
 62
18
420
0
176
1
 90
50
176
1
 90
3
176
1
 62
5
420
255
176
1
290
0
176
1
 90
50
176
1
 90
50
176
1
 90
50
176
1
290
0
176
1
 90
50
176
1
 62
256
176
0
 40
1.0
176
0
 90
2
176
1
  1
strokes_ogs.tif
176
1
290
0
176
1
 40
1.0
176
1
 40
1.0
176
1
  0
VISUALSTYLE
  5
62
102
{ACAD_REACTORS
330
16
102
}
330
16
100
AcDbVisualStyle
  2
Flat
 70
0
177
3
291
1
 70
58
 90
2
176
1
 90
2
176
1
 90
0
176
1
 90
2
176
1
 40
0.6
176
1
 40
30.0
176
1
 62
7
420
16777215
176
1
 90
1
176
1
 90
4
176
1
 62
7
176
1
 62
257
176
1
 90
1
176
1
 90
1
176
1
 40
1.0
176
1
 90
8
176
1
 62
7
176
1
 40
1.0
176
1
 90
1
176
1
 90
6
176
1
 90
2
176
1
 62
7
176
1
 90
5
176
1
 90
0
176
1
 90
0
176
1
290
0
176
1
 90
1
176
1
 40
0.0
176
1
 90
0
176
1
290
0
176
1
290
1
176
1
290
1
176
1
290
0
176
1
290
0
176
1
290
0
176
1
290
0
176
1
290
0
176
1
290
0
176
1
 90
50
176
1
 40
0.0
176
1
 40
1.0
176
1
 90
0
176
1
 62
18
420
0
176
1
 90
50
176
1
 90
3
176
1
 62
5
420
255
176
1
290
0
176
1
 90
50
176
1
 90
50
176
1
 90
50
176
1
290
0
176
1
 90
50
176
1
 62
256
176
0
 40
1.0
176
0
 90
2
176
1
  1
strokes_ogs.tif
176
1
290
0
176
1
 40
1.0
176
1
 40
1.0
176
1
  0
VISUALSTYLE
  5
63
102
{ACAD_REACTORS
330
16
102
}
330
16
100
AcDbVisualStyle
  2
FlatWithEdges
 70
1
177
3
291
1
 70
58
 90
2
176
1
 90
2
176
1
 90
0
176
1
 90
2
176
1
 40
0.6
176
1
 40
30.0
176
1
 62
7
420
16777215
176
1
 90
1
176
1
 90
4
176
1
 62
7
176
1
 62
257
176
1
 90
1
176
1
 90
1
176
1
 40
1.0
176
1
 90
8
176
1
 62
7
176
1
 40
1.0
176
1
 90
1
176
1
 90
6
176
1
 90
2
176
1
 62
7
176
1
 90
5
176
1
 90
0
176
1
 90
0
176
1
290
0
176
1
 90
1
176
1
 40
0.0
176
1
 90
0
176
1
290
0
176
1
290
1
176
1
290
1
176
1
290
0
176
1
290
0
176
1
290
0
176
1
290
0
176
1
290
0
176
1
290
0
176
1
 90
50
176
1
 40
0.0
176
1
 40
1.0
176
1
 90
0
176
1
 62
18
420
0
176
1
 90
50
176
1
 90
3
176
1
 62
5
420
255
176
1
290
0
176
1
 90
50
176
1
 90
50
176
1
 90
50
176
1
290
0
176
1
 90
50
176
1
 62
256
176
0
 40
1.0
176
0
 90
2
176
1
  1
strokes_ogs.tif
176
1
290
0
176
1
 40
1.0
176
1
 40
1.0
176
1
  0
VISUALSTYLE
  5
64
102
{ACAD_REACTORS
330
16
102
}
330
16
100
AcDbVisualStyle
  2
Gouraud
 70
2
177
3
291
1
 70
58
 90
2
176
1
 90
2
176
1
 90
0
176
1
 90
2
176
1
 40
0.6
176
1
 40
30.0
176
1
 62
7
420
16777215
176
1
 90
1
176
1
 90
4
176
1
 62
7
176
1
 62
257
176
1
 90
1
176
1
 90
1
176
1
 40
1.0
176
1
 90
8
176
1
 62
7
176
1
 40
1.0
176
1
 90
1
176
1
 90
6
176
1
 90
2
176
1
 62
7
176
1
 90
5
176
1
 90
0
176
1
 90
0
176
1
290
0
176
1
 90
1
176
1
 40
0.0
176
1
 90
0
176
1
290
0
176
1
290
1
176
1
290
1
176
1
290
0
176
1
290
0
176
1
290
0
176
1
290
0
176
1
290
0
176
1
290
0
176
1
 90
50
176
1
 40
0.0
176
1
 40
1.0
176
1
 90
0
176
1
 62
18
420
0
176
1
 90
50
176
1
 90
3
176
1
 62
5
420
255
176
1
290
0
176
1
 90
50
176
1
 90
50
176
1
 90
50
176
1
290
0
176
1
 90
50
176
1
 62
256
176
0
 40
1.0
176
0
 90
2
176
1
  1
strokes_ogs.tif
176
1
290
0
176
1
 40
1.0
176
1
 40
1.0
176
1
  0
VISUALSTYLE
  5
65
102
{ACAD_REACTORS
330
16
102
}
330
16
100
AcDbVisualStyle
  2
GouraudWithEdges
 70
3
177
3
291
1
 70
58
 90
2
176
1
 90
2
176
1
 90
0
176
1
 90
2
176
1
 40
0.6
176
1
 40
30.0
176
1
 62
7
420
16777215
176
1
 90
1
176
1
 90
4
176
1
 62
7
176
1
 62
257
176
1
 90
1
176
1
 90
1
176
1
 40
1.0
176
1
 90
8
176
1
 62
7
176
1
 40
1.0
176
1
 90
1
176
1
 90
6
176
1
 90
2
176
1
 62
7
176
1
 90
5
176
1
 90
0
176
1
 90
0
176
1
290
0
176
1
 90
1
176
1
 40
0.0
176
1
 90
0
176
1
290
0
176
1
290
1
176
1
290
1
176
1
290
0
176
1
290
0
176
1
290
0
176
1
290
0
176
1
290
0
176
1
290
0
176
1
 90
50
176
1
 40
0.0
176
1
 40
1.0
176
1
 90
0
176
1
 62
18
420
0
176
1
 90
50
176
1
 90
3
176
1
 62
5
420
255
176
1
290
0
176
1
 90
50
176
1
 90
50
176
1
 90
50
176
1
290
0
176
1
 90
50
176
1
 62
256
176
0
 40
1.0
176
0
 90
2
176
1
  1
strokes_ogs.tif
176
1
290
0
176
1
 40
1.0
176
1
 40
1.0
176
1
  0
VISUALSTYLE
  5
66
102
{ACAD_REACTORS
330
16
102
}
330
16
100
AcDbVisualStyle
  2
Hidden
 70
6
177
3
291
0
 70
58
 90
2
176
1
 90
2
176
1
 90
0
176
1
 90
1
176
1
 40
0.6
176
1
 40
30.0
176
1
 62
7
420
16777215
176
1
 90
1
176
1
 90
4
176
1
 62
7
176
1
 62
257
176
1
 90
1
176
1
 90
1
176
1
 40
1.0
176
1
 90
8
176
1
 62
7
176
1
 40
1.0
176
1
 90
1
176
1
 90
6
176
1
 90
2
176
1
 62
7
176
1
 90
5
176
1
 90
0
176
1
 90
0
176
1
290
0
176
1
 90
1
176
1
 40
0.0
176
1
 90
0
176
1
290
0
176
1
290
1
176
1
290
1
176
1
290
0
176
1
290
0
176
1
290
0
176
1
290
0
176
1
290
0
176
1
290
0
176
1
 90
50
176
1
 40
0.0
176
1
 40
1.0
176
1
 90
0
176
1
 62
18
420
0
176
1
 90
50
176
1
 90
3
176
1
 62
5
420
255
176
1
290
0
176
1
 90
50
176
1
 90
50
176
1
 90
50
176
1
290
0
176
1
 90
50
176
1
 62
256
176
0
 40
1.0
176
0
 90
2
176
1
  1
strokes_ogs.tif
176
1
290
0
176
1
 40
1.0
176
1
 40
1.0
176
1
  0
VISUALSTYLE
  5
67
102
{ACAD_REACTORS
330
16
102
}
330
16
100
AcDbVisualStyle
  2
JitterOff
 70
20
177
3
291
1
 70
58
 90
2
176
1
 90
2
176
1
 90
0
176
1
 90
2
176
1
 40
0.6
176
1
 40
30.0
176
1
 62
7
420
16777215
176
1
 90
1
176
1
 90
4
176
1
 62
7
176
1
 62
257
176
1
 90
1
176
1
 90
1
176
1
 40
1.0
176
1
 90
8
176
1
 62
7
176
1
 40
1.0
176
1
 90
1
176
1
 90
6
176
1
 90
2
176
1
 62
7
176
1
 90
5
176
1
 90
0
176
1
 90
0
176
1
290
0
176
1
 90
1
176
1
 40
0.0
176
1
 90
0
176
1
290
0
176
1
290
1
176
1
290
1
176
1
290
0
176
1
290
0
176
1
290
0
176
1
290
0
176
1
290
0
176
1
290
0
176
1
 90
50
176
1
 40
0.0
176
1
 40
1.0
176
1
 90
0
176
1
 62
18
420
0
176
1
 90
50
176
1
 90
3
176
1
 62
5
420
255
176
1
290
0
176
1
 90
50
176
1
 90
50
176
1
 90
50
176
1
290
0
176
1
 90
50
176
1
 62
256
176
0
 40
1.0
176
0
 90
2
176
1
  1
strokes_ogs.tif
176
1
290
0
176
1
 40
1.0
176
1
 40
1.0
176
1
  0
VISUALSTYLE
  5
68
102
{ACAD_REACTORS
330
16
102
}
330
16
100
AcDbVisualStyle
  2
Linepattern
 70
14
177
3
291
1
 70
58
 90
2
176
1
 90
2
176
1
 90
0
176
1
 90
2
176
1
 40
0.6
176
1
 40
30.0
176
1
 62
7
420
16777215
176
1
 90
1
176
1
 90
4
176
1
 62
7
176
1
 62
257
176
1
 90
1
176
1
 90
1
176
1
 40
1.0
176
1
 90
8
176
1
 62
7
176
1
 40
1.0
176
1
 90
1
176
1
 90
6
176
1
 90
2
176
1
 62
7
176
1
 90
5
176
1
 90
0
176
1
 90
0
176
1
290
0
176
1
 90
1
176
1
 40
0.0
176
1
 90
0
176
1
290
0
176
1
290
1
176
1
290
1
176
1
290
0
176
1
290
0
176
1
290
0
176
1
290
0
176
1
290
0
176
1
290
0
176
1
 90
50
176
1
 40
0.0
176
1
 40
1.0
176
1
 90
0
176
1
 62
18
420
0
176
1
 90
50
176
1
 90
3
176
1
 62
5
420
255
176
1
290
0
176
1
 90
50
176
1
 90
50
176
1
 90
50
176
1
290
0
176
1
 90
50
176
1
 62
256
176
0
 40
1.0
176
0
 90
2
176
1
  1
strokes_ogs.tif
176
1
290
0
176
1
 40
1.0
176
1
 40
1.0
176
1
  0
VISUALSTYLE
  5
69
102
{ACAD_REACTORS
330
16
102
}
330
16
100
AcDbVisualStyle
  2
Modeling
 70
10
177
3
291
0
 70
58
 90
2
176
1
 90
2
176
1
 90
0
176
1
 90
2
176
1
 40
0.6
176
1
 40
30.0
176
1
 62
7
420
16777215
176
1
 90
1
176
1
 90
4
176
1
 62
7
176
1
 62
257
176
1
 90
1
176
1
 90
1
176
1
 40
1.0
176
1
 90
8
176
1
 62
7
176
1
 40
1.0
176
1
 90
1
176
1
 90
6
176
1
 90
2
176
1
 62
7
176
1
 90
5
176
1
 90
0
176
1
 90
0
176
1
290
0
176
1
 90
1
176
1
 40
0.0
176
1
 90
0
176
1
290
0
176
1
290
1
176
1
290
1
176
1
290
0
176
1
290
0
176
1
290
0
176
1
290
0
176
1
290
0
176
1
290
0
176
1
 90
50
176
1
 40
0.0
176
1
 40
1.0
176
1
 90
0
176
1
 62
18
420
0
176
1
 90
50
176
1
 90
3
176
1
 62
5
420
255
176
1
290
0
176
1
 90
50
176
1
 90
50
176
1
 90
50
176
1
290
0
176
1
 90
50
176
1
 62
256
176
0
 40
1.0
176
0
 90
2
176
1
  1
strokes_ogs.tif
176
1
290
0
176
1
 40
1.0
176
1
 40
1.0
176
1
  0
VISUALSTYLE
  5
6A
102
{ACAD_REACTORS
330
16
102
}
330
16
100
AcDbVisualStyle
  2
OverhangOff
 70
21
177
3
291
1
 70
58
 90
2
176
1
 90
2
176
1
 90
0
176
1
 90
2
176
1
 40
0.6
176
1
 40
30.0
176
1
 62
7
420
16777215
176
1
 90
1
176
1
 90
4
176
1
 62
7
176
1
 62
257
176
1
 90
1
176
1
 90
1
176
1
 40
1.0
176
1
 90
8
176
1
 62
7
176
1
 40
1.0
176
1
 90
1
176
1
 90
6
176
1
 90
2
176
1
 62
7
176
1
 90
5
176
1
 90
0
176
1
 90
0
176
1
290
0
176
1
 90
1
176
1
 40
0.0
176
1
 90
0
176
1
290
0
176
1
290
1
176
1
290
1
176
1
290
0
176
1
290
0
176
1
290
0
176
1
290
0
176
1
290
0
176
1
290
0
176
1
 90
50
176
1
 40
0.0
176
1
 40
1.0
176
1
 90
0
176
1
 62
18
420
0
176
1
 90
50
176
1
 90
3
176
1
 62
5
420
255
176
1
290
0
176
1
 90
50
176
1
 90
50
176
1
 90
50
176
1
290
0
176
1
 90
50
176
1
 62
256
176
0
 40
1.0
176
0
 90
2
176
1
  1
strokes_ogs.tif
176
1
290
0
176
1
 40
1.0
176
1
 40
1.0
176
1
  0
VISUALSTYLE
  5
6B
102
{ACAD_REACTORS
330
16
102
}
330
16
100
AcDbVisualStyle
  2
Realistic
 70
8
177
3
291
0
 70
58
 90
2
176
1
 90
2
176
1
 90
0
176
1
 90
2
176
1
 40
0.6
176
1
 40
30.0
176
1
 62
7
420
16777215
176
1
 90
1
176
1
 90
4
176
1
 62
7
176
1
 62
257
176
1
 90
1
176
1
 90
1
176
1
 40
1.0
176
1
 90
8
176
1
 62
7
176
1
 40
1.0
176
1
 90
1
176
1
 90
6
176
1
 90
2
176
1
 62
7
176
1
 90
5
176
1
 90
0
176
1
 90
0
176
1
290
0
176
1
 90
1
176
1
 40
0.0
176
1
 90
0
176
1
290
0
176
1
290
1
176
1
290
1
176
1
290
0
176
1
290
0
176
1
290
0
176
1
290
0
176
1
290
0
176
1
290
0
176
1
 90
50
176
1
 40
0.0
176
1
 40
1.0
176
1
 90
0
176
1
 62
18
420
0
176
1
 90
50
176
1
 90
3
176
1
 62
5
420
255
176
1
290
0
176
1
 90
50
176
1
 90
50
176
1
 90
50
176
1
290
0
176
1
 90
50
176
1
 62
256
176
0
 40
1.0
176
0
 90
2
176
1
  1
strokes_ogs.tif
176
1
290
0
176
1
 40
1.0
176
1
 40
1.0
176
1
  0
VISUALSTYLE
  5
6C
102
{ACAD_REACTORS
330
16
102
}
330
16
100
AcDbVisualStyle
  2
Shaded
 70
27
177
3
291
0
 70
58
 90
2
176
1
 90
2
176
1
 90
0
176
1
 90
2
176
1
 40
0.6
176
1
 40
30.0
176
1
 62
7
420
16777215
176
1
 90
1
176
1
 90
4
176
1
 62
7
176
1
 62
257
176
1
 90
1
176
1
 90
1
176
1
 40
1.0
176
1
 90
8
176
1
 62
7
176
1
 40
1.0
176
1
 90
1
176
1
 90
6
176
1
 90
2
176
1
 62
7
176
1
 90
5
176
1
 90
0
176
1
 90
0
176
1
290
0
176
1
 90
1
176
1
 40
0.0
176
1
 90
0
176
1
290
0
176
1
290
1
176
1
290
1
176
1
290
0
176
1
290
0
176
1
290
0
176
1
290
0
176
1
290
0
176
1
290
0
176
1
 90
50
176
1
 40
0.0
176
1
 40
1.0
176
1
 90
0
176
1
 62
18
420
0
176
1
 90
50
176
1
 90
3
176
1
 62
5
420
255
176
1
290
0
176
1
 90
50
176
1
 90
50
176
1
 90
50
176
1
290
0
176
1
 90
50
176
1
 62
256
176
0
 40
1.0
176
0
 90
2
176
1
  1
strokes_ogs.tif
176
1
290
0
176
1
 40
1.0
176
1
 40
1.0
176
1
  0
VISUALSTYLE
  5
6D
102
{ACAD_REACTORS
330
16
102
}
330
16
100
AcDbVisualStyle
  2
Shaded with edges
 70
26
177
3
291
0
 70
58
 90
2
176
1
 90
2
176
1
 90
0
176
1
 90
2
176
1
 40
0.6
176
1
 40
30.0
176
1
 62
7
420
16777215
176
1
 90
1
176
1
 90
4
176
1
 62
7
176
1
 62
257
176
1
 90
1
176
1
 90
1
176
1
 40
1.0
176
1
 90
8
176
1
 62
7
176
1
 40
1.0
176
1
 90
1
176
1
 90
6
176
1
 90
2
176
1
 62
7
176
1
 90
5
176
1
 90
0
176
1
 90
0
176
1
290
0
176
1
 90
1
176
1
 40
0.0
176
1
 90
0
176
1
290
0
176
1
290
1
176
1
290
1
176
1
290
0
176
1
290
0
176
1
290
0
176
1
290
0
176
1
290
0
176
1
290
0
176
1
 90
50
176
1
 40
0.0
176
1
 40
1.0
176
1
 90
0
176
1
 62
18
420
0
176
1
 90
50
176
1
 90
3
176
1
 62
5
420
255
176
1
290
0
176
1
 90
50
176
1
 90
50
176
1
 90
50
176
1
290
0
176
1
 90
50
176
1
 62
256
176
0
 40
1.0
176
0
 90
2
176
1
  1
strokes_ogs.tif
176
1
290
0
176
1
 40
1.0
176
1
 40
1.0
176
1
  0
VISUALSTYLE
  5
6E
102
{ACAD_REACTORS
330
16
102
}
330
16
100
AcDbVisualStyle
  2
Shades of Gray
 70
23
177
3
291
0
 70
58
 90
2
176
1
 90
2
176
1
 90
0
176
1
 90
2
176
1
 40
0.6
176
1
 40
30.0
176
1
 62
7
420
16777215
176
1
 90
1
176
1
 90
4
176
1
 62
7
176
1
 62
257
176
1
 90
1
176
1
 90
1
176
1
 40
1.0
176
1
 90
8
176
1
 62
7
176
1
 40
1.0
176
1
 90
1
176
1
 90
6
176
1
 90
2
176
1
 62
7
176
1
 90
5
176
1
 90
0
176
1
 90
0
176
1
290
0
176
1
 90
1
176
1
 40
0.0
176
1
 90
0
176
1
290
0
176
1
290
1
176
1
290
1
176
1
290
0
176
1
290
0
176
1
290
0
176
1
290
0
176
1
290
0
176
1
290
0
176
1
 90
50
176
1
 40
0.0
176
1
 40
1.0
176
1
 90
0
176
1
 62
18
420
0
176
1
 90
50
176
1
 90
3
176
1
 62
5
420
255
176
1
290
0
176
1
 90
50
176
1
 90
50
176
1
 90
50
176
1
290
0
176
1
 90
50
176
1
 62
256
176
0
 40
1.0
176
0
 90
2
176
1
  1
strokes_ogs.tif
176
1
290
0
176
1
 40
1.0
176
1
 40
1.0
176
1
  0
VISUALSTYLE
  5
6F
102
{ACAD_REACTORS
330
16
102
}
330
16
100
AcDbVisualStyle
  2
Sketchy
 70
24
177
3
291
0
 70
58
 90
2
176
1
 90
2
176
1
 90
0
176
1
 90
1
176
1
 40
0.6
176
1
 40
30.0
176
1
 62
7
420
16777215
176
1
 90
1
176
1
 90
4
176
1
 62
7
176
1
 62
257
176
1
 90
1
176
1
 90
1
176
1
 40
1.0
176
1
 90
8
176
1
 62
7
176
1
 40
1.0
176
1
 90
1
176
1
 90
6
176
1
 90
2
176
1
 62
7
176
1
 90
5
176
1
 90
0
176
1
 90
0
176
1
290
0
176
1
 90
1
176
1
 40
0.0
176
1
 90
0
176
1
290
0
176
1
290
1
176
1
290
1
176
1
290
0
176
1
290
0
176
1
290
0
176
1
290
0
176
1
290
0
176
1
290
0
176
1
 90
50
176
1
 40
0.0
176
1
 40
1.0
176
1
 90
0
176
1
 62
18
420
0
176
1
 90
50
176
1
 90
3
176
1
 62
5
420
255
176
1
290
0
176
1
 90
50
176
1
 90
50
176
1
 90
50
176
1
290
0
176
1
 90
50
176
1
 62
256
176
0
 40
1.0
176
0
 90
2
176
1
  1
strokes_ogs.tif
176
1
290
0
176
1
 40
1.0
176
1
 40
1.0
176
1
  0
VISUALSTYLE
  5
70
102
{ACAD_REACTORS
330
16
102
}
330
16
100
AcDbVisualStyle
  2
Thicken
 70
13
177
3
291
1
 70
58
 90
2
176
1
 90
2
176
1
 90
0
176
1
 90
2
176
1
 40
0.6
176
1
 40
30.0
176
1
 62
7
420
16777215
176
1
 90
1
176
1
 90
4
176
1
 62
7
176
1
 62
257
176
1
 90
1
176
1
 90
1
176
1
 40
1.0
176
1
 90
8
176
1
 62
7
176
1
 40
1.0
176
1
 90
1
176
1
 90
6
176
1
 90
2
176
1
 62
7
176
1
 90
5
176
1
 90
0
176
1
 90
0
176
1
290
0
176
1
 90
1
176
1
 40
0.0
176
1
 90
0
176
1
290
0
176
1
290
1
176
1
290
1
176
1
290
0
176
1
290
0
176
1
290
0
176
1
290
0
176
1
290
0
176
1
290
0
176
1
 90
50
176
1
 40
0.0
176
1
 40
1.0
176
1
 90
0
176
1
 62
18
420
0
176
1
 90
50
176
1
 90
3
176
1
 62
5
420
255
176
1
290
0
176
1
 90
50
176
1
 90
50
176
1
 90
50
176
1
290
0
176
1
 90
50
176
1
 62
256
176
0
 40
1.0
176
0
 90
2
176
1
  1
strokes_ogs.tif
176
1
290
0
176
1
 40
1.0
176
1
 40
1.0
176
1
  0
VISUALSTYLE
  5
71
102
{ACAD_REACTORS
330
16
102
}
330
16
100
AcDbVisualStyle
  2
Wireframe
 70
5
177
3
291
0
 70
58
 90
2
176
1
 90
2
176
1
 90
0
176
1
 90
0
176
1
 40
0.6
176
1
 40
30.0
176
1
 62
7
420
16777215
176
1
 90
1
176
1
 90
4
176
1
 62
7
176
1
 62
257
176
1
 90
1
176
1
 90
1
176
1
 40
1.0
176
1
 90
8
176
1
 62
7
176
1
 40
1.0
176
1
 90
1
176
1
 90
6
176
1
 90
2
176
1
 62
7
176
1
 90
5
176
1
 90
0
176
1
 90
0
176
1
290
0
176
1
 90
1
176
1
 40
0.0
176
1
 90
0
176
1
290
0
176
1
290
1
176
1
290
1
176
1
290
0
176
1
290
0
176
1
290
0
176
1
290
0
176
1
290
0
176
1
290
0
176
1
 90
50
176
1
 40
0.0
176
1
 40
1.0
176
1
 90
0
176
1
 62
18
420
0
176
1
 90
50
176
1
 90
3
176
1
 62
5
420
255
176
1
290
0
176
1
 90
50
176
1
 90
50
176
1
 90
50
176
1
290
0
176
1
 90
50
176
1
 62
256
176
0
 40
1.0
176
0
 90
2
176
1
  1
strokes_ogs.tif
176
1
290
0
176
1
 40
1.0
176
1
 40
1.0
176
1
  0
VISUALSTYLE
  5
72
102
{ACAD_REACTORS
330
16
102
}
330
16
100
AcDbVisualStyle
  2
X-Ray
 70
25
177
3
291
0
 70
58
 90
2
176
1
 90
2
176
1
 90
0
176
1
 90
2
176
1
 40
0.5
176
1
 40
30.0
176
1
 62
7
420
16777215
176
1
 90
1
176
1
 90
4
176
1
 62
7
176
1
 62
257
176
1
 90
1
176
1
 90
1
176
1
 40
1.0
176
1
 90
8
176
1
 62
7
176
1
 40
1.0
176
1
 90
1
176
1
 90
6
176
1
 90
2
176
1
 62
7
176
1
 90
5
176
1
 90
0
176
1
 90
0
176
1
290
0
176
1
 90
1
176
1
 40
0.0
176
1
 90
0
176
1
290
0
176
1
290
1
176
1
290
1
176
1
290
0
176
1
290
0
176
1
290
0
176
1
290
0
176
1
290
0
176
1
290
0
176
1
 90
50
176
1
 40
0.0
176
1
 40
1.0
176
1
 90
0
176
1
 62
18
420
0
176
1
 90
50
176
1
 90
3
176
1
 62
5
420
255
176
1
290
0
176
1
 90
50
176
1
 90
50
176
1
 90
50
176
1
290
0
176
1
 90
50
176
1
 62
256
176
0
 40
1.0
176
0
 90
2
176
1
  1
strokes_ogs.tif
176
1
290
0
176
1
 40
1.0
176
1
 40
1.0
176
1
  0
DICTIONARYVAR
  5
267
330
2D
100
DictionaryVariables
280
0
  1
1.4.3 @ 2026-05-06T23:38:19.164212+00:00
  0
ENDSEC
  0
EOF
