  0
SECTION
  2
HEADER
  9
$ACADVER
  1
AC1027
  9
$ACADMAINTVER
 70
105
  9
$DWGCODEPAGE
  3
ANSI_1252
  9
$LASTSAVEDBY
  1
ezdxf
  9
$REQUIREDVERSIONS
160
0
  9
$INSBASE
 10
0.0
 20
0.0
 30
0.0
  9
$EXTMIN
 10
1e+20
 20
1e+20
 30
1e+20
  9
$EXTMAX
 10
-1e+20
 20
-1e+20
 30
-1e+20
  9
$LIMMIN
 10
0.0
 20
0.0
  9
$LIMMAX
 10
420.0
 20
297.0
  9
$ORTHOMODE
 70
0
  9
$REGENMODE
 70
1
  9
$FILLMODE
 70
1
  9
$QTEXTMODE
 70
0
  9
$MIRRTEXT
 70
1
  9
$LTSCALE
 40
1.0
  9
$ATTMODE
 70
1
  9
$TEXTSIZE
 40
2.5
  9
$TRACEWID
 40
1.0
  9
$TEXTSTYLE
  7
OpenSans
  9
$CLAYER
  8
0
  9
$CELTYPE
  6
ByLayer
  9
$CECOLOR
 62
256
  9
$CELTSCALE
 40
1.0
  9
$DISPSILH
 70
0
  9
$DIMSCALE
 40
1.0
  9
$DIMASZ
 40
0.175
  9
$DIMEXO
 40
0.125
  9
$DIMDLI
 40
3.75
  9
$DIMRND
 40
0.0
  9
$DIMDLE
 40
0.0
  9
$DIMEXE
 40
0.375
  9
$DIMTP
 40
0.0
  9
$DIMTM
 40
0.0
  9
$DIMTXT
 40
0.25
  9
$DIMCEN
 40
2.5
  9
$DIMTSZ
 40
0.0
  9
$DIMTOL
 70
0
  9
$DIMLIM
 70
0
  9
$DIMTIH
 70
0
  9
$DIMTOH
 70
0
  9
$DIMSE1
 70
0
  9
$DIMSE2
 70
0
  9
$DIMTAD
 70
1
  9
$DIMZIN
 70
12
  9
$DIMBLK
  1
ARCHTICK
  9
$DIMASO
 70
1
  9
$DIMSHO
 70
1
  9
$DIMPOST
  1

  9
$DIMAPOST
  1

  9
$DIMALT
 70
0
  9
$DIMALTD
 70
3
  9
$DIMALTF
 40
0.03937007874
  9
$DIMLFAC
 40
100.0
  9
$DIMTOFL
 70
1
  9
$DIMTVP
 40
0.0
  9
$DIMTIX
 70
0
  9
$DIMSOXD
 70
0
  9
$DIMSAH
 70
0
  9
$DIMBLK1
  1

  9
$DIMBLK2
  1

  9
$DIMSTYLE
  2
EZDXF
  9
$DIMCLRD
 70
0
  9
$DIMCLRE
 70
0
  9
$DIMCLRT
 70
0
  9
$DIMTFAC
 40
0.5
  9
$DIMGAP
 40
0.1
  9
$DIMJUST
 70
0
  9
$DIMSD1
 70
0
  9
$DIMSD2
 70
0
  9
$DIMTOLJ
 70
0
  9
$DIMTZIN
 70
8
  9
$DIMALTZ
 70
0
  9
$DIMALTTZ
 70
0
  9
$DIMUPT
 70
1
  9
$DIMDEC
 70
2
  9
$DIMTDEC
 70
2
  9
$DIMALTU
 70
2
  9
$DIMALTTD
 70
3
  9
$DIMTXSTY
  7
OpenSansCondensed-Light
  9
$DIMAUNIT
 70
0
  9
$DIMADEC
 70
2
  9
$DIMALTRND
 40
0.0
  9
$DIMAZIN
 70
3
  9
$DIMDSEP
 70
46
  9
$DIMATFIT
 70
3
  9
$DIMFRAC
 70
0
  9
$DIMLDRBLK
  1

  9
$DIMLUNIT
 70
2
  9
$DIMLWD
 70
-2
  9
$DIMLWE
 70
-2
  9
$DIMTMOVE
 70
2
  9
$DIMFXL
 40
1.0
  9
$DIMFXLON
 70
0
  9
$DIMJOGANG
 40
0.785398163397
  9
$DIMTFILL
 70
0
  9
$DIMTFILLCLR
 70
0
  9
$DIMARCSYM
 70
0
  9
$DIMLTYPE
  6

  9
$DIMLTEX1
  6

  9
$DIMLTEX2
  6

  9
$DIMTXTDIRECTION
 70
0
  9
$LUNITS
 70
2
  9
$LUPREC
 70
4
  9
$SKETCHINC
 40
1.0
  9
$FILLETRAD
 40
10.0
  9
$AUNITS
 70
0
  9
$AUPREC
 70
2
  9
$MENU
  1
.
  9
$ELEVATION
 40
0.0
  9
$PELEVATION
 40
0.0
  9
$THICKNESS
 40
0.0
  9
$LIMCHECK
 70
0
  9
$CHAMFERA
 40
0.0
  9
$CHAMFERB
 40
0.0
  9
$CHAMFERC
 40
0.0
  9
$CHAMFERD
 40
0.0
  9
$SKPOLY
 70
0
  9
$TDCREATE
 40
2461167.7952662036
  9
$TDUCREATE
 40
2458532.153996898
  9
$TDUPDATE
 40
2461167.7952662036
  9
$TDUUPDATE
 40
2458532.1544311
  9
$TDINDWG
 40
0.0
  9
$TDUSRTIMER
 40
0.0
  9
$USRTIMER
 70
1
  9
$ANGBASE
 50
0.0
  9
$ANGDIR
 70
0
  9
$PDMODE
 70
0
  9
$PDSIZE
 40
0.0
  9
$PLINEWID
 40
0.0
  9
$SPLFRAME
 70
0
  9
$SPLINETYPE
 70
6
  9
$SPLINESEGS
 70
8
  9
$HANDSEED
  5
2FB
  9
$SURFTAB1
 70
6
  9
$SURFTAB2
 70
6
  9
$SURFTYPE
 70
6
  9
$SURFU
 70
6
  9
$SURFV
 70
6
  9
$UCSBASE
  2

  9
$UCSNAME
  2

  9
$UCSORG
 10
0.0
 20
0.0
 30
0.0
  9
$UCSXDIR
 10
1.0
 20
0.0
 30
0.0
  9
$UCSYDIR
 10
0.0
 20
1.0
 30
0.0
  9
$UCSORTHOREF
  2

  9
$UCSORTHOVIEW
 70
0
  9
$UCSORGTOP
 10
0.0
 20
0.0
 30
0.0
  9
$UCSORGBOTTOM
 10
0.0
 20
0.0
 30
0.0
  9
$UCSORGLEFT
 10
0.0
 20
0.0
 30
0.0
  9
$UCSORGRIGHT
 10
0.0
 20
0.0
 30
0.0
  9
$UCSORGFRONT
 10
0.0
 20
0.0
 30
0.0
  9
$UCSORGBACK
 10
0.0
 20
0.0
 30
0.0
  9
$PUCSBASE
  2

  9
$PUCSNAME
  2

  9
$PUCSORG
 10
0.0
 20
0.0
 30
0.0
  9
$PUCSXDIR
 10
1.0
 20
0.0
 30
0.0
  9
$PUCSYDIR
 10
0.0
 20
1.0
 30
0.0
  9
$PUCSORTHOREF
  2

  9
$PUCSORTHOVIEW
 70
0
  9
$PUCSORGTOP
 10
0.0
 20
0.0
 30
0.0
  9
$PUCSORGBOTTOM
 10
0.0
 20
0.0
 30
0.0
  9
$PUCSORGLEFT
 10
0.0
 20
0.0
 30
0.0
  9
$PUCSORGRIGHT
 10
0.0
 20
0.0
 30
0.0
  9
$PUCSORGFRONT
 10
0.0
 20
0.0
 30
0.0
  9
$PUCSORGBACK
 10
0.0
 20
0.0
 30
0.0
  9
$USERI1
 70
0
  9
$USERI2
 70
0
  9
$USERI3
 70
0
  9
$USERI4
 70
0
  9
$USERI5
 70
0
  9
$USERR1
 40
0.0
  9
$USERR2
 40
0.0
  9
$USERR3
 40
0.0
  9
$USERR4
 40
0.0
  9
$USERR5
 40
0.0
  9
$WORLDVIEW
 70
1
  9
$SHADEDGE
 70
3
  9
$SHADEDIF
 70
70
  9
$TILEMODE
 70
1
  9
$MAXACTVP
 70
64
  9
$PINSBASE
 10
0.0
 20
0.0
 30
0.0
  9
$PLIMCHECK
 70
0
  9
$PEXTMIN
 10
1e+20
 20
1e+20
 30
1e+20
  9
$PEXTMAX
 10
-1e+20
 20
-1e+20
 30
-1e+20
  9
$PLIMMIN
 10
0.0
 20
0.0
  9
$PLIMMAX
 10
420.0
 20
297.0
  9
$UNITMODE
 70
0
  9
$VISRETAIN
 70
1
  9
$PLINEGEN
 70
0
  9
$PSLTSCALE
 70
1
  9
$TREEDEPTH
 70
3020
  9
$CMLSTYLE
  2
Standard
  9
$CMLJUST
 70
0
  9
$CMLSCALE
 40
20.0
  9
$PROXYGRAPHICS
 70
1
  9
$MEASUREMENT
 70
1
  9
$CELWEIGHT
370
-1
  9
$ENDCAPS
280
0
  9
$JOINSTYLE
280
0
  9
$LWDISPLAY
290
0
  9
$INSUNITS
 70
4
  9
$HYPERLINKBASE
  1

  9
$STYLESHEET
  1

  9
$XEDIT
290
1
  9
$CEPSNTYPE
380
0
  9
$PSTYLEMODE
290
1
  9
$FINGERPRINTGUID
  2
{B2EB2847-49F6-4BC9-9A16-AB813E3C5347}
  9
$VERSIONGUID
  2
{2C38A689-C411-4BEF-B739-ABBE74D09A87}
  9
$EXTNAMES
290
1
  9
$PSVPSCALE
 40
0.0
  9
$OLESTARTUP
290
0
  9
$SORTENTS
280
127
  9
$INDEXCTL
280
0
  9
$HIDETEXT
280
1
  9
$XCLIPFRAME
280
1
  9
$HALOGAP
280
0
  9
$OBSCOLOR
 70
257
  9
$OBSLTYPE
280
0
  9
$INTERSECTIONDISPLAY
280
0
  9
$INTERSECTIONCOLOR
 70
257
  9
$DIMASSOC
280
2
  9
$PROJECTNAME
  1

  9
$CAMERADISPLAY
290
0
  9
$LENSLENGTH
 40
50.0
  9
$CAMERAHEIGHT
 40
0.0
  9
$STEPSPERSEC
 40
24.0
  9
$STEPSIZE
 40
100.0
  9
$3DDWFPREC
 40
2.0
  9
$PSOLWIDTH
 40
0.005
  9
$PSOLHEIGHT
 40
0.08
  9
$LOFTANG1
 40
1.570796326795
  9
$LOFTANG2
 40
1.570796326795
  9
$LOFTMAG1
 40
0.0
  9
$LOFTMAG2
 40
0.0
  9
$LOFTPARAM
 70
7
  9
$LOFTNORMALS
280
1
  9
$LATITUDE
 40
37.795
  9
$LONGITUDE
 40
-122.394
  9
$NORTHDIRECTION
 40
0.0
  9
$TIMEZONE
 70
-8000
  9
$LIGHTGLYPHDISPLAY
280
1
  9
$TILEMODELIGHTSYNCH
280
1
  9
$CMATERIAL
347
20
  9
$SOLIDHIST
280
0
  9
$SHOWHIST
280
1
  9
$DWFFRAME
280
2
  9
$DGNFRAME
280
2
  9
$REALWORLDSCALE
290
1
  9
$INTERFERECOLOR
 62
256
  9
$CSHADOW
280
0
  9
$SHADOWPLANELOCATION
 40
0.0
  0
ENDSEC
  0
SECTION
  2
CLASSES
  0
CLASS
  1
ACDBDICTIONARYWDFLT
  2
AcDbDictionaryWithDefault
  3
ObjectDBX Classes
 90
0
 91
0
280
0
281
0
  0
CLASS
  1
SUN
  2
AcDbSun
  3
SCENEOE
 90
1153
 91
0
280
0
281
0
  0
CLASS
  1
VISUALSTYLE
  2
AcDbVisualStyle
  3
ObjectDBX Classes
 90
4095
 91
0
280
0
281
0
  0
CLASS
  1
MATERIAL
  2
AcDbMaterial
  3
ObjectDBX Classes
 90
1153
 91
0
280
0
281
0
  0
CLASS
  1
SCALE
  2
AcDbScale
  3
ObjectDBX Classes
 90
1153
 91
0
280
0
281
0
  0
CLASS
  1
TABLESTYLE
  2
AcDbTableStyle
  3
ObjectDBX Classes
 90
4095
 91
0
280
0
281
0
  0
CLASS
  1
MLEADERSTYLE
  2
AcDbMLeaderStyle
  3
ACDB_MLEADERSTYLE_CLASS
 90
4095
 91
0
280
0
281
0
  0
CLASS
  1
DICTIONARYVAR
  2
AcDbDictionaryVar
  3
ObjectDBX Classes
 90
0
 91
0
280
0
281
0
  0
CLASS
  1
CELLSTYLEMAP
  2
AcDbCellStyleMap
  3
ObjectDBX Classes
 90
1152
 91
0
280
0
281
0
  0
CLASS
  1
MENTALRAYRENDERSETTINGS
  2
AcDbMentalRayRenderSettings
  3
SCENEOE
 90
1024
 91
0
280
0
281
0
  0
CLASS
  1
ACDBDETAILVIEWSTYLE
  2
AcDbDetailViewStyle
  3
ObjectDBX Classes
 90
1025
 91
0
280
0
281
0
  0
CLASS
  1
ACDBSECTIONVIEWSTYLE
  2
AcDbSectionViewStyle
  3
ObjectDBX Classes
 90
1025
 91
0
280
0
281
0
  0
CLASS
  1
RASTERVARIABLES
  2
AcDbRasterVariables
  3
ISM
 90
0
 91
0
280
0
281
0
  0
CLASS
  1
ACDBPLACEHOLDER
  2
AcDbPlaceHolder
  3
ObjectDBX Classes
 90
0
 91
0
280
0
281
0
  0
CLASS
  1
LAYOUT
  2
AcDbLayout
  3
ObjectDBX Classes
 90
0
 91
0
280
0
281
0
  0
ENDSEC
  0
SECTION
  2
TABLES
  0
TABLE
  2
VPORT
  5
8
330
0
100
AcDbSymbolTable
 70
1
  0
VPORT
  5
23
330
8
100
AcDbSymbolTableRecord
100
AcDbViewportTableRecord
  2
*Active
 70
0
 10
0.0
 20
0.0
 11
1.0
 21
1.0
 12
0.0
 22
0.0
 13
0.0
 23
0.0
 14
0.5
 24
0.5
 15
0.5
 25
0.5
 16
0.0
 26
0.0
 36
1.0
 17
0.0
 27
0.0
 37
0.0
 40
1000.0
 41
1.34
 42
50.0
 43
0.0
 44
0.0
 50
0.0
 51
0.0
 71
0
 72
1000
 73
1
 74
3
 75
0
 76
0
 77
0
 78
0
281
0
 65
0
146
0.0
  0
ENDTAB
  0
TABLE
  2
LTYPE
  5
2
330
0
100
AcDbSymbolTable
 70
21
  0
LTYPE
  5
24
330
2
100
AcDbSymbolTableRecord
100
AcDbLinetypeTableRecord
  2
ByBlock
 70
0
  3

 72
65
 73
0
 40
0.0
  0
LTYPE
  5
25
330
2
100
AcDbSymbolTableRecord
100
AcDbLinetypeTableRecord
  2
ByLayer
 70
0
  3

 72
65
 73
0
 40
0.0
  0
LTYPE
  5
26
330
2
100
AcDbSymbolTableRecord
100
AcDbLinetypeTableRecord
  2
Continuous
 70
0
  3

 72
65
 73
0
 40
0.0
  0
LTYPE
  5
2F
330
2
100
AcDbSymbolTableRecord
100
AcDbLinetypeTableRecord
  2
CENTER
 70
0
  3
Center ____ _ ____ _ ____ _ ____ _ ____ _ ____
 72
65
 73
4
 40
5.08
 49
3.175
 74
0
 49
-0.635
 74
0
 49
0.635
 74
0
 49
-0.635
 74
0
  0
LTYPE
  5
30
330
2
100
AcDbSymbolTableRecord
100
AcDbLinetypeTableRecord
  2
CENTERX2
 70
0
  3
Center (2x) ________  __  ________  __  ________
 72
65
 73
4
 40
8.89
 49
6.35
 74
0
 49
-0.635
 74
0
 49
1.27
 74
0
 49
-0.635
 74
0
  0
LTYPE
  5
31
330
2
100
AcDbSymbolTableRecord
100
AcDbLinetypeTableRecord
  2
CENTER2
 70
0
  3
Center (.5x) ____ _ ____ _ ____ _ ____ _ ____
 72
65
 73
4
 40
2.54
 49
1.587
 74
0
 49
-0.318
 74
0
 49
0.318
 74
0
 49
-0.318
 74
0
  0
LTYPE
  5
32
330
2
100
AcDbSymbolTableRecord
100
AcDbLinetypeTableRecord
  2
DASHED
 70
0
  3
Dashed __ __ __ __ __ __ __ __ __ __ __ __ __ _
 72
65
 73
2
 40
1.524
 49
1.27
 74
0
 49
-0.254
 74
0
  0
LTYPE
  5
33
330
2
100
AcDbSymbolTableRecord
100
AcDbLinetypeTableRecord
  2
DASHEDX2
 70
0
  3
Dashed (2x) ____  ____  ____  ____  ____  ____
 72
65
 73
2
 40
3.048
 49
2.54
 74
0
 49
-0.508
 74
0
  0
LTYPE
  5
34
330
2
100
AcDbSymbolTableRecord
100
AcDbLinetypeTableRecord
  2
DASHED2
 70
0
  3
Dashed (.5x) _ _ _ _ _ _ _ _ _ _ _ _ _ _
 72
65
 73
2
 40
0.762
 49
0.635
 74
0
 49
-0.127
 74
0
  0
LTYPE
  5
35
330
2
100
AcDbSymbolTableRecord
100
AcDbLinetypeTableRecord
  2
PHANTOM
 70
0
  3
Phantom ______  __  __  ______  __  __  ______
 72
65
 73
6
 40
6.35
 49
3.175
 74
0
 49
-0.635
 74
0
 49
0.635
 74
0
 49
-0.635
 74
0
 49
0.635
 74
0
 49
-0.635
 74
0
  0
LTYPE
  5
36
330
2
100
AcDbSymbolTableRecord
100
AcDbLinetypeTableRecord
  2
PHANTOMX2
 70
0
  3
Phantom (2x)____________    ____    ____    ____________
 72
65
 73
6
 40
10.795
 49
6.35
 74
0
 49
-0.635
 74
0
 49
1.27
 74
0
 49
-0.635
 74
0
 49
1.27
 74
0
 49
-0.635
 74
0
  0
LTYPE
  5
37
330
2
100
AcDbSymbolTableRecord
100
AcDbLinetypeTableRecord
  2
PHANTOM2
 70
0
  3
Phantom (.5x) ___ _ _ ___ _ _ ___ _ _ ___ _ _ ___
 72
65
 73
6
 40
3.175
 49
1.587
 74
0
 49
-0.318
 74
0
 49
0.318
 74
0
 49
-0.318
 74
0
 49
0.318
 74
0
 49
-0.318
 74
0
  0
LTYPE
  5
38
330
2
100
AcDbSymbolTableRecord
100
AcDbLinetypeTableRecord
  2
DASHDOT
 70
0
  3
Dash dot __ . __ . __ . __ . __ . __ . __ . __
 72
65
 73
4
 40
3.556
 49
2.54
 74
0
 49
-0.508
 74
0
 49
0.0
 74
0
 49
-0.508
 74
0
  0
LTYPE
  5
39
330
2
100
AcDbSymbolTableRecord
100
AcDbLinetypeTableRecord
  2
DASHDOTX2
 70
0
  3
Dash dot (2x) ____  .  ____  .  ____  .  ____
 72
65
 73
4
 40
6.096
 49
5.08
 74
0
 49
-0.508
 74
0
 49
0.0
 74
0
 49
-0.508
 74
0
  0
LTYPE
  5
3A
330
2
100
AcDbSymbolTableRecord
100
AcDbLinetypeTableRecord
  2
DASHDOT2
 70
0
  3
Dash dot (.5x) _ . _ . _ . _ . _ . _ . _ . _
 72
65
 73
4
 40
1.778
 49
1.27
 74
0
 49
-0.254
 74
0
 49
0.0
 74
0
 49
-0.254
 74
0
  0
LTYPE
  5
3B
330
2
100
AcDbSymbolTableRecord
100
AcDbLinetypeTableRecord
  2
DOT
 70
0
  3
Dot .  .  .  .  .  .  .  .  .  .  .  .  .  .  .  .
 72
65
 73
2
 40
0.508
 49
0.0
 74
0
 49
-0.508
 74
0
  0
LTYPE
  5
3C
330
2
100
AcDbSymbolTableRecord
100
AcDbLinetypeTableRecord
  2
DOTX2
 70
0
  3
Dot (2x) .    .    .    .    .    .    .    . 
 72
65
 73
2
 40
1.016
 49
0.0
 74
0
 49
-1.016
 74
0
  0
LTYPE
  5
3D
330
2
100
AcDbSymbolTableRecord
100
AcDbLinetypeTableRecord
  2
DOT2
 70
0
  3
Dot (.5) . . . . . . . . . . . . . . . . . . . 
 72
65
 73
2
 40
0.254
 49
0.0
 74
0
 49
-0.254
 74
0
  0
LTYPE
  5
3E
330
2
100
AcDbSymbolTableRecord
100
AcDbLinetypeTableRecord
  2
DIVIDE
 70
0
  3
Divide __ . . __ . . __ . . __ . . __ . . __
 72
65
 73
6
 40
4.064
 49
2.54
 74
0
 49
-0.508
 74
0
 49
0.0
 74
0
 49
-0.508
 74
0
 49
0.0
 74
0
 49
-0.508
 74
0
  0
LTYPE
  5
3F
330
2
100
AcDbSymbolTableRecord
100
AcDbLinetypeTableRecord
  2
DIVIDEX2
 70
0
  3
Divide (2x) ____  . .  ____  . .  ____  . .  ____
 72
65
 73
6
 40
6.604
 49
5.08
 74
0
 49
-0.508
 74
0
 49
0.0
 74
0
 49
-0.508
 74
0
 49
0.0
 74
0
 49
-0.508
 74
0
  0
LTYPE
  5
40
330
2
100
AcDbSymbolTableRecord
100
AcDbLinetypeTableRecord
  2
DIVIDE2
 70
0
  3
Divide(.5x) _ . _ . _ . _ . _ . _ . _ . _
 72
65
 73
6
 40
2.032
 49
1.27
 74
0
 49
-0.254
 74
0
 49
0.0
 74
0
 49
-0.254
 74
0
 49
0.0
 74
0
 49
-0.254
 74
0
  0
ENDTAB
  0
TABLE
  2
LAYER
  5
1
330
0
100
AcDbSymbolTable
 70
26
  0
LAYER
  5
27
330
1
100
AcDbSymbolTableRecord
100
AcDbLayerTableRecord
  2
0
 70
0
 62
7
  6
Continuous
370
-3
390
13
347
21
  0
LAYER
  5
28
330
1
100
AcDbSymbolTableRecord
100
AcDbLayerTableRecord
  2
Defpoints
 70
0
 62
7
  6
Continuous
290
0
370
-3
390
13
347
21
  0
LAYER
  5
8A
330
1
100
AcDbSymbolTableRecord
100
AcDbLayerTableRecord
  2
PANEL_00
 70
0
 62
7
  6
Continuous
370
-3
390
13
347
21
  0
LAYER
  5
8B
330
1
100
AcDbSymbolTableRecord
100
AcDbLayerTableRecord
  2
PANEL_00_LBL
 70
0
 62
3
  6
Continuous
370
-3
390
13
347
21
  0
LAYER
  5
B0
330
1
100
AcDbSymbolTableRecord
100
AcDbLayerTableRecord
  2
PANEL_01
 70
0
 62
7
  6
Continuous
370
-3
390
13
347
21
  0
LAYER
  5
B1
330
1
100
AcDbSymbolTableRecord
100
AcDbLayerTableRecord
  2
PANEL_01_LBL
 70
0
 62
3
  6
Continuous
370
-3
390
13
347
21
  0
LAYER
  5
152
330
1
100
AcDbSymbolTableRecord
100
AcDbLayerTableRecord
  2
PANEL_02
 70
0
 62
7
  6
Continuous
370
-3
390
13
347
21
  0
LAYER
  5
153
330
1
100
AcDbSymbolTableRecord
100
AcDbLayerTableRecord
  2
PANEL_02_LBL
 70
0
 62
3
  6
Continuous
370
-3
390
13
347
21
  0
LAYER
  5
17B
330
1
100
AcDbSymbolTableRecord
100
AcDbLayerTableRecord
  2
PANEL_03
 70
0
 62
7
  6
Continuous
370
-3
390
13
347
21
  0
LAYER
  5
17C
330
1
100
AcDbSymbolTableRecord
100
AcDbLayerTableRecord
  2
PANEL_03_LBL
 70
0
 62
3
  6
Continuous
370
-3
390
13
347
21
  0
LAYER
  5
1AA
330
1
100
AcDbSymbolTableRecord
100
AcDbLayerTableRecord
  2
PANEL_04
 70
0
 62
7
  6
Continuous
370
-3
390
13
347
21
  0
LAYER
  5
1AB
330
1
100
AcDbSymbolTableRecord
100
AcDbLayerTableRecord
  2
PANEL_04_LBL
 70
0
 62
3
  6
Continuous
370
-3
390
13
347
21
  0
LAYER
  5
1C1
330
1
100
AcDbSymbolTableRecord
100
AcDbLayerTableRecord
  2
PANEL_05
 70
0
 62
7
  6
Continuous
370
-3
390
13
347
21
  0
LAYER
  5
1C2
330
1
100
AcDbSymbolTableRecord
100
AcDbLayerTableRecord
  2
PANEL_05_LBL
 70
0
 62
3
  6
Continuous
370
-3
390
13
347
21
  0
LAYER
  5
1E8
330
1
100
AcDbSymbolTableRecord
100
AcDbLayerTableRecord
  2
PANEL_06
 70
0
 62
7
  6
Continuous
370
-3
390
13
347
21
  0
LAYER
  5
1E9
330
1
100
AcDbSymbolTableRecord
100
AcDbLayerTableRecord
  2
PANEL_06_LBL
 70
0
 62
3
  6
Continuous
370
-3
390
13
347
21
  0
LAYER
  5
204
330
1
100
AcDbSymbolTableRecord
100
AcDbLayerTableRecord
  2
PANEL_07
 70
0
 62
7
  6
Continuous
370
-3
390
13
347
21
  0
LAYER
  5
205
330
1
100
AcDbSymbolTableRecord
100
AcDbLayerTableRecord
  2
PANEL_07_LBL
 70
0
 62
3
  6
Continuous
370
-3
390
13
347
21
  0
LAYER
  5
229
330
1
100
AcDbSymbolTableRecord
100
AcDbLayerTableRecord
  2
PANEL_08
 70
0
 62
7
  6
Continuous
370
-3
390
13
347
21
  0
LAYER
  5
22A
330
1
100
AcDbSymbolTableRecord
100
AcDbLayerTableRecord
  2
PANEL_08_LBL
 70
0
 62
3
  6
Continuous
370
-3
390
13
347
21
  0
LAYER
  5
25B
330
1
100
AcDbSymbolTableRecord
100
AcDbLayerTableRecord
  2
PANEL_09
 70
0
 62
7
  6
Continuous
370
-3
390
13
347
21
  0
LAYER
  5
25C
330
1
100
AcDbSymbolTableRecord
100
AcDbLayerTableRecord
  2
PANEL_09_LBL
 70
0
 62
3
  6
Continuous
370
-3
390
13
347
21
  0
LAYER
  5
298
330
1
100
AcDbSymbolTableRecord
100
AcDbLayerTableRecord
  2
PANEL_10
 70
0
 62
7
  6
Continuous
370
-3
390
13
347
21
  0
LAYER
  5
299
330
1
100
AcDbSymbolTableRecord
100
AcDbLayerTableRecord
  2
PANEL_10_LBL
 70
0
 62
3
  6
Continuous
370
-3
390
13
347
21
  0
LAYER
  5
2C0
330
1
100
AcDbSymbolTableRecord
100
AcDbLayerTableRecord
  2
PANEL_11
 70
0
 62
7
  6
Continuous
370
-3
390
13
347
21
  0
LAYER
  5
2C1
330
1
100
AcDbSymbolTableRecord
100
AcDbLayerTableRecord
  2
PANEL_11_LBL
 70
0
 62
3
  6
Continuous
370
-3
390
13
347
21
  0
ENDTAB
  0
TABLE
  2
STYLE
  5
5
330
0
100
AcDbSymbolTable
 70
26
  0
STYLE
  5
29
330
5
100
AcDbSymbolTableRecord
100
AcDbTextStyleTableRecord
  2
Standard
 70
0
 40
0.0
 41
1.0
 50
0.0
 71
0
 42
2.5
  3
txt
  4

  0
STYLE
  5
41
330
5
100
AcDbSymbolTableRecord
100
AcDbTextStyleTableRecord
  2
OpenSans-Light
 70
0
 40
0.0
 41
1.0
 50
0.0
 71
0
 42
2.5
  3
OpenSans-Light.ttf
  4

  0
STYLE
  5
42
330
5
100
AcDbSymbolTableRecord
100
AcDbTextStyleTableRecord
  2
OpenSans-Light-Italic
 70
0
 40
0.0
 41
1.0
 50
0.0
 71
0
 42
2.5
  3
OpenSans-LightItalic.ttf
  4

  0
STYLE
  5
43
330
5
100
AcDbSymbolTableRecord
100
AcDbTextStyleTableRecord
  2
OpenSans
 70
0
 40
0.0
 41
1.0
 50
0.0
 71
0
 42
2.5
  3
OpenSans-Regular.ttf
  4

  0
STYLE
  5
44
330
5
100
AcDbSymbolTableRecord
100
AcDbTextStyleTableRecord
  2
OpenSans-Italic
 70
0
 40
0.0
 41
1.0
 50
0.0
 71
0
 42
2.5
  3
OpenSans-Italic.ttf
  4

  0
STYLE
  5
45
330
5
100
AcDbSymbolTableRecord
100
AcDbTextStyleTableRecord
  2
OpenSans-SemiBold
 70
0
 40
0.0
 41
1.0
 50
0.0
 71
0
 42
2.5
  3
OpenSans-SemiBold.ttf
  4

  0
STYLE
  5
46
330
5
100
AcDbSymbolTableRecord
100
AcDbTextStyleTableRecord
  2
OpenSans-SemiBoldItalic
 70
0
 40
0.0
 41
1.0
 50
0.0
 71
0
 42
2.5
  3
OpenSans-SemiBoldItalic.ttf
  4

  0
STYLE
  5
47
330
5
100
AcDbSymbolTableRecord
100
AcDbTextStyleTableRecord
  2
OpenSans-Bold
 70
0
 40
0.0
 41
1.0
 50
0.0
 71
0
 42
2.5
  3
OpenSans-Bold.ttf
  4

  0
STYLE
  5
48
330
5
100
AcDbSymbolTableRecord
100
AcDbTextStyleTableRecord
  2
OpenSans-BoldItalic
 70
0
 40
0.0
 41
1.0
 50
0.0
 71
0
 42
2.5
  3
OpenSans-BoldItalic.ttf
  4

  0
STYLE
  5
49
330
5
100
AcDbSymbolTableRecord
100
AcDbTextStyleTableRecord
  2
OpenSans-ExtraBold
 70
0
 40
0.0
 41
1.0
 50
0.0
 71
0
 42
2.5
  3
OpenSans-ExtraBold.ttf
  4

  0
STYLE
  5
4A
330
5
100
AcDbSymbolTableRecord
100
AcDbTextStyleTableRecord
  2
OpenSans-ExtraBoldItalic
 70
0
 40
0.0
 41
1.0
 50
0.0
 71
0
 42
2.5
  3
OpenSans-ExtraBoldItalic.ttf
  4

  0
STYLE
  5
4B
330
5
100
AcDbSymbolTableRecord
100
AcDbTextStyleTableRecord
  2
OpenSansCondensed-Bold
 70
0
 40
0.0
 41
1.0
 50
0.0
 71
0
 42
2.5
  3
OpenSansCondensed-Bold.ttf
  4

  0
STYLE
  5
4C
330
5
100
AcDbSymbolTableRecord
100
AcDbTextStyleTableRecord
  2
OpenSansCondensed-Light
 70
0
 40
0.0
 41
1.0
 50
0.0
 71
0
 42
2.5
  3
OpenSansCondensed-Light.ttf
  4

  0
STYLE
  5
4D
330
5
100
AcDbSymbolTableRecord
100
AcDbTextStyleTableRecord
  2
OpenSansCondensed-Italic
 70
0
 40
0.0
 41
1.0
 50
0.0
 71
0
 42
2.5
  3
OpenSansCondensed-LightItalic.ttf
  4

  0
STYLE
  5
4E
330
5
100
AcDbSymbolTableRecord
100
AcDbTextStyleTableRecord
  2
LiberationSans
 70
0
 40
0.0
 41
1.0
 50
0.0
 71
0
 42
2.5
  3
LiberationSans-Regular.ttf
  4

  0
STYLE
  5
4F
330
5
100
AcDbSymbolTableRecord
100
AcDbTextStyleTableRecord
  2
LiberationSans-Bold
 70
0
 40
0.0
 41
1.0
 50
0.0
 71
0
 42
2.5
  3
LiberationSans-Bold.ttf
  4

  0
STYLE
  5
50
330
5
100
AcDbSymbolTableRecord
100
AcDbTextStyleTableRecord
  2
LiberationSans-BoldItalic
 70
0
 40
0.0
 41
1.0
 50
0.0
 71
0
 42
2.5
  3
LiberationSans-BoldItalic.ttf
  4

  0
STYLE
  5
51
330
5
100
AcDbSymbolTableRecord
100
AcDbTextStyleTableRecord
  2
LiberationSans-Italic
 70
0
 40
0.0
 41
1.0
 50
0.0
 71
0
 42
2.5
  3
LiberationSans-Italic.ttf
  4

  0
STYLE
  5
52
330
5
100
AcDbSymbolTableRecord
100
AcDbTextStyleTableRecord
  2
LiberationSerif
 70
0
 40
0.0
 41
1.0
 50
0.0
 71
0
 42
2.5
  3
LiberationSerif-Regular.ttf
  4

  0
STYLE
  5
53
330
5
100
AcDbSymbolTableRecord
100
AcDbTextStyleTableRecord
  2
LiberationSerif-Bold
 70
0
 40
0.0
 41
1.0
 50
0.0
 71
0
 42
2.5
  3
LiberationSerif-Bold.ttf
  4

  0
STYLE
  5
54
330
5
100
AcDbSymbolTableRecord
100
AcDbTextStyleTableRecord
  2
LiberationSerif-BoldItalic
 70
0
 40
0.0
 41
1.0
 50
0.0
 71
0
 42
2.5
  3
LiberationSerif-BoldItalic.ttf
  4

  0
STYLE
  5
55
330
5
100
AcDbSymbolTableRecord
100
AcDbTextStyleTableRecord
  2
LiberationSerif-Italic
 70
0
 40
0.0
 41
1.0
 50
0.0
 71
0
 42
2.5
  3
LiberationSerif-Italic.ttf
  4

  0
STYLE
  5
56
330
5
100
AcDbSymbolTableRecord
100
AcDbTextStyleTableRecord
  2
LiberationMono
 70
0
 40
0.0
 41
1.0
 50
0.0
 71
0
 42
2.5
  3
LiberationMono-Regular.ttf
  4

  0
STYLE
  5
57
330
5
100
AcDbSymbolTableRecord
100
AcDbTextStyleTableRecord
  2
LiberationMono-Bold
 70
0
 40
0.0
 41
1.0
 50
0.0
 71
0
 42
2.5
  3
LiberationMono-Bold.ttf
  4

  0
STYLE
  5
58
330
5
100
AcDbSymbolTableRecord
100
AcDbTextStyleTableRecord
  2
LiberationMono-BoldItalic
 70
0
 40
0.0
 41
1.0
 50
0.0
 71
0
 42
2.5
  3
LiberationMono-BoldItalic.ttf
  4

  0
STYLE
  5
59
330
5
100
AcDbSymbolTableRecord
100
AcDbTextStyleTableRecord
  2
LiberationMono-Italic
 70
0
 40
0.0
 41
1.0
 50
0.0
 71
0
 42
2.5
  3
LiberationMono-Italic.ttf
  4

  0
ENDTAB
  0
TABLE
  2
VIEW
  5
7
330
0
100
AcDbSymbolTable
 70
0
  0
ENDTAB
  0
TABLE
  2
UCS
  5
6
330
0
100
AcDbSymbolTable
 70
0
  0
ENDTAB
  0
TABLE
  2
APPID
  5
3
330
0
100
AcDbSymbolTable
 70
3
  0
APPID
  5
2A
330
3
100
AcDbSymbolTableRecord
100
AcDbRegAppTableRecord
  2
ACAD
 70
0
  0
APPID
  5
2F8
330
3
100
AcDbSymbolTableRecord
100
AcDbRegAppTableRecord
  2
HATCHBACKGROUNDCOLOR
 70
0
  0
APPID
  5
2F9
330
3
100
AcDbSymbolTableRecord
100
AcDbRegAppTableRecord
  2
EZDXF
 70
0
  0
ENDTAB
  0
TABLE
  2
DIMSTYLE
  5
4
330
0
100
AcDbSymbolTable
 70
12
100
AcDbDimStyleTable
  0
DIMSTYLE
105
2B
330
4
100
AcDbSymbolTableRecord
100
AcDbDimStyleTableRecord
  2
Standard
 70
0
 40
1.0
 41
2.5
 42
0.625
 43
3.75
 44
1.25
 45
0.0
 46
0.0
 47
0.0
 48
0.0
 49
2.5
140
2.5
141
2.5
142
0.0
143
0.03937007874
144
1.0
145
0.0
146
1.0
147
0.625
148
0.0
 69
0
 70
0
 71
0
 72
0
 73
0
 74
0
 75
0
 76
0
 77
1
 78
8
 79
3
170
0
171
3
172
1
173
0
174
0
175
0
176
0
177
0
178
0
179
2
271
2
272
2
273
2
274
3
275
0
276
0
277
2
278
44
279
0
280
0
281
0
282
0
283
0
284
8
285
0
286
0
288
0
289
3
290
0
371
-2
372
-2
  0
DIMSTYLE
105
73
330
4
100
AcDbSymbolTableRecord
100
AcDbDimStyleTableRecord
  2
EZDXF
 70
0
 40
1.0
 41
0.175
 42
0.125
 43
3.75
 44
0.375
 45
0.0
 46
0.0
 47
0.0
 48
0.0
 49
2.5
140
0.25
141
2.5
142
0.0
143
0.03937007874
144
100.0
145
0.0
146
0.5
147
0.1
148
0.0
 69
0
 70
0
 71
0
 72
0
 73
0
 74
0
 75
0
 76
0
 77
1
 78
12
 79
3
170
0
171
3
172
1
173
0
174
0
175
0
176
0
177
0
178
0
179
2
271
2
272
2
273
2
274
3
275
0
276
0
277
2
278
46
279
2
280
0
281
0
282
0
283
0
284
8
285
0
286
0
288
1
289
3
290
0
340
4C
342
74
371
-2
372
-2
  0
DIMSTYLE
105
7C
330
4
100
AcDbSymbolTableRecord
100
AcDbDimStyleTableRecord
  2
EZ_M_100_H25_CM
 70
0
 40
1.0
 41
0.25
 42
0.125
 43
3.75
 44
0.375
 45
0.0
 46
0.0
 47
0.0
 48
0.0
 49
2.5
140
0.25
141
2.5
142
0.125
143
0.03937007874
144
100.0
145
0.0
146
0.5
147
0.1
148
0.0
 69
0
 70
0
 71
0
 72
0
 73
0
 74
0
 75
0
 76
0
 77
1
 78
12
 79
3
170
0
171
3
172
1
173
0
174
0
175
0
176
0
177
0
178
0
179
2
271
2
272
2
273
2
274
3
275
0
276
0
277
2
278
46
279
2
280
0
281
0
282
0
283
0
284
8
285
0
286
0
288
1
289
3
290
0
340
4C
371
-2
372
-2
  0
DIMSTYLE
105
7D
330
4
100
AcDbSymbolTableRecord
100
AcDbDimStyleTableRecord
  2
EZ_M_50_H25_CM
 70
0
 40
1.0
 41
0.125
 42
0.0625
 43
3.75
 44
0.1875
 45
0.0
 46
0.0
 47
0.0
 48
0.0
 49
2.5
140
0.125
141
2.5
142
0.0625
143
0.03937007874
144
100.0
145
0.0
146
0.5
147
0.05
148
0.0
 69
0
 70
0
 71
0
 72
0
 73
0
 74
0
 75
0
 76
0
 77
1
 78
12
 79
3
170
0
171
3
172
1
173
0
174
0
175
0
176
0
177
0
178
0
179
2
271
2
272
2
273
2
274
3
275
0
276
0
277
2
278
46
279
2
280
0
281
0
282
0
283
0
284
8
285
0
286
0
288
1
289
3
290
0
340
4C
371
-2
372
-2
  0
DIMSTYLE
105
7E
330
4
100
AcDbSymbolTableRecord
100
AcDbDimStyleTableRecord
  2
EZ_M_25_H25_CM
 70
0
 40
1.0
 41
0.0625
 42
0.03125
 43
3.75
 44
0.09375
 45
0.0
 46
0.0
 47
0.0
 48
0.0
 49
2.5
140
0.0625
141
2.5
142
0.03125
143
0.03937007874
144
100.0
145
0.0
146
0.5
147
0.025
148
0.0
 69
0
 70
0
 71
0
 72
0
 73
0
 74
0
 75
0
 76
0
 77
1
 78
12
 79
3
170
0
171
3
172
1
173
0
174
0
175
0
176
0
177
0
178
0
179
2
271
2
272
2
273
2
274
3
275
0
276
0
277
2
278
46
279
2
280
0
281
0
282
0
283
0
284
8
285
0
286
0
288
1
289
3
290
0
340
4C
371
-2
372
-2
  0
DIMSTYLE
105
7F
330
4
100
AcDbSymbolTableRecord
100
AcDbDimStyleTableRecord
  2
EZ_M_20_H25_CM
 70
0
 40
1.0
 41
0.05
 42
0.025
 43
3.75
 44
0.07500000000000001
 45
0.0
 46
0.0
 47
0.0
 48
0.0
 49
2.5
140
0.05
141
2.5
142
0.025
143
0.03937007874
144
100.0
145
0.0
146
0.5
147
0.020000000000000004
148
0.0
 69
0
 70
0
 71
0
 72
0
 73
0
 74
0
 75
0
 76
0
 77
1
 78
12
 79
3
170
0
171
3
172
1
173
0
174
0
175
0
176
0
177
0
178
0
179
2
271
2
272
2
273
2
274
3
275
0
276
0
277
2
278
46
279
2
280
0
281
0
282
0
283
0
284
8
285
0
286
0
288
1
289
3
290
0
340
4C
371
-2
372
-2
  0
DIMSTYLE
105
80
330
4
100
AcDbSymbolTableRecord
100
AcDbDimStyleTableRecord
  2
EZ_M_10_H25_CM
 70
0
 40
1.0
 41
0.025
 42
0.0125
 43
3.75
 44
0.037500000000000006
 45
0.0
 46
0.0
 47
0.0
 48
0.0
 49
2.5
140
0.025
141
2.5
142
0.0125
143
0.03937007874
144
100.0
145
0.0
146
0.5
147
0.010000000000000002
148
0.0
 69
0
 70
0
 71
0
 72
0
 73
0
 74
0
 75
0
 76
0
 77
1
 78
12
 79
3
170
0
171
3
172
1
173
0
174
0
175
0
176
0
177
0
178
0
179
2
271
2
272
2
273
2
274
3
275
0
276
0
277
2
278
46
279
2
280
0
281
0
282
0
283
0
284
8
285
0
286
0
288
1
289
3
290
0
340
4C
371
-2
372
-2
  0
DIMSTYLE
105
81
330
4
100
AcDbSymbolTableRecord
100
AcDbDimStyleTableRecord
  2
EZ_M_5_H25_CM
 70
0
 40
1.0
 41
0.0125
 42
0.00625
 43
3.75
 44
0.018750000000000003
 45
0.0
 46
0.0
 47
0.0
 48
0.0
 49
2.5
140
0.0125
141
2.5
142
0.00625
143
0.03937007874
144
100.0
145
0.0
146
0.5
147
0.005000000000000001
148
0.0
 69
0
 70
0
 71
0
 72
0
 73
0
 74
0
 75
0
 76
0
 77
1
 78
12
 79
3
170
0
171
3
172
1
173
0
174
0
175
0
176
0
177
0
178
0
179
2
271
2
272
2
273
2
274
3
275
0
276
0
277
2
278
46
279
2
280
0
281
0
282
0
283
0
284
8
285
0
286
0
288
1
289
3
290
0
340
4C
371
-2
372
-2
  0
DIMSTYLE
105
82
330
4
100
AcDbSymbolTableRecord
100
AcDbDimStyleTableRecord
  2
EZ_M_1_H25_CM
 70
0
 40
1.0
 41
0.0025
 42
0.00125
 43
3.75
 44
0.00375
 45
0.0
 46
0.0
 47
0.0
 48
0.0
 49
2.5
140
0.0025
141
2.5
142
0.00125
143
0.03937007874
144
100.0
145
0.0
146
0.5
147
0.001
148
0.0
 69
0
 70
0
 71
0
 72
0
 73
0
 74
0
 75
0
 76
0
 77
1
 78
12
 79
3
170
0
171
3
172
1
173
0
174
0
175
0
176
0
177
0
178
0
179
2
271
2
272
2
273
2
274
3
275
0
276
0
277
2
278
46
279
2
280
0
281
0
282
0
283
0
284
8
285
0
286
0
288
1
289
3
290
0
340
4C
371
-2
372
-2
  0
DIMSTYLE
105
83
330
4
100
AcDbSymbolTableRecord
100
AcDbDimStyleTableRecord
  2
EZ_RADIUS
 70
0
 40
1.0
 41
0.25
 42
0.125
 43
3.75
 44
0.375
 45
0.0
 46
0.0
 47
0.0
 48
0.0
 49
2.5
140
0.25
141
0.0
142
0.0
143
0.03937007874
144
100.0
145
0.0
146
0.5
147
0.1
148
0.0
 69
0
 70
0
 71
0
 72
0
 73
0
 74
0
 75
0
 76
0
 77
1
 78
12
 79
3
170
0
171
3
172
0
173
0
174
0
175
0
176
0
177
0
178
0
179
2
271
2
272
2
273
2
274
3
275
0
276
0
277
2
278
46
279
1
280
0
281
0
282
0
283
0
284
8
285
0
286
0
288
1
289
3
290
0
340
4C
342
84
371
-2
372
-2
  0
DIMSTYLE
105
88
330
4
100
AcDbSymbolTableRecord
100
AcDbDimStyleTableRecord
  2
EZ_RADIUS_INSIDE
 70
0
 40
1.0
 41
0.25
 42
0.125
 43
3.75
 44
0.375
 45
0.0
 46
0.0
 47
0.0
 48
0.0
 49
2.5
140
0.25
141
0.0
142
0.0
143
0.03937007874
144
100.0
145
0.0
146
0.5
147
0.1
148
0.0
 69
0
 70
0
 71
0
 72
0
 73
0
 74
0
 75
0
 76
0
 77
0
 78
12
 79
3
170
0
171
3
172
0
173
0
174
1
175
0
176
0
177
0
178
0
179
2
271
2
272
2
273
2
274
3
275
0
276
0
277
2
278
46
279
0
280
0
281
0
282
0
283
0
284
8
285
0
286
0
288
1
289
0
290
0
340
4C
342
84
371
-2
372
-2
  0
DIMSTYLE
105
89
330
4
100
AcDbSymbolTableRecord
100
AcDbDimStyleTableRecord
  2
EZ_CURVED
 70
0
 40
1.0
 41
0.25
 42
0.125
 43
3.75
 44
0.375
 45
0.0
 46
0.0
 47
0.0
 48
0.0
 49
2.5
140
0.25
141
2.5
142
0.0
143
0.03937007874
144
100.0
145
0.0
146
0.5
147
0.1
148
0.0
 69
0
 70
0
 71
0
 72
0
 73
0
 74
0
 75
0
 76
0
 77
1
 78
12
 79
2
 90
2
170
0
171
3
172
1
173
0
174
0
175
0
176
0
177
0
178
0
179
2
271
2
272
2
273
2
274
3
275
0
276
0
277
2
278
46
279
2
280
0
281
0
282
0
283
0
284
8
285
0
286
0
288
1
289
3
290
0
340
4C
371
-2
372
-2
  0
ENDTAB
  0
TABLE
  2
BLOCK_RECORD
  5
9
330
0
100
AcDbSymbolTable
 70
5
  0
BLOCK_RECORD
  5
17
330
9
100
AcDbSymbolTableRecord
100
AcDbBlockTableRecord
  2
*Model_Space
340
1A
 70
0
280
1
281
0
  0
BLOCK_RECORD
  5
1B
330
9
100
AcDbSymbolTableRecord
100
AcDbBlockTableRecord
  2
*Paper_Space
340
1E
 70
0
280
1
281
0
  0
BLOCK_RECORD
  5
74
330
9
100
AcDbSymbolTableRecord
100
AcDbBlockTableRecord
  2
_ARCHTICK
340
0
 70
0
280
1
281
0
  0
BLOCK_RECORD
  5
78
330
9
100
AcDbSymbolTableRecord
100
AcDbBlockTableRecord
  2
_CLOSEDFILLED
340
0
 70
0
280
1
281
0
  0
BLOCK_RECORD
  5
84
330
9
100
AcDbSymbolTableRecord
100
AcDbBlockTableRecord
  2
_CLOSEDBLANK
340
0
 70
0
280
1
281
0
  0
ENDTAB
  0
ENDSEC
  0
SECTION
  2
BLOCKS
  0
BLOCK
  5
18
330
17
100
AcDbEntity
  8
0
100
AcDbBlockBegin
  2
*Model_Space
 70
0
 10
0.0
 20
0.0
 30
0.0
  3
*Model_Space
  1

  0
ENDBLK
  5
19
330
17
100
AcDbEntity
  8
0
100
AcDbBlockEnd
  0
BLOCK
  5
1C
330
1B
100
AcDbEntity
  8
0
100
AcDbBlockBegin
  2
*Paper_Space
 70
0
 10
0.0
 20
0.0
 30
0.0
  3
*Paper_Space
  1

  0
ENDBLK
  5
1D
330
1B
100
AcDbEntity
  8
0
100
AcDbBlockEnd
  0
BLOCK
  5
75
330
74
100
AcDbEntity
  8
0
100
AcDbBlockBegin
  2
_ARCHTICK
 70
0
 10
0.0
 20
0.0
 30
0.0
  3
_ARCHTICK
  1

  0
LWPOLYLINE
  5
77
330
74
100
AcDbEntity
  8
0
  6
BYBLOCK
 62
0
100
AcDbPolyline
 90
2
 70
0
 43
0.15
 10
-0.5
 20
-0.5
 10
0.5
 20
0.5
  0
ENDBLK
  5
76
330
74
100
AcDbEntity
  8
0
100
AcDbBlockEnd
  0
BLOCK
  5
79
330
78
100
AcDbEntity
  8
0
100
AcDbBlockBegin
  2
_CLOSEDFILLED
 70
0
 10
0.0
 20
0.0
 30
0.0
  3
_CLOSEDFILLED
  1

  0
SOLID
  5
7B
330
78
100
AcDbEntity
  8
0
  6
BYBLOCK
 62
0
100
AcDbTrace
 10
-1.0
 20
0.16439898372402537
 30
0.0
 11
0.0
 21
0.0
 31
0.0
 12
-1.0
 22
-0.16439898372402537
 32
0.0
 13
-1.0
 23
-0.16439898372402537
 33
0.0
  0
ENDBLK
  5
7A
330
78
100
AcDbEntity
  8
0
100
AcDbBlockEnd
  0
BLOCK
  5
85
330
84
100
AcDbEntity
  8
0
100
AcDbBlockBegin
  2
_CLOSEDBLANK
 70
0
 10
0.0
 20
0.0
 30
0.0
  3
_CLOSEDBLANK
  1

  0
LWPOLYLINE
  5
87
330
84
100
AcDbEntity
  8
0
  6
BYBLOCK
 62
0
100
AcDbPolyline
 90
3
 70
1
 10
-1.0
 20
0.16439898372402537
 10
0.0
 20
0.0
 10
-1.0
 20
-0.16439898372402537
  0
ENDBLK
  5
86
330
84
100
AcDbEntity
  8
0
100
AcDbBlockEnd
  0
ENDSEC
  0
SECTION
  2
ENTITIES
  0
LINE
  5
8C
330
17
100
AcDbEntity
  8
PANEL_00
100
AcDbLine
 10
6.0
 20
32.66666666666667
 30
0.0
 11
143.5
 21
30.5
 31
0.0
  0
LINE
  5
8D
330
17
100
AcDbEntity
  8
PANEL_00
100
AcDbLine
 10
6.0
 20
32.66666666666667
 30
0.0
 11
143.5
 21
30.5
 31
0.0
  0
LINE
  5
8E
330
17
100
AcDbEntity
  8
PANEL_00
100
AcDbLine
 10
2.5
 20
112.0
 30
0.0
 11
153.5
 21
112.0
 31
0.0
  0
LINE
  5
8F
330
17
100
AcDbEntity
  8
PANEL_00
100
AcDbLine
 10
124.0
 20
1.0
 30
0.0
 11
124.0
 21
140.0
 31
0.0
  0
LINE
  5
90
330
17
100
AcDbEntity
  8
PANEL_00
100
AcDbLine
 10
2.5
 20
112.0
 30
0.0
 11
153.5
 21
112.0
 31
0.0
  0
LINE
  5
91
330
17
100
AcDbEntity
  8
PANEL_00
100
AcDbLine
 10
29.5
 20
15.0
 30
0.0
 11
124.0
 21
15.0
 31
0.0
  0
LINE
  5
92
330
17
100
AcDbEntity
  8
PANEL_00
100
AcDbLine
 10
29.0
 20
8.0
 30
0.0
 11
29.0
 21
134.0
 31
0.0
  0
LINE
  5
93
330
17
100
AcDbEntity
  8
PANEL_00
100
AcDbLine
 10
124.0
 20
1.0
 30
0.0
 11
124.0
 21
140.0
 31
0.0
  0
LINE
  5
94
330
17
100
AcDbEntity
  8
PANEL_00
100
AcDbLine
 10
70.5
 20
1.5
 30
0.0
 11
71.5
 21
50.0
 31
0.0
  0
LINE
  5
95
330
17
100
AcDbEntity
  8
PANEL_00
100
AcDbLine
 10
143.5
 20
30.5
 30
0.0
 11
140.0
 21
111.0
 31
0.0
  0
LINE
  5
96
330
17
100
AcDbEntity
  8
PANEL_00
100
AcDbLine
 10
29.0
 20
127.0
 30
0.0
 11
122.0
 21
127.0
 31
0.0
  0
LINE
  5
97
330
17
100
AcDbEntity
  8
PANEL_00
100
AcDbLine
 10
29.5
 20
15.0
 30
0.0
 11
124.0
 21
15.0
 31
0.0
  0
LINE
  5
98
330
17
100
AcDbEntity
  8
PANEL_00
100
AcDbLine
 10
143.5
 20
30.5
 30
0.0
 11
140.0
 21
111.0
 31
0.0
  0
LINE
  5
99
330
17
100
AcDbEntity
  8
PANEL_00
100
AcDbLine
 10
29.0
 20
127.0
 30
0.0
 11
122.0
 21
127.0
 31
0.0
  0
LINE
  5
9A
330
17
100
AcDbEntity
  8
PANEL_00
100
AcDbLine
 10
71.5
 20
67.0
 30
0.0
 11
70.5
 21
140.5
 31
0.0
  0
LINE
  5
9B
330
17
100
AcDbEntity
  8
PANEL_00
100
AcDbLine
 10
14.0
 20
32.0
 30
0.0
 11
14.0
 21
110.0
 31
0.0
  0
LINE
  5
9C
330
17
100
AcDbEntity
  8
PANEL_00
100
AcDbLine
 10
29.0
 20
8.0
 30
0.0
 11
29.0
 21
134.0
 31
0.0
  0
LINE
  5
9D
330
17
100
AcDbEntity
  8
PANEL_00
100
AcDbLine
 10
70.5
 20
1.5
 30
0.0
 11
71.5
 21
50.0
 31
0.0
  0
LINE
  5
9E
330
17
100
AcDbEntity
  8
PANEL_00
100
AcDbLine
 10
0.0
 20
73.5
 30
0.0
 11
76.33333333333333
 21
71.66666666666667
 31
0.0
  0
LINE
  5
9F
330
17
100
AcDbEntity
  8
PANEL_00
100
AcDbLine
 10
0.0
 20
73.5
 30
0.0
 11
78.0
 21
74.0
 31
0.0
  0
LINE
  5
A0
330
17
100
AcDbEntity
  8
PANEL_00
100
AcDbLine
 10
88.0
 20
29.0
 30
0.0
 11
134.0
 21
101.0
 31
0.0
  0
LINE
  5
A1
330
17
100
AcDbEntity
  8
PANEL_00
100
AcDbLine
 10
3.3333333333333335
 20
46.33333333333333
 30
0.0
 11
78.0
 21
42.5
 31
0.0
  0
LINE
  5
A2
330
17
100
AcDbEntity
  8
PANEL_00
100
AcDbLine
 10
36.75
 20
77.0
 30
0.0
 11
128.0
 21
131.0
 31
0.0
  0
LINE
  5
A3
330
17
100
AcDbEntity
  8
PANEL_00
100
AcDbLine
 10
14.0
 20
32.0
 30
0.0
 11
14.0
 21
110.0
 31
0.0
  0
LINE
  5
A4
330
17
100
AcDbEntity
  8
PANEL_00
100
AcDbLine
 10
32.5
 20
74.5
 30
0.0
 11
96.0
 21
110.0
 31
0.0
  0
LINE
  5
A5
330
17
100
AcDbEntity
  8
PANEL_00
100
AcDbLine
 10
4.0
 20
42.0
 30
0.0
 11
78.0
 21
42.5
 31
0.0
  0
LINE
  5
A6
330
17
100
AcDbEntity
  8
PANEL_00
100
AcDbLine
 10
70.5
 20
140.5
 30
0.0
 11
73.66666666666667
 21
69.0
 31
0.0
  0
LINE
  5
A7
330
17
100
AcDbEntity
  8
PANEL_00
100
AcDbLine
 10
41.0
 20
5.0
 30
0.0
 11
38.333333333333336
 21
78.33333333333334
 31
0.0
  0
LINE
  5
A8
330
17
100
AcDbEntity
  8
PANEL_00
100
AcDbLine
 10
41.0
 20
5.0
 30
0.0
 11
38.333333333333336
 21
78.33333333333334
 31
0.0
  0
LINE
  5
A9
330
17
100
AcDbEntity
  8
PANEL_00
100
AcDbLine
 10
88.0
 20
29.0
 30
0.0
 11
119.0
 21
82.0
 31
0.0
  0
LINE
  5
AA
330
17
100
AcDbEntity
  8
PANEL_00
100
AcDbLine
 10
3.5
 20
48.5
 30
0.0
 11
39.0
 21
65.0
 31
0.0
  0
LINE
  5
AB
330
17
100
AcDbEntity
  8
PANEL_00
100
AcDbLine
 10
5.25
 20
35.0
 30
0.0
 11
50.0
 21
63.0
 31
0.0
  0
LINE
  5
AC
330
17
100
AcDbEntity
  8
PANEL_00
100
AcDbLine
 10
113.0
 20
93.0
 30
0.0
 11
113.0
 21
139.0
 31
0.0
  0
LINE
  5
AD
330
17
100
AcDbEntity
  8
PANEL_00
100
AcDbLine
 10
23.0
 20
57.0
 30
0.0
 11
50.0
 21
63.0
 31
0.0
  0
LINE
  5
AE
330
17
100
AcDbEntity
  8
PANEL_00
100
AcDbLine
 10
113.0
 20
93.0
 30
0.0
 11
113.0
 21
139.0
 31
0.0
  0
TEXT
  5
AF
330
17
100
AcDbEntity
  8
PANEL_00_LBL
100
AcDbText
 10
77.5
 20
129.0
 30
0.0
 40
12.0
  1
PART panel_00
100
AcDbText
  0
LINE
  5
B2
330
17
100
AcDbEntity
  8
PANEL_01
100
AcDbLine
 10
188.25
 20
30.25
 30
0.0
 11
498.0
 21
31.0
 31
0.0
  0
LINE
  5
B3
330
17
100
AcDbEntity
  8
PANEL_01
100
AcDbLine
 10
208.66666666666666
 20
12.166666666666686
 30
0.0
 11
480.0
 21
12.75
 31
0.0
  0
LINE
  5
B4
330
17
100
AcDbEntity
  8
PANEL_01
100
AcDbLine
 10
182.0
 20
262.0
 30
0.0
 11
508.0
 21
261.0
 31
0.0
  0
LINE
  5
B5
330
17
100
AcDbEntity
  8
PANEL_01
100
AcDbLine
 10
190.16666666666666
 20
31.166666666666686
 30
0.0
 11
498.0
 21
31.0
 31
0.0
  0
LINE
  5
B6
330
17
100
AcDbEntity
  8
PANEL_01
100
AcDbLine
 10
390.66666666666663
 20
190.0
 30
0.0
 11
507.0
 21
193.0
 31
0.0
  0
LINE
  5
B7
330
17
100
AcDbEntity
  8
PANEL_01
100
AcDbLine
 10
208.66666666666666
 20
12.166666666666686
 30
0.0
 11
480.0
 21
12.75
 31
0.0
  0
LINE
  5
B8
330
17
100
AcDbEntity
  8
PANEL_01
100
AcDbLine
 10
498.0
 20
31.0
 30
0.0
 11
496.6666666666667
 21
261.3333333333333
 31
0.0
  0
LINE
  5
B9
330
17
100
AcDbEntity
  8
PANEL_01
100
AcDbLine
 10
210.25
 20
280.25
 30
0.0
 11
479.0
 21
277.0
 31
0.0
  0
LINE
  5
BA
330
17
100
AcDbEntity
  8
PANEL_01
100
AcDbLine
 10
210.75
 20
10.625
 30
0.0
 11
209.66666666666666
 21
281.6666666666667
 31
0.0
  0
LINE
  5
BB
330
17
100
AcDbEntity
  8
PANEL_01
100
AcDbLine
 10
210.75
 20
10.625
 30
0.0
 11
209.66666666666666
 21
281.6666666666667
 31
0.0
  0
LINE
  5
BC
330
17
100
AcDbEntity
  8
PANEL_01
100
AcDbLine
 10
210.5
 20
277.0
 30
0.0
 11
479.0
 21
277.0
 31
0.0
  0
LINE
  5
BD
330
17
100
AcDbEntity
  8
PANEL_01
100
AcDbLine
 10
181.0
 20
83.0
 30
0.0
 11
294.0
 21
83.0
 31
0.0
  0
LINE
  5
BE
330
17
100
AcDbEntity
  8
PANEL_01
100
AcDbLine
 10
182.0
 20
262.0
 30
0.0
 11
508.0
 21
261.0
 31
0.0
  0
LINE
  5
BF
330
17
100
AcDbEntity
  8
PANEL_01
100
AcDbLine
 10
498.0
 20
31.0
 30
0.0
 11
496.6666666666667
 21
261.3333333333333
 31
0.0
  0
LINE
  5
C0
330
17
100
AcDbEntity
  8
PANEL_01
100
AcDbLine
 10
190.8
 20
31.19999999999999
 30
0.0
 11
192.0
 21
261.3333333333333
 31
0.0
  0
LINE
  5
C1
330
17
100
AcDbEntity
  8
PANEL_01
100
AcDbLine
 10
480.0
 20
5.166666666666686
 30
0.0
 11
478.0
 21
289.0
 31
0.0
  0
LINE
  5
C2
330
17
100
AcDbEntity
  8
PANEL_01
100
AcDbLine
 10
479.5
 20
3.0
 30
0.0
 11
478.0
 21
289.0
 31
0.0
  0
LINE
  5
C3
330
17
100
AcDbEntity
  8
PANEL_01
100
AcDbLine
 10
397.0
 20
220.8
 30
0.0
 11
507.3333333333333
 21
220.66666666666669
 31
0.0
  0
LINE
  5
C4
330
17
100
AcDbEntity
  8
PANEL_01
100
AcDbLine
 10
388.0
 20
193.0
 30
0.0
 11
507.0
 21
193.0
 31
0.0
  0
LINE
  5
C5
330
17
100
AcDbEntity
  8
PANEL_01
100
AcDbLine
 10
180.33333333333334
 20
217.33333333333331
 30
0.0
 11
288.75
 21
218.5
 31
0.0
  0
LINE
  5
C6
330
17
100
AcDbEntity
  8
PANEL_01
100
AcDbLine
 10
396.33333333333337
 20
77.66666666666666
 30
0.0
 11
508.0
 21
76.0
 31
0.0
  0
LINE
  5
C7
330
17
100
AcDbEntity
  8
PANEL_01
100
AcDbLine
 10
181.0
 20
80.0
 30
0.0
 11
291.5
 21
79.0
 31
0.0
  0
LINE
  5
C8
330
17
100
AcDbEntity
  8
PANEL_01
100
AcDbLine
 10
455.0
 20
141.5
 30
0.0
 11
507.5
 21
142.0
 31
0.0
  0
LINE
  5
C9
330
17
100
AcDbEntity
  8
PANEL_01
100
AcDbLine
 10
395.0
 20
3.8000000000000114
 30
0.0
 11
397.0
 21
158.0
 31
0.0
  0
LINE
  5
CA
330
17
100
AcDbEntity
  8
PANEL_01
100
AcDbLine
 10
262.0
 20
7.0
 30
0.0
 11
258.0
 21
154.0
 31
0.0
  0
LINE
  5
CB
330
17
100
AcDbEntity
  8
PANEL_01
100
AcDbLine
 10
294.25
 20
3.5
 30
0.0
 11
288.0
 21
151.0
 31
0.0
  0
LINE
  5
CC
330
17
100
AcDbEntity
  8
PANEL_01
100
AcDbLine
 10
361.0
 20
3.0
 30
0.0
 11
358.33333333333337
 21
152.0
 31
0.0
  0
LINE
  5
CD
330
17
100
AcDbEntity
  8
PANEL_01
100
AcDbLine
 10
396.33333333333337
 20
77.66666666666666
 30
0.0
 11
508.0
 21
76.0
 31
0.0
  0
LINE
  5
CE
330
17
100
AcDbEntity
  8
PANEL_01
100
AcDbLine
 10
190.8
 20
31.19999999999999
 30
0.0
 11
192.0
 21
261.3333333333333
 31
0.0
  0
LINE
  5
CF
330
17
100
AcDbEntity
  8
PANEL_01
100
AcDbLine
 10
224.5
 20
5.0
 30
0.0
 11
223.0
 21
151.0
 31
0.0
  0
LINE
  5
D0
330
17
100
AcDbEntity
  8
PANEL_01
100
AcDbLine
 10
361.0
 20
3.0
 30
0.0
 11
358.33333333333337
 21
152.0
 31
0.0
  0
LINE
  5
D1
330
17
100
AcDbEntity
  8
PANEL_01
100
AcDbLine
 10
397.0
 20
218.33333333333331
 30
0.0
 11
507.5
 21
219.5
 31
0.0
  0
LINE
  5
D2
330
17
100
AcDbEntity
  8
PANEL_01
100
AcDbLine
 10
180.0
 20
222.5
 30
0.0
 11
290.3333333333333
 21
225.16666666666669
 31
0.0
  0
LINE
  5
D3
330
17
100
AcDbEntity
  8
PANEL_01
100
AcDbLine
 10
294.25
 20
3.5
 30
0.0
 11
294.0
 21
158.0
 31
0.0
  0
LINE
  5
D4
330
17
100
AcDbEntity
  8
PANEL_01
100
AcDbLine
 10
180.0
 20
142.0
 30
0.0
 11
233.66666666666666
 21
144.0
 31
0.0
  0
LINE
  5
D5
330
17
100
AcDbEntity
  8
PANEL_01
100
AcDbLine
 10
327.0
 20
2.0
 30
0.0
 11
322.0
 21
150.5
 31
0.0
  0
LINE
  5
D6
330
17
100
AcDbEntity
  8
PANEL_01
100
AcDbLine
 10
183.0
 20
244.66666666666666
 30
0.0
 11
260.0
 21
246.0
 31
0.0
  0
LINE
  5
D7
330
17
100
AcDbEntity
  8
PANEL_01
100
AcDbLine
 10
183.0
 20
244.66666666666666
 30
0.0
 11
260.0
 21
246.0
 31
0.0
  0
LINE
  5
D8
330
17
100
AcDbEntity
  8
PANEL_01
100
AcDbLine
 10
395.0
 20
3.8000000000000114
 30
0.0
 11
395.0
 21
152.0
 31
0.0
  0
LINE
  5
D9
330
17
100
AcDbEntity
  8
PANEL_01
100
AcDbLine
 10
430.0
 20
2.0
 30
0.0
 11
429.0
 21
151.0
 31
0.0
  0
LINE
  5
DA
330
17
100
AcDbEntity
  8
PANEL_01
100
AcDbLine
 10
180.25
 20
219.0
 30
0.0
 11
290.3333333333333
 21
225.16666666666669
 31
0.0
  0
LINE
  5
DB
330
17
100
AcDbEntity
  8
PANEL_01
100
AcDbLine
 10
327.0
 20
2.0
 30
0.0
 11
328.0
 21
158.0
 31
0.0
  0
LINE
  5
DC
330
17
100
AcDbEntity
  8
PANEL_01
100
AcDbLine
 10
257.0
 20
118.0
 30
0.0
 11
255.0
 21
152.66666666666666
 31
0.0
  0
LINE
  5
DD
330
17
100
AcDbEntity
  8
PANEL_01
100
AcDbLine
 10
281.0
 20
59.5
 30
0.0
 11
284.0
 21
97.66666666666666
 31
0.0
  0
LINE
  5
DE
330
17
100
AcDbEntity
  8
PANEL_01
100
AcDbLine
 10
286.3333333333333
 20
185.5
 30
0.0
 11
287.25
 21
289.25
 31
0.0
  0
LINE
  5
DF
330
17
100
AcDbEntity
  8
PANEL_01
100
AcDbLine
 10
434.66666666666663
 20
88.33333333333334
 30
0.0
 11
434.0
 21
158.0
 31
0.0
  0
LINE
  5
E0
330
17
100
AcDbEntity
  8
PANEL_01
100
AcDbLine
 10
405.33333333333337
 20
4.333333333333314
 30
0.0
 11
406.25
 21
89.5
 31
0.0
  0
LINE
  5
E1
330
17
100
AcDbEntity
  8
PANEL_01
100
AcDbLine
 10
463.5
 20
2.5
 30
0.0
 11
464.0
 21
154.0
 31
0.0
  0
LINE
  5
E2
330
17
100
AcDbEntity
  8
PANEL_01
100
AcDbLine
 10
396.66666666666663
 20
223.66666666666669
 30
0.0
 11
507.0
 21
222.5
 31
0.0
  0
LINE
  5
E3
330
17
100
AcDbEntity
  8
PANEL_01
100
AcDbLine
 10
436.57142857142856
 20
45.85714285714286
 30
0.0
 11
504.3333333333333
 21
48.0
 31
0.0
  0
LINE
  5
E4
330
17
100
AcDbEntity
  8
PANEL_01
100
AcDbLine
 10
392.0
 20
188.0
 30
0.0
 11
397.0
 21
288.0
 31
0.0
  0
LINE
  5
E5
330
17
100
AcDbEntity
  8
PANEL_01
100
AcDbLine
 10
252.0
 20
3.0
 30
0.0
 11
253.0
 21
83.0
 31
0.0
  0
LINE
  5
E6
330
17
100
AcDbEntity
  8
PANEL_01
100
AcDbLine
 10
434.0
 20
158.0
 30
0.0
 11
438.0
 21
134.0
 31
0.0
  0
LINE
  5
E7
330
17
100
AcDbEntity
  8
PANEL_01
100
AcDbLine
 10
433.5
 20
48.0
 30
0.0
 11
504.3333333333333
 21
48.0
 31
0.0
  0
LINE
  5
E8
330
17
100
AcDbEntity
  8
PANEL_01
100
AcDbLine
 10
252.4
 20
218.4
 30
0.0
 11
251.0
 21
289.0
 31
0.0
  0
LINE
  5
E9
330
17
100
AcDbEntity
  8
PANEL_01
100
AcDbLine
 10
463.0
 20
83.0
 30
0.0
 11
506.5
 21
84.0
 31
0.0
  0
LINE
  5
EA
330
17
100
AcDbEntity
  8
PANEL_01
100
AcDbLine
 10
398.6
 20
78.19999999999999
 30
0.0
 11
506.5
 21
84.0
 31
0.0
  0
LINE
  5
EB
330
17
100
AcDbEntity
  8
PANEL_01
100
AcDbLine
 10
187.0
 20
55.33333333333334
 30
0.0
 11
255.0
 21
54.0
 31
0.0
  0
LINE
  5
EC
330
17
100
AcDbEntity
  8
PANEL_01
100
AcDbLine
 10
430.0
 20
2.0
 30
0.0
 11
435.2857142857143
 21
88.71428571428572
 31
0.0
  0
LINE
  5
ED
330
17
100
AcDbEntity
  8
PANEL_01
100
AcDbLine
 10
214.5
 20
193.5
 30
0.0
 11
299.6666666666667
 21
192.0
 31
0.0
  0
LINE
  5
EE
330
17
100
AcDbEntity
  8
PANEL_01
100
AcDbLine
 10
283.3333333333333
 20
187.0
 30
0.0
 11
287.25
 21
289.25
 31
0.0
  0
LINE
  5
EF
330
17
100
AcDbEntity
  8
PANEL_01
100
AcDbLine
 10
435.2857142857143
 20
88.71428571428572
 30
0.0
 11
440.5
 21
2.0
 31
0.0
  0
LINE
  5
F0
330
17
100
AcDbEntity
  8
PANEL_01
100
AcDbLine
 10
405.0
 20
244.0
 30
0.0
 11
406.0
 21
184.5
 31
0.0
  0
LINE
  5
F1
330
17
100
AcDbEntity
  8
PANEL_01
100
AcDbLine
 10
436.0
 20
89.5
 30
0.0
 11
437.3333333333333
 21
45.66666666666666
 31
0.0
  0
LINE
  5
F2
330
17
100
AcDbEntity
  8
PANEL_01
100
AcDbLine
 10
409.0
 20
98.0
 30
0.0
 11
409.0
 21
50.0
 31
0.0
  0
LINE
  5
F3
330
17
100
AcDbEntity
  8
PANEL_01
100
AcDbLine
 10
254.33333333333331
 20
3.0
 30
0.0
 11
253.0
 21
83.0
 31
0.0
  0
LINE
  5
F4
330
17
100
AcDbEntity
  8
PANEL_01
100
AcDbLine
 10
278.0
 20
2.0
 30
0.0
 11
279.0
 21
23.5
 31
0.0
  0
LINE
  5
F5
330
17
100
AcDbEntity
  8
PANEL_01
100
AcDbLine
 10
290.3333333333333
 20
220.16666666666669
 30
0.0
 11
287.25
 21
289.25
 31
0.0
  0
LINE
  5
F6
330
17
100
AcDbEntity
  8
PANEL_01
100
AcDbLine
 10
396.66666666666663
 20
223.66666666666669
 30
0.0
 11
400.0
 21
288.3333333333333
 31
0.0
  0
LINE
  5
F7
330
17
100
AcDbEntity
  8
PANEL_01
100
AcDbLine
 10
226.0
 20
59.5
 30
0.0
 11
225.0
 21
158.0
 31
0.0
  0
LINE
  5
F8
330
17
100
AcDbEntity
  8
PANEL_01
100
AcDbLine
 10
435.42857142857144
 20
47.571428571428584
 30
0.0
 11
435.2857142857143
 21
88.71428571428572
 31
0.0
  0
LINE
  5
F9
330
17
100
AcDbEntity
  8
PANEL_01
100
AcDbLine
 10
397.0
 20
218.33333333333331
 30
0.0
 11
478.0
 21
215.0
 31
0.0
  0
LINE
  5
FA
330
17
100
AcDbEntity
  8
PANEL_01
100
AcDbLine
 10
214.5
 20
193.5
 30
0.0
 11
240.0
 21
192.0
 31
0.0
  0
LINE
  5
FB
330
17
100
AcDbEntity
  8
PANEL_01
100
AcDbLine
 10
263.5
 20
8.0
 30
0.0
 11
294.0
 21
7.25
 31
0.0
  0
LINE
  5
FC
330
17
100
AcDbEntity
  8
PANEL_01
100
AcDbLine
 10
463.0
 20
55.0
 30
0.0
 11
464.0
 21
154.0
 31
0.0
  0
LINE
  5
FD
330
17
100
AcDbEntity
  8
PANEL_01
100
AcDbLine
 10
428.0
 20
244.33333333333334
 30
0.0
 11
505.6666666666667
 21
244.66666666666666
 31
0.0
  0
LINE
  5
FE
330
17
100
AcDbEntity
  8
PANEL_01
100
AcDbLine
 10
242.0
 20
3.0
 30
0.0
 11
293.6666666666667
 21
5.5
 31
0.0
  0
LINE
  5
FF
330
17
100
AcDbEntity
  8
PANEL_01
100
AcDbLine
 10
428.0
 20
249.33333333333334
 30
0.0
 11
507.5
 21
245.5
 31
0.0
  0
LINE
  5
100
330
17
100
AcDbEntity
  8
PANEL_01
100
AcDbLine
 10
435.42857142857144
 20
47.571428571428584
 30
0.0
 11
502.5
 21
51.5
 31
0.0
  0
LINE
  5
101
330
17
100
AcDbEntity
  8
PANEL_01
100
AcDbLine
 10
398.0
 20
3.1999999999999886
 30
0.0
 11
480.0
 21
5.166666666666686
 31
0.0
  0
LINE
  5
102
330
17
100
AcDbEntity
  8
PANEL_01
100
AcDbLine
 10
222.5
 20
217.5
 30
0.0
 11
288.75
 21
218.5
 31
0.0
  0
LINE
  5
103
330
17
100
AcDbEntity
  8
PANEL_01
100
AcDbLine
 10
404.0
 20
135.0
 30
0.0
 11
405.5
 21
153.5
 31
0.0
  0
LINE
  5
104
330
17
100
AcDbEntity
  8
PANEL_01
100
AcDbLine
 10
250.0
 20
192.0
 30
0.0
 11
299.6666666666667
 21
192.0
 31
0.0
  0
LINE
  5
105
330
17
100
AcDbEntity
  8
PANEL_01
100
AcDbLine
 10
356.75
 20
151.25
 30
0.0
 11
373.0
 21
148.5
 31
0.0
  0
LINE
  5
106
330
17
100
AcDbEntity
  8
PANEL_01
100
AcDbLine
 10
437.0
 20
266.5
 30
0.0
 11
439.0
 21
289.5
 31
0.0
  0
LINE
  5
107
330
17
100
AcDbEntity
  8
PANEL_01
100
AcDbLine
 10
435.2857142857143
 20
88.71428571428572
 30
0.0
 11
437.3333333333333
 21
45.66666666666666
 31
0.0
  0
LINE
  5
108
330
17
100
AcDbEntity
  8
PANEL_01
100
AcDbLine
 10
402.0
 20
77.5
 30
0.0
 11
432.0
 21
74.0
 31
0.0
  0
LINE
  5
109
330
17
100
AcDbEntity
  8
PANEL_01
100
AcDbLine
 10
406.0
 20
184.5
 30
0.0
 11
406.33333333333337
 21
250.0
 31
0.0
  0
LINE
  5
10A
330
17
100
AcDbEntity
  8
PANEL_01
100
AcDbLine
 10
207.5
 20
141.0
 30
0.0
 11
233.0
 21
142.0
 31
0.0
  0
LINE
  5
10B
330
17
100
AcDbEntity
  8
PANEL_01
100
AcDbLine
 10
287.4
 20
184.2
 30
0.0
 11
292.0
 21
245.5
 31
0.0
  0
LINE
  5
10C
330
17
100
AcDbEntity
  8
PANEL_01
100
AcDbLine
 10
394.5
 20
4.833333333333314
 30
0.0
 11
480.0
 21
5.166666666666686
 31
0.0
  0
LINE
  5
10D
330
17
100
AcDbEntity
  8
PANEL_01
100
AcDbLine
 10
392.33333333333337
 20
7.0
 30
0.0
 11
480.14285714285717
 21
8.857142857142833
 31
0.0
  0
LINE
  5
10E
330
17
100
AcDbEntity
  8
PANEL_01
100
AcDbLine
 10
455.0
 20
141.5
 30
0.0
 11
507.5
 21
142.0
 31
0.0
  0
LINE
  5
10F
330
17
100
AcDbEntity
  8
PANEL_01
100
AcDbLine
 10
208.66666666666666
 20
12.166666666666686
 30
0.0
 11
263.5
 21
8.0
 31
0.0
  0
LINE
  5
110
330
17
100
AcDbEntity
  8
PANEL_01
100
AcDbLine
 10
213.5
 20
7.5
 30
0.0
 11
263.5
 21
8.0
 31
0.0
  0
LINE
  5
111
330
17
100
AcDbEntity
  8
PANEL_01
100
AcDbLine
 10
181.0
 20
78.0
 30
0.0
 11
214.33333333333334
 21
75.66666666666666
 31
0.0
  0
LINE
  5
112
330
17
100
AcDbEntity
  8
PANEL_01
100
AcDbLine
 10
387.0
 20
150.0
 30
0.0
 11
405.5
 21
153.5
 31
0.0
  0
LINE
  5
113
330
17
100
AcDbEntity
  8
PANEL_01
100
AcDbLine
 10
393.8
 20
4.800000000000011
 30
0.0
 11
463.5
 21
2.5
 31
0.0
  0
LINE
  5
114
330
17
100
AcDbEntity
  8
PANEL_01
100
AcDbLine
 10
432.2
 20
217.8
 30
0.0
 11
438.0
 21
261.5
 31
0.0
  0
LINE
  5
115
330
17
100
AcDbEntity
  8
PANEL_01
100
AcDbLine
 10
287.6666666666667
 20
75.0
 30
0.0
 11
284.0
 21
97.66666666666666
 31
0.0
  0
LINE
  5
116
330
17
100
AcDbEntity
  8
PANEL_01
100
AcDbLine
 10
252.4
 20
218.4
 30
0.0
 11
290.3333333333333
 21
220.16666666666669
 31
0.0
  0
LINE
  5
117
330
17
100
AcDbEntity
  8
PANEL_01
100
AcDbLine
 10
224.5
 20
5.0
 30
0.0
 11
226.0
 21
59.5
 31
0.0
  0
LINE
  5
118
330
17
100
AcDbEntity
  8
PANEL_01
100
AcDbLine
 10
428.0
 20
252.0
 30
0.0
 11
432.0
 21
216.25
 31
0.0
  0
LINE
  5
119
330
17
100
AcDbEntity
  8
PANEL_01
100
AcDbLine
 10
279.0
 20
23.5
 30
0.0
 11
282.0
 21
94.0
 31
0.0
  0
LINE
  5
11A
330
17
100
AcDbEntity
  8
PANEL_01
100
AcDbLine
 10
498.0
 20
31.0
 30
0.0
 11
501.5
 21
54.25
 31
0.0
  0
LINE
  5
11B
330
17
100
AcDbEntity
  8
PANEL_01
100
AcDbLine
 10
427.5
 20
288.0
 30
0.0
 11
453.0
 21
289.0
 31
0.0
  0
LINE
  5
11C
330
17
100
AcDbEntity
  8
PANEL_01
100
AcDbLine
 10
235.0
 20
281.0
 30
0.0
 11
261.0
 21
284.0
 31
0.0
  0
LINE
  5
11D
330
17
100
AcDbEntity
  8
PANEL_01
100
AcDbLine
 10
209.5
 20
168.0
 30
0.0
 11
239.0
 21
266.5
 31
0.0
  0
LINE
  5
11E
330
17
100
AcDbEntity
  8
PANEL_01
100
AcDbLine
 10
292.0
 20
245.5
 30
0.0
 11
287.25
 21
289.25
 31
0.0
  0
LINE
  5
11F
330
17
100
AcDbEntity
  8
PANEL_01
100
AcDbLine
 10
253.0
 20
150.5
 30
0.0
 11
269.0
 21
150.0
 31
0.0
  0
LINE
  5
120
330
17
100
AcDbEntity
  8
PANEL_01
100
AcDbLine
 10
190.16666666666666
 20
31.166666666666686
 30
0.0
 11
187.0
 21
55.33333333333334
 31
0.0
  0
LINE
  5
121
330
17
100
AcDbEntity
  8
PANEL_01
100
AcDbLine
 10
213.0
 20
181.0
 30
0.0
 11
239.0
 21
266.5
 31
0.0
  0
LINE
  5
122
330
17
100
AcDbEntity
  8
PANEL_01
100
AcDbLine
 10
405.66666666666663
 20
245.33333333333334
 30
0.0
 11
402.0
 21
289.5
 31
0.0
  0
LINE
  5
123
330
17
100
AcDbEntity
  8
PANEL_01
100
AcDbLine
 10
252.4
 20
218.4
 30
0.0
 11
251.0
 21
289.0
 31
0.0
  0
LINE
  5
124
330
17
100
AcDbEntity
  8
PANEL_01
100
AcDbLine
 10
401.66666666666663
 20
85.33333333333334
 30
0.0
 11
435.2857142857143
 21
88.71428571428572
 31
0.0
  0
LINE
  5
125
330
17
100
AcDbEntity
  8
PANEL_01
100
AcDbLine
 10
226.0
 20
38.0
 30
0.0
 11
282.75
 21
96.0
 31
0.0
  0
LINE
  5
126
330
17
100
AcDbEntity
  8
PANEL_01
100
AcDbLine
 10
214.33333333333334
 20
75.66666666666666
 30
0.0
 11
289.25
 21
76.75
 31
0.0
  0
LINE
  5
127
330
17
100
AcDbEntity
  8
PANEL_01
100
AcDbLine
 10
183.0
 20
44.0
 30
0.0
 11
250.0
 21
46.0
 31
0.0
  0
LINE
  5
128
330
17
100
AcDbEntity
  8
PANEL_01
100
AcDbLine
 10
180.0
 20
142.0
 30
0.0
 11
207.5
 21
141.0
 31
0.0
  0
LINE
  5
129
330
17
100
AcDbEntity
  8
PANEL_01
100
AcDbLine
 10
322.0
 20
150.5
 30
0.0
 11
338.0
 21
150.0
 31
0.0
  0
LINE
  5
12A
330
17
100
AcDbEntity
  8
PANEL_01
100
AcDbLine
 10
434.0
 20
51.33333333333334
 30
0.0
 11
501.5
 21
54.25
 31
0.0
  0
LINE
  5
12B
330
17
100
AcDbEntity
  8
PANEL_01
100
AcDbLine
 10
213.5
 20
7.5
 30
0.0
 11
293.6666666666667
 21
5.5
 31
0.0
  0
LINE
  5
12C
330
17
100
AcDbEntity
  8
PANEL_01
100
AcDbLine
 10
449.0
 20
267.5
 30
0.0
 11
478.5
 21
168.0
 31
0.0
  0
LINE
  5
12D
330
17
100
AcDbEntity
  8
PANEL_01
100
AcDbLine
 10
480.0
 20
167.0
 30
0.0
 11
507.0
 21
167.5
 31
0.0
  0
LINE
  5
12E
330
17
100
AcDbEntity
  8
PANEL_01
100
AcDbLine
 10
256.3333333333333
 20
218.66666666666669
 30
0.0
 11
260.3333333333333
 21
285.6666666666667
 31
0.0
  0
LINE
  5
12F
330
17
100
AcDbEntity
  8
PANEL_01
100
AcDbLine
 10
287.4
 20
184.2
 30
0.0
 11
290.0
 21
228.0
 31
0.0
  0
LINE
  5
130
330
17
100
AcDbEntity
  8
PANEL_01
100
AcDbLine
 10
253.66666666666669
 20
217.66666666666669
 30
0.0
 11
259.5
 21
288.0
 31
0.0
  0
LINE
  5
131
330
17
100
AcDbEntity
  8
PANEL_01
100
AcDbLine
 10
190.16666666666666
 20
31.166666666666686
 30
0.0
 11
187.0
 21
55.33333333333334
 31
0.0
  0
LINE
  5
132
330
17
100
AcDbEntity
  8
PANEL_01
100
AcDbLine
 10
504.5
 20
244.0
 30
0.0
 11
496.6666666666667
 21
261.3333333333333
 31
0.0
  0
LINE
  5
133
330
17
100
AcDbEntity
  8
PANEL_01
100
AcDbLine
 10
409.0
 20
50.0
 30
0.0
 11
409.0
 21
27.0
 31
0.0
  0
LINE
  5
134
330
17
100
AcDbEntity
  8
PANEL_01
100
AcDbLine
 10
181.0
 20
168.0
 30
0.0
 11
209.5
 21
168.0
 31
0.0
  0
LINE
  5
135
330
17
100
AcDbEntity
  8
PANEL_01
100
AcDbLine
 10
286.3333333333333
 20
185.5
 30
0.0
 11
287.6666666666667
 21
231.0
 31
0.0
  0
LINE
  5
136
330
17
100
AcDbEntity
  8
PANEL_01
100
AcDbLine
 10
287.4
 20
184.2
 30
0.0
 11
290.0
 21
228.0
 31
0.0
  0
LINE
  5
137
330
17
100
AcDbEntity
  8
PANEL_01
100
AcDbLine
 10
432.2
 20
217.8
 30
0.0
 11
437.3333333333333
 21
264.0
 31
0.0
  0
LINE
  5
138
330
17
100
AcDbEntity
  8
PANEL_01
100
AcDbLine
 10
253.66666666666669
 20
217.66666666666669
 30
0.0
 11
255.0
 21
258.0
 31
0.0
  0
LINE
  5
139
330
17
100
AcDbEntity
  8
PANEL_01
100
AcDbLine
 10
208.66666666666666
 20
12.166666666666686
 30
0.0
 11
294.0
 21
7.25
 31
0.0
  0
LINE
  5
13A
330
17
100
AcDbEntity
  8
PANEL_01
100
AcDbLine
 10
408.66666666666663
 20
91.33333333333334
 30
0.0
 11
470.0
 21
37.0
 31
0.0
  0
LINE
  5
13B
330
17
100
AcDbEntity
  8
PANEL_01
100
AcDbLine
 10
214.33333333333334
 20
75.66666666666666
 30
0.0
 11
289.25
 21
76.75
 31
0.0
  0
LINE
  5
13C
330
17
100
AcDbEntity
  8
PANEL_01
100
AcDbLine
 10
432.0
 20
216.25
 30
0.0
 11
429.66666666666663
 21
239.66666666666666
 31
0.0
  0
LINE
  5
13D
330
17
100
AcDbEntity
  8
PANEL_01
100
AcDbLine
 10
184.25
 20
244.25
 30
0.0
 11
183.5
 21
262.5
 31
0.0
  0
LINE
  5
13E
330
17
100
AcDbEntity
  8
PANEL_01
100
AcDbLine
 10
180.33333333333334
 20
217.33333333333331
 30
0.0
 11
222.5
 21
217.5
 31
0.0
  0
LINE
  5
13F
330
17
100
AcDbEntity
  8
PANEL_01
100
AcDbLine
 10
440.5
 20
2.0
 30
0.0
 11
438.75
 21
43.5
 31
0.0
  0
LINE
  5
140
330
17
100
AcDbEntity
  8
PANEL_01
100
AcDbLine
 10
407.0
 20
280.0
 30
0.0
 11
407.0
 21
251.5
 31
0.0
  0
LINE
  5
141
330
17
100
AcDbEntity
  8
PANEL_01
100
AcDbLine
 10
352.5
 20
148.5
 30
0.0
 11
373.0
 21
148.5
 31
0.0
  0
LINE
  5
142
330
17
100
AcDbEntity
  8
PANEL_01
100
AcDbLine
 10
482.0
 20
165.5
 30
0.0
 11
507.0
 21
167.5
 31
0.0
  0
LINE
  5
143
330
17
100
AcDbEntity
  8
PANEL_01
100
AcDbLine
 10
436.0
 20
222.75
 30
0.0
 11
439.0
 21
289.5
 31
0.0
  0
LINE
  5
144
330
17
100
AcDbEntity
  8
PANEL_01
100
AcDbLine
 10
449.0
 20
267.5
 30
0.0
 11
475.0
 21
183.0
 31
0.0
  0
LINE
  5
145
330
17
100
AcDbEntity
  8
PANEL_01
100
AcDbLine
 10
281.0
 20
39.0
 30
0.0
 11
281.0
 21
59.5
 31
0.0
  0
LINE
  5
146
330
17
100
AcDbEntity
  8
PANEL_01
100
AcDbLine
 10
187.0
 20
242.5
 30
0.0
 11
190.5
 21
262.0
 31
0.0
  0
LINE
  5
147
330
17
100
AcDbEntity
  8
PANEL_01
100
AcDbLine
 10
498.0
 20
31.0
 30
0.0
 11
501.5
 21
54.25
 31
0.0
  0
LINE
  5
148
330
17
100
AcDbEntity
  8
PANEL_01
100
AcDbLine
 10
215.0
 20
149.0
 30
0.0
 11
234.0
 21
145.5
 31
0.0
  0
LINE
  5
149
330
17
100
AcDbEntity
  8
PANEL_01
100
AcDbLine
 10
288.0
 20
151.0
 30
0.0
 11
304.0
 21
150.0
 31
0.0
  0
LINE
  5
14A
330
17
100
AcDbEntity
  8
PANEL_01
100
AcDbLine
 10
412.0
 20
226.0
 30
0.0
 11
435.66666666666663
 21
229.33333333333334
 31
0.0
  0
LINE
  5
14B
330
17
100
AcDbEntity
  8
PANEL_01
100
AcDbLine
 10
409.0
 20
4.0
 30
0.0
 11
480.14285714285717
 21
8.857142857142833
 31
0.0
  0
LINE
  5
14C
330
17
100
AcDbEntity
  8
PANEL_01
100
AcDbLine
 10
247.0
 20
16.0
 30
0.0
 11
247.0
 21
62.0
 31
0.0
  0
LINE
  5
14D
330
17
100
AcDbEntity
  8
PANEL_01
100
AcDbLine
 10
258.0
 20
234.0
 30
0.0
 11
299.6666666666667
 21
192.0
 31
0.0
  0
LINE
  5
14E
330
17
100
AcDbEntity
  8
PANEL_01
100
AcDbLine
 10
427.5
 20
288.0
 30
0.0
 11
434.0
 21
235.0
 31
0.0
  0
LINE
  5
14F
330
17
100
AcDbEntity
  8
PANEL_01
100
AcDbLine
 10
421.0
 20
149.0
 30
0.0
 11
441.0
 21
150.0
 31
0.0
  0
LINE
  5
150
330
17
100
AcDbEntity
  8
PANEL_01
100
AcDbLine
 10
408.66666666666663
 20
91.33333333333334
 30
0.0
 11
462.0
 21
37.0
 31
0.0
  0
TEXT
  5
151
330
17
100
AcDbEntity
  8
PANEL_01_LBL
100
AcDbText
 10
344.5
 20
272.6
 30
0.0
 40
12.0
  1
PART panel_01
100
AcDbText
  0
LINE
  5
154
330
17
100
AcDbEntity
  8
PANEL_02
100
AcDbLine
 10
541.0
 20
31.0
 30
0.0
 11
726.0
 21
31.0
 31
0.0
  0
LINE
  5
155
330
17
100
AcDbEntity
  8
PANEL_02
100
AcDbLine
 10
534.0
 20
94.0
 30
0.0
 11
726.0
 21
92.66666666666667
 31
0.0
  0
LINE
  5
156
330
17
100
AcDbEntity
  8
PANEL_02
100
AcDbLine
 10
563.0
 20
109.0
 30
0.0
 11
726.0
 21
109.0
 31
0.0
  0
LINE
  5
157
330
17
100
AcDbEntity
  8
PANEL_02
100
AcDbLine
 10
541.0
 20
31.0
 30
0.0
 11
726.0
 21
31.0
 31
0.0
  0
LINE
  5
158
330
17
100
AcDbEntity
  8
PANEL_02
100
AcDbLine
 10
563.0
 20
16.0
 30
0.0
 11
726.0
 21
16.0
 31
0.0
  0
LINE
  5
159
330
17
100
AcDbEntity
  8
PANEL_02
100
AcDbLine
 10
563.0
 20
109.0
 30
0.0
 11
726.0
 21
109.0
 31
0.0
  0
LINE
  5
15A
330
17
100
AcDbEntity
  8
PANEL_02
100
AcDbLine
 10
563.5
 20
12.5
 30
0.0
 11
726.0
 21
16.0
 31
0.0
  0
LINE
  5
15B
330
17
100
AcDbEntity
  8
PANEL_02
100
AcDbLine
 10
534.0
 20
94.0
 30
0.0
 11
726.0
 21
92.66666666666667
 31
0.0
  0
LINE
  5
15C
330
17
100
AcDbEntity
  8
PANEL_02
100
AcDbLine
 10
563.0
 20
90.0
 30
0.0
 11
726.0
 21
92.66666666666667
 31
0.0
  0
LINE
  5
15D
330
17
100
AcDbEntity
  8
PANEL_02
100
AcDbLine
 10
538.5
 20
52.5
 30
0.0
 11
615.6666666666666
 21
55.33333333333333
 31
0.0
  0
LINE
  5
15E
330
17
100
AcDbEntity
  8
PANEL_02
100
AcDbLine
 10
538.5
 20
52.5
 30
0.0
 11
615.6666666666666
 21
55.33333333333333
 31
0.0
  0
LINE
  5
15F
330
17
100
AcDbEntity
  8
PANEL_02
100
AcDbLine
 10
563.6666666666666
 20
11.0
 30
0.0
 11
564.0
 21
116.0
 31
0.0
  0
LINE
  5
160
330
17
100
AcDbEntity
  8
PANEL_02
100
AcDbLine
 10
536.0
 20
72.0
 30
0.0
 11
591.0
 21
73.66666666666666
 31
0.0
  0
LINE
  5
161
330
17
100
AcDbEntity
  8
PANEL_02
100
AcDbLine
 10
536.0
 20
72.0
 30
0.0
 11
591.0
 21
73.66666666666666
 31
0.0
  0
LINE
  5
162
330
17
100
AcDbEntity
  8
PANEL_02
100
AcDbLine
 10
659.1666666666666
 20
66.0
 30
0.0
 11
716.0
 21
58.0
 31
0.0
  0
LINE
  5
163
330
17
100
AcDbEntity
  8
PANEL_02
100
AcDbLine
 10
563.6666666666666
 20
11.0
 30
0.0
 11
564.0
 21
116.0
 31
0.0
  0
LINE
  5
164
330
17
100
AcDbEntity
  8
PANEL_02
100
AcDbLine
 10
607.1666666666666
 20
65.66666666666666
 30
0.0
 11
665.75
 21
63.5
 31
0.0
  0
LINE
  5
165
330
17
100
AcDbEntity
  8
PANEL_02
100
AcDbLine
 10
548.0
 20
32.0
 30
0.0
 11
548.0
 21
93.0
 31
0.0
  0
LINE
  5
166
330
17
100
AcDbEntity
  8
PANEL_02
100
AcDbLine
 10
548.0
 20
32.0
 30
0.0
 11
548.0
 21
93.0
 31
0.0
  0
LINE
  5
167
330
17
100
AcDbEntity
  8
PANEL_02
100
AcDbLine
 10
651.0
 20
60.5
 30
0.0
 11
667.0
 21
60.0
 31
0.0
  0
LINE
  5
168
330
17
100
AcDbEntity
  8
PANEL_02
100
AcDbLine
 10
601.0
 20
61.0
 30
0.0
 11
615.6666666666666
 21
55.33333333333333
 31
0.0
  0
LINE
  5
169
330
17
100
AcDbEntity
  8
PANEL_02
100
AcDbLine
 10
607.1666666666666
 20
65.66666666666666
 30
0.0
 11
639.3333333333334
 21
67.0
 31
0.0
  0
LINE
  5
16A
330
17
100
AcDbEntity
  8
PANEL_02
100
AcDbLine
 10
659.1666666666666
 20
66.0
 30
0.0
 11
684.6
 21
65.6
 31
0.0
  0
LINE
  5
16B
330
17
100
AcDbEntity
  8
PANEL_02
100
AcDbLine
 10
607.1666666666666
 20
65.66666666666666
 30
0.0
 11
639.3333333333334
 21
67.0
 31
0.0
  0
LINE
  5
16C
330
17
100
AcDbEntity
  8
PANEL_02
100
AcDbLine
 10
706.0
 20
3.5
 30
0.0
 11
706.0
 21
65.0
 31
0.0
  0
LINE
  5
16D
330
17
100
AcDbEntity
  8
PANEL_02
100
AcDbLine
 10
706.0
 20
3.5
 30
0.0
 11
706.0
 21
65.0
 31
0.0
  0
LINE
  5
16E
330
17
100
AcDbEntity
  8
PANEL_02
100
AcDbLine
 10
573.0
 20
76.0
 30
0.0
 11
591.0
 21
73.66666666666666
 31
0.0
  0
LINE
  5
16F
330
17
100
AcDbEntity
  8
PANEL_02
100
AcDbLine
 10
656.0
 20
2.0
 30
0.0
 11
654.6
 21
64.4
 31
0.0
  0
LINE
  5
170
330
17
100
AcDbEntity
  8
PANEL_02
100
AcDbLine
 10
681.6666666666666
 20
64.66666666666666
 30
0.0
 11
681.0
 21
122.0
 31
0.0
  0
LINE
  5
171
330
17
100
AcDbEntity
  8
PANEL_02
100
AcDbLine
 10
622.0
 20
80.0
 30
0.0
 11
642.0
 21
80.0
 31
0.0
  0
LINE
  5
172
330
17
100
AcDbEntity
  8
PANEL_02
100
AcDbLine
 10
656.0
 20
2.0
 30
0.0
 11
659.1666666666666
 21
66.0
 31
0.0
  0
LINE
  5
173
330
17
100
AcDbEntity
  8
PANEL_02
100
AcDbLine
 10
606.0
 20
3.0
 30
0.0
 11
605.7142857142857
 21
65.0
 31
0.0
  0
LINE
  5
174
330
17
100
AcDbEntity
  8
PANEL_02
100
AcDbLine
 10
606.0
 20
3.0
 30
0.0
 11
607.1666666666666
 21
65.66666666666666
 31
0.0
  0
LINE
  5
175
330
17
100
AcDbEntity
  8
PANEL_02
100
AcDbLine
 10
684.6
 20
65.6
 30
0.0
 11
681.0
 21
122.0
 31
0.0
  0
LINE
  5
176
330
17
100
AcDbEntity
  8
PANEL_02
100
AcDbLine
 10
607.1666666666666
 20
65.66666666666666
 30
0.0
 11
639.3333333333334
 21
67.0
 31
0.0
  0
LINE
  5
177
330
17
100
AcDbEntity
  8
PANEL_02
100
AcDbLine
 10
661.1666666666666
 20
66.0
 30
0.0
 11
685.75
 21
65.5
 31
0.0
  0
LINE
  5
178
330
17
100
AcDbEntity
  8
PANEL_02
100
AcDbLine
 10
661.1666666666666
 20
66.0
 30
0.0
 11
685.75
 21
65.5
 31
0.0
  0
LINE
  5
179
330
17
100
AcDbEntity
  8
PANEL_02
100
AcDbLine
 10
612.0
 20
92.0
 30
0.0
 11
633.0
 21
92.0
 31
0.0
  0
TEXT
  5
17A
330
17
100
AcDbEntity
  8
PANEL_02_LBL
100
AcDbText
 10
630.5
 20
111.0
 30
0.0
 40
12.0
  1
PART panel_02
100
AcDbText
  0
LINE
  5
17D
330
17
100
AcDbEntity
  8
PANEL_03
100
AcDbLine
 10
753.0
 20
98.0
 30
0.0
 11
901.5
 21
98.0
 31
0.0
  0
LINE
  5
17E
330
17
100
AcDbEntity
  8
PANEL_03
100
AcDbLine
 10
754.0
 20
77.0
 30
0.0
 11
901.0
 21
77.0
 31
0.0
  0
LINE
  5
17F
330
17
100
AcDbEntity
  8
PANEL_03
100
AcDbLine
 10
754.0
 20
77.0
 30
0.0
 11
901.0
 21
77.0
 31
0.0
  0
LINE
  5
180
330
17
100
AcDbEntity
  8
PANEL_03
100
AcDbLine
 10
753.0
 20
98.0
 30
0.0
 11
901.5
 21
98.0
 31
0.0
  0
LINE
  5
181
330
17
100
AcDbEntity
  8
PANEL_03
100
AcDbLine
 10
760.0
 20
30.0
 30
0.0
 11
893.6666666666666
 21
30.0
 31
0.0
  0
LINE
  5
182
330
17
100
AcDbEntity
  8
PANEL_03
100
AcDbLine
 10
779.0
 20
116.0
 30
0.0
 11
873.5
 21
114.0
 31
0.0
  0
LINE
  5
183
330
17
100
AcDbEntity
  8
PANEL_03
100
AcDbLine
 10
873.0
 20
1.0
 30
0.0
 11
873.0
 21
125.0
 31
0.0
  0
LINE
  5
184
330
17
100
AcDbEntity
  8
PANEL_03
100
AcDbLine
 10
844.0
 20
57.0
 30
0.0
 11
899.0
 21
55.0
 31
0.0
  0
LINE
  5
185
330
17
100
AcDbEntity
  8
PANEL_03
100
AcDbLine
 10
842.0
 20
52.66666666666667
 30
0.0
 11
899.0
 21
55.0
 31
0.0
  0
LINE
  5
186
330
17
100
AcDbEntity
  8
PANEL_03
100
AcDbLine
 10
779.0
 20
116.0
 30
0.0
 11
873.5
 21
114.0
 31
0.0
  0
LINE
  5
187
330
17
100
AcDbEntity
  8
PANEL_03
100
AcDbLine
 10
756.0
 20
87.0
 30
0.0
 11
901.5
 21
87.0
 31
0.0
  0
LINE
  5
188
330
17
100
AcDbEntity
  8
PANEL_03
100
AcDbLine
 10
873.0
 20
1.0
 30
0.0
 11
873.0
 21
125.0
 31
0.0
  0
LINE
  5
189
330
17
100
AcDbEntity
  8
PANEL_03
100
AcDbLine
 10
756.0
 20
87.0
 30
0.0
 11
901.5
 21
87.0
 31
0.0
  0
LINE
  5
18A
330
17
100
AcDbEntity
  8
PANEL_03
100
AcDbLine
 10
760.0
 20
30.0
 30
0.0
 11
895.0
 21
32.5
 31
0.0
  0
LINE
  5
18B
330
17
100
AcDbEntity
  8
PANEL_03
100
AcDbLine
 10
846.0
 20
43.66666666666667
 30
0.0
 11
899.0
 21
41.0
 31
0.0
  0
LINE
  5
18C
330
17
100
AcDbEntity
  8
PANEL_03
100
AcDbLine
 10
755.0
 20
56.0
 30
0.0
 11
811.0
 21
54.5
 31
0.0
  0
LINE
  5
18D
330
17
100
AcDbEntity
  8
PANEL_03
100
AcDbLine
 10
779.6666666666666
 20
10.0
 30
0.0
 11
780.0
 21
120.5
 31
0.0
  0
LINE
  5
18E
330
17
100
AcDbEntity
  8
PANEL_03
100
AcDbLine
 10
779.5
 20
11.5
 30
0.0
 11
872.0
 21
15.0
 31
0.0
  0
LINE
  5
18F
330
17
100
AcDbEntity
  8
PANEL_03
100
AcDbLine
 10
846.0
 20
43.66666666666667
 30
0.0
 11
898.0
 21
37.66666666666667
 31
0.0
  0
LINE
  5
190
330
17
100
AcDbEntity
  8
PANEL_03
100
AcDbLine
 10
761.5
 20
30.5
 30
0.0
 11
765.0
 21
96.0
 31
0.0
  0
LINE
  5
191
330
17
100
AcDbEntity
  8
PANEL_03
100
AcDbLine
 10
779.0
 20
15.0
 30
0.0
 11
872.0
 21
15.0
 31
0.0
  0
LINE
  5
192
330
17
100
AcDbEntity
  8
PANEL_03
100
AcDbLine
 10
765.0
 20
31.0
 30
0.0
 11
765.0
 21
96.0
 31
0.0
  0
LINE
  5
193
330
17
100
AcDbEntity
  8
PANEL_03
100
AcDbLine
 10
779.6666666666666
 20
10.0
 30
0.0
 11
779.5
 21
117.25
 31
0.0
  0
LINE
  5
194
330
17
100
AcDbEntity
  8
PANEL_03
100
AcDbLine
 10
785.3333333333334
 20
91.66666666666666
 30
0.0
 11
870.6666666666666
 21
91.66666666666666
 31
0.0
  0
LINE
  5
195
330
17
100
AcDbEntity
  8
PANEL_03
100
AcDbLine
 10
845.0
 20
46.25
 30
0.0
 11
870.0
 21
48.0
 31
0.0
  0
LINE
  5
196
330
17
100
AcDbEntity
  8
PANEL_03
100
AcDbLine
 10
755.0
 20
42.0
 30
0.0
 11
806.0
 21
40.0
 31
0.0
  0
LINE
  5
197
330
17
100
AcDbEntity
  8
PANEL_03
100
AcDbLine
 10
785.3333333333334
 20
91.66666666666666
 30
0.0
 11
870.6666666666666
 21
91.66666666666666
 31
0.0
  0
LINE
  5
198
330
17
100
AcDbEntity
  8
PANEL_03
100
AcDbLine
 10
889.0
 20
31.0
 30
0.0
 11
889.0
 21
97.0
 31
0.0
  0
LINE
  5
199
330
17
100
AcDbEntity
  8
PANEL_03
100
AcDbLine
 10
866.0
 20
79.8
 30
0.0
 11
862.0
 21
126.0
 31
0.0
  0
LINE
  5
19A
330
17
100
AcDbEntity
  8
PANEL_03
100
AcDbLine
 10
787.25
 20
83.5
 30
0.0
 11
866.0
 21
79.8
 31
0.0
  0
LINE
  5
19B
330
17
100
AcDbEntity
  8
PANEL_03
100
AcDbLine
 10
787.25
 20
83.5
 30
0.0
 11
866.8333333333334
 21
81.5
 31
0.0
  0
LINE
  5
19C
330
17
100
AcDbEntity
  8
PANEL_03
100
AcDbLine
 10
755.0
 20
56.0
 30
0.0
 11
809.3333333333334
 21
56.66666666666667
 31
0.0
  0
LINE
  5
19D
330
17
100
AcDbEntity
  8
PANEL_03
100
AcDbLine
 10
892.25
 20
30.5
 30
0.0
 11
889.0
 21
97.0
 31
0.0
  0
LINE
  5
19E
330
17
100
AcDbEntity
  8
PANEL_03
100
AcDbLine
 10
866.0
 20
79.8
 30
0.0
 11
862.0
 21
126.0
 31
0.0
  0
LINE
  5
19F
330
17
100
AcDbEntity
  8
PANEL_03
100
AcDbLine
 10
788.0
 20
81.33333333333334
 30
0.0
 11
794.0
 21
124.0
 31
0.0
  0
LINE
  5
1A0
330
17
100
AcDbEntity
  8
PANEL_03
100
AcDbLine
 10
755.0
 20
42.0
 30
0.0
 11
806.0
 21
40.0
 31
0.0
  0
LINE
  5
1A1
330
17
100
AcDbEntity
  8
PANEL_03
100
AcDbLine
 10
785.6
 20
88.4
 30
0.0
 11
869.8
 21
88.0
 31
0.0
  0
LINE
  5
1A2
330
17
100
AcDbEntity
  8
PANEL_03
100
AcDbLine
 10
826.0
 20
79.0
 30
0.0
 11
851.0
 21
80.0
 31
0.0
  0
LINE
  5
1A3
330
17
100
AcDbEntity
  8
PANEL_03
100
AcDbLine
 10
805.0
 20
5.0
 30
0.0
 11
805.0
 21
61.0
 31
0.0
  0
LINE
  5
1A4
330
17
100
AcDbEntity
  8
PANEL_03
100
AcDbLine
 10
849.0
 20
3.0
 30
0.0
 11
846.6666666666666
 21
59.33333333333333
 31
0.0
  0
LINE
  5
1A5
330
17
100
AcDbEntity
  8
PANEL_03
100
AcDbLine
 10
805.0
 20
5.0
 30
0.0
 11
807.0
 21
59.33333333333333
 31
0.0
  0
LINE
  5
1A6
330
17
100
AcDbEntity
  8
PANEL_03
100
AcDbLine
 10
849.0
 20
3.0
 30
0.0
 11
849.0
 21
61.0
 31
0.0
  0
LINE
  5
1A7
330
17
100
AcDbEntity
  8
PANEL_03
100
AcDbLine
 10
836.0
 20
126.0
 30
0.0
 11
839.0
 21
83.0
 31
0.0
  0
LINE
  5
1A8
330
17
100
AcDbEntity
  8
PANEL_03
100
AcDbLine
 10
851.0
 20
80.0
 30
0.0
 11
866.8333333333334
 21
81.5
 31
0.0
  0
TEXT
  5
1A9
330
17
100
AcDbEntity
  8
PANEL_03_LBL
100
AcDbText
 10
827.5
 20
116.0
 30
0.0
 40
12.0
  1
PART panel_03
100
AcDbText
  0
LINE
  5
1AC
330
17
100
AcDbEntity
  8
PANEL_04
100
AcDbLine
 10
1032.0
 20
2.0
 30
0.0
 11
1032.0
 21
126.0
 31
0.0
  0
LINE
  5
1AD
330
17
100
AcDbEntity
  8
PANEL_04
100
AcDbLine
 10
958.0
 20
10.0
 30
0.0
 11
958.0
 21
124.66666666666667
 31
0.0
  0
LINE
  5
1AE
330
17
100
AcDbEntity
  8
PANEL_04
100
AcDbLine
 10
958.0
 20
10.0
 30
0.0
 11
958.0
 21
124.66666666666667
 31
0.0
  0
LINE
  5
1AF
330
17
100
AcDbEntity
  8
PANEL_04
100
AcDbLine
 10
1032.0
 20
2.0
 30
0.0
 11
1032.0
 21
126.0
 31
0.0
  0
LINE
  5
1B0
330
17
100
AcDbEntity
  8
PANEL_04
100
AcDbLine
 10
929.5
 20
104.0
 30
0.0
 11
1058.0
 21
104.0
 31
0.0
  0
LINE
  5
1B1
330
17
100
AcDbEntity
  8
PANEL_04
100
AcDbLine
 10
935.0
 20
30.0
 30
0.0
 11
1050.25
 21
30.5
 31
0.0
  0
LINE
  5
1B2
330
17
100
AcDbEntity
  8
PANEL_04
100
AcDbLine
 10
942.0
 20
31.5
 30
0.0
 11
942.0
 21
103.0
 31
0.0
  0
LINE
  5
1B3
330
17
100
AcDbEntity
  8
PANEL_04
100
AcDbLine
 10
935.0
 20
30.0
 30
0.0
 11
1050.25
 21
30.5
 31
0.0
  0
LINE
  5
1B4
330
17
100
AcDbEntity
  8
PANEL_04
100
AcDbLine
 10
929.5
 20
104.0
 30
0.0
 11
1058.0
 21
104.0
 31
0.0
  0
LINE
  5
1B5
330
17
100
AcDbEntity
  8
PANEL_04
100
AcDbLine
 10
959.0
 20
15.0
 30
0.0
 11
1031.0
 21
15.0
 31
0.0
  0
LINE
  5
1B6
330
17
100
AcDbEntity
  8
PANEL_04
100
AcDbLine
 10
958.5
 20
123.25
 30
0.0
 11
1031.5
 21
124.25
 31
0.0
  0
LINE
  5
1B7
330
17
100
AcDbEntity
  8
PANEL_04
100
AcDbLine
 10
1050.25
 20
30.5
 30
0.0
 11
1047.0
 21
103.0
 31
0.0
  0
LINE
  5
1B8
330
17
100
AcDbEntity
  8
PANEL_04
100
AcDbLine
 10
959.0
 20
120.0
 30
0.0
 11
1031.0
 21
120.0
 31
0.0
  0
LINE
  5
1B9
330
17
100
AcDbEntity
  8
PANEL_04
100
AcDbLine
 10
1050.25
 20
30.5
 30
0.0
 11
1047.0
 21
103.0
 31
0.0
  0
LINE
  5
1BA
330
17
100
AcDbEntity
  8
PANEL_04
100
AcDbLine
 10
958.5
 20
11.5
 30
0.0
 11
1031.0
 21
15.0
 31
0.0
  0
LINE
  5
1BB
330
17
100
AcDbEntity
  8
PANEL_04
100
AcDbLine
 10
989.0
 20
80.0
 30
0.0
 11
1029.6666666666667
 21
36.0
 31
0.0
  0
LINE
  5
1BC
330
17
100
AcDbEntity
  8
PANEL_04
100
AcDbLine
 10
962.5
 20
105.5
 30
0.0
 11
1029.6666666666667
 21
36.0
 31
0.0
  0
LINE
  5
1BD
330
17
100
AcDbEntity
  8
PANEL_04
100
AcDbLine
 10
942.0
 20
31.5
 30
0.0
 11
942.0
 21
103.0
 31
0.0
  0
LINE
  5
1BE
330
17
100
AcDbEntity
  8
PANEL_04
100
AcDbLine
 10
962.5
 20
105.5
 30
0.0
 11
996.0
 21
72.0
 31
0.0
  0
LINE
  5
1BF
330
17
100
AcDbEntity
  8
PANEL_04
100
AcDbLine
 10
970.0
 20
94.0
 30
0.0
 11
1029.6666666666667
 21
36.0
 31
0.0
  0
TEXT
  5
1C0
330
17
100
AcDbEntity
  8
PANEL_04_LBL
100
AcDbText
 10
993.5
 20
121.0
 30
0.0
 40
12.0
  1
PART panel_04
100
AcDbText
  0
LINE
  5
1C3
330
17
100
AcDbEntity
  8
PANEL_05
100
AcDbLine
 10
1087.0
 20
121.0
 30
0.0
 11
1303.0
 21
121.0
 31
0.0
  0
LINE
  5
1C4
330
17
100
AcDbEntity
  8
PANEL_05
100
AcDbLine
 10
1112.5
 20
140.0
 30
0.0
 11
1277.0
 21
137.0
 31
0.0
  0
LINE
  5
1C5
330
17
100
AcDbEntity
  8
PANEL_05
100
AcDbLine
 10
1091.0
 20
30.0
 30
0.0
 11
1295.75
 21
29.5
 31
0.0
  0
LINE
  5
1C6
330
17
100
AcDbEntity
  8
PANEL_05
100
AcDbLine
 10
1112.5
 20
11.5
 30
0.0
 11
1277.0
 21
15.0
 31
0.0
  0
LINE
  5
1C7
330
17
100
AcDbEntity
  8
PANEL_05
100
AcDbLine
 10
1091.0
 20
30.0
 30
0.0
 11
1295.75
 21
29.5
 31
0.0
  0
LINE
  5
1C8
330
17
100
AcDbEntity
  8
PANEL_05
100
AcDbLine
 10
1112.5
 20
11.5
 30
0.0
 11
1277.0
 21
15.0
 31
0.0
  0
LINE
  5
1C9
330
17
100
AcDbEntity
  8
PANEL_05
100
AcDbLine
 10
1087.0
 20
121.0
 30
0.0
 11
1303.0
 21
121.0
 31
0.0
  0
LINE
  5
1CA
330
17
100
AcDbEntity
  8
PANEL_05
100
AcDbLine
 10
1112.0
 20
137.0
 30
0.0
 11
1277.0
 21
137.0
 31
0.0
  0
LINE
  5
1CB
330
17
100
AcDbEntity
  8
PANEL_05
100
AcDbLine
 10
1276.0
 20
5.0
 30
0.0
 11
1276.0
 21
149.0
 31
0.0
  0
LINE
  5
1CC
330
17
100
AcDbEntity
  8
PANEL_05
100
AcDbLine
 10
1112.5
 20
11.5
 30
0.0
 11
1112.6666666666667
 21
141.33333333333334
 31
0.0
  0
LINE
  5
1CD
330
17
100
AcDbEntity
  8
PANEL_05
100
AcDbLine
 10
1276.0
 20
5.0
 30
0.0
 11
1276.0
 21
149.0
 31
0.0
  0
LINE
  5
1CE
330
17
100
AcDbEntity
  8
PANEL_05
100
AcDbLine
 10
1112.5
 20
11.5
 30
0.0
 11
1112.6666666666667
 21
141.33333333333334
 31
0.0
  0
LINE
  5
1CF
330
17
100
AcDbEntity
  8
PANEL_05
100
AcDbLine
 10
1292.3333333333333
 20
30.0
 30
0.0
 11
1291.0
 21
120.0
 31
0.0
  0
LINE
  5
1D0
330
17
100
AcDbEntity
  8
PANEL_05
100
AcDbLine
 10
1084.75
 20
81.75
 30
0.0
 11
1171.0
 21
78.5
 31
0.0
  0
LINE
  5
1D1
330
17
100
AcDbEntity
  8
PANEL_05
100
AcDbLine
 10
1086.5
 20
57.0
 30
0.0
 11
1182.0
 21
57.0
 31
0.0
  0
LINE
  5
1D2
330
17
100
AcDbEntity
  8
PANEL_05
100
AcDbLine
 10
1158.3333333333333
 20
121.66666666666667
 30
0.0
 11
1274.0
 21
39.0
 31
0.0
  0
LINE
  5
1D3
330
17
100
AcDbEntity
  8
PANEL_05
100
AcDbLine
 10
1098.0
 20
31.0
 30
0.0
 11
1098.0
 21
119.0
 31
0.0
  0
LINE
  5
1D4
330
17
100
AcDbEntity
  8
PANEL_05
100
AcDbLine
 10
1294.6
 20
30.0
 30
0.0
 11
1291.0
 21
120.0
 31
0.0
  0
LINE
  5
1D5
330
17
100
AcDbEntity
  8
PANEL_05
100
AcDbLine
 10
1098.0
 20
31.0
 30
0.0
 11
1098.0
 21
119.0
 31
0.0
  0
LINE
  5
1D6
330
17
100
AcDbEntity
  8
PANEL_05
100
AcDbLine
 10
1158.3333333333333
 20
121.66666666666667
 30
0.0
 11
1251.0
 21
59.0
 31
0.0
  0
LINE
  5
1D7
330
17
100
AcDbEntity
  8
PANEL_05
100
AcDbLine
 10
1086.5
 20
57.0
 30
0.0
 11
1182.0
 21
57.0
 31
0.0
  0
LINE
  5
1D8
330
17
100
AcDbEntity
  8
PANEL_05
100
AcDbLine
 10
1084.75
 20
81.75
 30
0.0
 11
1172.0
 21
82.2
 31
0.0
  0
LINE
  5
1D9
330
17
100
AcDbEntity
  8
PANEL_05
100
AcDbLine
 10
1157.0
 20
148.66666666666666
 30
0.0
 11
1173.6666666666667
 21
5.333333333333343
 31
0.0
  0
LINE
  5
1DA
330
17
100
AcDbEntity
  8
PANEL_05
100
AcDbLine
 10
1084.75
 20
81.75
 30
0.0
 11
1172.0
 21
85.2
 31
0.0
  0
LINE
  5
1DB
330
17
100
AcDbEntity
  8
PANEL_05
100
AcDbLine
 10
1157.0
 20
148.66666666666666
 30
0.0
 11
1169.0
 21
49.0
 31
0.0
  0
LINE
  5
1DC
330
17
100
AcDbEntity
  8
PANEL_05
100
AcDbLine
 10
1084.75
 20
81.75
 30
0.0
 11
1172.0
 21
85.2
 31
0.0
  0
LINE
  5
1DD
330
17
100
AcDbEntity
  8
PANEL_05
100
AcDbLine
 10
1086.0
 20
104.0
 30
0.0
 11
1139.0
 21
108.0
 31
0.0
  0
LINE
  5
1DE
330
17
100
AcDbEntity
  8
PANEL_05
100
AcDbLine
 10
1172.25
 20
86.5
 30
0.0
 11
1173.6666666666667
 21
5.333333333333343
 31
0.0
  0
LINE
  5
1DF
330
17
100
AcDbEntity
  8
PANEL_05
100
AcDbLine
 10
1226.0
 20
75.0
 30
0.0
 11
1294.6
 21
30.0
 31
0.0
  0
LINE
  5
1E0
330
17
100
AcDbEntity
  8
PANEL_05
100
AcDbLine
 10
1138.0
 20
75.0
 30
0.0
 11
1138.0
 21
146.0
 31
0.0
  0
LINE
  5
1E1
330
17
100
AcDbEntity
  8
PANEL_05
100
AcDbLine
 10
1157.0
 20
148.66666666666666
 30
0.0
 11
1158.3333333333333
 21
121.66666666666667
 31
0.0
  0
LINE
  5
1E2
330
17
100
AcDbEntity
  8
PANEL_05
100
AcDbLine
 10
1160.0
 20
70.0
 30
0.0
 11
1161.0
 21
97.0
 31
0.0
  0
LINE
  5
1E3
330
17
100
AcDbEntity
  8
PANEL_05
100
AcDbLine
 10
1138.0
 20
75.0
 30
0.0
 11
1138.0
 21
146.0
 31
0.0
  0
LINE
  5
1E4
330
17
100
AcDbEntity
  8
PANEL_05
100
AcDbLine
 10
1173.6666666666667
 20
5.333333333333343
 30
0.0
 11
1172.0
 21
85.2
 31
0.0
  0
LINE
  5
1E5
330
17
100
AcDbEntity
  8
PANEL_05
100
AcDbLine
 10
1127.0
 20
97.0
 30
0.0
 11
1127.0
 21
148.0
 31
0.0
  0
LINE
  5
1E6
330
17
100
AcDbEntity
  8
PANEL_05
100
AcDbLine
 10
1129.0
 20
123.0
 30
0.0
 11
1130.0
 21
75.0
 31
0.0
  0
TEXT
  5
1E7
330
17
100
AcDbEntity
  8
PANEL_05_LBL
100
AcDbText
 10
1195.0
 20
138.0
 30
0.0
 40
12.0
  1
PART panel_05
100
AcDbText
  0
LINE
  5
1EA
330
17
100
AcDbEntity
  8
PANEL_06
100
AcDbLine
 10
1340.5
 20
85.5
 30
0.0
 11
1482.0
 21
86.0
 31
0.0
  0
LINE
  5
1EB
330
17
100
AcDbEntity
  8
PANEL_06
100
AcDbLine
 10
1339.0
 20
85.33333333333333
 30
0.0
 11
1482.0
 21
86.0
 31
0.0
  0
LINE
  5
1EC
330
17
100
AcDbEntity
  8
PANEL_06
100
AcDbLine
 10
1338.6666666666667
 20
30.66666666666667
 30
0.0
 11
1479.0
 21
30.0
 31
0.0
  0
LINE
  5
1ED
330
17
100
AcDbEntity
  8
PANEL_06
100
AcDbLine
 10
1358.0
 20
15.0
 30
0.0
 11
1457.0
 21
15.0
 31
0.0
  0
LINE
  5
1EE
330
17
100
AcDbEntity
  8
PANEL_06
100
AcDbLine
 10
1456.0
 20
2.0
 30
0.0
 11
1456.0
 21
110.5
 31
0.0
  0
LINE
  5
1EF
330
17
100
AcDbEntity
  8
PANEL_06
100
AcDbLine
 10
1358.0
 20
102.0
 30
0.0
 11
1457.0
 21
102.0
 31
0.0
  0
LINE
  5
1F0
330
17
100
AcDbEntity
  8
PANEL_06
100
AcDbLine
 10
1338.6666666666667
 20
30.66666666666667
 30
0.0
 11
1479.0
 21
30.0
 31
0.0
  0
LINE
  5
1F1
330
17
100
AcDbEntity
  8
PANEL_06
100
AcDbLine
 10
1332.5
 20
47.0
 30
0.0
 11
1414.0
 21
47.0
 31
0.0
  0
LINE
  5
1F2
330
17
100
AcDbEntity
  8
PANEL_06
100
AcDbLine
 10
1358.5
 20
105.5
 30
0.0
 11
1457.0
 21
104.0
 31
0.0
  0
LINE
  5
1F3
330
17
100
AcDbEntity
  8
PANEL_06
100
AcDbLine
 10
1358.0
 20
15.0
 30
0.0
 11
1457.0
 21
15.0
 31
0.0
  0
LINE
  5
1F4
330
17
100
AcDbEntity
  8
PANEL_06
100
AcDbLine
 10
1456.0
 20
2.0
 30
0.0
 11
1456.3333333333333
 21
108.0
 31
0.0
  0
LINE
  5
1F5
330
17
100
AcDbEntity
  8
PANEL_06
100
AcDbLine
 10
1332.5
 20
47.0
 30
0.0
 11
1414.0
 21
47.0
 31
0.0
  0
LINE
  5
1F6
330
17
100
AcDbEntity
  8
PANEL_06
100
AcDbLine
 10
1359.0
 20
7.0
 30
0.0
 11
1358.6666666666667
 21
107.0
 31
0.0
  0
LINE
  5
1F7
330
17
100
AcDbEntity
  8
PANEL_06
100
AcDbLine
 10
1359.0
 20
7.0
 30
0.0
 11
1358.6666666666667
 21
107.0
 31
0.0
  0
LINE
  5
1F8
330
17
100
AcDbEntity
  8
PANEL_06
100
AcDbLine
 10
1333.5
 20
69.0
 30
0.0
 11
1385.0
 21
69.0
 31
0.0
  0
LINE
  5
1F9
330
17
100
AcDbEntity
  8
PANEL_06
100
AcDbLine
 10
1472.0
 20
85.0
 30
0.0
 11
1473.0
 21
51.0
 31
0.0
  0
LINE
  5
1FA
330
17
100
AcDbEntity
  8
PANEL_06
100
AcDbLine
 10
1414.0
 20
90.0
 30
0.0
 11
1457.0
 21
39.0
 31
0.0
  0
LINE
  5
1FB
330
17
100
AcDbEntity
  8
PANEL_06
100
AcDbLine
 10
1340.25
 20
30.5
 30
0.0
 11
1340.5
 21
85.5
 31
0.0
  0
LINE
  5
1FC
330
17
100
AcDbEntity
  8
PANEL_06
100
AcDbLine
 10
1344.0
 20
31.0
 30
0.0
 11
1342.6666666666667
 21
85.0
 31
0.0
  0
LINE
  5
1FD
330
17
100
AcDbEntity
  8
PANEL_06
100
AcDbLine
 10
1471.0
 20
32.0
 30
0.0
 11
1472.0
 21
85.0
 31
0.0
  0
LINE
  5
1FE
330
17
100
AcDbEntity
  8
PANEL_06
100
AcDbLine
 10
1404.0
 20
1.0
 30
0.0
 11
1404.0
 21
57.0
 31
0.0
  0
LINE
  5
1FF
330
17
100
AcDbEntity
  8
PANEL_06
100
AcDbLine
 10
1333.5
 20
69.0
 30
0.0
 11
1385.0
 21
69.0
 31
0.0
  0
LINE
  5
200
330
17
100
AcDbEntity
  8
PANEL_06
100
AcDbLine
 10
1417.0
 20
82.0
 30
0.0
 11
1457.0
 21
39.0
 31
0.0
  0
LINE
  5
201
330
17
100
AcDbEntity
  8
PANEL_06
100
AcDbLine
 10
1406.0
 20
11.0
 30
0.0
 11
1406.0
 21
63.0
 31
0.0
  0
LINE
  5
202
330
17
100
AcDbEntity
  8
PANEL_06
100
AcDbLine
 10
1375.0
 20
60.0
 30
0.0
 11
1375.0
 21
112.0
 31
0.0
  0
TEXT
  5
203
330
17
100
AcDbEntity
  8
PANEL_06_LBL
100
AcDbText
 10
1408.0
 20
103.0
 30
0.0
 40
12.0
  1
PART panel_06
100
AcDbText
  0
LINE
  5
206
330
17
100
AcDbEntity
  8
PANEL_07
100
AcDbLine
 10
1517.0
 20
31.0
 30
0.0
 11
1657.0
 21
30.0
 31
0.0
  0
LINE
  5
207
330
17
100
AcDbEntity
  8
PANEL_07
100
AcDbLine
 10
1510.0
 20
113.0
 30
0.0
 11
1662.5
 21
112.0
 31
0.0
  0
LINE
  5
208
330
17
100
AcDbEntity
  8
PANEL_07
100
AcDbLine
 10
1517.0
 20
31.0
 30
0.0
 11
1657.0
 21
30.0
 31
0.0
  0
LINE
  5
209
330
17
100
AcDbEntity
  8
PANEL_07
100
AcDbLine
 10
1522.25
 20
112.0
 30
0.0
 11
1662.5
 21
112.0
 31
0.0
  0
LINE
  5
20A
330
17
100
AcDbEntity
  8
PANEL_07
100
AcDbLine
 10
1539.5
 20
128.0
 30
0.0
 11
1635.5
 21
128.0
 31
0.0
  0
LINE
  5
20B
330
17
100
AcDbEntity
  8
PANEL_07
100
AcDbLine
 10
1540.0
 20
10.0
 30
0.0
 11
1540.0
 21
135.0
 31
0.0
  0
LINE
  5
20C
330
17
100
AcDbEntity
  8
PANEL_07
100
AcDbLine
 10
1635.0
 20
2.0
 30
0.0
 11
1635.0
 21
141.0
 31
0.0
  0
LINE
  5
20D
330
17
100
AcDbEntity
  8
PANEL_07
100
AcDbLine
 10
1524.0
 20
32.0
 30
0.0
 11
1522.25
 21
112.0
 31
0.0
  0
LINE
  5
20E
330
17
100
AcDbEntity
  8
PANEL_07
100
AcDbLine
 10
1540.0
 20
10.0
 30
0.0
 11
1540.0
 21
135.0
 31
0.0
  0
LINE
  5
20F
330
17
100
AcDbEntity
  8
PANEL_07
100
AcDbLine
 10
1539.5
 20
128.0
 30
0.0
 11
1635.5
 21
128.0
 31
0.0
  0
LINE
  5
210
330
17
100
AcDbEntity
  8
PANEL_07
100
AcDbLine
 10
1593.5
 20
68.0
 30
0.0
 11
1593.5
 21
141.0
 31
0.0
  0
LINE
  5
211
330
17
100
AcDbEntity
  8
PANEL_07
100
AcDbLine
 10
1635.0
 20
2.0
 30
0.0
 11
1635.0
 21
141.0
 31
0.0
  0
LINE
  5
212
330
17
100
AcDbEntity
  8
PANEL_07
100
AcDbLine
 10
1541.0
 20
15.0
 30
0.0
 11
1634.0
 21
15.0
 31
0.0
  0
LINE
  5
213
330
17
100
AcDbEntity
  8
PANEL_07
100
AcDbLine
 10
1652.3333333333333
 20
30.66666666666667
 30
0.0
 11
1651.0
 21
111.0
 31
0.0
  0
LINE
  5
214
330
17
100
AcDbEntity
  8
PANEL_07
100
AcDbLine
 10
1540.5
 20
11.5
 30
0.0
 11
1634.0
 21
15.0
 31
0.0
  0
LINE
  5
215
330
17
100
AcDbEntity
  8
PANEL_07
100
AcDbLine
 10
1593.0
 20
3.0
 30
0.0
 11
1593.5
 21
50.0
 31
0.0
  0
LINE
  5
216
330
17
100
AcDbEntity
  8
PANEL_07
100
AcDbLine
 10
1524.0
 20
32.0
 30
0.0
 11
1522.25
 21
112.0
 31
0.0
  0
LINE
  5
217
330
17
100
AcDbEntity
  8
PANEL_07
100
AcDbLine
 10
1652.3333333333333
 20
30.66666666666667
 30
0.0
 11
1651.0
 21
111.0
 31
0.0
  0
LINE
  5
218
330
17
100
AcDbEntity
  8
PANEL_07
100
AcDbLine
 10
1551.0
 20
124.0
 30
0.0
 11
1636.3333333333333
 21
73.0
 31
0.0
  0
LINE
  5
219
330
17
100
AcDbEntity
  8
PANEL_07
100
AcDbLine
 10
1586.0
 20
43.0
 30
0.0
 11
1661.5
 21
43.0
 31
0.0
  0
LINE
  5
21A
330
17
100
AcDbEntity
  8
PANEL_07
100
AcDbLine
 10
1522.25
 20
112.0
 30
0.0
 11
1576.5
 21
30.0
 31
0.0
  0
LINE
  5
21B
330
17
100
AcDbEntity
  8
PANEL_07
100
AcDbLine
 10
1542.0
 20
86.0
 30
0.0
 11
1576.5
 21
30.0
 31
0.0
  0
LINE
  5
21C
330
17
100
AcDbEntity
  8
PANEL_07
100
AcDbLine
 10
1592.0
 20
100.0
 30
0.0
 11
1593.5
 21
68.0
 31
0.0
  0
LINE
  5
21D
330
17
100
AcDbEntity
  8
PANEL_07
100
AcDbLine
 10
1623.0
 20
2.0
 30
0.0
 11
1624.0
 21
80.5
 31
0.0
  0
LINE
  5
21E
330
17
100
AcDbEntity
  8
PANEL_07
100
AcDbLine
 10
1625.0
 20
12.0
 30
0.0
 11
1624.0
 21
80.5
 31
0.0
  0
LINE
  5
21F
330
17
100
AcDbEntity
  8
PANEL_07
100
AcDbLine
 10
1586.0
 20
75.0
 30
0.0
 11
1665.0
 21
76.0
 31
0.0
  0
LINE
  5
220
330
17
100
AcDbEntity
  8
PANEL_07
100
AcDbLine
 10
1586.0
 20
43.0
 30
0.0
 11
1661.5
 21
43.0
 31
0.0
  0
LINE
  5
221
330
17
100
AcDbEntity
  8
PANEL_07
100
AcDbLine
 10
1568.0
 20
110.0
 30
0.0
 11
1636.3333333333333
 21
73.0
 31
0.0
  0
LINE
  5
222
330
17
100
AcDbEntity
  8
PANEL_07
100
AcDbLine
 10
1593.0
 20
3.0
 30
0.0
 11
1593.5
 21
50.0
 31
0.0
  0
LINE
  5
223
330
17
100
AcDbEntity
  8
PANEL_07
100
AcDbLine
 10
1586.0
 20
75.0
 30
0.0
 11
1636.3333333333333
 21
73.0
 31
0.0
  0
LINE
  5
224
330
17
100
AcDbEntity
  8
PANEL_07
100
AcDbLine
 10
1654.6
 20
30.799999999999997
 30
0.0
 11
1655.0
 21
81.0
 31
0.0
  0
LINE
  5
225
330
17
100
AcDbEntity
  8
PANEL_07
100
AcDbLine
 10
1617.0
 20
67.0
 30
0.0
 11
1661.0
 21
57.0
 31
0.0
  0
LINE
  5
226
330
17
100
AcDbEntity
  8
PANEL_07
100
AcDbLine
 10
1592.0
 20
100.0
 30
0.0
 11
1593.5
 21
141.0
 31
0.0
  0
LINE
  5
227
330
17
100
AcDbEntity
  8
PANEL_07
100
AcDbLine
 10
1551.0
 20
94.0
 30
0.0
 11
1551.0
 21
138.0
 31
0.0
  0
TEXT
  5
228
330
17
100
AcDbEntity
  8
PANEL_07_LBL
100
AcDbText
 10
1588.0
 20
130.0
 30
0.0
 40
12.0
  1
PART panel_07
100
AcDbText
  0
LINE
  5
22B
330
17
100
AcDbEntity
  8
PANEL_08
100
AcDbLine
 10
1691.0
 20
134.0
 30
0.0
 11
1858.5
 21
134.0
 31
0.0
  0
LINE
  5
22C
330
17
100
AcDbEntity
  8
PANEL_08
100
AcDbLine
 10
1831.0
 20
1.0
 30
0.0
 11
1831.0
 21
163.0
 31
0.0
  0
LINE
  5
22D
330
17
100
AcDbEntity
  8
PANEL_08
100
AcDbLine
 10
1698.0
 20
30.333333333333343
 30
0.0
 11
1853.5
 21
31.0
 31
0.0
  0
LINE
  5
22E
330
17
100
AcDbEntity
  8
PANEL_08
100
AcDbLine
 10
1691.0
 20
134.0
 30
0.0
 11
1858.5
 21
134.0
 31
0.0
  0
LINE
  5
22F
330
17
100
AcDbEntity
  8
PANEL_08
100
AcDbLine
 10
1720.5
 20
11.5
 30
0.0
 11
1720.0
 21
152.5
 31
0.0
  0
LINE
  5
230
330
17
100
AcDbEntity
  8
PANEL_08
100
AcDbLine
 10
1720.5
 20
11.5
 30
0.0
 11
1720.0
 21
152.5
 31
0.0
  0
LINE
  5
231
330
17
100
AcDbEntity
  8
PANEL_08
100
AcDbLine
 10
1698.0
 20
30.333333333333343
 30
0.0
 11
1850.25
 21
31.5
 31
0.0
  0
LINE
  5
232
330
17
100
AcDbEntity
  8
PANEL_08
100
AcDbLine
 10
1720.0
 20
152.5
 30
0.0
 11
1830.5
 21
149.0
 31
0.0
  0
LINE
  5
233
330
17
100
AcDbEntity
  8
PANEL_08
100
AcDbLine
 10
1693.0
 20
116.0
 30
0.0
 11
1859.0
 21
117.0
 31
0.0
  0
LINE
  5
234
330
17
100
AcDbEntity
  8
PANEL_08
100
AcDbLine
 10
1720.5
 20
11.5
 30
0.0
 11
1832.0
 21
15.0
 31
0.0
  0
LINE
  5
235
330
17
100
AcDbEntity
  8
PANEL_08
100
AcDbLine
 10
1698.0
 20
30.333333333333343
 30
0.0
 11
1776.0
 21
150.0
 31
0.0
  0
LINE
  5
236
330
17
100
AcDbEntity
  8
PANEL_08
100
AcDbLine
 10
1720.5
 20
11.5
 30
0.0
 11
1832.0
 21
15.0
 31
0.0
  0
LINE
  5
237
330
17
100
AcDbEntity
  8
PANEL_08
100
AcDbLine
 10
1705.0
 20
32.0
 30
0.0
 11
1705.0
 21
132.0
 31
0.0
  0
LINE
  5
238
330
17
100
AcDbEntity
  8
PANEL_08
100
AcDbLine
 10
1849.0
 20
32.0
 30
0.0
 11
1847.0
 21
133.0
 31
0.0
  0
LINE
  5
239
330
17
100
AcDbEntity
  8
PANEL_08
100
AcDbLine
 10
1831.0
 20
1.0
 30
0.0
 11
1831.0
 21
163.0
 31
0.0
  0
LINE
  5
23A
330
17
100
AcDbEntity
  8
PANEL_08
100
AcDbLine
 10
1720.0
 20
152.5
 30
0.0
 11
1830.5
 21
149.0
 31
0.0
  0
LINE
  5
23B
330
17
100
AcDbEntity
  8
PANEL_08
100
AcDbLine
 10
1700.0
 20
118.0
 30
0.0
 11
1859.0
 21
117.0
 31
0.0
  0
LINE
  5
23C
330
17
100
AcDbEntity
  8
PANEL_08
100
AcDbLine
 10
1773.0
 20
46.0
 30
0.0
 11
1807.0
 21
45.0
 31
0.0
  0
LINE
  5
23D
330
17
100
AcDbEntity
  8
PANEL_08
100
AcDbLine
 10
1705.0
 20
32.0
 30
0.0
 11
1705.0
 21
132.0
 31
0.0
  0
LINE
  5
23E
330
17
100
AcDbEntity
  8
PANEL_08
100
AcDbLine
 10
1849.0
 20
32.0
 30
0.0
 11
1847.0
 21
133.0
 31
0.0
  0
LINE
  5
23F
330
17
100
AcDbEntity
  8
PANEL_08
100
AcDbLine
 10
1775.25
 20
4.5
 30
0.0
 11
1831.0
 21
87.5
 31
0.0
  0
LINE
  5
240
330
17
100
AcDbEntity
  8
PANEL_08
100
AcDbLine
 10
1692.0
 20
62.5
 30
0.0
 11
1725.0
 21
65.0
 31
0.0
  0
LINE
  5
241
330
17
100
AcDbEntity
  8
PANEL_08
100
AcDbLine
 10
1776.0
 20
67.0
 30
0.0
 11
1858.5
 21
67.0
 31
0.0
  0
LINE
  5
242
330
17
100
AcDbEntity
  8
PANEL_08
100
AcDbLine
 10
1791.0
 20
43.0
 30
0.0
 11
1817.0
 21
44.0
 31
0.0
  0
LINE
  5
243
330
17
100
AcDbEntity
  8
PANEL_08
100
AcDbLine
 10
1692.0
 20
62.5
 30
0.0
 11
1755.0
 21
66.0
 31
0.0
  0
LINE
  5
244
330
17
100
AcDbEntity
  8
PANEL_08
100
AcDbLine
 10
1777.6
 20
71.4
 30
0.0
 11
1858.5
 21
67.0
 31
0.0
  0
LINE
  5
245
330
17
100
AcDbEntity
  8
PANEL_08
100
AcDbLine
 10
1786.0
 20
106.0
 30
0.0
 11
1829.0
 21
107.0
 31
0.0
  0
LINE
  5
246
330
17
100
AcDbEntity
  8
PANEL_08
100
AcDbLine
 10
1776.0
 20
49.5
 30
0.0
 11
1775.25
 21
4.5
 31
0.0
  0
LINE
  5
247
330
17
100
AcDbEntity
  8
PANEL_08
100
AcDbLine
 10
1786.0
 20
106.0
 30
0.0
 11
1859.5
 21
105.5
 31
0.0
  0
LINE
  5
248
330
17
100
AcDbEntity
  8
PANEL_08
100
AcDbLine
 10
1725.0
 20
65.0
 30
0.0
 11
1773.0
 21
138.5
 31
0.0
  0
LINE
  5
249
330
17
100
AcDbEntity
  8
PANEL_08
100
AcDbLine
 10
1750.0
 20
4.5
 30
0.0
 11
1752.6666666666667
 21
67.33333333333333
 31
0.0
  0
LINE
  5
24A
330
17
100
AcDbEntity
  8
PANEL_08
100
AcDbLine
 10
1817.0
 20
44.0
 30
0.0
 11
1858.0
 21
42.0
 31
0.0
  0
LINE
  5
24B
330
17
100
AcDbEntity
  8
PANEL_08
100
AcDbLine
 10
1795.0
 20
97.0
 30
0.0
 11
1795.0
 21
162.0
 31
0.0
  0
LINE
  5
24C
330
17
100
AcDbEntity
  8
PANEL_08
100
AcDbLine
 10
1775.25
 20
4.5
 30
0.0
 11
1831.0
 21
87.5
 31
0.0
  0
LINE
  5
24D
330
17
100
AcDbEntity
  8
PANEL_08
100
AcDbLine
 10
1750.0
 20
70.0
 30
0.0
 11
1750.0
 21
4.5
 31
0.0
  0
LINE
  5
24E
330
17
100
AcDbEntity
  8
PANEL_08
100
AcDbLine
 10
1773.0
 20
138.5
 30
0.0
 11
1773.5
 21
108.0
 31
0.0
  0
LINE
  5
24F
330
17
100
AcDbEntity
  8
PANEL_08
100
AcDbLine
 10
1785.0
 20
2.0
 30
0.0
 11
1784.5
 21
74.5
 31
0.0
  0
LINE
  5
250
330
17
100
AcDbEntity
  8
PANEL_08
100
AcDbLine
 10
1795.0
 20
97.0
 30
0.0
 11
1795.0
 21
162.0
 31
0.0
  0
LINE
  5
251
330
17
100
AcDbEntity
  8
PANEL_08
100
AcDbLine
 10
1693.5
 20
46.5
 30
0.0
 11
1742.0
 21
47.5
 31
0.0
  0
LINE
  5
252
330
17
100
AcDbEntity
  8
PANEL_08
100
AcDbLine
 10
1778.0
 20
72.75
 30
0.0
 11
1773.6666666666667
 21
48.0
 31
0.0
  0
LINE
  5
253
330
17
100
AcDbEntity
  8
PANEL_08
100
AcDbLine
 10
1778.0
 20
72.75
 30
0.0
 11
1775.25
 21
4.5
 31
0.0
  0
LINE
  5
254
330
17
100
AcDbEntity
  8
PANEL_08
100
AcDbLine
 10
1779.6
 20
73.0
 30
0.0
 11
1783.0
 21
31.0
 31
0.0
  0
LINE
  5
255
330
17
100
AcDbEntity
  8
PANEL_08
100
AcDbLine
 10
1750.0
 20
111.0
 30
0.0
 11
1859.5
 21
105.5
 31
0.0
  0
LINE
  5
256
330
17
100
AcDbEntity
  8
PANEL_08
100
AcDbLine
 10
1768.5
 20
163.0
 30
0.0
 11
1770.0
 21
108.5
 31
0.0
  0
LINE
  5
257
330
17
100
AcDbEntity
  8
PANEL_08
100
AcDbLine
 10
1771.6666666666667
 20
108.33333333333334
 30
0.0
 11
1768.5
 21
163.0
 31
0.0
  0
LINE
  5
258
330
17
100
AcDbEntity
  8
PANEL_08
100
AcDbLine
 10
1816.0
 20
109.0
 30
0.0
 11
1816.0
 21
163.0
 31
0.0
  0
LINE
  5
259
330
17
100
AcDbEntity
  8
PANEL_08
100
AcDbLine
 10
1693.5
 20
46.5
 30
0.0
 11
1742.0
 21
47.5
 31
0.0
  0
TEXT
  5
25A
330
17
100
AcDbEntity
  8
PANEL_08_LBL
100
AcDbText
 10
1776.5
 20
152.0
 30
0.0
 40
12.0
  1
PART panel_08
100
AcDbText
  0
LINE
  5
25D
330
17
100
AcDbEntity
  8
PANEL_09
100
AcDbLine
 10
1898.5
 20
30.75
 30
0.0
 11
2044.5
 21
31.5
 31
0.0
  0
LINE
  5
25E
330
17
100
AcDbEntity
  8
PANEL_09
100
AcDbLine
 10
2025.0
 20
1.5
 30
0.0
 11
2025.0
 21
167.5
 31
0.0
  0
LINE
  5
25F
330
17
100
AcDbEntity
  8
PANEL_09
100
AcDbLine
 10
2025.0
 20
1.5
 30
0.0
 11
2025.0
 21
167.5
 31
0.0
  0
LINE
  5
260
330
17
100
AcDbEntity
  8
PANEL_09
100
AcDbLine
 10
1889.0
 20
139.0
 30
0.0
 11
2055.0
 21
139.0
 31
0.0
  0
LINE
  5
261
330
17
100
AcDbEntity
  8
PANEL_09
100
AcDbLine
 10
1891.3333333333333
 20
140.0
 30
0.0
 11
2055.0
 21
139.0
 31
0.0
  0
LINE
  5
262
330
17
100
AcDbEntity
  8
PANEL_09
100
AcDbLine
 10
1891.5
 20
48.0
 30
0.0
 11
2051.0
 21
48.0
 31
0.0
  0
LINE
  5
263
330
17
100
AcDbEntity
  8
PANEL_09
100
AcDbLine
 10
1916.75
 20
157.5
 30
0.0
 11
2025.0
 21
155.33333333333334
 31
0.0
  0
LINE
  5
264
330
17
100
AcDbEntity
  8
PANEL_09
100
AcDbLine
 10
1917.5
 20
11.75
 30
0.0
 11
1916.75
 21
157.5
 31
0.0
  0
LINE
  5
265
330
17
100
AcDbEntity
  8
PANEL_09
100
AcDbLine
 10
1898.5
 20
30.75
 30
0.0
 11
1900.0
 21
139.33333333333334
 31
0.0
  0
LINE
  5
266
330
17
100
AcDbEntity
  8
PANEL_09
100
AcDbLine
 10
1898.5
 20
30.75
 30
0.0
 11
2044.5
 21
31.5
 31
0.0
  0
LINE
  5
267
330
17
100
AcDbEntity
  8
PANEL_09
100
AcDbLine
 10
1891.5
 20
48.0
 30
0.0
 11
2051.0
 21
48.0
 31
0.0
  0
LINE
  5
268
330
17
100
AcDbEntity
  8
PANEL_09
100
AcDbLine
 10
1916.75
 20
157.5
 30
0.0
 11
2025.0
 21
155.33333333333334
 31
0.0
  0
LINE
  5
269
330
17
100
AcDbEntity
  8
PANEL_09
100
AcDbLine
 10
1898.5
 20
30.75
 30
0.0
 11
1900.0
 21
139.33333333333334
 31
0.0
  0
LINE
  5
26A
330
17
100
AcDbEntity
  8
PANEL_09
100
AcDbLine
 10
1917.5
 20
11.75
 30
0.0
 11
1916.75
 21
157.5
 31
0.0
  0
LINE
  5
26B
330
17
100
AcDbEntity
  8
PANEL_09
100
AcDbLine
 10
1917.5
 20
11.75
 30
0.0
 11
2024.0
 21
15.0
 31
0.0
  0
LINE
  5
26C
330
17
100
AcDbEntity
  8
PANEL_09
100
AcDbLine
 10
2044.5
 20
31.5
 30
0.0
 11
2041.0
 21
138.0
 31
0.0
  0
LINE
  5
26D
330
17
100
AcDbEntity
  8
PANEL_09
100
AcDbLine
 10
1992.25
 20
120.25
 30
0.0
 11
1995.0
 21
167.33333333333334
 31
0.0
  0
LINE
  5
26E
330
17
100
AcDbEntity
  8
PANEL_09
100
AcDbLine
 10
1917.5
 20
11.75
 30
0.0
 11
2024.0
 21
15.0
 31
0.0
  0
LINE
  5
26F
330
17
100
AcDbEntity
  8
PANEL_09
100
AcDbLine
 10
1989.0
 20
1.5
 30
0.0
 11
1986.6666666666667
 21
97.0
 31
0.0
  0
LINE
  5
270
330
17
100
AcDbEntity
  8
PANEL_09
100
AcDbLine
 10
2044.5
 20
31.5
 30
0.0
 11
2041.0
 21
138.0
 31
0.0
  0
LINE
  5
271
330
17
100
AcDbEntity
  8
PANEL_09
100
AcDbLine
 10
1986.6666666666667
 20
97.0
 30
0.0
 11
2054.5
 21
95.0
 31
0.0
  0
LINE
  5
272
330
17
100
AcDbEntity
  8
PANEL_09
100
AcDbLine
 10
1918.2
 20
100.8
 30
0.0
 11
1969.0
 21
6.5
 31
0.0
  0
LINE
  5
273
330
17
100
AcDbEntity
  8
PANEL_09
100
AcDbLine
 10
1897.5
 20
139.5
 30
0.0
 11
1969.0
 21
17.0
 31
0.0
  0
LINE
  5
274
330
17
100
AcDbEntity
  8
PANEL_09
100
AcDbLine
 10
1888.0
 20
101.25
 30
0.0
 11
1918.2
 21
100.8
 31
0.0
  0
LINE
  5
275
330
17
100
AcDbEntity
  8
PANEL_09
100
AcDbLine
 10
1989.0
 20
1.5
 30
0.0
 11
1989.0
 21
69.0
 31
0.0
  0
LINE
  5
276
330
17
100
AcDbEntity
  8
PANEL_09
100
AcDbLine
 10
1986.6666666666667
 20
97.0
 30
0.0
 11
2054.5
 21
95.0
 31
0.0
  0
LINE
  5
277
330
17
100
AcDbEntity
  8
PANEL_09
100
AcDbLine
 10
2013.0
 20
124.0
 30
0.0
 11
2011.5
 21
166.5
 31
0.0
  0
LINE
  5
278
330
17
100
AcDbEntity
  8
PANEL_09
100
AcDbLine
 10
1994.6666666666667
 20
52.0
 30
0.0
 11
1995.0
 21
167.33333333333334
 31
0.0
  0
LINE
  5
279
330
17
100
AcDbEntity
  8
PANEL_09
100
AcDbLine
 10
2010.5
 20
4.5
 30
0.0
 11
2013.75
 21
59.25
 31
0.0
  0
LINE
  5
27A
330
17
100
AcDbEntity
  8
PANEL_09
100
AcDbLine
 10
1990.3333333333333
 20
126.33333333333334
 30
0.0
 11
2055.0
 21
125.0
 31
0.0
  0
LINE
  5
27B
330
17
100
AcDbEntity
  8
PANEL_09
100
AcDbLine
 10
1948.0
 20
54.0
 30
0.0
 11
2013.75
 21
59.25
 31
0.0
  0
LINE
  5
27C
330
17
100
AcDbEntity
  8
PANEL_09
100
AcDbLine
 10
1888.0
 20
101.25
 30
0.0
 11
1954.6666666666667
 21
97.66666666666667
 31
0.0
  0
LINE
  5
27D
330
17
100
AcDbEntity
  8
PANEL_09
100
AcDbLine
 10
2023.0
 20
81.0
 30
0.0
 11
2048.0
 21
74.0
 31
0.0
  0
LINE
  5
27E
330
17
100
AcDbEntity
  8
PANEL_09
100
AcDbLine
 10
1968.5
 20
61.5
 30
0.0
 11
2052.0
 21
59.0
 31
0.0
  0
LINE
  5
27F
330
17
100
AcDbEntity
  8
PANEL_09
100
AcDbLine
 10
1992.25
 20
120.25
 30
0.0
 11
2048.0
 21
125.0
 31
0.0
  0
LINE
  5
280
330
17
100
AcDbEntity
  8
PANEL_09
100
AcDbLine
 10
1947.75
 20
92.25
 30
0.0
 11
1947.0
 21
164.5
 31
0.0
  0
LINE
  5
281
330
17
100
AcDbEntity
  8
PANEL_09
100
AcDbLine
 10
1980.0
 20
161.5
 30
0.0
 11
2025.0
 21
155.33333333333334
 31
0.0
  0
LINE
  5
282
330
17
100
AcDbEntity
  8
PANEL_09
100
AcDbLine
 10
1990.3333333333333
 20
126.33333333333334
 30
0.0
 11
2023.0
 21
126.0
 31
0.0
  0
LINE
  5
283
330
17
100
AcDbEntity
  8
PANEL_09
100
AcDbLine
 10
1919.0
 20
129.0
 30
0.0
 11
1951.6
 21
95.0
 31
0.0
  0
LINE
  5
284
330
17
100
AcDbEntity
  8
PANEL_09
100
AcDbLine
 10
1980.0
 20
161.5
 30
0.0
 11
1984.0
 21
142.0
 31
0.0
  0
LINE
  5
285
330
17
100
AcDbEntity
  8
PANEL_09
100
AcDbLine
 10
1930.0
 20
100.0
 30
0.0
 11
1930.0
 21
164.0
 31
0.0
  0
LINE
  5
286
330
17
100
AcDbEntity
  8
PANEL_09
100
AcDbLine
 10
1887.8
 20
103.2
 30
0.0
 11
1918.2
 21
100.8
 31
0.0
  0
LINE
  5
287
330
17
100
AcDbEntity
  8
PANEL_09
100
AcDbLine
 10
1994.6666666666667
 20
52.0
 30
0.0
 11
1998.5
 21
70.5
 31
0.0
  0
LINE
  5
288
330
17
100
AcDbEntity
  8
PANEL_09
100
AcDbLine
 10
2010.5
 20
4.5
 30
0.0
 11
2013.75
 21
59.25
 31
0.0
  0
LINE
  5
289
330
17
100
AcDbEntity
  8
PANEL_09
100
AcDbLine
 10
1947.75
 20
92.25
 30
0.0
 11
1947.0
 21
164.5
 31
0.0
  0
LINE
  5
28A
330
17
100
AcDbEntity
  8
PANEL_09
100
AcDbLine
 10
2011.5
 20
166.5
 30
0.0
 11
2022.0
 21
97.0
 31
0.0
  0
LINE
  5
28B
330
17
100
AcDbEntity
  8
PANEL_09
100
AcDbLine
 10
1889.0
 20
126.5
 30
0.0
 11
1962.0
 21
136.0
 31
0.0
  0
LINE
  5
28C
330
17
100
AcDbEntity
  8
PANEL_09
100
AcDbLine
 10
1969.0
 20
6.5
 30
0.0
 11
1968.5
 21
61.5
 31
0.0
  0
LINE
  5
28D
330
17
100
AcDbEntity
  8
PANEL_09
100
AcDbLine
 10
1932.0
 20
143.0
 30
0.0
 11
1945.6666666666667
 21
91.33333333333333
 31
0.0
  0
LINE
  5
28E
330
17
100
AcDbEntity
  8
PANEL_09
100
AcDbLine
 10
1992.25
 20
120.25
 30
0.0
 11
1995.0
 21
167.33333333333334
 31
0.0
  0
LINE
  5
28F
330
17
100
AcDbEntity
  8
PANEL_09
100
AcDbLine
 10
1887.6666666666667
 20
105.66666666666666
 30
0.0
 11
1939.0
 21
115.0
 31
0.0
  0
LINE
  5
290
330
17
100
AcDbEntity
  8
PANEL_09
100
AcDbLine
 10
1887.8
 20
103.2
 30
0.0
 11
1918.2
 21
100.8
 31
0.0
  0
LINE
  5
291
330
17
100
AcDbEntity
  8
PANEL_09
100
AcDbLine
 10
1932.0
 20
128.5
 30
0.0
 11
1973.0
 21
136.0
 31
0.0
  0
LINE
  5
292
330
17
100
AcDbEntity
  8
PANEL_09
100
AcDbLine
 10
1889.0
 20
126.5
 30
0.0
 11
1932.0
 21
128.5
 31
0.0
  0
LINE
  5
293
330
17
100
AcDbEntity
  8
PANEL_09
100
AcDbLine
 10
1918.2
 20
100.8
 30
0.0
 11
1954.6666666666667
 21
97.66666666666667
 31
0.0
  0
LINE
  5
294
330
17
100
AcDbEntity
  8
PANEL_09
100
AcDbLine
 10
2013.75
 20
59.25
 30
0.0
 11
2052.0
 21
59.0
 31
0.0
  0
LINE
  5
295
330
17
100
AcDbEntity
  8
PANEL_09
100
AcDbLine
 10
1998.5
 20
70.5
 30
0.0
 11
2006.0
 21
41.0
 31
0.0
  0
LINE
  5
296
330
17
100
AcDbEntity
  8
PANEL_09
100
AcDbLine
 10
1991.3333333333333
 20
122.66666666666666
 30
0.0
 11
1994.6666666666667
 21
52.0
 31
0.0
  0
TEXT
  5
297
330
17
100
AcDbEntity
  8
PANEL_09_LBL
100
AcDbText
 10
1971.5
 20
157.0
 30
0.0
 40
12.0
  1
PART panel_09
100
AcDbText
  0
LINE
  5
29A
330
17
100
AcDbEntity
  8
PANEL_10
100
AcDbLine
 10
2088.0
 20
31.0
 30
0.0
 11
2320.2
 21
31.0
 31
0.0
  0
LINE
  5
29B
330
17
100
AcDbEntity
  8
PANEL_10
100
AcDbLine
 10
2081.0
 20
120.0
 30
0.0
 11
2327.5
 21
120.0
 31
0.0
  0
LINE
  5
29C
330
17
100
AcDbEntity
  8
PANEL_10
100
AcDbLine
 10
2081.0
 20
120.0
 30
0.0
 11
2327.5
 21
120.0
 31
0.0
  0
LINE
  5
29D
330
17
100
AcDbEntity
  8
PANEL_10
100
AcDbLine
 10
2088.0
 20
31.0
 30
0.0
 11
2320.2
 21
31.0
 31
0.0
  0
LINE
  5
29E
330
17
100
AcDbEntity
  8
PANEL_10
100
AcDbLine
 10
2109.0
 20
13.666666666666657
 30
0.0
 11
2302.0
 21
16.0
 31
0.0
  0
LINE
  5
29F
330
17
100
AcDbEntity
  8
PANEL_10
100
AcDbLine
 10
2109.0
 20
13.666666666666657
 30
0.0
 11
2302.0
 21
16.0
 31
0.0
  0
LINE
  5
2A0
330
17
100
AcDbEntity
  8
PANEL_10
100
AcDbLine
 10
2109.0
 20
136.0
 30
0.0
 11
2302.0
 21
136.0
 31
0.0
  0
LINE
  5
2A1
330
17
100
AcDbEntity
  8
PANEL_10
100
AcDbLine
 10
2109.0
 20
136.0
 30
0.0
 11
2302.0
 21
136.0
 31
0.0
  0
LINE
  5
2A2
330
17
100
AcDbEntity
  8
PANEL_10
100
AcDbLine
 10
2127.5
 20
58.0
 30
0.0
 11
2194.0
 21
56.5
 31
0.0
  0
LINE
  5
2A3
330
17
100
AcDbEntity
  8
PANEL_10
100
AcDbLine
 10
2301.0
 20
2.0
 30
0.0
 11
2301.0
 21
149.0
 31
0.0
  0
LINE
  5
2A4
330
17
100
AcDbEntity
  8
PANEL_10
100
AcDbLine
 10
2170.3333333333335
 20
122.0
 30
0.0
 11
2320.2
 21
31.0
 31
0.0
  0
LINE
  5
2A5
330
17
100
AcDbEntity
  8
PANEL_10
100
AcDbLine
 10
2084.0
 20
56.5
 30
0.0
 11
2194.0
 21
56.5
 31
0.0
  0
LINE
  5
2A6
330
17
100
AcDbEntity
  8
PANEL_10
100
AcDbLine
 10
2110.5
 20
12.0
 30
0.0
 11
2109.5
 21
143.0
 31
0.0
  0
LINE
  5
2A7
330
17
100
AcDbEntity
  8
PANEL_10
100
AcDbLine
 10
2082.5
 20
80.5
 30
0.0
 11
2181.6666666666665
 21
80.66666666666667
 31
0.0
  0
LINE
  5
2A8
330
17
100
AcDbEntity
  8
PANEL_10
100
AcDbLine
 10
2320.2
 20
31.0
 30
0.0
 11
2316.0
 21
119.0
 31
0.0
  0
LINE
  5
2A9
330
17
100
AcDbEntity
  8
PANEL_10
100
AcDbLine
 10
2320.2
 20
31.0
 30
0.0
 11
2316.0
 21
119.0
 31
0.0
  0
LINE
  5
2AA
330
17
100
AcDbEntity
  8
PANEL_10
100
AcDbLine
 10
2109.5
 20
143.0
 30
0.0
 11
2112.0
 21
8.0
 31
0.0
  0
LINE
  5
2AB
330
17
100
AcDbEntity
  8
PANEL_10
100
AcDbLine
 10
2301.0
 20
2.0
 30
0.0
 11
2301.0
 21
149.0
 31
0.0
  0
LINE
  5
2AC
330
17
100
AcDbEntity
  8
PANEL_10
100
AcDbLine
 10
2195.0
 20
104.0
 30
0.0
 11
2299.0
 21
40.0
 31
0.0
  0
LINE
  5
2AD
330
17
100
AcDbEntity
  8
PANEL_10
100
AcDbLine
 10
2095.0
 20
32.0
 30
0.0
 11
2095.0
 21
118.0
 31
0.0
  0
LINE
  5
2AE
330
17
100
AcDbEntity
  8
PANEL_10
100
AcDbLine
 10
2095.0
 20
32.0
 30
0.0
 11
2095.0
 21
118.0
 31
0.0
  0
LINE
  5
2AF
330
17
100
AcDbEntity
  8
PANEL_10
100
AcDbLine
 10
2082.0
 20
104.0
 30
0.0
 11
2149.0
 21
103.0
 31
0.0
  0
LINE
  5
2B0
330
17
100
AcDbEntity
  8
PANEL_10
100
AcDbLine
 10
2082.5
 20
80.5
 30
0.0
 11
2181.6666666666665
 21
80.66666666666667
 31
0.0
  0
LINE
  5
2B1
330
17
100
AcDbEntity
  8
PANEL_10
100
AcDbLine
 10
2168.0
 20
149.0
 30
0.0
 11
2186.6666666666665
 21
1.3333333333333428
 31
0.0
  0
LINE
  5
2B2
330
17
100
AcDbEntity
  8
PANEL_10
100
AcDbLine
 10
2149.0
 20
73.0
 30
0.0
 11
2150.0
 21
147.0
 31
0.0
  0
LINE
  5
2B3
330
17
100
AcDbEntity
  8
PANEL_10
100
AcDbLine
 10
2091.0
 20
80.5
 30
0.0
 11
2181.6666666666665
 21
80.66666666666667
 31
0.0
  0
LINE
  5
2B4
330
17
100
AcDbEntity
  8
PANEL_10
100
AcDbLine
 10
2134.0
 20
140.0
 30
0.0
 11
2179.0
 21
140.0
 31
0.0
  0
LINE
  5
2B5
330
17
100
AcDbEntity
  8
PANEL_10
100
AcDbLine
 10
2170.3333333333335
 20
122.0
 30
0.0
 11
2179.3333333333335
 21
49.33333333333333
 31
0.0
  0
LINE
  5
2B6
330
17
100
AcDbEntity
  8
PANEL_10
100
AcDbLine
 10
2091.0
 20
80.5
 30
0.0
 11
2114.0
 21
80.0
 31
0.0
  0
LINE
  5
2B7
330
17
100
AcDbEntity
  8
PANEL_10
100
AcDbLine
 10
2116.0
 20
102.0
 30
0.0
 11
2149.0
 21
103.0
 31
0.0
  0
LINE
  5
2B8
330
17
100
AcDbEntity
  8
PANEL_10
100
AcDbLine
 10
2170.3333333333335
 20
122.0
 30
0.0
 11
2262.0
 21
62.0
 31
0.0
  0
LINE
  5
2B9
330
17
100
AcDbEntity
  8
PANEL_10
100
AcDbLine
 10
2172.0
 20
109.0
 30
0.0
 11
2179.3333333333335
 21
49.33333333333333
 31
0.0
  0
LINE
  5
2BA
330
17
100
AcDbEntity
  8
PANEL_10
100
AcDbLine
 10
2149.0
 20
73.0
 30
0.0
 11
2148.0
 21
134.0
 31
0.0
  0
LINE
  5
2BB
330
17
100
AcDbEntity
  8
PANEL_10
100
AcDbLine
 10
2184.5
 20
66.5
 30
0.0
 11
2186.6666666666665
 21
1.3333333333333428
 31
0.0
  0
LINE
  5
2BC
330
17
100
AcDbEntity
  8
PANEL_10
100
AcDbLine
 10
2084.0
 20
56.5
 30
0.0
 11
2127.5
 21
58.0
 31
0.0
  0
LINE
  5
2BD
330
17
100
AcDbEntity
  8
PANEL_10
100
AcDbLine
 10
2184.5
 20
66.5
 30
0.0
 11
2186.6666666666665
 21
1.3333333333333428
 31
0.0
  0
LINE
  5
2BE
330
17
100
AcDbEntity
  8
PANEL_10
100
AcDbLine
 10
2172.0
 20
102.0
 30
0.0
 11
2179.3333333333335
 21
49.33333333333333
 31
0.0
  0
TEXT
  5
2BF
330
17
100
AcDbEntity
  8
PANEL_10_LBL
100
AcDbText
 10
2206.0
 20
138.0
 30
0.0
 40
12.0
  1
PART panel_10
100
AcDbText
  0
LINE
  5
2C2
330
17
100
AcDbEntity
  8
PANEL_11
100
AcDbLine
 10
2367.5
 20
31.0
 30
0.0
 11
2528.0
 21
30.0
 31
0.0
  0
LINE
  5
2C3
330
17
100
AcDbEntity
  8
PANEL_11
100
AcDbLine
 10
2386.5
 20
11.75
 30
0.0
 11
2385.8
 21
157.6
 31
0.0
  0
LINE
  5
2C4
330
17
100
AcDbEntity
  8
PANEL_11
100
AcDbLine
 10
2367.5
 20
31.0
 30
0.0
 11
2528.0
 21
30.0
 31
0.0
  0
LINE
  5
2C5
330
17
100
AcDbEntity
  8
PANEL_11
100
AcDbLine
 10
2386.5
 20
11.75
 30
0.0
 11
2508.0
 21
15.0
 31
0.0
  0
LINE
  5
2C6
330
17
100
AcDbEntity
  8
PANEL_11
100
AcDbLine
 10
2367.5
 20
31.0
 30
0.0
 11
2371.0
 21
138.5
 31
0.0
  0
LINE
  5
2C7
330
17
100
AcDbEntity
  8
PANEL_11
100
AcDbLine
 10
2386.5
 20
11.75
 30
0.0
 11
2508.0
 21
15.0
 31
0.0
  0
LINE
  5
2C8
330
17
100
AcDbEntity
  8
PANEL_11
100
AcDbLine
 10
2385.8
 20
157.6
 30
0.0
 11
2508.0
 21
154.0
 31
0.0
  0
LINE
  5
2C9
330
17
100
AcDbEntity
  8
PANEL_11
100
AcDbLine
 10
2359.0
 20
139.66666666666666
 30
0.0
 11
2534.0
 21
139.0
 31
0.0
  0
LINE
  5
2CA
330
17
100
AcDbEntity
  8
PANEL_11
100
AcDbLine
 10
2359.0
 20
139.66666666666666
 30
0.0
 11
2534.0
 21
139.0
 31
0.0
  0
LINE
  5
2CB
330
17
100
AcDbEntity
  8
PANEL_11
100
AcDbLine
 10
2385.8
 20
157.6
 30
0.0
 11
2508.0
 21
154.0
 31
0.0
  0
LINE
  5
2CC
330
17
100
AcDbEntity
  8
PANEL_11
100
AcDbLine
 10
2507.0
 20
1.0
 30
0.0
 11
2507.0
 21
166.5
 31
0.0
  0
LINE
  5
2CD
330
17
100
AcDbEntity
  8
PANEL_11
100
AcDbLine
 10
2523.3333333333335
 20
31.333333333333343
 30
0.0
 11
2522.0
 21
138.0
 31
0.0
  0
LINE
  5
2CE
330
17
100
AcDbEntity
  8
PANEL_11
100
AcDbLine
 10
2507.0
 20
1.0
 30
0.0
 11
2507.0
 21
166.5
 31
0.0
  0
LINE
  5
2CF
330
17
100
AcDbEntity
  8
PANEL_11
100
AcDbLine
 10
2386.5
 20
11.75
 30
0.0
 11
2385.8
 21
157.6
 31
0.0
  0
LINE
  5
2D0
330
17
100
AcDbEntity
  8
PANEL_11
100
AcDbLine
 10
2359.0
 20
139.66666666666666
 30
0.0
 11
2449.0
 21
22.0
 31
0.0
  0
LINE
  5
2D1
330
17
100
AcDbEntity
  8
PANEL_11
100
AcDbLine
 10
2523.3333333333335
 20
31.333333333333343
 30
0.0
 11
2522.0
 21
138.0
 31
0.0
  0
LINE
  5
2D2
330
17
100
AcDbEntity
  8
PANEL_11
100
AcDbLine
 10
2367.5
 20
31.0
 30
0.0
 11
2371.0
 21
138.5
 31
0.0
  0
LINE
  5
2D3
330
17
100
AcDbEntity
  8
PANEL_11
100
AcDbLine
 10
2448.5
 20
1.5
 30
0.0
 11
2450.6666666666665
 21
74.0
 31
0.0
  0
LINE
  5
2D4
330
17
100
AcDbEntity
  8
PANEL_11
100
AcDbLine
 10
2448.3333333333335
 20
128.0
 30
0.0
 11
2532.5
 21
126.0
 31
0.0
  0
LINE
  5
2D5
330
17
100
AcDbEntity
  8
PANEL_11
100
AcDbLine
 10
2388.0
 20
100.0
 30
0.0
 11
2449.0
 21
22.0
 31
0.0
  0
LINE
  5
2D6
330
17
100
AcDbEntity
  8
PANEL_11
100
AcDbLine
 10
2459.3333333333335
 20
90.33333333333333
 30
0.0
 11
2459.6666666666665
 21
167.66666666666666
 31
0.0
  0
LINE
  5
2D7
330
17
100
AcDbEntity
  8
PANEL_11
100
AcDbLine
 10
2492.0
 20
1.0
 30
0.0
 11
2493.0
 21
73.0
 31
0.0
  0
LINE
  5
2D8
330
17
100
AcDbEntity
  8
PANEL_11
100
AcDbLine
 10
2459.3333333333335
 20
90.33333333333333
 30
0.0
 11
2459.6666666666665
 21
167.66666666666666
 31
0.0
  0
LINE
  5
2D9
330
17
100
AcDbEntity
  8
PANEL_11
100
AcDbLine
 10
2457.8
 20
93.8
 30
0.0
 11
2535.0
 21
96.0
 31
0.0
  0
LINE
  5
2DA
330
17
100
AcDbEntity
  8
PANEL_11
100
AcDbLine
 10
2458.75
 20
51.25
 30
0.0
 11
2533.0
 21
50.0
 31
0.0
  0
LINE
  5
2DB
330
17
100
AcDbEntity
  8
PANEL_11
100
AcDbLine
 10
2455.2
 20
99.8
 30
0.0
 11
2535.0
 21
96.0
 31
0.0
  0
LINE
  5
2DC
330
17
100
AcDbEntity
  8
PANEL_11
100
AcDbLine
 10
2448.0
 20
126.0
 30
0.0
 11
2532.5
 21
126.0
 31
0.0
  0
LINE
  5
2DD
330
17
100
AcDbEntity
  8
PANEL_11
100
AcDbLine
 10
2448.0
 20
34.5
 30
0.0
 11
2450.6666666666665
 21
74.0
 31
0.0
  0
LINE
  5
2DE
330
17
100
AcDbEntity
  8
PANEL_11
100
AcDbLine
 10
2493.0
 20
73.0
 30
0.0
 11
2494.0
 21
33.0
 31
0.0
  0
LINE
  5
2DF
330
17
100
AcDbEntity
  8
PANEL_11
100
AcDbLine
 10
2458.75
 20
51.25
 30
0.0
 11
2533.0
 21
50.0
 31
0.0
  0
LINE
  5
2E0
330
17
100
AcDbEntity
  8
PANEL_11
100
AcDbLine
 10
2357.5
 20
102.0
 30
0.0
 11
2423.5
 21
100.5
 31
0.0
  0
LINE
  5
2E1
330
17
100
AcDbEntity
  8
PANEL_11
100
AcDbLine
 10
2357.5
 20
102.0
 30
0.0
 11
2419.75
 21
96.75
 31
0.0
  0
LINE
  5
2E2
330
17
100
AcDbEntity
  8
PANEL_11
100
AcDbLine
 10
2471.6666666666665
 20
62.66666666666667
 30
0.0
 11
2532.5
 21
61.0
 31
0.0
  0
LINE
  5
2E3
330
17
100
AcDbEntity
  8
PANEL_11
100
AcDbLine
 10
2440.0
 20
60.0
 30
0.0
 11
2532.5
 21
61.0
 31
0.0
  0
LINE
  5
2E4
330
17
100
AcDbEntity
  8
PANEL_11
100
AcDbLine
 10
2454.75
 20
54.0
 30
0.0
 11
2450.6666666666665
 21
74.0
 31
0.0
  0
LINE
  5
2E5
330
17
100
AcDbEntity
  8
PANEL_11
100
AcDbLine
 10
2455.0
 20
118.0
 30
0.0
 11
2459.6666666666665
 21
167.66666666666666
 31
0.0
  0
LINE
  5
2E6
330
17
100
AcDbEntity
  8
PANEL_11
100
AcDbLine
 10
2457.1666666666665
 20
52.66666666666667
 30
0.0
 11
2455.2
 21
99.8
 31
0.0
  0
LINE
  5
2E7
330
17
100
AcDbEntity
  8
PANEL_11
100
AcDbLine
 10
2470.0
 20
31.0
 30
0.0
 11
2471.6666666666665
 21
62.66666666666667
 31
0.0
  0
LINE
  5
2E8
330
17
100
AcDbEntity
  8
PANEL_11
100
AcDbLine
 10
2448.5
 20
129.5
 30
0.0
 11
2474.0
 21
136.0
 31
0.0
  0
LINE
  5
2E9
330
17
100
AcDbEntity
  8
PANEL_11
100
AcDbLine
 10
2418.3333333333335
 20
95.0
 30
0.0
 11
2416.3333333333335
 21
162.33333333333334
 31
0.0
  0
LINE
  5
2EA
330
17
100
AcDbEntity
  8
PANEL_11
100
AcDbLine
 10
2472.0
 20
4.0
 30
0.0
 11
2471.6666666666665
 21
62.66666666666667
 31
0.0
  0
LINE
  5
2EB
330
17
100
AcDbEntity
  8
PANEL_11
100
AcDbLine
 10
2385.8
 20
157.6
 30
0.0
 11
2416.3333333333335
 21
162.33333333333334
 31
0.0
  0
LINE
  5
2EC
330
17
100
AcDbEntity
  8
PANEL_11
100
AcDbLine
 10
2457.1666666666665
 20
52.66666666666667
 30
0.0
 11
2455.5
 21
101.0
 31
0.0
  0
LINE
  5
2ED
330
17
100
AcDbEntity
  8
PANEL_11
100
AcDbLine
 10
2473.0
 20
138.33333333333334
 30
0.0
 11
2507.0
 21
77.5
 31
0.0
  0
LINE
  5
2EE
330
17
100
AcDbEntity
  8
PANEL_11
100
AcDbLine
 10
2418.3333333333335
 20
95.0
 30
0.0
 11
2416.3333333333335
 21
162.33333333333334
 31
0.0
  0
LINE
  5
2EF
330
17
100
AcDbEntity
  8
PANEL_11
100
AcDbLine
 10
2471.0
 20
141.0
 30
0.0
 11
2507.0
 21
77.5
 31
0.0
  0
LINE
  5
2F0
330
17
100
AcDbEntity
  8
PANEL_11
100
AcDbLine
 10
2402.6666666666665
 20
110.66666666666666
 30
0.0
 11
2400.0
 21
165.5
 31
0.0
  0
LINE
  5
2F1
330
17
100
AcDbEntity
  8
PANEL_11
100
AcDbLine
 10
2434.0
 20
167.0
 30
0.0
 11
2435.0
 21
142.0
 31
0.0
  0
LINE
  5
2F2
330
17
100
AcDbEntity
  8
PANEL_11
100
AcDbLine
 10
2454.75
 20
54.0
 30
0.0
 11
2455.5
 21
101.0
 31
0.0
  0
LINE
  5
2F3
330
17
100
AcDbEntity
  8
PANEL_11
100
AcDbLine
 10
2525.6
 20
31.19999999999999
 30
0.0
 11
2526.0
 21
99.0
 31
0.0
  0
LINE
  5
2F4
330
17
100
AcDbEntity
  8
PANEL_11
100
AcDbLine
 10
2402.6666666666665
 20
110.66666666666666
 30
0.0
 11
2400.0
 21
165.5
 31
0.0
  0
LINE
  5
2F5
330
17
100
AcDbEntity
  8
PANEL_11
100
AcDbLine
 10
2359.0
 20
114.0
 30
0.0
 11
2402.6666666666665
 21
110.66666666666666
 31
0.0
  0
LINE
  5
2F6
330
17
100
AcDbEntity
  8
PANEL_11
100
AcDbLine
 10
2448.5
 20
1.5
 30
0.0
 11
2448.0
 21
34.5
 31
0.0
  0
TEXT
  5
2F7
330
17
100
AcDbEntity
  8
PANEL_11_LBL
100
AcDbText
 10
2446.5
 20
157.0
 30
0.0
 40
12.0
  1
PART panel_11
100
AcDbText
  0
ENDSEC
  0
SECTION
  2
OBJECTS
  0
DICTIONARY
  5
A
330
0
100
AcDbDictionary
281
1
  3
ACAD_COLOR
350
B
  3
ACAD_GROUP
350
C
  3
ACAD_LAYOUT
350
D
  3
ACAD_MATERIAL
350
E
  3
ACAD_MLEADERSTYLE
350
F
  3
ACAD_MLINESTYLE
350
10
  3
ACAD_PLOTSETTINGS
350
11
  3
ACAD_PLOTSTYLENAME
350
12
  3
ACAD_SCALELIST
350
14
  3
ACAD_TABLESTYLE
350
15
  3
ACAD_VISUALSTYLE
350
16
  3
EZDXF_META
350
2D
  0
DICTIONARY
  5
B
330
A
100
AcDbDictionary
281
1
  0
DICTIONARY
  5
C
330
A
100
AcDbDictionary
281
1
  0
DICTIONARY
  5
D
330
A
100
AcDbDictionary
281
1
  3
Model
350
1A
  3
Layout1
350
1E
  0
DICTIONARY
  5
E
330
A
100
AcDbDictionary
281
1
  3
ByBlock
350
1F
  3
ByLayer
350
20
  3
Global
350
21
  0
DICTIONARY
  5
F
330
A
100
AcDbDictionary
281
1
  3
Standard
350
2C
  0
DICTIONARY
  5
10
330
A
100
AcDbDictionary
281
1
  3
Standard
350
22
  0
DICTIONARY
  5
11
330
A
100
AcDbDictionary
281
1
  0
ACDBDICTIONARYWDFLT
  5
12
330
A
100
AcDbDictionary
281
1
  3
Normal
350
13
100
AcDbDictionaryWithDefault
340
13
  0
ACDBPLACEHOLDER
  5
13
330
12
  0
DICTIONARY
  5
14
330
A
100
AcDbDictionary
281
1
  0
DICTIONARY
  5
15
330
A
100
AcDbDictionary
281
1
  0
DICTIONARY
  5
16
330
A
100
AcDbDictionary
281
1
  3
2dWireframe
350
5A
  3
Basic
350
5B
  3
Brighten
350
5C
  3
ColorChange
350
5D
  3
Conceptual
350
5E
  3
Dim
350
5F
  3
EdgeColorOff
350
60
  3
Facepattern
350
61
  3
Flat
350
62
  3
FlatWithEdges
350
63
  3
Gouraud
350
64
  3
GouraudWithEdges
350
65
  3
Hidden
350
66
  3
JitterOff
350
67
  3
Linepattern
350
68
  3
Modeling
350
69
  3
OverhangOff
350
6A
  3
Realistic
350
6B
  3
Shaded
350
6C
  3
Shaded with edges
350
6D
  3
Shades of Gray
350
6E
  3
Sketchy
350
6F
  3
Thicken
350
70
  3
Wireframe
350
71
  3
X-Ray
350
72
  0
LAYOUT
  5
1A
330
D
100
AcDbPlotSettings
  1

  4
A3
  6

 40
7.5
 41
20.0
 42
7.5
 43
20.0
 44
420.0
 45
297.0
 46
0.0
 47
0.0
 48
0.0
 49
0.0
140
0.0
141
0.0
142
1.0
143
1.0
 70
1024
 72
1
 73
0
 74
5
  7

 75
16
 76
0
 77
2
 78
300
147
1.0
148
0.0
149
0.0
100
AcDbLayout
  1
Model
 70
1
 71
0
 10
0.0
 20
0.0
 11
420.0
 21
297.0
 12
0.0
 22
0.0
 32
0.0
 14
1e+20
 24
1e+20
 34
1e+20
 15
-1e+20
 25
-1e+20
 35
-1e+20
146
0.0
 13
0.0
 23
0.0
 33
0.0
 16
1.0
 26
0.0
 36
0.0
 17
0.0
 27
1.0
 37
0.0
 76
1
330
17
  0
LAYOUT
  5
1E
330
D
100
AcDbPlotSettings
  1

  4
A3
  6

 40
7.5
 41
20.0
 42
7.5
 43
20.0
 44
420.0
 45
297.0
 46
0.0
 47
0.0
 48
0.0
 49
0.0
140
0.0
141
0.0
142
1.0
143
1.0
 70
0
 72
1
 73
0
 74
5
  7

 75
16
 76
0
 77
2
 78
300
147
1.0
148
0.0
149
0.0
100
AcDbLayout
  1
Layout1
 70
1
 71
1
 10
0.0
 20
0.0
 11
420.0
 21
297.0
 12
0.0
 22
0.0
 32
0.0
 14
1e+20
 24
1e+20
 34
1e+20
 15
-1e+20
 25
-1e+20
 35
-1e+20
146
0.0
 13
0.0
 23
0.0
 33
0.0
 16
1.0
 26
0.0
 36
0.0
 17
0.0
 27
1.0
 37
0.0
 76
1
330
1B
  0
MATERIAL
  5
1F
102
{ACAD_REACTORS
330
E
102
}
330
E
100
AcDbMaterial
  1
ByBlock
  2

 70
0
 40
1.0
 71
1
 41
1.0
 91
-1023410177
 42
1.0
 72
1
  3

 73
1
 74
1
 75
1
 44
0.5
 73
0
 45
1.0
 46
1.0
 77
1
  4

 78
1
 79
1
170
1
 48
1.0
171
1
  6

172
1
173
1
174
1
140
1.0
141
1.0
175
1
  7

176
1
177
1
178
1
143
1.0
179
1
  8

270
1
271
1
272
1
145
1.0
146
1.0
273
1
  9

274
1
275
1
276
1
 42
1.0
 72
1
  3

 73
1
 74
1
 75
1
 94
63
  0
MATERIAL
  5
20
102
{ACAD_REACTORS
330
E
102
}
330
E
100
AcDbMaterial
  1
ByLayer
  2

 70
0
 40
1.0
 71
1
 41
1.0
 91
-1023410177
 42
1.0
 72
1
  3

 73
1
 74
1
 75
1
 44
0.5
 73
0
 45
1.0
 46
1.0
 77
1
  4

 78
1
 79
1
170
1
 48
1.0
171
1
  6

172
1
173
1
174
1
140
1.0
141
1.0
175
1
  7

176
1
177
1
178
1
143
1.0
179
1
  8

270
1
271
1
272
1
145
1.0
146
1.0
273
1
  9

274
1
275
1
276
1
 42
1.0
 72
1
  3

 73
1
 74
1
 75
1
 94
63
  0
MATERIAL
  5
21
102
{ACAD_REACTORS
330
E
102
}
330
E
100
AcDbMaterial
  1
Global
  2

 70
0
 40
1.0
 71
1
 41
1.0
 91
-1023410177
 42
1.0
 72
1
  3

 73
1
 74
1
 75
1
 44
0.5
 73
0
 45
1.0
 46
1.0
 77
1
  4

 78
1
 79
1
170
1
 48
1.0
171
1
  6

172
1
173
1
174
1
140
1.0
141
1.0
175
1
  7

176
1
177
1
178
1
143
1.0
179
1
  8

270
1
271
1
272
1
145
1.0
146
1.0
273
1
  9

274
1
275
1
276
1
 42
1.0
 72
1
  3

 73
1
 74
1
 75
1
 94
63
  0
MLINESTYLE
  5
22
102
{ACAD_REACTORS
330
10
102
}
330
10
100
AcDbMlineStyle
  2
Standard
 70
0
  3

 62
256
 51
90.0
 52
90.0
 71
2
 49
0.5
 62
256
  6
BYLAYER
 49
-0.5
 62
256
  6
BYLAYER
  0
MLEADERSTYLE
  5
2C
102
{ACAD_REACTORS
330
F
102
}
330
F
100
AcDbMLeaderStyle
179
2
170
2
171
1
172
0
 90
2
 40
0.0
 41
0.0
173
1
 91
-1056964608
 92
-2
290
1
 42
2.0
291
1
 43
8.0
  3
Standard
 44
4.0
300

342
29
174
1
175
1
176
0
178
1
 93
-1056964608
 45
4.0
292
0
297
0
 46
4.0
 94
-1056964608
 47
1.0
 49
1.0
140
1.0
294
1
141
0.0
177
0
142
1.0
295
0
296
0
143
3.75
271
0
272
9
273
9
  0
DICTIONARY
  5
2D
330
A
100
AcDbDictionary
280
1
281
1
  3
CREATED_BY_EZDXF
350
2E
  3
WRITTEN_BY_EZDXF
350
2FA
  0
DICTIONARYVAR
  5
2E
330
2D
100
DictionaryVariables
280
0
  1
1.4.3 @ 2026-05-06T23:05:11.206687+00:00
  0
VISUALSTYLE
  5
5A
102
{ACAD_REACTORS
330
16
102
}
330
16
100
AcDbVisualStyle
  2
2dWireframe
 70
4
177
3
291
0
 70
58
 90
2
176
1
 90
2
176
1
 90
0
176
1
 90
0
176
1
 40
0.6
176
1
 40
30.0
176
1
 62
7
420
16777215
176
1
 90
1
176
1
 90
4
176
1
 62
7
176
1
 62
257
176
1
 90
1
176
1
 90
1
176
1
 40
1.0
176
1
 90
8
176
1
 62
7
176
1
 40
1.0
176
1
 90
1
176
1
 90
6
176
1
 90
2
176
1
 62
7
176
1
 90
5
176
1
 90
0
176
1
 90
0
176
1
290
0
176
1
 90
1
176
1
 40
0.0
176
1
 90
0
176
1
290
1
176
1
290
1
176
1
290
0
176
1
290
0
176
1
290
0
176
1
290
0
176
1
290
0
176
1
290
0
176
1
290
0
176
1
 90
50
176
1
 40
0.0
176
1
 40
1.0
176
1
 90
0
176
1
 62
18
420
0
176
1
 90
50
176
1
 90
3
176
1
 62
5
420
255
176
1
290
0
176
1
 90
50
176
1
 90
50
176
1
 90
50
176
1
290
0
176
1
 90
50
176
1
 62
256
176
0
 40
1.0
176
0
 90
2
176
1
  1
strokes_ogs.tif
176
1
290
0
176
1
 40
1.0
176
1
 40
1.0
176
1
  0
VISUALSTYLE
  5
5B
102
{ACAD_REACTORS
330
16
102
}
330
16
100
AcDbVisualStyle
  2
Basic
 70
7
177
3
291
1
 70
58
 90
2
176
1
 90
2
176
1
 90
0
176
1
 90
1
176
1
 40
0.6
176
1
 40
30.0
176
1
 62
7
420
16777215
176
1
 90
1
176
1
 90
4
176
1
 62
7
176
1
 62
257
176
1
 90
1
176
1
 90
1
176
1
 40
1.0
176
1
 90
8
176
1
 62
7
176
1
 40
1.0
176
1
 90
1
176
1
 90
6
176
1
 90
2
176
1
 62
7
176
1
 90
5
176
1
 90
0
176
1
 90
0
176
1
290
0
176
1
 90
1
176
1
 40
0.0
176
1
 90
0
176
1
290
0
176
1
290
1
176
1
290
1
176
1
290
0
176
1
290
0
176
1
290
0
176
1
290
0
176
1
290
0
176
1
290
0
176
1
 90
50
176
1
 40
0.0
176
1
 40
1.0
176
1
 90
0
176
1
 62
18
420
0
176
1
 90
50
176
1
 90
3
176
1
 62
5
420
255
176
1
290
0
176
1
 90
50
176
1
 90
50
176
1
 90
50
176
1
290
0
176
1
 90
50
176
1
 62
256
176
0
 40
1.0
176
0
 90
2
176
1
  1
strokes_ogs.tif
176
1
290
0
176
1
 40
1.0
176
1
 40
1.0
176
1
  0
VISUALSTYLE
  5
5C
102
{ACAD_REACTORS
330
16
102
}
330
16
100
AcDbVisualStyle
  2
Brighten
 70
12
177
3
291
1
 70
58
 90
2
176
1
 90
2
176
1
 90
0
176
1
 90
2
176
1
 40
0.6
176
1
 40
30.0
176
1
 62
7
420
16777215
176
1
 90
1
176
1
 90
4
176
1
 62
7
176
1
 62
257
176
1
 90
1
176
1
 90
1
176
1
 40
1.0
176
1
 90
8
176
1
 62
7
176
1
 40
1.0
176
1
 90
1
176
1
 90
6
176
1
 90
2
176
1
 62
7
176
1
 90
5
176
1
 90
0
176
1
 90
0
176
1
290
0
176
1
 90
1
176
1
 40
0.0
176
1
 90
0
176
1
290
0
176
1
290
1
176
1
290
1
176
1
290
0
176
1
290
0
176
1
290
0
176
1
290
0
176
1
290
0
176
1
290
0
176
1
 90
50
176
1
 40
0.0
176
1
 40
1.0
176
1
 90
0
176
1
 62
18
420
0
176
1
 90
50
176
1
 90
3
176
1
 62
5
420
255
176
1
290
0
176
1
 90
50
176
1
 90
50
176
1
 90
50
176
1
290
0
176
1
 90
50
176
1
 62
256
176
0
 40
1.0
176
0
 90
2
176
1
  1
strokes_ogs.tif
176
1
290
0
176
1
 40
1.0
176
1
 40
1.0
176
1
  0
VISUALSTYLE
  5
5D
102
{ACAD_REACTORS
330
16
102
}
330
16
100
AcDbVisualStyle
  2
ColorChange
 70
16
177
3
291
1
 70
58
 90
2
176
1
 90
2
176
1
 90
0
176
1
 90
2
176
1
 40
0.6
176
1
 40
30.0
176
1
 62
7
420
16777215
176
1
 90
1
176
1
 90
4
176
1
 62
7
176
1
 62
257
176
1
 90
1
176
1
 90
1
176
1
 40
1.0
176
1
 90
8
176
1
 62
7
176
1
 40
1.0
176
1
 90
1
176
1
 90
6
176
1
 90
2
176
1
 62
7
176
1
 90
5
176
1
 90
0
176
1
 90
0
176
1
290
0
176
1
 90
1
176
1
 40
0.0
176
1
 90
0
176
1
290
0
176
1
290
1
176
1
290
1
176
1
290
0
176
1
290
0
176
1
290
0
176
1
290
0
176
1
290
0
176
1
290
0
176
1
 90
50
176
1
 40
0.0
176
1
 40
1.0
176
1
 90
0
176
1
 62
18
420
0
176
1
 90
50
176
1
 90
3
176
1
 62
5
420
255
176
1
290
0
176
1
 90
50
176
1
 90
50
176
1
 90
50
176
1
290
0
176
1
 90
50
176
1
 62
256
176
0
 40
1.0
176
0
 90
2
176
1
  1
strokes_ogs.tif
176
1
290
0
176
1
 40
1.0
176
1
 40
1.0
176
1
  0
VISUALSTYLE
  5
5E
102
{ACAD_REACTORS
330
16
102
}
330
16
100
AcDbVisualStyle
  2
Conceptual
 70
9
177
3
291
0
 70
58
 90
2
176
1
 90
2
176
1
 90
0
176
1
 90
3
176
1
 40
0.6
176
1
 40
30.0
176
1
 62
7
420
16777215
176
1
 90
1
176
1
 90
4
176
1
 62
7
176
1
 62
257
176
1
 90
1
176
1
 90
1
176
1
 40
1.0
176
1
 90
8
176
1
 62
7
176
1
 40
1.0
176
1
 90
1
176
1
 90
6
176
1
 90
2
176
1
 62
7
176
1
 90
5
176
1
 90
0
176
1
 90
0
176
1
290
0
176
1
 90
1
176
1
 40
0.0
176
1
 90
0
176
1
290
0
176
1
290
1
176
1
290
1
176
1
290
0
176
1
290
0
176
1
290
0
176
1
290
0
176
1
290
0
176
1
290
0
176
1
 90
50
176
1
 40
0.0
176
1
 40
1.0
176
1
 90
0
176
1
 62
18
420
0
176
1
 90
50
176
1
 90
3
176
1
 62
5
420
255
176
1
290
0
176
1
 90
50
176
1
 90
50
176
1
 90
50
176
1
290
0
176
1
 90
50
176
1
 62
256
176
0
 40
1.0
176
0
 90
2
176
1
  1
strokes_ogs.tif
176
1
290
0
176
1
 40
1.0
176
1
 40
1.0
176
1
  0
VISUALSTYLE
  5
5F
102
{ACAD_REACTORS
330
16
102
}
330
16
100
AcDbVisualStyle
  2
Dim
 70
11
177
3
291
1
 70
58
 90
2
176
1
 90
2
176
1
 90
0
176
1
 90
2
176
1
 40
0.6
176
1
 40
30.0
176
1
 62
7
420
16777215
176
1
 90
1
176
1
 90
4
176
1
 62
7
176
1
 62
257
176
1
 90
1
176
1
 90
1
176
1
 40
1.0
176
1
 90
8
176
1
 62
7
176
1
 40
1.0
176
1
 90
1
176
1
 90
6
176
1
 90
2
176
1
 62
7
176
1
 90
5
176
1
 90
0
176
1
 90
0
176
1
290
0
176
1
 90
1
176
1
 40
0.0
176
1
 90
0
176
1
290
0
176
1
290
1
176
1
290
1
176
1
290
0
176
1
290
0
176
1
290
0
176
1
290
0
176
1
290
0
176
1
290
0
176
1
 90
50
176
1
 40
0.0
176
1
 40
1.0
176
1
 90
0
176
1
 62
18
420
0
176
1
 90
50
176
1
 90
3
176
1
 62
5
420
255
176
1
290
0
176
1
 90
50
176
1
 90
50
176
1
 90
50
176
1
290
0
176
1
 90
50
176
1
 62
256
176
0
 40
1.0
176
0
 90
2
176
1
  1
strokes_ogs.tif
176
1
290
0
176
1
 40
1.0
176
1
 40
1.0
176
1
  0
VISUALSTYLE
  5
60
102
{ACAD_REACTORS
330
16
102
}
330
16
100
AcDbVisualStyle
  2
EdgeColorOff
 70
22
177
3
291
1
 70
58
 90
2
176
1
 90
2
176
1
 90
0
176
1
 90
2
176
1
 40
0.6
176
1
 40
30.0
176
1
 62
7
420
16777215
176
1
 90
1
176
1
 90
4
176
1
 62
7
176
1
 62
257
176
1
 90
1
176
1
 90
1
176
1
 40
1.0
176
1
 90
8
176
1
 62
7
176
1
 40
1.0
176
1
 90
1
176
1
 90
6
176
1
 90
2
176
1
 62
7
176
1
 90
5
176
1
 90
0
176
1
 90
0
176
1
290
0
176
1
 90
1
176
1
 40
0.0
176
1
 90
0
176
1
290
0
176
1
290
1
176
1
290
1
176
1
290
0
176
1
290
0
176
1
290
0
176
1
290
0
176
1
290
0
176
1
290
0
176
1
 90
50
176
1
 40
0.0
176
1
 40
1.0
176
1
 90
0
176
1
 62
18
420
0
176
1
 90
50
176
1
 90
3
176
1
 62
5
420
255
176
1
290
0
176
1
 90
50
176
1
 90
50
176
1
 90
50
176
1
290
0
176
1
 90
50
176
1
 62
256
176
0
 40
1.0
176
0
 90
2
176
1
  1
strokes_ogs.tif
176
1
290
0
176
1
 40
1.0
176
1
 40
1.0
176
1
  0
VISUALSTYLE
  5
61
102
{ACAD_REACTORS
330
16
102
}
330
16
100
AcDbVisualStyle
  2
Facepattern
 70
15
177
3
291
1
 70
58
 90
2
176
1
 90
2
176
1
 90
0
176
1
 90
2
176
1
 40
0.6
176
1
 40
30.0
176
1
 62
7
420
16777215
176
1
 90
1
176
1
 90
4
176
1
 62
7
176
1
 62
257
176
1
 90
1
176
1
 90
1
176
1
 40
1.0
176
1
 90
8
176
1
 62
7
176
1
 40
1.0
176
1
 90
1
176
1
 90
6
176
1
 90
2
176
1
 62
7
176
1
 90
5
176
1
 90
0
176
1
 90
0
176
1
290
0
176
1
 90
1
176
1
 40
0.0
176
1
 90
0
176
1
290
0
176
1
290
1
176
1
290
1
176
1
290
0
176
1
290
0
176
1
290
0
176
1
290
0
176
1
290
0
176
1
290
0
176
1
 90
50
176
1
 40
0.0
176
1
 40
1.0
176
1
 90
0
176
1
 62
18
420
0
176
1
 90
50
176
1
 90
3
176
1
 62
5
420
255
176
1
290
0
176
1
 90
50
176
1
 90
50
176
1
 90
50
176
1
290
0
176
1
 90
50
176
1
 62
256
176
0
 40
1.0
176
0
 90
2
176
1
  1
strokes_ogs.tif
176
1
290
0
176
1
 40
1.0
176
1
 40
1.0
176
1
  0
VISUALSTYLE
  5
62
102
{ACAD_REACTORS
330
16
102
}
330
16
100
AcDbVisualStyle
  2
Flat
 70
0
177
3
291
1
 70
58
 90
2
176
1
 90
2
176
1
 90
0
176
1
 90
2
176
1
 40
0.6
176
1
 40
30.0
176
1
 62
7
420
16777215
176
1
 90
1
176
1
 90
4
176
1
 62
7
176
1
 62
257
176
1
 90
1
176
1
 90
1
176
1
 40
1.0
176
1
 90
8
176
1
 62
7
176
1
 40
1.0
176
1
 90
1
176
1
 90
6
176
1
 90
2
176
1
 62
7
176
1
 90
5
176
1
 90
0
176
1
 90
0
176
1
290
0
176
1
 90
1
176
1
 40
0.0
176
1
 90
0
176
1
290
0
176
1
290
1
176
1
290
1
176
1
290
0
176
1
290
0
176
1
290
0
176
1
290
0
176
1
290
0
176
1
290
0
176
1
 90
50
176
1
 40
0.0
176
1
 40
1.0
176
1
 90
0
176
1
 62
18
420
0
176
1
 90
50
176
1
 90
3
176
1
 62
5
420
255
176
1
290
0
176
1
 90
50
176
1
 90
50
176
1
 90
50
176
1
290
0
176
1
 90
50
176
1
 62
256
176
0
 40
1.0
176
0
 90
2
176
1
  1
strokes_ogs.tif
176
1
290
0
176
1
 40
1.0
176
1
 40
1.0
176
1
  0
VISUALSTYLE
  5
63
102
{ACAD_REACTORS
330
16
102
}
330
16
100
AcDbVisualStyle
  2
FlatWithEdges
 70
1
177
3
291
1
 70
58
 90
2
176
1
 90
2
176
1
 90
0
176
1
 90
2
176
1
 40
0.6
176
1
 40
30.0
176
1
 62
7
420
16777215
176
1
 90
1
176
1
 90
4
176
1
 62
7
176
1
 62
257
176
1
 90
1
176
1
 90
1
176
1
 40
1.0
176
1
 90
8
176
1
 62
7
176
1
 40
1.0
176
1
 90
1
176
1
 90
6
176
1
 90
2
176
1
 62
7
176
1
 90
5
176
1
 90
0
176
1
 90
0
176
1
290
0
176
1
 90
1
176
1
 40
0.0
176
1
 90
0
176
1
290
0
176
1
290
1
176
1
290
1
176
1
290
0
176
1
290
0
176
1
290
0
176
1
290
0
176
1
290
0
176
1
290
0
176
1
 90
50
176
1
 40
0.0
176
1
 40
1.0
176
1
 90
0
176
1
 62
18
420
0
176
1
 90
50
176
1
 90
3
176
1
 62
5
420
255
176
1
290
0
176
1
 90
50
176
1
 90
50
176
1
 90
50
176
1
290
0
176
1
 90
50
176
1
 62
256
176
0
 40
1.0
176
0
 90
2
176
1
  1
strokes_ogs.tif
176
1
290
0
176
1
 40
1.0
176
1
 40
1.0
176
1
  0
VISUALSTYLE
  5
64
102
{ACAD_REACTORS
330
16
102
}
330
16
100
AcDbVisualStyle
  2
Gouraud
 70
2
177
3
291
1
 70
58
 90
2
176
1
 90
2
176
1
 90
0
176
1
 90
2
176
1
 40
0.6
176
1
 40
30.0
176
1
 62
7
420
16777215
176
1
 90
1
176
1
 90
4
176
1
 62
7
176
1
 62
257
176
1
 90
1
176
1
 90
1
176
1
 40
1.0
176
1
 90
8
176
1
 62
7
176
1
 40
1.0
176
1
 90
1
176
1
 90
6
176
1
 90
2
176
1
 62
7
176
1
 90
5
176
1
 90
0
176
1
 90
0
176
1
290
0
176
1
 90
1
176
1
 40
0.0
176
1
 90
0
176
1
290
0
176
1
290
1
176
1
290
1
176
1
290
0
176
1
290
0
176
1
290
0
176
1
290
0
176
1
290
0
176
1
290
0
176
1
 90
50
176
1
 40
0.0
176
1
 40
1.0
176
1
 90
0
176
1
 62
18
420
0
176
1
 90
50
176
1
 90
3
176
1
 62
5
420
255
176
1
290
0
176
1
 90
50
176
1
 90
50
176
1
 90
50
176
1
290
0
176
1
 90
50
176
1
 62
256
176
0
 40
1.0
176
0
 90
2
176
1
  1
strokes_ogs.tif
176
1
290
0
176
1
 40
1.0
176
1
 40
1.0
176
1
  0
VISUALSTYLE
  5
65
102
{ACAD_REACTORS
330
16
102
}
330
16
100
AcDbVisualStyle
  2
GouraudWithEdges
 70
3
177
3
291
1
 70
58
 90
2
176
1
 90
2
176
1
 90
0
176
1
 90
2
176
1
 40
0.6
176
1
 40
30.0
176
1
 62
7
420
16777215
176
1
 90
1
176
1
 90
4
176
1
 62
7
176
1
 62
257
176
1
 90
1
176
1
 90
1
176
1
 40
1.0
176
1
 90
8
176
1
 62
7
176
1
 40
1.0
176
1
 90
1
176
1
 90
6
176
1
 90
2
176
1
 62
7
176
1
 90
5
176
1
 90
0
176
1
 90
0
176
1
290
0
176
1
 90
1
176
1
 40
0.0
176
1
 90
0
176
1
290
0
176
1
290
1
176
1
290
1
176
1
290
0
176
1
290
0
176
1
290
0
176
1
290
0
176
1
290
0
176
1
290
0
176
1
 90
50
176
1
 40
0.0
176
1
 40
1.0
176
1
 90
0
176
1
 62
18
420
0
176
1
 90
50
176
1
 90
3
176
1
 62
5
420
255
176
1
290
0
176
1
 90
50
176
1
 90
50
176
1
 90
50
176
1
290
0
176
1
 90
50
176
1
 62
256
176
0
 40
1.0
176
0
 90
2
176
1
  1
strokes_ogs.tif
176
1
290
0
176
1
 40
1.0
176
1
 40
1.0
176
1
  0
VISUALSTYLE
  5
66
102
{ACAD_REACTORS
330
16
102
}
330
16
100
AcDbVisualStyle
  2
Hidden
 70
6
177
3
291
0
 70
58
 90
2
176
1
 90
2
176
1
 90
0
176
1
 90
1
176
1
 40
0.6
176
1
 40
30.0
176
1
 62
7
420
16777215
176
1
 90
1
176
1
 90
4
176
1
 62
7
176
1
 62
257
176
1
 90
1
176
1
 90
1
176
1
 40
1.0
176
1
 90
8
176
1
 62
7
176
1
 40
1.0
176
1
 90
1
176
1
 90
6
176
1
 90
2
176
1
 62
7
176
1
 90
5
176
1
 90
0
176
1
 90
0
176
1
290
0
176
1
 90
1
176
1
 40
0.0
176
1
 90
0
176
1
290
0
176
1
290
1
176
1
290
1
176
1
290
0
176
1
290
0
176
1
290
0
176
1
290
0
176
1
290
0
176
1
290
0
176
1
 90
50
176
1
 40
0.0
176
1
 40
1.0
176
1
 90
0
176
1
 62
18
420
0
176
1
 90
50
176
1
 90
3
176
1
 62
5
420
255
176
1
290
0
176
1
 90
50
176
1
 90
50
176
1
 90
50
176
1
290
0
176
1
 90
50
176
1
 62
256
176
0
 40
1.0
176
0
 90
2
176
1
  1
strokes_ogs.tif
176
1
290
0
176
1
 40
1.0
176
1
 40
1.0
176
1
  0
VISUALSTYLE
  5
67
102
{ACAD_REACTORS
330
16
102
}
330
16
100
AcDbVisualStyle
  2
JitterOff
 70
20
177
3
291
1
 70
58
 90
2
176
1
 90
2
176
1
 90
0
176
1
 90
2
176
1
 40
0.6
176
1
 40
30.0
176
1
 62
7
420
16777215
176
1
 90
1
176
1
 90
4
176
1
 62
7
176
1
 62
257
176
1
 90
1
176
1
 90
1
176
1
 40
1.0
176
1
 90
8
176
1
 62
7
176
1
 40
1.0
176
1
 90
1
176
1
 90
6
176
1
 90
2
176
1
 62
7
176
1
 90
5
176
1
 90
0
176
1
 90
0
176
1
290
0
176
1
 90
1
176
1
 40
0.0
176
1
 90
0
176
1
290
0
176
1
290
1
176
1
290
1
176
1
290
0
176
1
290
0
176
1
290
0
176
1
290
0
176
1
290
0
176
1
290
0
176
1
 90
50
176
1
 40
0.0
176
1
 40
1.0
176
1
 90
0
176
1
 62
18
420
0
176
1
 90
50
176
1
 90
3
176
1
 62
5
420
255
176
1
290
0
176
1
 90
50
176
1
 90
50
176
1
 90
50
176
1
290
0
176
1
 90
50
176
1
 62
256
176
0
 40
1.0
176
0
 90
2
176
1
  1
strokes_ogs.tif
176
1
290
0
176
1
 40
1.0
176
1
 40
1.0
176
1
  0
VISUALSTYLE
  5
68
102
{ACAD_REACTORS
330
16
102
}
330
16
100
AcDbVisualStyle
  2
Linepattern
 70
14
177
3
291
1
 70
58
 90
2
176
1
 90
2
176
1
 90
0
176
1
 90
2
176
1
 40
0.6
176
1
 40
30.0
176
1
 62
7
420
16777215
176
1
 90
1
176
1
 90
4
176
1
 62
7
176
1
 62
257
176
1
 90
1
176
1
 90
1
176
1
 40
1.0
176
1
 90
8
176
1
 62
7
176
1
 40
1.0
176
1
 90
1
176
1
 90
6
176
1
 90
2
176
1
 62
7
176
1
 90
5
176
1
 90
0
176
1
 90
0
176
1
290
0
176
1
 90
1
176
1
 40
0.0
176
1
 90
0
176
1
290
0
176
1
290
1
176
1
290
1
176
1
290
0
176
1
290
0
176
1
290
0
176
1
290
0
176
1
290
0
176
1
290
0
176
1
 90
50
176
1
 40
0.0
176
1
 40
1.0
176
1
 90
0
176
1
 62
18
420
0
176
1
 90
50
176
1
 90
3
176
1
 62
5
420
255
176
1
290
0
176
1
 90
50
176
1
 90
50
176
1
 90
50
176
1
290
0
176
1
 90
50
176
1
 62
256
176
0
 40
1.0
176
0
 90
2
176
1
  1
strokes_ogs.tif
176
1
290
0
176
1
 40
1.0
176
1
 40
1.0
176
1
  0
VISUALSTYLE
  5
69
102
{ACAD_REACTORS
330
16
102
}
330
16
100
AcDbVisualStyle
  2
Modeling
 70
10
177
3
291
0
 70
58
 90
2
176
1
 90
2
176
1
 90
0
176
1
 90
2
176
1
 40
0.6
176
1
 40
30.0
176
1
 62
7
420
16777215
176
1
 90
1
176
1
 90
4
176
1
 62
7
176
1
 62
257
176
1
 90
1
176
1
 90
1
176
1
 40
1.0
176
1
 90
8
176
1
 62
7
176
1
 40
1.0
176
1
 90
1
176
1
 90
6
176
1
 90
2
176
1
 62
7
176
1
 90
5
176
1
 90
0
176
1
 90
0
176
1
290
0
176
1
 90
1
176
1
 40
0.0
176
1
 90
0
176
1
290
0
176
1
290
1
176
1
290
1
176
1
290
0
176
1
290
0
176
1
290
0
176
1
290
0
176
1
290
0
176
1
290
0
176
1
 90
50
176
1
 40
0.0
176
1
 40
1.0
176
1
 90
0
176
1
 62
18
420
0
176
1
 90
50
176
1
 90
3
176
1
 62
5
420
255
176
1
290
0
176
1
 90
50
176
1
 90
50
176
1
 90
50
176
1
290
0
176
1
 90
50
176
1
 62
256
176
0
 40
1.0
176
0
 90
2
176
1
  1
strokes_ogs.tif
176
1
290
0
176
1
 40
1.0
176
1
 40
1.0
176
1
  0
VISUALSTYLE
  5
6A
102
{ACAD_REACTORS
330
16
102
}
330
16
100
AcDbVisualStyle
  2
OverhangOff
 70
21
177
3
291
1
 70
58
 90
2
176
1
 90
2
176
1
 90
0
176
1
 90
2
176
1
 40
0.6
176
1
 40
30.0
176
1
 62
7
420
16777215
176
1
 90
1
176
1
 90
4
176
1
 62
7
176
1
 62
257
176
1
 90
1
176
1
 90
1
176
1
 40
1.0
176
1
 90
8
176
1
 62
7
176
1
 40
1.0
176
1
 90
1
176
1
 90
6
176
1
 90
2
176
1
 62
7
176
1
 90
5
176
1
 90
0
176
1
 90
0
176
1
290
0
176
1
 90
1
176
1
 40
0.0
176
1
 90
0
176
1
290
0
176
1
290
1
176
1
290
1
176
1
290
0
176
1
290
0
176
1
290
0
176
1
290
0
176
1
290
0
176
1
290
0
176
1
 90
50
176
1
 40
0.0
176
1
 40
1.0
176
1
 90
0
176
1
 62
18
420
0
176
1
 90
50
176
1
 90
3
176
1
 62
5
420
255
176
1
290
0
176
1
 90
50
176
1
 90
50
176
1
 90
50
176
1
290
0
176
1
 90
50
176
1
 62
256
176
0
 40
1.0
176
0
 90
2
176
1
  1
strokes_ogs.tif
176
1
290
0
176
1
 40
1.0
176
1
 40
1.0
176
1
  0
VISUALSTYLE
  5
6B
102
{ACAD_REACTORS
330
16
102
}
330
16
100
AcDbVisualStyle
  2
Realistic
 70
8
177
3
291
0
 70
58
 90
2
176
1
 90
2
176
1
 90
0
176
1
 90
2
176
1
 40
0.6
176
1
 40
30.0
176
1
 62
7
420
16777215
176
1
 90
1
176
1
 90
4
176
1
 62
7
176
1
 62
257
176
1
 90
1
176
1
 90
1
176
1
 40
1.0
176
1
 90
8
176
1
 62
7
176
1
 40
1.0
176
1
 90
1
176
1
 90
6
176
1
 90
2
176
1
 62
7
176
1
 90
5
176
1
 90
0
176
1
 90
0
176
1
290
0
176
1
 90
1
176
1
 40
0.0
176
1
 90
0
176
1
290
0
176
1
290
1
176
1
290
1
176
1
290
0
176
1
290
0
176
1
290
0
176
1
290
0
176
1
290
0
176
1
290
0
176
1
 90
50
176
1
 40
0.0
176
1
 40
1.0
176
1
 90
0
176
1
 62
18
420
0
176
1
 90
50
176
1
 90
3
176
1
 62
5
420
255
176
1
290
0
176
1
 90
50
176
1
 90
50
176
1
 90
50
176
1
290
0
176
1
 90
50
176
1
 62
256
176
0
 40
1.0
176
0
 90
2
176
1
  1
strokes_ogs.tif
176
1
290
0
176
1
 40
1.0
176
1
 40
1.0
176
1
  0
VISUALSTYLE
  5
6C
102
{ACAD_REACTORS
330
16
102
}
330
16
100
AcDbVisualStyle
  2
Shaded
 70
27
177
3
291
0
 70
58
 90
2
176
1
 90
2
176
1
 90
0
176
1
 90
2
176
1
 40
0.6
176
1
 40
30.0
176
1
 62
7
420
16777215
176
1
 90
1
176
1
 90
4
176
1
 62
7
176
1
 62
257
176
1
 90
1
176
1
 90
1
176
1
 40
1.0
176
1
 90
8
176
1
 62
7
176
1
 40
1.0
176
1
 90
1
176
1
 90
6
176
1
 90
2
176
1
 62
7
176
1
 90
5
176
1
 90
0
176
1
 90
0
176
1
290
0
176
1
 90
1
176
1
 40
0.0
176
1
 90
0
176
1
290
0
176
1
290
1
176
1
290
1
176
1
290
0
176
1
290
0
176
1
290
0
176
1
290
0
176
1
290
0
176
1
290
0
176
1
 90
50
176
1
 40
0.0
176
1
 40
1.0
176
1
 90
0
176
1
 62
18
420
0
176
1
 90
50
176
1
 90
3
176
1
 62
5
420
255
176
1
290
0
176
1
 90
50
176
1
 90
50
176
1
 90
50
176
1
290
0
176
1
 90
50
176
1
 62
256
176
0
 40
1.0
176
0
 90
2
176
1
  1
strokes_ogs.tif
176
1
290
0
176
1
 40
1.0
176
1
 40
1.0
176
1
  0
VISUALSTYLE
  5
6D
102
{ACAD_REACTORS
330
16
102
}
330
16
100
AcDbVisualStyle
  2
Shaded with edges
 70
26
177
3
291
0
 70
58
 90
2
176
1
 90
2
176
1
 90
0
176
1
 90
2
176
1
 40
0.6
176
1
 40
30.0
176
1
 62
7
420
16777215
176
1
 90
1
176
1
 90
4
176
1
 62
7
176
1
 62
257
176
1
 90
1
176
1
 90
1
176
1
 40
1.0
176
1
 90
8
176
1
 62
7
176
1
 40
1.0
176
1
 90
1
176
1
 90
6
176
1
 90
2
176
1
 62
7
176
1
 90
5
176
1
 90
0
176
1
 90
0
176
1
290
0
176
1
 90
1
176
1
 40
0.0
176
1
 90
0
176
1
290
0
176
1
290
1
176
1
290
1
176
1
290
0
176
1
290
0
176
1
290
0
176
1
290
0
176
1
290
0
176
1
290
0
176
1
 90
50
176
1
 40
0.0
176
1
 40
1.0
176
1
 90
0
176
1
 62
18
420
0
176
1
 90
50
176
1
 90
3
176
1
 62
5
420
255
176
1
290
0
176
1
 90
50
176
1
 90
50
176
1
 90
50
176
1
290
0
176
1
 90
50
176
1
 62
256
176
0
 40
1.0
176
0
 90
2
176
1
  1
strokes_ogs.tif
176
1
290
0
176
1
 40
1.0
176
1
 40
1.0
176
1
  0
VISUALSTYLE
  5
6E
102
{ACAD_REACTORS
330
16
102
}
330
16
100
AcDbVisualStyle
  2
Shades of Gray
 70
23
177
3
291
0
 70
58
 90
2
176
1
 90
2
176
1
 90
0
176
1
 90
2
176
1
 40
0.6
176
1
 40
30.0
176
1
 62
7
420
16777215
176
1
 90
1
176
1
 90
4
176
1
 62
7
176
1
 62
257
176
1
 90
1
176
1
 90
1
176
1
 40
1.0
176
1
 90
8
176
1
 62
7
176
1
 40
1.0
176
1
 90
1
176
1
 90
6
176
1
 90
2
176
1
 62
7
176
1
 90
5
176
1
 90
0
176
1
 90
0
176
1
290
0
176
1
 90
1
176
1
 40
0.0
176
1
 90
0
176
1
290
0
176
1
290
1
176
1
290
1
176
1
290
0
176
1
290
0
176
1
290
0
176
1
290
0
176
1
290
0
176
1
290
0
176
1
 90
50
176
1
 40
0.0
176
1
 40
1.0
176
1
 90
0
176
1
 62
18
420
0
176
1
 90
50
176
1
 90
3
176
1
 62
5
420
255
176
1
290
0
176
1
 90
50
176
1
 90
50
176
1
 90
50
176
1
290
0
176
1
 90
50
176
1
 62
256
176
0
 40
1.0
176
0
 90
2
176
1
  1
strokes_ogs.tif
176
1
290
0
176
1
 40
1.0
176
1
 40
1.0
176
1
  0
VISUALSTYLE
  5
6F
102
{ACAD_REACTORS
330
16
102
}
330
16
100
AcDbVisualStyle
  2
Sketchy
 70
24
177
3
291
0
 70
58
 90
2
176
1
 90
2
176
1
 90
0
176
1
 90
1
176
1
 40
0.6
176
1
 40
30.0
176
1
 62
7
420
16777215
176
1
 90
1
176
1
 90
4
176
1
 62
7
176
1
 62
257
176
1
 90
1
176
1
 90
1
176
1
 40
1.0
176
1
 90
8
176
1
 62
7
176
1
 40
1.0
176
1
 90
1
176
1
 90
6
176
1
 90
2
176
1
 62
7
176
1
 90
5
176
1
 90
0
176
1
 90
0
176
1
290
0
176
1
 90
1
176
1
 40
0.0
176
1
 90
0
176
1
290
0
176
1
290
1
176
1
290
1
176
1
290
0
176
1
290
0
176
1
290
0
176
1
290
0
176
1
290
0
176
1
290
0
176
1
 90
50
176
1
 40
0.0
176
1
 40
1.0
176
1
 90
0
176
1
 62
18
420
0
176
1
 90
50
176
1
 90
3
176
1
 62
5
420
255
176
1
290
0
176
1
 90
50
176
1
 90
50
176
1
 90
50
176
1
290
0
176
1
 90
50
176
1
 62
256
176
0
 40
1.0
176
0
 90
2
176
1
  1
strokes_ogs.tif
176
1
290
0
176
1
 40
1.0
176
1
 40
1.0
176
1
  0
VISUALSTYLE
  5
70
102
{ACAD_REACTORS
330
16
102
}
330
16
100
AcDbVisualStyle
  2
Thicken
 70
13
177
3
291
1
 70
58
 90
2
176
1
 90
2
176
1
 90
0
176
1
 90
2
176
1
 40
0.6
176
1
 40
30.0
176
1
 62
7
420
16777215
176
1
 90
1
176
1
 90
4
176
1
 62
7
176
1
 62
257
176
1
 90
1
176
1
 90
1
176
1
 40
1.0
176
1
 90
8
176
1
 62
7
176
1
 40
1.0
176
1
 90
1
176
1
 90
6
176
1
 90
2
176
1
 62
7
176
1
 90
5
176
1
 90
0
176
1
 90
0
176
1
290
0
176
1
 90
1
176
1
 40
0.0
176
1
 90
0
176
1
290
0
176
1
290
1
176
1
290
1
176
1
290
0
176
1
290
0
176
1
290
0
176
1
290
0
176
1
290
0
176
1
290
0
176
1
 90
50
176
1
 40
0.0
176
1
 40
1.0
176
1
 90
0
176
1
 62
18
420
0
176
1
 90
50
176
1
 90
3
176
1
 62
5
420
255
176
1
290
0
176
1
 90
50
176
1
 90
50
176
1
 90
50
176
1
290
0
176
1
 90
50
176
1
 62
256
176
0
 40
1.0
176
0
 90
2
176
1
  1
strokes_ogs.tif
176
1
290
0
176
1
 40
1.0
176
1
 40
1.0
176
1
  0
VISUALSTYLE
  5
71
102
{ACAD_REACTORS
330
16
102
}
330
16
100
AcDbVisualStyle
  2
Wireframe
 70
5
177
3
291
0
 70
58
 90
2
176
1
 90
2
176
1
 90
0
176
1
 90
0
176
1
 40
0.6
176
1
 40
30.0
176
1
 62
7
420
16777215
176
1
 90
1
176
1
 90
4
176
1
 62
7
176
1
 62
257
176
1
 90
1
176
1
 90
1
176
1
 40
1.0
176
1
 90
8
176
1
 62
7
176
1
 40
1.0
176
1
 90
1
176
1
 90
6
176
1
 90
2
176
1
 62
7
176
1
 90
5
176
1
 90
0
176
1
 90
0
176
1
290
0
176
1
 90
1
176
1
 40
0.0
176
1
 90
0
176
1
290
0
176
1
290
1
176
1
290
1
176
1
290
0
176
1
290
0
176
1
290
0
176
1
290
0
176
1
290
0
176
1
290
0
176
1
 90
50
176
1
 40
0.0
176
1
 40
1.0
176
1
 90
0
176
1
 62
18
420
0
176
1
 90
50
176
1
 90
3
176
1
 62
5
420
255
176
1
290
0
176
1
 90
50
176
1
 90
50
176
1
 90
50
176
1
290
0
176
1
 90
50
176
1
 62
256
176
0
 40
1.0
176
0
 90
2
176
1
  1
strokes_ogs.tif
176
1
290
0
176
1
 40
1.0
176
1
 40
1.0
176
1
  0
VISUALSTYLE
  5
72
102
{ACAD_REACTORS
330
16
102
}
330
16
100
AcDbVisualStyle
  2
X-Ray
 70
25
177
3
291
0
 70
58
 90
2
176
1
 90
2
176
1
 90
0
176
1
 90
2
176
1
 40
0.5
176
1
 40
30.0
176
1
 62
7
420
16777215
176
1
 90
1
176
1
 90
4
176
1
 62
7
176
1
 62
257
176
1
 90
1
176
1
 90
1
176
1
 40
1.0
176
1
 90
8
176
1
 62
7
176
1
 40
1.0
176
1
 90
1
176
1
 90
6
176
1
 90
2
176
1
 62
7
176
1
 90
5
176
1
 90
0
176
1
 90
0
176
1
290
0
176
1
 90
1
176
1
 40
0.0
176
1
 90
0
176
1
290
0
176
1
290
1
176
1
290
1
176
1
290
0
176
1
290
0
176
1
290
0
176
1
290
0
176
1
290
0
176
1
290
0
176
1
 90
50
176
1
 40
0.0
176
1
 40
1.0
176
1
 90
0
176
1
 62
18
420
0
176
1
 90
50
176
1
 90
3
176
1
 62
5
420
255
176
1
290
0
176
1
 90
50
176
1
 90
50
176
1
 90
50
176
1
290
0
176
1
 90
50
176
1
 62
256
176
0
 40
1.0
176
0
 90
2
176
1
  1
strokes_ogs.tif
176
1
290
0
176
1
 40
1.0
176
1
 40
1.0
176
1
  0
DICTIONARYVAR
  5
2FA
330
2D
100
DictionaryVariables
280
0
  1
1.4.3 @ 2026-05-06T23:05:11.217746+00:00
  0
ENDSEC
  0
EOF
